<svg xmlns="http://www.w3.org/2000/svg" width="38.574" height="38.574" viewBox="0 0 38.574 38.574">
  <g id="building-svgrepo-com_1_" data-name="building-svgrepo-com (1)" transform="translate(0 -4.851)">
    <g id="Group_1794" data-name="Group 1794" transform="translate(17.358 27.996)">
      <g id="Group_1793" data-name="Group 1793" transform="translate(0 0)">
        <path id="Path_1369" data-name="Path 1369" d="M243.9,307.2H232.329a1.929,1.929,0,0,0-1.929,1.929v1.929a1.929,1.929,0,0,0,1.929,1.929H243.9a1.929,1.929,0,0,0,1.929-1.929v-1.929A1.929,1.929,0,0,0,243.9,307.2Zm0,3.857H232.329v-1.929H243.9Z" transform="translate(-230.4 -307.2)" fill="#0face4"/>
      </g>
    </g>
    <g id="Group_1796" data-name="Group 1796" transform="translate(17.358 20.281)">
      <g id="Group_1795" data-name="Group 1795" transform="translate(0 0)">
        <path id="Path_1370" data-name="Path 1370" d="M243.9,204.8H232.329a1.929,1.929,0,0,0-1.929,1.929v1.929a1.929,1.929,0,0,0,1.929,1.929H243.9a1.929,1.929,0,0,0,1.929-1.929v-1.929A1.929,1.929,0,0,0,243.9,204.8Zm0,3.857H232.329v-1.929H243.9Z" transform="translate(-230.4 -204.8)" fill="#0face4"/>
      </g>
    </g>
    <g id="Group_1798" data-name="Group 1798" transform="translate(5.786 8.709)">
      <g id="Group_1797" data-name="Group 1797" transform="translate(0 0)">
        <path id="Path_1371" data-name="Path 1371" d="M81.622,51.2H77.764a.964.964,0,0,0-.964.964v3.857a.964.964,0,0,0,.964.964h3.857a.964.964,0,0,0,.964-.964V52.164A.964.964,0,0,0,81.622,51.2Zm-.964,3.857H78.729V53.129h1.929Z" transform="translate(-76.8 -51.2)" fill="#0face4"/>
      </g>
    </g>
    <g id="Group_1800" data-name="Group 1800" transform="translate(13.501 8.709)">
      <g id="Group_1799" data-name="Group 1799" transform="translate(0 0)">
        <path id="Path_1372" data-name="Path 1372" d="M184.022,51.2h-3.857a.964.964,0,0,0-.964.964v3.857a.964.964,0,0,0,.964.964h3.857a.964.964,0,0,0,.964-.964V52.164A.964.964,0,0,0,184.022,51.2Zm-.964,3.857h-1.929V53.129h1.929Z" transform="translate(-179.2 -51.2)" fill="#0face4"/>
      </g>
    </g>
    <g id="Group_1802" data-name="Group 1802" transform="translate(5.786 16.424)">
      <g id="Group_1801" data-name="Group 1801" transform="translate(0 0)">
        <path id="Path_1373" data-name="Path 1373" d="M81.622,153.6H77.764a.964.964,0,0,0-.964.964v3.857a.964.964,0,0,0,.964.964h3.857a.964.964,0,0,0,.964-.964v-3.857A.964.964,0,0,0,81.622,153.6Zm-.964,3.857H78.729v-1.929h1.929Z" transform="translate(-76.8 -153.6)" fill="#0face4"/>
      </g>
    </g>
    <g id="Group_1804" data-name="Group 1804" transform="translate(5.786 24.138)">
      <g id="Group_1803" data-name="Group 1803" transform="translate(0 0)">
        <path id="Path_1374" data-name="Path 1374" d="M81.622,256H77.764a.964.964,0,0,0-.964.964v3.857a.964.964,0,0,0,.964.964h3.857a.964.964,0,0,0,.964-.964v-3.857A.964.964,0,0,0,81.622,256Zm-.964,3.857H78.729v-1.929h1.929Z" transform="translate(-76.8 -256)" fill="#0face4"/>
      </g>
    </g>
    <g id="Group_1806" data-name="Group 1806" transform="translate(5.786 31.853)">
      <g id="Group_1805" data-name="Group 1805" transform="translate(0 0)">
        <path id="Path_1375" data-name="Path 1375" d="M81.622,358.4H77.764a.964.964,0,0,0-.964.964v3.857a.964.964,0,0,0,.964.964h3.857a.964.964,0,0,0,.964-.964v-3.857A.964.964,0,0,0,81.622,358.4Zm-.964,3.857H78.729v-1.929h1.929Z" transform="translate(-76.8 -358.4)" fill="#0face4"/>
      </g>
    </g>
    <g id="Group_1808" data-name="Group 1808" transform="translate(0 4.851)">
      <g id="Group_1807" data-name="Group 1807" transform="translate(0 0)">
        <path id="Path_1376" data-name="Path 1376" d="M37.61,36.645h-.964V13.5a1.929,1.929,0,0,0-1.929-1.929H15.43A1.929,1.929,0,0,0,13.5,13.5V36.645H3.857V1.929H21.216V9.643h1.929V1.929A1.929,1.929,0,0,0,21.216,0H3.857A1.929,1.929,0,0,0,1.929,1.929V36.645H.964a.964.964,0,0,0,0,1.929H37.61a.964.964,0,0,0,0-1.929Zm-14.465,0H19.287V32.788h3.857Zm7.715,0H28.93V32.788h1.929Zm3.857,0H32.788V32.788a1.929,1.929,0,0,0-1.929-1.929H28.93A1.929,1.929,0,0,0,27,32.788v3.857H25.073V32.788a1.929,1.929,0,0,0-1.929-1.929H19.287a1.929,1.929,0,0,0-1.929,1.929v3.857H15.43V13.5H34.716Z" transform="translate(0 0)" fill="#0face4"/>
      </g>
    </g>
  </g>
</svg>
