<svg xmlns="http://www.w3.org/2000/svg" xmlns:xlink="http://www.w3.org/1999/xlink" width="28.871" height="38.943" viewBox="0 0 28.871 38.943">
  <defs>
    <clipPath id="clip-path">
      <path id="Path_1335" data-name="Path 1335" d="M0,7.827H28.871V-31.116H0Z" transform="translate(0 31.116)" fill="#0face4"/>
    </clipPath>
  </defs>
  <g id="ico-sustentabilidade" clip-path="url(#clip-path)">
    <g id="Group_1722" data-name="Group 1722" transform="translate(-0.001 0)">
      <path id="Path_1334" data-name="Path 1334" d="M2.272,3a9.227,9.227,0,0,0-.438-1.653A8.48,8.48,0,0,0,.831-.5L.706-.376a4.638,4.638,0,0,1-5.34.763,6.161,6.161,0,0,1-2.6-2.844v-.02L-7.3-2.613h.011l-.011-.01A36.091,36.091,0,0,0-8.9-6.844.862.862,0,0,1-9.034-7.3a.885.885,0,0,1,.889-.876,13.278,13.278,0,0,0,2.591-.377c2.016-.428,3.877-.783,5.822.459A4.687,4.687,0,0,1,1.9-2.018,10.487,10.487,0,0,1,3.276.24a10.431,10.431,0,0,1,1.106-1.9A7.5,7.5,0,0,1,3.63-3.6,6.57,6.57,0,0,1,6.483-10.7c2.832-1.788,5.528-1.265,8.463-.628a20.6,20.6,0,0,0,4.012.574.888.888,0,0,1,.879.9.922.922,0,0,1-.136.459,21.69,21.69,0,0,0-1.483,3.742l-.011.03C17.286-2.782,16.4-.2,13.431,1.346A6.565,6.565,0,0,1,5.867.282c-.136-.126-.272-.262-.4-.4A8.3,8.3,0,0,0,4.279,3a11.953,11.953,0,0,1,7.513,3.478A12.045,12.045,0,1,1,2.272,3m7.806,5.944h0a10.7,10.7,0,0,1-2.539,1.41,10.7,10.7,0,0,1-3.375.795V14.1h8.159a9.041,9.041,0,0,0-2.244-5.153m2.244,6.929H4.164v2.946a11.087,11.087,0,0,1,3.375.793,11.967,11.967,0,0,1,2.539,1.4,8.976,8.976,0,0,0,2.244-5.14m-15.837,5.14h0a11.5,11.5,0,0,1,2.528-1.4A11.065,11.065,0,0,1,2.4,18.817V15.871H-5.772a9.049,9.049,0,0,0,2.258,5.14M-5.772,14.1H2.4V11.148a10.68,10.68,0,0,1-3.383-.795,11,11,0,0,1-2.528-1.41A9.115,9.115,0,0,0-5.772,14.1M8.749,7.723h0A9.034,9.034,0,0,0,4.164,5.945V9.383a10.3,10.3,0,0,0,2.727-.648A10.386,10.386,0,0,0,8.749,7.723M2.4,5.945h0A8.876,8.876,0,0,0-2.2,7.723,11.724,11.724,0,0,0-.34,8.735,10.258,10.258,0,0,0,2.4,9.383Zm-4.6,16.3h0a9.118,9.118,0,0,0,4.6,1.787V20.583a9.855,9.855,0,0,0-2.736.658,9.477,9.477,0,0,0-1.86,1m6.363,1.787h0a9.079,9.079,0,0,0,4.586-1.787,9.159,9.159,0,0,0-1.859-1,9.891,9.891,0,0,0-2.727-.658ZM.057-2.331h0V-2.34l.011-.011.009-.023.011-.019H.1v-.021l.064-.1A2.973,2.973,0,0,0-.675-6.614H-.684c-1.454-.92-2.979-.543-4.5-.23-.543.126-1.076.239-1.63.313.428,1.055.688,2.175,1.138,3.218l.054.126A4.2,4.2,0,0,0-3.819-1.181,2.936,2.936,0,0,0,.057-2.331M6.64-1.6h0l-.064.074c.168.188.335.364.513.532A4.82,4.82,0,0,0,12.625-.2c2.415-1.275,3.145-3.606,3.91-5.956l.011-.041a28.625,28.625,0,0,1,1.033-2.865c-1-.124-1.995-.333-3-.552-2.433-.512-4.826-1.056-7.168.408A4.806,4.806,0,0,0,5.345-4a4.512,4.512,0,0,0,.314.919,10.143,10.143,0,0,1,6.977-2.758.875.875,0,0,1,.877.877.893.893,0,0,1-.877.9,8.5,8.5,0,0,0-6,2.467" transform="translate(9.034 11.923)" fill="#0face4"/>
    </g>
  </g>
</svg>
