<svg xmlns="http://www.w3.org/2000/svg" xmlns:xlink="http://www.w3.org/1999/xlink" width="51.378" height="51.362" viewBox="0 0 51.378 51.362">
  <defs>
    <clipPath id="clip-path">
      <path id="Path_1299" data-name="Path 1299" d="M0,8.855H51.378V-42.507H0Z" transform="translate(0 42.507)" fill="none"/>
    </clipPath>
  </defs>
  <g id="ico-fotovoltaica" clip-path="url(#clip-path)">
    <g id="Group_1654" data-name="Group 1654" transform="translate(15.264 6.019)">
      <path id="Path_1295" data-name="Path 1295" d="M1.107,0H.3A2.009,2.009,0,0,0-1.7,2.006v1.2h-.4a3.21,3.21,0,0,0-2.269.94,3.21,3.21,0,0,0-.94,2.269V34.508a3.213,3.213,0,0,0,.94,2.27,3.21,3.21,0,0,0,2.269.94H7.254a2.374,2.374,0,0,1-.122-.91c.016-.228.041-.462.071-.695H-2.1a1.609,1.609,0,0,1-1.135-.471,1.611,1.611,0,0,1-.471-1.135V6.42a1.609,1.609,0,0,1,.471-1.133A1.606,1.606,0,0,1-2.1,4.815H12.343a1.609,1.609,0,0,1,1.6,1.6V28.073a13.467,13.467,0,0,1,1.6-.336V6.421a3.21,3.21,0,0,0-3.209-3.211h-.4v-1.2A2.009,2.009,0,0,0,9.935,0h-.8A2.007,2.007,0,0,0,7.127,2.007v1.2H3.114v-1.2A2.009,2.009,0,0,0,1.107,0Zm.4,3.211H-.1v-1.2a.4.4,0,0,1,.4-.4h.8a.4.4,0,0,1,.4.4Zm7.223-1.2a.4.4,0,0,1,.4-.4h.8a.4.4,0,0,1,.4.4v1.2h-1.6Z" transform="translate(5.313)" fill="#0face4"/>
    </g>
    <g id="Group_1655" data-name="Group 1655" transform="translate(0 0)">
      <path id="Path_1296" data-name="Path 1296" d="M4.43,0a25.681,25.681,0,1,0,6.831,50.433c-.162-.068-.324-.134-.483-.209h0a2.391,2.391,0,0,1-1.1-1.05A24.092,24.092,0,1,1,27.621,32.132a2.207,2.207,0,0,1,1.452.756A25.667,25.667,0,0,0,4.43,0Z" transform="translate(21.267 0)" fill="#0face4"/>
    </g>
    <g id="Group_1656" data-name="Group 1656" transform="translate(29.307 33.706)">
      <path id="Path_1297" data-name="Path 1297" d="M3.354,0a.8.8,0,0,0-.909.414C1.244,2.778-.9,2.526-3.571,1.953c-.463-.1-.9-.193-1.3-.249a12.771,12.771,0,0,0-6.545.5c-3.175,1.095-4.5,4.337-4.685,7.006h0a.8.8,0,0,0,.521.806c.308.115,7.6,2.772,11.709-1.454a.806.806,0,0,0,.23-.572.8.8,0,0,0-.243-.567A.8.8,0,0,0-4.455,7.2a.8.8,0,0,0-.564.245C-7.8,10.306-12.741,9.2-14.43,8.7c.288-2.012,1.336-4.218,3.542-4.978a11.058,11.058,0,0,1,5.8-.43c.337.047.747.134,1.179.227,1.637.352,4.09.878,6.009-.341C1.566,6.485-.069,12.2-5.026,13.9c-.016,0-.03.011-.045.017h0a9.4,9.4,0,0,1-6.945-.33.8.8,0,0,0-1.065.391.8.8,0,0,0,.39,1.065,10.746,10.746,0,0,0,4.54.993,10.586,10.586,0,0,0,3.665-.625C3.674,12.6,3.962.914,3.963.8h0A.8.8,0,0,0,3.354,0Z" transform="translate(16.101 0.019)" fill="#0face4"/>
    </g>
    <g id="Group_1657" data-name="Group 1657" transform="translate(20.882 14.846)">
      <path id="Path_1298" data-name="Path 1298" d="M1.382,3.837l1.6-13.643a1.6,1.6,0,0,0-.308-1.148,1.605,1.605,0,0,0-1.013-.621A1.6,1.6,0,0,0,.5-11.328L-2.233-9.505l-1.21-7.563a1.609,1.609,0,0,0-.544-.968,1.608,1.608,0,0,0-1.04-.384c-.042,0-.086,0-.128,0a1.613,1.613,0,0,0-1.052.511,1.61,1.61,0,0,0-.425,1.09V-3.172a1.6,1.6,0,0,0,.4,1.067,1.605,1.605,0,0,0,1.013.528,1.611,1.611,0,0,0,1.108-.279l1.724-1.208.57,6.848h0a1.613,1.613,0,0,0,.5,1.039A1.606,1.606,0,0,0-.24,5.255h.028A1.6,1.6,0,0,0,.855,4.849,1.6,1.6,0,0,0,1.382,3.837ZM-.212,3.65l-.8-9.63L-5.027-3.171V-16.814l1.6,10.031L1.392-9.993Z" transform="translate(6.632 18.42)" fill="#0face4"/>
    </g>
  </g>
</svg>
