<svg xmlns="http://www.w3.org/2000/svg" xmlns:xlink="http://www.w3.org/1999/xlink" width="33.04" height="33.04" viewBox="0 0 33.04 33.04">
  <defs>
    <clipPath id="clip-path">
      <path id="Path_1345" data-name="Path 1345" d="M0-4.8H33.04V-37.84H0Z" transform="translate(0 37.84)" fill="none"/>
    </clipPath>
  </defs>
  <g id="ico-frota" clip-path="url(#clip-path)">
    <g id="Group_1726" data-name="Group 1726" transform="translate(9.361 21.477)">
      <path id="Path_1336" data-name="Path 1336" d="M-.08-.16H8.73a.552.552,0,0,0,.551-.551.551.551,0,0,0-.551-.55H-.08a.551.551,0,0,0-.551.55A.551.551,0,0,0-.08-.16" transform="translate(0.631 1.261)" fill="#0face4"/>
    </g>
    <g id="Group_1727" data-name="Group 1727" transform="translate(9.361 23.679)">
      <path id="Path_1337" data-name="Path 1337" d="M-.08-.16H8.73a.551.551,0,0,0,.551-.551.551.551,0,0,0-.551-.55H-.08a.551.551,0,0,0-.551.55A.551.551,0,0,0-.08-.16" transform="translate(0.631 1.261)" fill="#0face4"/>
    </g>
    <g id="Group_1728" data-name="Group 1728" transform="translate(3.855 20.926)">
      <path id="Path_1338" data-name="Path 1338" d="M-.32-.64a2.205,2.205,0,0,0,2.2-2.2,2.2,2.2,0,0,0-2.2-2.2,2.2,2.2,0,0,0-2.2,2.2A2.205,2.205,0,0,0-.32-.64m0-3.3a1.1,1.1,0,0,1,1.1,1.1,1.1,1.1,0,0,1-1.1,1.1,1.1,1.1,0,0,1-1.1-1.1,1.1,1.1,0,0,1,1.1-1.1" transform="translate(2.523 5.045)" fill="#0face4"/>
    </g>
    <g id="Group_1729" data-name="Group 1729" transform="translate(20.374 20.926)">
      <path id="Path_1339" data-name="Path 1339" d="M-.32-.64a2.205,2.205,0,0,0,2.2-2.2,2.2,2.2,0,0,0-2.2-2.2,2.2,2.2,0,0,0-2.2,2.2A2.205,2.205,0,0,0-.32-.64m0-3.3a1.1,1.1,0,0,1,1.1,1.1,1.1,1.1,0,0,1-1.1,1.1,1.1,1.1,0,0,1-1.1-1.1,1.1,1.1,0,0,1,1.1-1.1" transform="translate(2.523 5.045)" fill="#0face4"/>
    </g>
    <g id="Group_1730" data-name="Group 1730" transform="translate(0 0.001)">
      <path id="Path_1340" data-name="Path 1340" d="M-4.8-.88A3.859,3.859,0,0,0-8.655-4.735H-21.376a2.758,2.758,0,0,0-2.7-2.2h-2.2a.551.551,0,0,0-.551.55v.551h-2.2a.551.551,0,0,0-.551.551.551.551,0,0,0,.551.55h2.2v1.1h-2.2a.551.551,0,0,0-.551.55.551.551,0,0,0,.551.551h2.2v.551a.551.551,0,0,0,.551.55h2.2a2.758,2.758,0,0,0,2.7-2.2H-8.655A2.757,2.757,0,0,1-5.9-.883v14.32a2.757,2.757,0,0,1-2.754,2.754h-2.2v-2.2a2.206,2.206,0,0,0-2.2-2.2V10.133h.543a2.213,2.213,0,0,0,2.21-2.21V6.837a2.213,2.213,0,0,0-2.21-2.211h-.543v-2.2A2.756,2.756,0,0,0-15.813-.329H-31.231a2.757,2.757,0,0,0-2.754,2.743V4.626h-.543a2.213,2.213,0,0,0-2.21,2.211V7.923a2.213,2.213,0,0,0,2.21,2.21h.543v1.652a2.206,2.206,0,0,0-2.2,2.2v5.505a1.654,1.654,0,0,0-1.652,1.652A1.654,1.654,0,0,0-36.188,22.8h1.1v1.1a2.2,2.2,0,0,0,2.2,2.2h2.2a2.2,2.2,0,0,0,2.2-2.2V22.8h9.912v1.1a2.2,2.2,0,0,0,2.2,2.2h2.2a2.2,2.2,0,0,0,2.2-2.2V22.8h1.1a1.653,1.653,0,0,0,1.652-1.652,1.653,1.653,0,0,0-1.651-1.652v-2.2h2.2A3.859,3.859,0,0,0-4.8,13.437V-.88M-24.074-2.532h-1.651v-3.3h1.651a1.654,1.654,0,0,1,1.652,1.652,1.654,1.654,0,0,1-1.652,1.652M-33.985,9.032h-.543a1.11,1.11,0,0,1-1.109-1.109V6.837a1.11,1.11,0,0,1,1.109-1.109h.543Zm1.1.553V2.975h18.722v8.81H-32.884Zm20.367-3.857a1.11,1.11,0,0,1,1.109,1.109V7.923a1.11,1.11,0,0,1-1.109,1.109h-.543v-3.3ZM-31.232.772h15.418a1.655,1.655,0,0,1,1.558,1.1H-32.79a1.655,1.655,0,0,1,1.558-1.1m-2.752,12.115H-13.06a1.1,1.1,0,0,1,1.1,1.1v2.752h0v2.753H-35.086V13.989a1.1,1.1,0,0,1,1.1-1.1m4.4,11.013a1.1,1.1,0,0,1-1.1,1.1h-2.2a1.1,1.1,0,0,1-1.1-1.1V22.8h4.405Zm16.52,0a1.1,1.1,0,0,1-1.1,1.1h-2.2a1.1,1.1,0,0,1-1.1-1.1V22.8h4.406Zm2.753-2.754a.552.552,0,0,1-.551.551h-25.33a.551.551,0,0,1-.55-.551.551.551,0,0,1,.55-.55h25.33a.551.551,0,0,1,.551.55" transform="translate(37.84 6.937)" fill="#0face4"/>
    </g>
    <g id="Group_1731" data-name="Group 1731" transform="translate(6.057 11.564)">
      <path id="Path_1341" data-name="Path 1341" d="M-.137-.3l1.1-1.1a.55.55,0,0,0,0-.779.549.549,0,0,0-.778,0l-1.1,1.1a.551.551,0,0,0,0,.779.549.549,0,0,0,.389.162A.55.55,0,0,0-.137-.3" transform="translate(1.076 2.338)" fill="#0face4"/>
    </g>
    <g id="Group_1732" data-name="Group 1732" transform="translate(6.608 13.767)">
      <path id="Path_1342" data-name="Path 1342" d="M0,0Z" fill="#0face4"/>
    </g>
    <g id="Group_1733" data-name="Group 1733" transform="translate(7.158 15.97)">
      <path id="Path_1343" data-name="Path 1343" d="M0,0Z" fill="#0face4"/>
    </g>
    <g id="Group_1734" data-name="Group 1734" transform="translate(6.608 11.564)">
      <path id="Path_1344" data-name="Path 1344" d="M-.5-.023l-3.3,3.3a.551.551,0,0,0,0,.779.549.549,0,0,0,.389.162.55.55,0,0,0,.389-.162l3.3-3.3a.551.551,0,0,0,0-.779.55.55,0,0,0-.779,0" transform="translate(3.969 0.185)" fill="#0face4"/>
    </g>
  </g>
</svg>
