<svg xmlns="http://www.w3.org/2000/svg" xmlns:xlink="http://www.w3.org/1999/xlink" width="42" height="45.36" viewBox="0 0 42 45.36">
  <defs>
    <clipPath id="clip-path">
      <path id="Path_99" data-name="Path 99" d="M0-6.684H42v-45.36H0Z" transform="translate(0 52.044)" fill="#fff"/>
    </clipPath>
  </defs>
  <g id="ico-mudancas" clip-path="url(#clip-path)">
    <g id="Group_175" data-name="Group 175" transform="translate(0 0)">
      <path id="Path_98" data-name="Path 98" d="M0-3.342A10.932,10.932,0,0,0,3.2,4.376a10.932,10.932,0,0,0,7.718,3.2h9.24V17.658h-4.2a.84.84,0,1,0,0,1.68H26.04a.84.84,0,1,0,0-1.68h-4.2V7.578h9.24A10.917,10.917,0,0,0,40.245,2.6a10.915,10.915,0,0,0,.8-10.4,10.914,10.914,0,0,0-8.291-6.324c0-.046.005-.094.005-.14a11.759,11.759,0,0,0-5.88-10.184,11.761,11.761,0,0,0-11.76,0A11.758,11.758,0,0,0,9.24-14.262c0,.046,0,.094.005.14a10.982,10.982,0,0,0-6.6,3.695A10.982,10.982,0,0,0,0-3.342Zm10.181-9.209a.737.737,0,0,0,.162-.047.8.8,0,0,0,.15-.043.885.885,0,0,0,.129-.1.445.445,0,0,0,.207-.239.8.8,0,0,0,.078-.139.9.9,0,0,0,.025-.18.8.8,0,0,0,.021-.143c-.017-.268-.032-.554-.032-.823a10.079,10.079,0,0,1,5.04-8.73,10.079,10.079,0,0,1,10.08,0,10.079,10.079,0,0,1,5.04,8.73c0,.268-.016.554-.032.823a.879.879,0,0,0,.02.144.825.825,0,0,0,.025.179.772.772,0,0,0,.078.139.448.448,0,0,0,.207.24.834.834,0,0,0,.128.1.906.906,0,0,0,.149.043.892.892,0,0,0,.163.047,9.24,9.24,0,0,1,7.493,5.025,9.241,9.241,0,0,1-.361,9.014A9.239,9.239,0,0,1,31.08,5.9H21.84V.366l6.474-6.474h0a.839.839,0,0,0-.01-1.177.84.84,0,0,0-1.177-.01L21.84-2.009v-9.733a.84.84,0,0,0-.839-.84.84.84,0,0,0-.84.84v9.777l-5.3-5.127h0a.839.839,0,0,0-1.188.019A.84.84,0,0,0,13.7-5.885L20.16.374V5.9H10.92A9.238,9.238,0,0,1,3.044,1.49a9.238,9.238,0,0,1-.361-9.018A9.236,9.236,0,0,1,10.181-12.551Z" transform="translate(0 26.021)" fill="#fff"/>
    </g>
  </g>
</svg>
