<svg xmlns="http://www.w3.org/2000/svg" xmlns:xlink="http://www.w3.org/1999/xlink" width="54.108" height="54.108" viewBox="0 0 54.108 54.108">
  <defs>
    <clipPath id="clip-path">
      <path id="Path_1289" data-name="Path 1289" d="M0,19.85H54.108V-34.258H0Z" transform="translate(0 34.258)" fill="none"/>
    </clipPath>
  </defs>
  <g id="ico-reducao" clip-path="url(#clip-path)">
    <g id="Group_1640" data-name="Group 1640" transform="translate(0.191 0.192)">
      <path id="Path_1287" data-name="Path 1287" d="M15.993,4.533a1.021,1.021,0,0,0-.788-.412l-.022-.006H.258V-6.83a.992.992,0,0,0-.54-.883.991.991,0,0,0-1.031.074L-15.244,2.311a1.058,1.058,0,0,0-.412.79l0,.019V18.045H-26.606a1,1,0,0,0-.884.539,1,1,0,0,0,.076,1.033l9.949,13.931a1.089,1.089,0,0,0,.81.417H-1.732V44.908a1,1,0,0,0,.54.884.994.994,0,0,0,1.033-.074l13.929-9.95a1.032,1.032,0,0,0,.417-.809V20.035H25.131a1,1,0,0,0,.81-1.573ZM12.617,6.1,4.006,13.969h0A6.919,6.919,0,0,0,.258,12.176V6.1ZM-.737,24.014a4.981,4.981,0,0,1-3.519-1.456A4.98,4.98,0,0,1-5.712,19.04a4.981,4.981,0,0,1,1.456-3.519A4.981,4.981,0,0,1-.737,14.065a4.98,4.98,0,0,1,3.517,1.456A4.981,4.981,0,0,1,4.237,19.04a4.984,4.984,0,0,1-1.458,3.516A4.984,4.984,0,0,1-.737,24.014m-1-11.839a6.894,6.894,0,0,0-2.514.883l-8.93-9.78L-1.732-4.9Zm-11.941-6.49L-5.808,14.3A6.908,6.908,0,0,0-7.6,18.043h-6.071ZM-7.6,20.035a6.857,6.857,0,0,0,.883,2.513l-9.78,8.93-8.174-11.443Zm-6.49,11.939,8.611-7.864A6.914,6.914,0,0,0-1.732,25.9v6.07ZM.257,25.9a6.854,6.854,0,0,0,2.513-.881L11.7,34.8.257,42.975ZM12.2,32.394,4.333,23.783a6.921,6.921,0,0,0,1.794-3.748H12.2ZM6.127,18.045a6.886,6.886,0,0,0-.883-2.513L15.024,6.6,23.2,18.045Z" transform="translate(27.6 7.823)" fill="#0face4"/>
    </g>
    <g id="Group_1641" data-name="Group 1641" transform="translate(0.191 0.192)">
      <path id="Path_1288" data-name="Path 1288" d="M15.993,4.533a1.021,1.021,0,0,0-.788-.412l-.022-.006H.258V-6.83a.992.992,0,0,0-.54-.883.991.991,0,0,0-1.031.074L-15.244,2.311a1.058,1.058,0,0,0-.412.79l0,.019V18.045H-26.606a1,1,0,0,0-.884.539,1,1,0,0,0,.076,1.033l9.949,13.931a1.089,1.089,0,0,0,.81.417H-1.732V44.908a1,1,0,0,0,.54.884.994.994,0,0,0,1.033-.074l13.929-9.95a1.032,1.032,0,0,0,.417-.809V20.035H25.131a1,1,0,0,0,.81-1.573ZM12.617,6.1,4.006,13.969h0A6.919,6.919,0,0,0,.258,12.176V6.1ZM-.737,24.014a4.981,4.981,0,0,1-3.519-1.456A4.98,4.98,0,0,1-5.712,19.04a4.981,4.981,0,0,1,1.456-3.519A4.981,4.981,0,0,1-.737,14.065a4.98,4.98,0,0,1,3.517,1.456A4.981,4.981,0,0,1,4.237,19.04a4.984,4.984,0,0,1-1.458,3.516A4.984,4.984,0,0,1-.737,24.014Zm-1-11.839a6.894,6.894,0,0,0-2.514.883l-8.93-9.78L-1.732-4.9Zm-11.941-6.49L-5.808,14.3A6.908,6.908,0,0,0-7.6,18.043h-6.071ZM-7.6,20.035a6.857,6.857,0,0,0,.883,2.513l-9.78,8.93-8.174-11.443Zm-6.49,11.939,8.611-7.864A6.914,6.914,0,0,0-1.732,25.9v6.07ZM.257,25.9a6.854,6.854,0,0,0,2.513-.881L11.7,34.8.257,42.975ZM12.2,32.394,4.333,23.783a6.921,6.921,0,0,0,1.794-3.748H12.2ZM6.127,18.045a6.886,6.886,0,0,0-.883-2.513L15.024,6.6,23.2,18.045Z" transform="translate(27.6 7.823)" fill="none" stroke="#0face4" stroke-width="0.242"/>
    </g>
  </g>
</svg>
