<svg xmlns="http://www.w3.org/2000/svg" xmlns:xlink="http://www.w3.org/1999/xlink" width="44.791" height="44.793" viewBox="0 0 44.791 44.793">
  <defs>
    <clipPath id="clip-path">
      <path id="Path_1319" data-name="Path 1319" d="M0-.207H44.791V-45H0Z" transform="translate(0 45)" fill="none"/>
    </clipPath>
  </defs>
  <g id="ico-mudancasclimaticas" clip-path="url(#clip-path)">
    <g id="Group_1697" data-name="Group 1697" transform="translate(0.159 0.164)">
      <path id="Path_1317" data-name="Path 1317" d="M-.119,0A.527.527,0,0,0-.507.194L-3.755,4.149a1.588,1.588,0,0,0-.421.743.524.524,0,0,0,.129.308l3.8,4.342a.539.539,0,0,0,.758.083.538.538,0,0,0,.019-.76L-2.656,5.231A17.046,17.046,0,0,1,13.2,19.568a.517.517,0,1,0,1.018-.161A18.093,18.093,0,0,0-2.446,4.2L.3.856A.545.545,0,0,0-.119,0ZM-6.488,4.359a18.113,18.113,0,0,0-15.226,16.58l-3.33-2.906a.521.521,0,0,0-.372-.129.546.546,0,0,0-.307.9l3.96,3.471c.138.118.415.473.631.468a.527.527,0,0,0,.42-.129l4.348-3.552a.536.536,0,0,0,.089-.747.538.538,0,0,0-.752-.045l-3.669,3.019A17.068,17.068,0,0,1-6.326,5.376a.538.538,0,0,0,.473-.6A.541.541,0,0,0-6.488,4.359ZM13.862,21.7a1.84,1.84,0,0,0-.243.016.508.508,0,0,0-.21.1L9.062,25.073a.518.518,0,1,0,.63.823l3.7-2.777A17.041,17.041,0,0,1-.993,39.071a.538.538,0,0,0-.472.6.539.539,0,0,0,.634.421A18.075,18.075,0,0,0,14.4,23.507l3.33,2.906a.517.517,0,1,0,.679-.774l-3.96-3.456a1.507,1.507,0,0,0-.582-.484ZM-21.116,24.46a.535.535,0,0,0-.42.6A18.11,18.11,0,0,0-4.953,40.265l-2.894,3.327a.537.537,0,0,0,.019.759.54.54,0,0,0,.758-.082l3.459-3.956c.208-.2.475-.489.468-.646a.521.521,0,0,0-.112-.4l-3.557-4.343a.53.53,0,0,0-.518-.194.545.545,0,0,0-.291.84L-4.6,39.249A17.073,17.073,0,0,1-20.52,24.9a.537.537,0,0,0-.6-.436Z" transform="translate(25.868)" fill="#0face4"/>
    </g>
    <g id="Group_1698" data-name="Group 1698" transform="translate(0.159 0.164)">
      <path id="Path_1318" data-name="Path 1318" d="M-.119,0A.527.527,0,0,0-.507.194L-3.755,4.149a1.588,1.588,0,0,0-.421.743.524.524,0,0,0,.129.308l3.8,4.342a.539.539,0,0,0,.758.083.538.538,0,0,0,.019-.76L-2.656,5.231A17.046,17.046,0,0,1,13.2,19.568a.517.517,0,1,0,1.018-.161A18.093,18.093,0,0,0-2.446,4.2L.3.856A.545.545,0,0,0-.119,0ZM-6.488,4.359a18.113,18.113,0,0,0-15.226,16.58l-3.33-2.906a.521.521,0,0,0-.372-.129.546.546,0,0,0-.307.9l3.96,3.471c.138.118.415.473.631.468a.527.527,0,0,0,.42-.129l4.348-3.552a.536.536,0,0,0,.089-.747.538.538,0,0,0-.752-.045l-3.669,3.019A17.068,17.068,0,0,1-6.326,5.376a.538.538,0,0,0,.473-.6.541.541,0,0,0-.634-.421ZM13.862,21.7a1.84,1.84,0,0,0-.243.016.508.508,0,0,0-.21.1L9.062,25.073a.518.518,0,1,0,.63.823l3.7-2.777A17.041,17.041,0,0,1-.993,39.071a.538.538,0,0,0-.472.6.539.539,0,0,0,.634.421A18.075,18.075,0,0,0,14.4,23.507l3.33,2.906a.517.517,0,1,0,.679-.774l-3.96-3.456a1.507,1.507,0,0,0-.582-.484ZM-21.116,24.46a.535.535,0,0,0-.42.6A18.11,18.11,0,0,0-4.953,40.265l-2.894,3.327a.537.537,0,0,0,.019.759.54.54,0,0,0,.758-.082l3.459-3.956c.208-.2.475-.489.468-.646a.521.521,0,0,0-.112-.4l-3.557-4.343a.53.53,0,0,0-.518-.194.545.545,0,0,0-.291.84L-4.6,39.249A17.073,17.073,0,0,1-20.52,24.9a.537.537,0,0,0-.6-.436Z" transform="translate(25.868)" fill="none" stroke="#0face4" stroke-width="1"/>
    </g>
  </g>
</svg>
