<svg xmlns="http://www.w3.org/2000/svg" xmlns:xlink="http://www.w3.org/1999/xlink" width="35.584" height="36.897" viewBox="0 0 35.584 36.897">
  <defs>
    <clipPath id="clip-path">
      <path id="Path_1333" data-name="Path 1333" d="M0,4.431H35.584v-36.9H0Z" transform="translate(0 32.466)" fill="#0face4"/>
    </clipPath>
  </defs>
  <g id="ico-segurancapessoas" clip-path="url(#clip-path)">
    <g id="Group_1718" data-name="Group 1718" transform="translate(0 0)">
      <path id="Path_1332" data-name="Path 1332" d="M1.567,0a10.06,10.06,0,0,1,9.9,8.477A7.973,7.973,0,0,1,21.8,16.088a7.976,7.976,0,0,1-2.155,5.447l1.9,1.893a8.649,8.649,0,0,1,1.9,2.822h.006A8.772,8.772,0,0,1,24.1,29.6v2.36a3.12,3.12,0,0,1-.565,1.79,2.425,2.425,0,0,1-1.708,1.038c-.057,0-.114.006-.17.006v0H19.829v.646A1.465,1.465,0,0,1,18.364,36.9H-4.41A1.464,1.464,0,0,1-5.873,35.44V34.132H-8.732a1.56,1.56,0,0,1-.306-.032,2.72,2.72,0,0,1-1.794-1.151,3.652,3.652,0,0,1-.648-2.085v-3.1a11.091,11.091,0,0,1,.808-4.219,11.071,11.071,0,0,1,2.413-3.558l.077-.068,2.734-2.743-.067-.068V17.1h0a9.977,9.977,0,0,1-2.938-7.076A10.055,10.055,0,0,1,1.567,0m15.32,33.976h0V29.281a.877.877,0,0,1,1.754,0v2.588h2.538V29.6a5.678,5.678,0,0,0-.422-2.221v-.015a5.978,5.978,0,0,0-1.276-1.873l-2.2-2.2a8.154,8.154,0,0,1-3.28.783,11.1,11.1,0,0,1,.611,3.695v3.1a3.7,3.7,0,0,1-.648,2.085,2.788,2.788,0,0,1-1.327,1.027ZM11.459,11.627h0l-.014.088-.01.051-.006.026-.006.02-.088.42-.006.042v.011l-.01.035-.01.047A10.211,10.211,0,0,1,8.648,17.1H8.642v.006l-.006.007-.061.061,2.806,2.812h.011a10.881,10.881,0,0,1,.8.9,4.768,4.768,0,0,0,.623.161v.006a5.109,5.109,0,0,0,1.007.093,5.009,5.009,0,0,0,3.564-1.479H17.4a5.065,5.065,0,0,0-3.573-8.633,5.206,5.206,0,0,0-1.525.239,4.729,4.729,0,0,0-.842.353M-4.71,31.211h0V27.346a.88.88,0,0,1,.882-.877.874.874,0,0,1,.871.877v5.187l.01.135v1.308H6.081v-6.63a.876.876,0,1,1,1.752,0v3.865h3.782a.771.771,0,0,0,.073-.348v-3.1a7.97,7.97,0,0,0-.591-3.1h0l0,0a7.652,7.652,0,0,0-.934-1.635l-.026-.036-.006,0-.015-.022-.015-.02a9.98,9.98,0,0,0-.778-.888v-.009L6.189,18.911a9.952,9.952,0,0,1-4.622,1.135,9.952,9.952,0,0,1-4.629-1.135l-3.064,3.076-.064.066a8.076,8.076,0,0,0-1.785,2.606,8.1,8.1,0,0,0-.58,3.107v3.1a.773.773,0,0,0,.067.348ZM1.567,2.926h0a7.12,7.12,0,0,0-7.1,7.1,7.1,7.1,0,1,0,7.1-7.1" transform="translate(11.48)" fill="#0face4"/>
    </g>
  </g>
</svg>
