<svg xmlns="http://www.w3.org/2000/svg" width="32.788" height="46.17" viewBox="0 0 32.788 46.17">
  <g id="ico-globe" transform="translate(-52.1)">
    <g id="XMLID_980_" transform="translate(57.25 4.7)">
      <path id="XMLID_981_" d="M106.019,64.238h-.09a13.818,13.818,0,1,1,13.909-13.819,13.667,13.667,0,0,1-.09,1.618,13.82,13.82,0,0,1-13.729,12.2Zm0-25.069a11.257,11.257,0,0,0-.064,22.514h.051a11.248,11.248,0,0,0,11.173-9.928,11.422,11.422,0,0,0,.077-1.323,11.271,11.271,0,0,0-5.034-9.388A11.079,11.079,0,0,0,106.019,39.169Z" transform="translate(-92.2 -36.6)" fill="#0face4"/>
    </g>
    <g id="XMLID_984_" transform="translate(52.1)">
      <path id="XMLID_985_" d="M70.619,37.039A18.519,18.519,0,0,1,70.619,0V2.569a15.951,15.951,0,0,0,0,31.9A15.8,15.8,0,0,0,81.9,29.8l1.811,1.811A18.3,18.3,0,0,1,70.619,37.039Z" transform="translate(-52.1)" fill="#0face4"/>
    </g>
    <g id="XMLID_986_" transform="translate(61.822 35.755)">
      <g id="XMLID_987_" transform="translate(7.577)">
        <rect id="XMLID_988_" width="2.569" height="9.144" fill="#0face4"/>
      </g>
      <g id="XMLID_989_" transform="translate(0 7.847)">
        <rect id="XMLID_990_" width="17.723" height="2.569" fill="#0face4"/>
      </g>
    </g>
    <path id="XMLID_993_" d="M160.151,51.79a5.194,5.194,0,0,1-3.365-1.837c-.488-.527-2.068-2.389-1.939-4.367a4.125,4.125,0,0,0-.013-.976,2.509,2.509,0,0,1-.552-.334c-.437-.372-.616-.9-.822-2.389-.128-.925-.218-2.029-.283-2.787l-.077-.95.886-.347a12.845,12.845,0,0,1,12.727,1.323l.527.347.051.629c.193,2.517-.462,4.238-1.952,5.1-1.156.668-1.618,1.9-2.106,3.2a8.84,8.84,0,0,1-1.323,2.594A2.274,2.274,0,0,1,160.151,51.79Zm0-2.569v0Zm-4.007-6.832c1.027.565,1.387,1.528,1.259,3.365a4.018,4.018,0,0,0,1.246,2.44,3.411,3.411,0,0,0,1.387,1,8.184,8.184,0,0,0,.8-1.734,7.864,7.864,0,0,1,3.211-4.508c.565-.321.706-1.207.706-2.068a11.17,11.17,0,0,0-5.664-1.657,10.22,10.22,0,0,0-3.262.591C155.951,41.208,156.067,41.991,156.144,42.389Z" transform="translate(-88.029 -31.987)" fill="#0face4"/>
    <path id="XMLID_999_" d="M124.816,179.693h-1.169a13.8,13.8,0,0,1-10.454-4.855l-.694-.809.681-.835c2.158-2.646,4.058-3.994,5.664-3.994a2.655,2.655,0,0,1,2.016.912,17.139,17.139,0,0,1,2.209,3.249,8.766,8.766,0,0,0,.552.925,1.579,1.579,0,0,1,.86.488c.552.6.668,1.593.462,3.763Zm-8.926-5.741a11.156,11.156,0,0,0,6.563,3.082v-.424a4.678,4.678,0,0,1-1.631-2.016,14.627,14.627,0,0,0-1.888-2.787c-.051-.051-.051-.051-.1-.051C118.343,171.756,117.252,172.449,115.891,173.952Z" transform="translate(-52.643 -147.47)" fill="#0face4"/>
    <path id="XMLID_1004_" d="M235.168,153.177l-.681-.141c-2.8-.578-4.688-2.607-4.688-5.034,0-2.864,2.877-5.2,6.421-5.2a6.706,6.706,0,0,1,2.479.45l.963.347-.116,1.015a13.839,13.839,0,0,1-3.879,8.078Zm1.053-7.808c-2.093,0-3.853,1.207-3.853,2.633a2.672,2.672,0,0,0,1.965,2.337,11.431,11.431,0,0,0,2.479-4.932A4.417,4.417,0,0,0,236.221,145.369Z" transform="translate(-154.878 -124.46)" fill="#0face4"/>
  </g>
</svg>
