<svg xmlns="http://www.w3.org/2000/svg" xmlns:xlink="http://www.w3.org/1999/xlink" width="42.811" height="19.274" viewBox="0 0 42.811 19.274">
  <defs>
    <clipPath id="clip-path">
      <path id="Path_1331" data-name="Path 1331" d="M0-6.363H42.811V-25.637H0Z" transform="translate(0 25.637)" fill="#0face4"/>
    </clipPath>
  </defs>
  <g id="ico-valorizacao" clip-path="url(#clip-path)">
    <g id="Group_1713" data-name="Group 1713" transform="translate(0.376 0.376)">
      <path id="Path_1329" data-name="Path 1329" d="M-12.438-3.578A5.889,5.889,0,0,0-9.8-7.7a5.888,5.888,0,0,0-1.38-4.692,5.89,5.89,0,0,0-4.449-2.03,5.889,5.889,0,0,0-4.448,2.03A5.891,5.891,0,0,0-21.458-7.7a5.89,5.89,0,0,0,2.64,4.117,7.584,7.584,0,0,0-3.54,3.446A7.579,7.579,0,0,0-25.9-3.578,5.89,5.89,0,0,0-23.259-7.7a5.891,5.891,0,0,0-1.381-4.692,5.89,5.89,0,0,0-4.448-2.03,5.89,5.89,0,0,0-4.449,2.03A5.888,5.888,0,0,0-34.918-7.7a5.889,5.889,0,0,0,2.639,4.117A7.579,7.579,0,0,0-35.816-.137a7.578,7.578,0,0,0-3.54-3.443A5.888,5.888,0,0,0-36.719-7.7,5.891,5.891,0,0,0-38.1-12.389a5.892,5.892,0,0,0-4.45-2.028A5.888,5.888,0,0,0-47-12.385a5.887,5.887,0,0,0-1.379,4.692,5.886,5.886,0,0,0,2.641,4.116A7.559,7.559,0,0,0-48.923-.794a7.566,7.566,0,0,0-1.193,4.058.841.841,0,0,0,.841.841.841.841,0,0,0,.841-.841A5.886,5.886,0,0,1-46.717-.9a5.886,5.886,0,0,1,4.159-1.733A5.884,5.884,0,0,1-38.391-.92a5.886,5.886,0,0,1,1.733,4.16l0,.024a.842.842,0,0,0,.247.6.838.838,0,0,0,.595.246h0a.841.841,0,0,0,.6-.246.845.845,0,0,0,.246-.6l0-.024a5.889,5.889,0,0,1,2.963-5.069,5.889,5.889,0,0,1,5.871.012A5.888,5.888,0,0,1-23.2,3.263a.841.841,0,0,0,.841.841.841.841,0,0,0,.841-.841,5.889,5.889,0,0,1,2.944-5.1,5.89,5.89,0,0,1,5.889,0,5.888,5.888,0,0,1,2.945,5.1A.841.841,0,0,0-8.9,4.1a.841.841,0,0,0,.841-.841A7.565,7.565,0,0,0-9.25-.8,7.559,7.559,0,0,0-12.438-3.578ZM-46.755-8.515a4.207,4.207,0,0,1,1.231-2.974,4.21,4.21,0,0,1,2.975-1.232,4.206,4.206,0,0,1,2.974,1.232,4.208,4.208,0,0,1,1.232,2.974A4.21,4.21,0,0,1-39.575-5.54a4.206,4.206,0,0,1-2.974,1.231,4.21,4.21,0,0,1-2.973-1.233,4.209,4.209,0,0,1-1.233-2.973m13.46,0a4.207,4.207,0,0,1,1.231-2.974,4.21,4.21,0,0,1,2.975-1.232,4.206,4.206,0,0,1,2.974,1.232,4.208,4.208,0,0,1,1.232,2.974A4.21,4.21,0,0,1-26.114-5.54a4.206,4.206,0,0,1-2.974,1.231,4.21,4.21,0,0,1-2.973-1.233,4.209,4.209,0,0,1-1.233-2.973m13.46,0A4.207,4.207,0,0,1-18.6-11.489a4.21,4.21,0,0,1,2.975-1.232,4.208,4.208,0,0,1,2.974,1.232,4.208,4.208,0,0,1,1.232,2.974A4.21,4.21,0,0,1-12.654-5.54a4.207,4.207,0,0,1-2.974,1.231A4.21,4.21,0,0,1-18.6-5.541a4.209,4.209,0,0,1-1.233-2.973" transform="translate(50.116 14.417)" fill="#0face4"/>
    </g>
    <g id="Group_1714" data-name="Group 1714" transform="translate(0.376 0.376)">
      <path id="Path_1330" data-name="Path 1330" d="M-12.438-3.578A5.889,5.889,0,0,0-9.8-7.7a5.888,5.888,0,0,0-1.38-4.692,5.89,5.89,0,0,0-4.449-2.03,5.889,5.889,0,0,0-4.448,2.03A5.891,5.891,0,0,0-21.458-7.7a5.89,5.89,0,0,0,2.64,4.117,7.584,7.584,0,0,0-3.54,3.446A7.579,7.579,0,0,0-25.9-3.578,5.89,5.89,0,0,0-23.259-7.7a5.891,5.891,0,0,0-1.381-4.692,5.89,5.89,0,0,0-4.448-2.03,5.89,5.89,0,0,0-4.449,2.03A5.888,5.888,0,0,0-34.918-7.7a5.889,5.889,0,0,0,2.639,4.117A7.579,7.579,0,0,0-35.816-.137a7.578,7.578,0,0,0-3.54-3.443A5.888,5.888,0,0,0-36.719-7.7,5.891,5.891,0,0,0-38.1-12.389a5.892,5.892,0,0,0-4.45-2.028A5.888,5.888,0,0,0-47-12.385a5.887,5.887,0,0,0-1.379,4.692,5.886,5.886,0,0,0,2.641,4.116A7.559,7.559,0,0,0-48.923-.794a7.566,7.566,0,0,0-1.193,4.058.841.841,0,0,0,.841.841.841.841,0,0,0,.841-.841A5.886,5.886,0,0,1-46.717-.9a5.886,5.886,0,0,1,4.159-1.733A5.884,5.884,0,0,1-38.391-.92a5.886,5.886,0,0,1,1.733,4.16l0,.024a.842.842,0,0,0,.247.6.838.838,0,0,0,.595.246h0a.841.841,0,0,0,.6-.246.845.845,0,0,0,.246-.6l0-.024a5.889,5.889,0,0,1,2.963-5.069,5.889,5.889,0,0,1,5.871.012A5.888,5.888,0,0,1-23.2,3.263a.841.841,0,0,0,.841.841.841.841,0,0,0,.841-.841,5.889,5.889,0,0,1,2.944-5.1,5.89,5.89,0,0,1,5.889,0,5.888,5.888,0,0,1,2.945,5.1A.841.841,0,0,0-8.9,4.1a.841.841,0,0,0,.841-.841A7.565,7.565,0,0,0-9.25-.8a7.559,7.559,0,0,0-3.188-2.782ZM-46.755-8.515a4.207,4.207,0,0,1,1.231-2.974,4.21,4.21,0,0,1,2.975-1.232,4.206,4.206,0,0,1,2.974,1.232,4.208,4.208,0,0,1,1.232,2.974A4.21,4.21,0,0,1-39.575-5.54a4.206,4.206,0,0,1-2.974,1.231,4.21,4.21,0,0,1-2.973-1.233A4.209,4.209,0,0,1-46.755-8.515Zm13.46,0a4.207,4.207,0,0,1,1.231-2.974,4.21,4.21,0,0,1,2.975-1.232,4.206,4.206,0,0,1,2.974,1.232,4.208,4.208,0,0,1,1.232,2.974A4.21,4.21,0,0,1-26.114-5.54a4.206,4.206,0,0,1-2.974,1.231,4.21,4.21,0,0,1-2.973-1.233A4.209,4.209,0,0,1-33.295-8.515Zm13.46,0A4.207,4.207,0,0,1-18.6-11.489a4.21,4.21,0,0,1,2.975-1.232,4.208,4.208,0,0,1,2.974,1.232,4.208,4.208,0,0,1,1.232,2.974A4.21,4.21,0,0,1-12.654-5.54a4.207,4.207,0,0,1-2.974,1.231A4.21,4.21,0,0,1-18.6-5.541,4.209,4.209,0,0,1-19.834-8.515Z" transform="translate(50.116 14.417)" fill="#0face4"/>
    </g>
  </g>
</svg>
