<svg width="66" height="66" viewBox="0 0 66 66" fill="none" xmlns="http://www.w3.org/2000/svg">
<path d="M28.1 7.70007H27.0001C26.4001 7.70007 25.7001 7.90007 25.2001 8.40007C24.8001 8.90007 24.5001 9.50007 24.5001 10.2001V11.7001H24.0001C22.9001 11.7001 21.9 12.2001 21.1 12.9001C20.4 13.7001 19.9001 14.7001 19.9001 15.8001V51.3001C19.9001 52.4001 20.4 53.4001 21.1 54.2001C21.9 54.9001 22.9001 55.4001 24.0001 55.4001H35.8C35.7 55.0001 35.6001 54.6001 35.7001 54.2001C35.7001 53.9001 35.7 53.6001 35.8 53.3001H24.0001C23.5001 53.3001 22.9 53.1001 22.6 52.7001C22.2 52.4001 22.0001 51.8001 22.0001 51.3001V15.8001C22.0001 15.3001 22.2 14.7001 22.6 14.4001C22.9 14.0001 23.5001 13.8001 24.0001 13.8001H42.3C42.8 13.8001 43.3001 14.0001 43.7001 14.4001C44.1001 14.7001 44.3 15.3001 44.3 15.8001V43.2001C45 43.0001 45.6 42.8001 46.3 42.7001V15.8001C46.3 14.7001 45.9 13.7001 45.1 12.9001C44.4 12.2001 43.3 11.7001 42.3 11.7001H41.8V10.2001C41.8 9.50007 41.5001 8.90007 41.0001 8.40007C40.5001 7.90007 39.9001 7.70007 39.2001 7.70007H38.2001C37.5001 7.70007 36.9001 7.90007 36.4001 8.40007C35.9001 8.90007 35.7001 9.50007 35.7001 10.2001V11.7001H30.6V10.2001C30.6 9.50007 30.3 8.90007 29.8 8.40007C29.4 7.90007 28.7 7.70007 28.1 7.70007V7.70007ZM28.6 11.7001H26.5001V10.2001C26.5001 9.90007 26.8001 9.70007 27.0001 9.70007H28.1C28.2 9.70007 28.3001 9.80007 28.4001 9.90007C28.5001 9.90007 28.6 10.1001 28.6 10.2001V11.7001ZM37.7001 10.2001C37.7001 9.90007 37.9001 9.70007 38.2001 9.70007H39.2001C39.4001 9.70007 39.5 9.80007 39.6 9.90007C39.7 9.90007 39.7001 10.1001 39.7001 10.2001V11.7001H37.7001V10.2001Z" fill="white"/>
<path d="M33.1 0.100098C26.9 0.100098 20.9 1.80009 15.6 5.20009C10.4 8.50009 6.30005 13.3001 3.60005 18.9001C1.00005 24.5001 0.100097 30.7001 0.900097 36.9001C1.8001 43.0001 4.30006 48.8001 8.30006 53.5001C12.4001 58.3001 17.6 61.7001 23.6 63.6001C29.5 65.4001 35.8001 65.5001 41.8001 63.8001C41.6001 63.7001 41.4001 63.7001 41.2001 63.6001C40.6001 63.3001 40.1001 62.8001 39.8001 62.2001C33.3001 63.7001 26.5001 63.0001 20.4001 60.2001C14.3001 57.4001 9.40008 52.7001 6.20008 46.8001C3.10008 41.0001 2.00007 34.2001 3.00007 27.6001C4.10007 21.1001 7.30005 15.0001 12.1 10.4001C17 5.80009 23.2001 3.00009 29.8001 2.20009C36.4001 1.50009 43.1001 3.00009 48.8001 6.40009C54.5001 9.80009 58.9001 15.1001 61.4001 21.2001C63.9001 27.4001 64.2001 34.3001 62.5001 40.7001C63.2001 40.8001 63.8001 41.1001 64.3001 41.6001C66.2001 35.2001 66.0001 28.3001 63.8001 21.9001C61.6001 15.5001 57.5001 10.0001 52.0001 6.1001C46.5001 2.2001 39.9 0.100098 33.1 0.100098Z" fill="white"/>
<path d="M62.3 42.7C61.8 42.6 61.4 42.8 61.1 43.2C59.6 46.2 56.9001 45.9 53.5001 45.2C53.0001 45 52.4001 44.9 51.9001 44.9C49.0001 44.5 46.7 44.4 43.6 45.5C39.6 46.9 37.9001 51 37.7001 54.4C37.7001 54.8 37.9001 55.2 38.4001 55.4C38.7001 55.5 48.0001 58.9 53.2001 53.5C53.3001 53.3 53.5001 53.1 53.4001 52.8C53.4001 52.5 53.3 52.3001 53.1 52.1001C52.9 51.9001 52.7001 51.8 52.4001 51.8C52.1001 51.8 51.9001 51.9001 51.7001 52.1001C48.2001 55.7001 41.9 54.3 39.8 53.7C40.2 51.2 41.5 48.4 44.3 47.4C47 46.5 48.9 46.5 51.6 46.9C52 46.9 52.6 47 53.1 47.2C55.2 47.6 58.3001 48.3 60.7001 46.7C60.0001 50.9 58.0001 58.1001 51.7001 60.3001H51.6C48.8 61.3001 45.6001 61.1 42.9001 59.9C42.4001 59.6 41.7001 59.9 41.5001 60.4C41.3001 60.9 41.5001 61.5 42.0001 61.7C43.8001 62.6 45.8001 63 47.7001 63C49.3001 63 50.9001 62.7 52.4001 62.2C62.7001 58.6 63.1 43.9 63.1 43.7C63.1 43.2 62.8 42.8 62.3 42.7V42.7Z" fill="white"/>
<path d="M37.2001 47L39.2001 29.7C39.3001 29.2 39.1 28.7 38.8 28.3C38.5 27.9 38.0001 27.6 37.5001 27.5C37.0001 27.4 36.5 27.5 36.1 27.8L32.6 30.1001L31.1 20.5C31 20.1 30.8001 19.6 30.4001 19.3C30.0001 19 29.6 18.8 29.1 18.8C29.0334 18.8 28.9668 18.8 28.9001 18.8C28.4001 18.9 27.9 19.1 27.6 19.5C27.2 19.9 27.0001 20.4 27.0001 20.9V38.1001C27.0001 38.6001 27.2 39.1 27.6 39.5C27.9 39.8 28.3 40.1001 28.8 40.1001C29.3 40.2001 29.8001 40.1 30.2001 39.8L32.4001 38.2L33.1 46.9C33.2 47.4 33.4 47.9 33.8 48.2C34.1 48.6 34.6 48.8 35.1 48.8H35.2001C35.7001 48.8 36.1001 48.6 36.5001 48.3C36.9001 47.9 37.1001 47.5 37.2001 47V47ZM35.2001 46.7L34.1 34.6001L29.1 38.1001V20.9L31.1 33.5L37.2001 29.5L35.2001 46.7Z" fill="white"/>
</svg>
