<svg width="66" height="66" viewBox="0 0 66 66" fill="none" xmlns="http://www.w3.org/2000/svg">
<path d="M33.1001 0.800049C24.5001 0.800049 16.2001 4.20005 10.1001 10.3C4.0001 16.4 0.600098 24.7 0.600098 33.3C0.600098 41.9 4.0001 50.2001 10.1001 56.2001C16.2001 62.3001 24.5001 65.8 33.1001 65.8C41.7001 65.8 50.0001 62.3001 56.1001 56.2001C62.2001 50.2001 65.6001 41.9 65.6001 33.3C65.6001 24.7 62.1001 16.4 56.1001 10.3C50.0001 4.20005 41.7001 0.800049 33.1001 0.800049ZM33.1001 63.4001C25.1001 63.4001 17.5001 60.2001 11.8001 54.5001C6.2001 48.9001 3.0001 41.3 3.0001 33.3C3.0001 25.3 6.2001 17.7001 11.8001 12.0001C17.5001 6.40006 25.1001 3.20007 33.1001 3.20007C41.1001 3.20007 48.7001 6.40006 54.4001 12.0001C60.0001 17.7001 63.2001 25.3 63.2001 33.3C63.2001 41.3 60.0001 48.9001 54.4001 54.5001C48.7001 60.2001 41.1001 63.3001 33.1001 63.4001Z" fill="white"/>
<path d="M30.7001 20.0001H35.5001C36.5001 20.0001 37.4001 20.4 38.1001 21.1C38.7001 21.8 39.1001 22.7001 39.1001 23.7001C39.1001 24.3001 39.7001 24.9001 40.3001 24.9001C41.0001 24.9001 41.5001 24.3001 41.5001 23.7001C41.5001 22.1001 40.9001 20.5001 39.8001 19.4001C38.6001 18.3001 37.1001 17.6 35.5001 17.6H34.3001V14.0001C34.3001 13.4001 33.8001 12.8 33.1001 12.8C32.4001 12.8 31.9001 13.4001 31.9001 14.0001V17.6H30.7001C29.1001 17.6 27.6001 18.3001 26.4001 19.4001C25.3001 20.5001 24.7001 22.1001 24.7001 23.7001V28.5001C24.7001 30.1001 25.3001 31.6001 26.4001 32.7001C27.6001 33.8001 29.1001 34.5001 30.7001 34.5001H35.5001C36.5001 34.5001 37.4001 34.9001 38.1001 35.5001C38.7001 36.2001 39.1001 37.1 39.1001 38.1V42.9001C39.1001 43.9001 38.7001 44.8001 38.1001 45.5001C37.4001 46.1001 36.5001 46.5001 35.5001 46.5001H30.7001C29.7001 46.5001 28.8001 46.1001 28.1001 45.5001C27.5001 44.8001 27.1001 43.9001 27.1001 42.9001C27.1001 42.2001 26.5001 41.7001 25.9001 41.7001C25.2001 41.7001 24.7001 42.2001 24.7001 42.9001C24.7001 44.5001 25.3001 46.0001 26.4001 47.2001C27.6001 48.3001 29.1001 48.9001 30.7001 48.9001H31.9001V52.5001C31.9001 53.2001 32.4001 53.7001 33.1001 53.7001C33.8001 53.7001 34.3001 53.2001 34.3001 52.5001V48.9001H35.5001C37.1001 48.9001 38.6001 48.3001 39.8001 47.2001C40.9001 46.0001 41.5001 44.5001 41.5001 42.9001V38.1C41.5001 36.5 40.9001 35 39.8001 33.8C38.6001 32.7 37.1001 32.1 35.5001 32.1H30.7001C29.7001 32.1 28.8001 31.7001 28.1001 31.0001C27.5001 30.3001 27.1001 29.4001 27.1001 28.5001V23.7001C27.1001 22.7001 27.5001 21.8 28.1001 21.1C28.8001 20.4 29.7001 20.0001 30.7001 20.0001V20.0001Z" fill="white"/>
</svg>
