<svg width="62" height="58" viewBox="0 0 62 58" fill="none" xmlns="http://www.w3.org/2000/svg">
<path d="M60.8 0.300049H1.50003C0.90003 0.300049 0.400024 0.700049 0.400024 1.30005V56.9C0.400024 57.2 0.500043 57.5 0.700043 57.7C0.900043 57.9 1.20003 58 1.50003 58H60.8C61.1 58 61.4 57.9 61.6 57.7C61.8 57.5 61.9 57.2 61.9 56.9V1.30005C61.9 1.00005 61.8 0.800052 61.6 0.600052C61.4 0.400052 61.1 0.300049 60.8 0.300049ZM59.7 13.1001H2.70004V2.40004H59.7V13.1001V13.1001ZM2.70004 15.2H59.7V55.9H2.70004V15.2V15.2Z" fill="white"/>
<path d="M10.1001 7.70015C10.1001 8.80015 9.2001 9.60016 8.1001 9.60016C7.0001 9.60016 6.1001 8.80015 6.1001 7.70015C6.1001 6.70015 7.0001 5.90015 8.1001 5.90015C9.2001 5.90015 10.1001 6.70015 10.1001 7.70015Z" fill="white"/>
<path d="M16.1001 7.70015C16.1001 8.80015 15.2001 9.60016 14.1001 9.60016C13.0001 9.60016 12.1001 8.80015 12.1001 7.70015C12.1001 6.70015 13.0001 5.90015 14.1001 5.90015C15.2001 5.90015 16.1001 6.70015 16.1001 7.70015Z" fill="white"/>
<path d="M22.1001 7.70015C22.1001 8.80015 21.2001 9.60016 20.1001 9.60016C19.0001 9.60016 18.1001 8.80015 18.1001 7.70015C18.1001 6.70015 19.0001 5.90015 20.1001 5.90015C21.2001 5.90015 22.1001 6.70015 22.1001 7.70015Z" fill="white"/>
<path d="M44.8 30.2001H39.1V27.0001C39.1 24.3001 37.6 21.8001 35.2 20.5001C32.7 19.2001 29.6 19.2001 27.2 20.5001C24.7 21.8001 23.2 24.3001 23.2 27.0001V30.2001H17.5C16.9 30.2001 16.4 30.7001 16.4 31.3001V50.5001C16.4 50.8001 16.5 51.1001 16.7 51.3001C16.9 51.5001 17.2 51.6002 17.5 51.6002H44.8C45.1 51.6002 45.4 51.5001 45.6 51.3001C45.9 51.1001 46 50.8001 46 50.5001V31.3001C46 31.0001 45.9 30.7001 45.6 30.5001C45.4 30.3001 45.1 30.2001 44.8 30.2001V30.2001ZM25.5 27.0001C25.5 25.1001 26.6 23.3001 28.3 22.4001C30.1 21.4001 32.3 21.4001 34 22.4001C35.8 23.3001 36.9 25.1001 36.9 27.0001V30.2001H25.5V27.0001ZM43.7 49.4001H18.6V32.3001H43.7V49.4001V49.4001Z" fill="white"/>
<path d="M31.2001 35.5001C30.1001 35.5001 29.1 36.0001 28.4 36.9001C27.8 37.7001 27.6 38.7001 27.9 39.7001C28.2 40.7001 29 41.5001 30.1 41.8001C30 41.8001 30 41.9001 30 42.0001V44.1001C30 44.7001 30.5001 45.2001 31.2001 45.2001C31.8001 45.2001 32.3 44.7001 32.3 44.1001V42.0001C32.3 41.9001 32.3 41.8001 32.3 41.8001C33.3 41.5001 34.1 40.7001 34.4 39.7001C34.8 38.7001 34.6 37.7001 33.9 36.9001C33.3 36.0001 32.3001 35.5001 31.2001 35.5001Z" fill="white"/>
</svg>
