<svg xmlns="http://www.w3.org/2000/svg" xmlns:xlink="http://www.w3.org/1999/xlink" width="42" height="29.643" viewBox="0 0 42 29.643">
  <defs>
    <clipPath id="clip-path">
      <path id="Path_121" data-name="Path 121" d="M0-9.7H42V-39.341H0Z" transform="translate(0 39.341)" fill="#fff"/>
    </clipPath>
  </defs>
  <g id="ico-focotransparencia" clip-path="url(#clip-path)">
    <g id="Group_192" data-name="Group 192" transform="translate(0.148 0.148)">
      <path id="Path_115" data-name="Path 115" d="M-12.885,0H-49.954a2.322,2.322,0,0,0-1.638.679,2.322,2.322,0,0,0-.679,1.638V27.029a2.322,2.322,0,0,0,.679,1.638,2.322,2.322,0,0,0,1.638.679h37.069a2.32,2.32,0,0,0,1.637-.679,2.323,2.323,0,0,0,.68-1.638V2.317a2.323,2.323,0,0,0-.68-1.638A2.32,2.32,0,0,0-12.885,0M-44.548,1.545h7.723v10.14L-40.259,9.4a.775.775,0,0,0-.856,0l-3.434,2.288Zm32.436,25.485a.773.773,0,0,1-.772.772H-49.954a.772.772,0,0,1-.772-.772V2.317a.772.772,0,0,1,.772-.772h3.861V13.129a.772.772,0,0,0,.408.68.774.774,0,0,0,.793-.038l4.205-2.8,4.205,2.8a.772.772,0,0,0,.428.13.766.766,0,0,0,.364-.093.77.77,0,0,0,.408-.68V1.545h22.4a.773.773,0,0,1,.772.772Z" transform="translate(52.271)" fill="#fff"/>
    </g>
    <g id="Group_193" data-name="Group 193" transform="translate(0.148 0.148)">
      <path id="Path_116" data-name="Path 116" d="M-12.885,0H-49.954a2.322,2.322,0,0,0-1.638.679,2.322,2.322,0,0,0-.679,1.638V27.029a2.322,2.322,0,0,0,.679,1.638,2.322,2.322,0,0,0,1.638.679h37.069a2.32,2.32,0,0,0,1.637-.679,2.323,2.323,0,0,0,.68-1.638V2.317a2.323,2.323,0,0,0-.68-1.638A2.32,2.32,0,0,0-12.885,0ZM-44.548,1.545h7.723v10.14L-40.259,9.4a.775.775,0,0,0-.856,0l-3.434,2.288Zm32.436,25.485a.773.773,0,0,1-.772.772H-49.954a.772.772,0,0,1-.772-.772V2.317a.772.772,0,0,1,.772-.772h3.861V13.129a.772.772,0,0,0,.408.68.774.774,0,0,0,.793-.038l4.205-2.8,4.205,2.8a.772.772,0,0,0,.428.13.766.766,0,0,0,.364-.093.77.77,0,0,0,.408-.68V1.545h22.4a.773.773,0,0,1,.772.772Z" transform="translate(52.271)" fill="#fff"/>
    </g>
    <g id="Group_194" data-name="Group 194" transform="translate(6.327 18.683)">
      <path id="Path_117" data-name="Path 117" d="M-9.348,0h-27.8a.772.772,0,0,0-.772.772.772.772,0,0,0,.772.772h27.8A.772.772,0,0,0-8.575.772.772.772,0,0,0-9.348,0" transform="translate(37.922 0)" fill="#fff"/>
    </g>
    <g id="Group_195" data-name="Group 195" transform="translate(6.327 18.683)">
      <path id="Path_118" data-name="Path 118" d="M-9.348,0h-27.8a.772.772,0,0,0-.772.772.772.772,0,0,0,.772.772h27.8A.772.772,0,0,0-8.575.772.772.772,0,0,0-9.348,0Z" transform="translate(37.922 0)" fill="#fff"/>
    </g>
    <g id="Group_196" data-name="Group 196" transform="translate(21.772 9.416)">
      <path id="Path_119" data-name="Path 119" d="M-.253-.505H10.559a.772.772,0,0,0,.772-.772.772.772,0,0,0-.772-.772H-.253a.772.772,0,0,0-.772.772.772.772,0,0,0,.772.772" transform="translate(1.025 2.05)" fill="#fff"/>
    </g>
    <g id="Group_197" data-name="Group 197" transform="translate(21.772 9.416)">
      <path id="Path_120" data-name="Path 120" d="M-.253-.505H10.559a.772.772,0,0,0,.772-.772.772.772,0,0,0-.772-.772H-.253a.772.772,0,0,0-.772.772A.772.772,0,0,0-.253-.505Z" transform="translate(1.025 2.05)" fill="#fff"/>
    </g>
  </g>
</svg>
