<svg xmlns="http://www.w3.org/2000/svg" xmlns:xlink="http://www.w3.org/1999/xlink" width="142.92" height="85.763" viewBox="0 0 142.92 85.763">
  <defs>
    <clipPath id="clip-path">
      <path id="Path_96" data-name="Path 96" d="M0,54.394H142.92V-31.369H0Z" transform="translate(0 31.369)" fill="#fff"/>
    </clipPath>
  </defs>
  <g id="ico-desempenho" opacity="0.498">
    <g id="Group_170" data-name="Group 170" clip-path="url(#clip-path)">
      <g id="Group_169" data-name="Group 169" transform="translate(0.001 0.001)">
        <path id="Path_95" data-name="Path 95" d="M7.553,54.394A11.945,11.945,0,0,0,19.463,42.484a11.726,11.726,0,0,0-1.487-5.659L41.72,12.038A11.679,11.679,0,0,0,48.047,13.9a11.861,11.861,0,0,0,8.339-3.426l16.377,10.87a11.69,11.69,0,0,0-.894,4.465,11.909,11.909,0,0,0,23.819,0,11.7,11.7,0,0,0-2.157-6.775L133.8-23.1V4.37a2.383,2.383,0,1,0,4.765,0V-28.977a2.382,2.382,0,0,0-2.384-2.381H102.834a2.427,2.427,0,0,0-.446,0h0a2.392,2.392,0,0,0-2.16,2.606,2.394,2.394,0,0,0,2.606,2.16H130.6L90.1,15.762A11.679,11.679,0,0,0,83.778,13.9a11.87,11.87,0,0,0-8.339,3.423L59.062,6.382a11.681,11.681,0,0,0,.894-4.391,11.909,11.909,0,1,0-23.819,0,11.71,11.71,0,0,0,2.083,6.7L14.848,33.178a11.7,11.7,0,0,0-7.294-2.606,11.911,11.911,0,0,0,0,23.821M83.778,18.663a7.147,7.147,0,1,1-7.147,7.147,7.113,7.113,0,0,1,7.147-7.147M48.047-5.156a7.111,7.111,0,0,1,7.147,7.147,7.147,7.147,0,0,1-14.293,0,7.111,7.111,0,0,1,7.147-7.147M7.553,35.338A7.147,7.147,0,1,1,.407,42.484a7.111,7.111,0,0,1,7.147-7.147" transform="translate(4.356 31.369)" fill="#fff"/>
      </g>
    </g>
  </g>
</svg>
