<svg xmlns="http://www.w3.org/2000/svg" xmlns:xlink="http://www.w3.org/1999/xlink" width="50" height="50" viewBox="0 0 50 50">
  <defs>
    <clipPath id="clip-path">
      <path id="Path_134" data-name="Path 134" d="M0,12.16H50v-50H0Z" transform="translate(0 37.84)" fill="#0f233d"/>
    </clipPath>
  </defs>
  <g id="ico-portfolio" clip-path="url(#clip-path)">
    <g id="Group_203" data-name="Group 203" transform="translate(14.166 32.501)">
      <path id="Path_125" data-name="Path 125" d="M.2.405H13.535a.835.835,0,0,0,.834-.834.833.833,0,0,0-.834-.832H.2a.833.833,0,0,0-.834.832A.834.834,0,0,0,.2.405" transform="translate(0.631 1.261)" fill="#0f233d"/>
    </g>
    <g id="Group_204" data-name="Group 204" transform="translate(14.166 35.834)">
      <path id="Path_126" data-name="Path 126" d="M.2.405H13.535a.834.834,0,0,0,.834-.834.833.833,0,0,0-.834-.832H.2a.833.833,0,0,0-.834.832A.834.834,0,0,0,.2.405" transform="translate(0.631 1.261)" fill="#0f233d"/>
    </g>
    <g id="Group_205" data-name="Group 205" transform="translate(5.833 31.667)">
      <path id="Path_127" data-name="Path 127" d="M.811,1.621A3.337,3.337,0,0,0,4.145-1.713,3.337,3.337,0,0,0,.811-5.045,3.337,3.337,0,0,0-2.523-1.713,3.337,3.337,0,0,0,.811,1.621m0-5A1.668,1.668,0,0,1,2.477-1.713,1.668,1.668,0,0,1,.811-.045,1.668,1.668,0,0,1-.855-1.713,1.668,1.668,0,0,1,.811-3.379" transform="translate(2.523 5.045)" fill="#0f233d"/>
    </g>
    <g id="Group_206" data-name="Group 206" transform="translate(30.833 31.667)">
      <path id="Path_128" data-name="Path 128" d="M.811,1.621A3.337,3.337,0,0,0,4.145-1.713,3.337,3.337,0,0,0,.811-5.045,3.337,3.337,0,0,0-2.523-1.713,3.337,3.337,0,0,0,.811,1.621m0-5A1.668,1.668,0,0,1,2.477-1.713,1.668,1.668,0,0,1,.811-.045,1.668,1.668,0,0,1-.855-1.713,1.669,1.669,0,0,1,.811-3.379" transform="translate(2.523 5.045)" fill="#0f233d"/>
    </g>
    <g id="Group_207" data-name="Group 207" transform="translate(0 0.001)">
      <path id="Path_129" data-name="Path 129" d="M12.16,2.229A5.84,5.84,0,0,0,6.326-3.6H-12.925a4.174,4.174,0,0,0-4.083-3.332H-20.34a.833.833,0,0,0-.834.832v.834h-3.332a.834.834,0,0,0-.834.834.833.833,0,0,0,.834.832h3.332v1.668h-3.332a.833.833,0,0,0-.834.832.834.834,0,0,0,.834.834h3.332V.563a.833.833,0,0,0,.834.832h3.332a4.174,4.174,0,0,0,4.083-3.332H6.326a4.172,4.172,0,0,1,4.168,4.162V23.9a4.172,4.172,0,0,1-4.168,4.168H2.994V24.731A3.338,3.338,0,0,0-.34,21.4V18.9H.482a3.349,3.349,0,0,0,3.344-3.344V13.907A3.349,3.349,0,0,0,.482,10.562H-.34V7.229A4.171,4.171,0,0,0-4.506,3.063H-27.839a4.172,4.172,0,0,0-4.168,4.152v3.347h-.822a3.349,3.349,0,0,0-3.344,3.346v1.644A3.349,3.349,0,0,0-32.828,18.9h.822v2.5a3.338,3.338,0,0,0-3.334,3.335v8.331a2.5,2.5,0,0,0-2.5,2.5,2.5,2.5,0,0,0,2.5,2.5h1.666v1.668a3.337,3.337,0,0,0,3.334,3.332h3.334a3.336,3.336,0,0,0,3.332-3.332V38.062h15v1.668A3.337,3.337,0,0,0-5.34,43.062h3.332a3.336,3.336,0,0,0,3.334-3.332V38.062H2.992a2.5,2.5,0,0,0,0-5V29.729H6.326A5.839,5.839,0,0,0,12.16,23.9V2.229m-29.168-2.5h-2.5v-5h2.5a2.5,2.5,0,0,1,2.5,2.5,2.5,2.5,0,0,1-2.5,2.5m-15,17.5h-.822a1.68,1.68,0,0,1-1.678-1.678V13.907a1.68,1.68,0,0,1,1.678-1.678h.822Zm1.666.836v-10H-2.008V21.4H-30.34ZM.482,12.229A1.68,1.68,0,0,1,2.16,13.907v1.644A1.68,1.68,0,0,1,.482,17.229H-.34v-5Zm-28.322-7.5H-4.508A2.5,2.5,0,0,1-2.15,6.4H-30.2A2.5,2.5,0,0,1-27.84,4.729M-32,23.063H-.34a1.667,1.667,0,0,1,1.666,1.668V28.9h0v4.166h-35V24.731A1.668,1.668,0,0,1-32,23.063m6.665,16.666A1.668,1.668,0,0,1-27.006,41.4H-30.34a1.668,1.668,0,0,1-1.666-1.666V38.062h6.666Zm25,0A1.668,1.668,0,0,1-2.008,41.4H-5.34a1.669,1.669,0,0,1-1.668-1.666V38.062H-.34Zm4.166-4.168a.835.835,0,0,1-.834.834H-35.34a.833.833,0,0,1-.832-.834.833.833,0,0,1,.832-.832H2.992a.834.834,0,0,1,.834.832" transform="translate(37.84 6.937)" fill="#0f233d"/>
    </g>
    <g id="Group_208" data-name="Group 208" transform="translate(9.167 17.5)">
      <path id="Path_130" data-name="Path 130" d="M.346.751,2.012-.915a.832.832,0,0,0,0-1.179.83.83,0,0,0-1.177,0L-.833-.427a.834.834,0,0,0,0,1.179A.83.83,0,0,0-.243,1,.833.833,0,0,0,.346.751" transform="translate(1.077 2.338)" fill="#0f233d"/>
    </g>
    <g id="Group_209" data-name="Group 209" transform="translate(10 20.833)">
      <path id="Path_131" data-name="Path 131" d="M0,0Z" fill="#0f233d"/>
    </g>
    <g id="Group_210" data-name="Group 210" transform="translate(10.833 24.167)">
      <path id="Path_132" data-name="Path 132" d="M0,0Z" fill="#0f233d"/>
    </g>
    <g id="Group_211" data-name="Group 211" transform="translate(10 17.5)">
      <path id="Path_133" data-name="Path 133" d="M1.275.06l-5,5a.834.834,0,0,0,0,1.179.83.83,0,0,0,.589.244.833.833,0,0,0,.589-.244l5-5A.833.833,0,0,0,1.275.06" transform="translate(3.969 0.185)" fill="#0f233d"/>
    </g>
  </g>
</svg>
