<svg width="75" height="26" viewBox="0 0 75 26" fill="none" xmlns="http://www.w3.org/2000/svg">
<path d="M72.8001 8.60007H65.3001C64.0001 5.10007 61.3001 2.40007 57.7001 1.10007C54.2001 -0.0999302 50.4001 0.400067 47.2001 2.30007C44.1001 4.30007 42.0001 7.70006 41.6001 11.4001H33.2001C32.8001 7.70006 30.7001 4.30007 27.5001 2.30007C24.4001 0.400067 20.5001 -0.0999302 17.0001 1.10007C13.5001 2.40007 10.7001 5.10007 9.5001 8.60007H1.9001C1.2001 8.60007 0.600098 9.20006 0.600098 10.0001C0.600098 10.7001 1.2001 11.4001 1.9001 11.4001H8.9001C8.8001 11.8001 8.8001 12.3001 8.7001 12.7001C8.7001 16.9001 10.9001 20.9001 14.5001 23.1001C18.0001 25.4001 22.5001 25.6001 26.3001 23.8001C30.1001 21.9001 32.7001 18.3001 33.2001 14.1001H41.6001C42.1001 18.3001 44.7001 21.9001 48.5001 23.8001C52.2001 25.6001 56.7001 25.3001 60.3001 23.1001C63.9001 20.9001 66.0001 16.9001 66.0001 12.7001C66.0001 12.3001 65.9001 11.8001 65.9001 11.4001H72.8001C73.6001 11.4001 74.2001 10.7001 74.2001 10.0001C74.2001 9.20006 73.6001 8.60007 72.8001 8.60007ZM21.0001 22.3001C18.5001 22.3001 16.1001 21.3001 14.3001 19.5001C12.5001 17.7001 11.5001 15.3001 11.5001 12.7001C11.5001 10.2001 12.5001 7.80006 14.3001 6.00006C16.1001 4.20006 18.5001 3.20006 21.0001 3.20006C23.5001 3.20006 26.0001 4.20006 27.8001 6.00006C29.6001 7.80006 30.6001 10.2001 30.6001 12.7001C30.6001 15.3001 29.6001 17.7001 27.8001 19.5001C26.0001 21.3001 23.5001 22.3001 21.0001 22.3001ZM53.7001 22.3001C51.2001 22.3001 48.8001 21.3001 47.0001 19.5001C45.2001 17.7001 44.2001 15.3001 44.2001 12.7001C44.2001 10.2001 45.2001 7.80006 47.0001 6.00006C48.8001 4.20006 51.2001 3.20006 53.7001 3.20006C56.3001 3.20006 58.7001 4.20006 60.5001 6.00006C62.3001 7.80006 63.3001 10.2001 63.3001 12.7001C63.3001 15.3001 62.3001 17.7001 60.5001 19.5001C58.7001 21.3001 56.3001 22.3001 53.7001 22.3001Z" fill="white"/>
</svg>
