<svg xmlns="http://www.w3.org/2000/svg" xmlns:xlink="http://www.w3.org/1999/xlink" width="42" height="40.016" viewBox="0 0 42 40.016"><defs><clipPath id="a"><path d="M0-6.849H42V-46.865H0Z" transform="translate(0 46.865)" fill="#fff" stroke="#fff" stroke-width="1"/></clipPath></defs><g transform="translate(-2 46.865)"><g transform="translate(2 -46.865)" clip-path="url(#a)"><g transform="translate(15.455 12.145)"><path d="M-.97,0A5.671,5.671,0,0,0-6.634,5.664,5.671,5.671,0,0,0-.97,11.329,5.671,5.671,0,0,0,4.695,5.664,5.671,5.671,0,0,0-.97,0m0,10.777A5.118,5.118,0,0,1-6.082,5.664,5.118,5.118,0,0,1-.97.552,5.118,5.118,0,0,1,4.143,5.664,5.118,5.118,0,0,1-.97,10.777" transform="translate(6.634)" fill="#fff" stroke="#fff" stroke-width="1"/></g><g transform="translate(15.455 12.145)"><path d="M-.97,0A5.671,5.671,0,0,0-6.634,5.664,5.671,5.671,0,0,0-.97,11.329,5.671,5.671,0,0,0,4.695,5.664,5.671,5.671,0,0,0-.97,0Zm0,10.777A5.118,5.118,0,0,1-6.082,5.664,5.118,5.118,0,0,1-.97.552,5.118,5.118,0,0,1,4.143,5.664,5.118,5.118,0,0,1-.97,10.777Z" transform="translate(6.634)" fill="#fff" stroke="#fff" stroke-width="1"/></g><g transform="translate(17.887 0.427)"><path d="M-.553-1.107A3.236,3.236,0,0,0,2.679-4.338,3.236,3.236,0,0,0-.553-7.571,3.236,3.236,0,0,0-3.785-4.338,3.236,3.236,0,0,0-.553-1.107m0-5.913a2.684,2.684,0,0,1,2.68,2.681,2.683,2.683,0,0,1-2.68,2.68,2.683,2.683,0,0,1-2.68-2.68A2.684,2.684,0,0,1-.553-7.019" transform="translate(3.785 7.571)" fill="#fff" stroke="#fff" stroke-width="1"/></g><g transform="translate(17.887 0.427)"><path d="M-.553-1.107A3.236,3.236,0,0,0,2.679-4.338,3.236,3.236,0,0,0-.553-7.571,3.236,3.236,0,0,0-3.785-4.338,3.236,3.236,0,0,0-.553-1.107Zm0-5.913a2.684,2.684,0,0,1,2.68,2.681,2.683,2.683,0,0,1-2.68,2.68,2.683,2.683,0,0,1-2.68-2.68A2.684,2.684,0,0,1-.553-7.019Z" transform="translate(3.785 7.571)" fill="#fff" stroke="#fff" stroke-width="1"/></g><g transform="translate(28.748 14.596)"><path d="M0-.794A4.644,4.644,0,0,0,4.638,3.844,4.644,4.644,0,0,0,9.276-.794,4.644,4.644,0,0,0,4.638-5.432,4.644,4.644,0,0,0,0-.794M4.638-4.88A4.091,4.091,0,0,1,8.725-.794,4.091,4.091,0,0,1,4.638,3.293,4.091,4.091,0,0,1,.552-.794,4.091,4.091,0,0,1,4.638-4.88" transform="translate(0 5.432)" fill="#fff" stroke="#fff" stroke-width="1"/></g><g transform="translate(28.748 14.596)"><path d="M0-.794A4.644,4.644,0,0,0,4.638,3.844,4.644,4.644,0,0,0,9.276-.794,4.644,4.644,0,0,0,4.638-5.432,4.644,4.644,0,0,0,0-.794ZM4.638-4.88A4.091,4.091,0,0,1,8.725-.794,4.091,4.091,0,0,1,4.638,3.293,4.091,4.091,0,0,1,.552-.794,4.091,4.091,0,0,1,4.638-4.88Z" transform="translate(0 5.432)" fill="#fff" stroke="#fff" stroke-width="1"/></g><g transform="translate(0.427 24.811)"><path d="M-6.62-.216a12.911,12.911,0,0,0-5.72-1.207,12.87,12.87,0,0,0-5.708,1.2,16.473,16.473,0,0,0-6.558-1.258A16.291,16.291,0,0,0-31.291-.16a12.715,12.715,0,0,0-5.821-1.263A12.91,12.91,0,0,0-42.831-.216C-44.422.593-45.3,1.69-45.3,2.873v7.5a.276.276,0,0,0,.276.276.275.275,0,0,0,.276-.276v-7.5c0-.965.769-1.887,2.166-2.6a12.357,12.357,0,0,1,5.47-1.148,12.779,12.779,0,0,1,5.2,1.019l-.049.027-.05.028-.123.071L-32.18.3l-.12.073L-32.344.4c-.041.025-.081.05-.121.077L-32.5.5q-.064.041-.126.085l-.028.019-.141.1-.007.005q-.224.163-.423.335l-.009.009c-.04.034-.079.068-.116.1l-.023.021-.1.092L-33.5,1.3c-.029.029-.059.059-.087.089-.01.009-.02.02-.029.03l-.081.087-.028.032c-.026.029-.051.059-.077.088l-.026.032c-.026.03-.05.061-.074.091-.008.009-.015.019-.022.029-.026.032-.05.065-.073.1l-.018.024c-.026.037-.051.073-.075.11a.061.061,0,0,0-.009.012,3.742,3.742,0,0,0-.223.383l0,.007c-.02.04-.039.08-.057.12l-.01.025c-.015.034-.03.068-.044.1l-.013.032c-.013.032-.025.064-.036.1l-.013.038c-.01.031-.02.062-.03.093,0,.014-.008.026-.011.039-.009.031-.017.062-.025.093l-.01.039q-.012.047-.02.095l-.008.038c-.006.033-.012.066-.017.1l-.005.034q-.008.054-.013.108c0,.009,0,.018,0,.026,0,.043-.007.085-.009.129v.006c0,.046,0,.092,0,.139v9.261a.276.276,0,0,0,.276.276.276.276,0,0,0,.276-.276V3.766c0-1.254,1.066-2.483,2.924-3.37a15.6,15.6,0,0,1,6.573-1.32A15.81,15.81,0,0,1-18.155.337c1.814.838,2.9,1.989,3.033,3.188,0,.009,0,.017,0,.025,0,.032.006.064.008.1,0,.016,0,.033,0,.05s0,.046,0,.07v9.261a.276.276,0,0,0,.276.276.276.276,0,0,0,.276-.276V3.766c0-.024,0-.048,0-.071s0-.042,0-.062,0-.046,0-.069l-.005-.066c0-.023-.005-.045-.009-.067s-.005-.045-.009-.067-.007-.044-.01-.067-.008-.045-.013-.068-.009-.043-.013-.065-.01-.046-.016-.069-.01-.042-.016-.063-.013-.047-.02-.07-.013-.042-.019-.062-.015-.048-.024-.072l-.02-.059c-.009-.025-.019-.05-.029-.074s-.015-.038-.022-.056-.022-.052-.034-.078l-.023-.052c-.014-.029-.028-.058-.044-.088-.006-.014-.013-.026-.02-.04-.044-.086-.094-.172-.147-.256-.005-.009-.011-.018-.017-.027-.021-.033-.043-.067-.065-.1l-.027-.038c-.02-.029-.04-.058-.061-.086l-.032-.043-.062-.082-.035-.044-.066-.079-.038-.043c-.022-.026-.046-.053-.069-.079l-.039-.043c-.024-.026-.049-.053-.074-.079s-.026-.027-.039-.04-.054-.055-.082-.081l-.038-.036c-.03-.029-.061-.057-.092-.086l-.032-.03-.112-.1L-16.057,1q-.2-.173-.434-.336l-.028-.02C-16.56.609-16.6.58-16.644.552l-.041-.027L-16.8.447l-.048-.03-.117-.073L-17.02.313l-.118-.07-.056-.032-.121-.067L-17.37.113l-.044-.024A12.75,12.75,0,0,1-12.34-.871,12.352,12.352,0,0,1-6.871.276c1.4.71,2.166,1.633,2.166,2.6v7.5a.276.276,0,0,0,.276.276.276.276,0,0,0,.276-.276v-7.5c0-1.183-.876-2.281-2.468-3.089" transform="translate(45.299 1.476)" fill="#fff" stroke="#fff" stroke-width="1"/></g><g transform="translate(0.427 24.811)"><path d="M-6.62-.216a12.911,12.911,0,0,0-5.72-1.207,12.87,12.87,0,0,0-5.708,1.2,16.473,16.473,0,0,0-6.558-1.258A16.291,16.291,0,0,0-31.291-.16a12.715,12.715,0,0,0-5.821-1.263A12.91,12.91,0,0,0-42.831-.216C-44.422.593-45.3,1.69-45.3,2.873v7.5a.276.276,0,0,0,.276.276.275.275,0,0,0,.276-.276v-7.5c0-.965.769-1.887,2.166-2.6a12.357,12.357,0,0,1,5.47-1.148,12.779,12.779,0,0,1,5.2,1.019l-.049.027-.05.028-.123.071L-32.18.3l-.12.073L-32.344.4c-.041.025-.081.05-.121.077L-32.5.5q-.064.041-.126.085l-.028.019-.141.1-.007.005q-.224.163-.423.335l-.009.009c-.04.034-.079.068-.116.1l-.023.021-.1.092L-33.5,1.3c-.029.029-.059.059-.087.089-.01.009-.02.02-.029.03l-.081.087-.028.032c-.026.029-.051.059-.077.088l-.026.032c-.026.03-.05.061-.074.091-.008.009-.015.019-.022.029-.026.032-.05.065-.073.1l-.018.024c-.026.037-.051.073-.075.11a.061.061,0,0,0-.009.012,3.742,3.742,0,0,0-.223.383l0,.007c-.02.04-.039.08-.057.12l-.01.025c-.015.034-.03.068-.044.1l-.013.032c-.013.032-.025.064-.036.1l-.013.038c-.01.031-.02.062-.03.093,0,.014-.008.026-.011.039-.009.031-.017.062-.025.093l-.01.039q-.012.047-.02.095l-.008.038c-.006.033-.012.066-.017.1l-.005.034q-.008.054-.013.108c0,.009,0,.018,0,.026,0,.043-.007.085-.009.129v.006c0,.046,0,.092,0,.139v9.261a.276.276,0,0,0,.276.276.276.276,0,0,0,.276-.276V3.766c0-1.254,1.066-2.483,2.924-3.37a15.6,15.6,0,0,1,6.573-1.32A15.81,15.81,0,0,1-18.155.337c1.814.838,2.9,1.989,3.033,3.188,0,.009,0,.017,0,.025,0,.032.006.064.008.1,0,.016,0,.033,0,.05s0,.046,0,.07v9.261a.276.276,0,0,0,.276.276.276.276,0,0,0,.276-.276V3.766c0-.024,0-.048,0-.071s0-.042,0-.062,0-.046,0-.069l-.005-.066c0-.023-.005-.045-.009-.067s-.005-.045-.009-.067-.007-.044-.01-.067-.008-.045-.013-.068-.009-.043-.013-.065-.01-.046-.016-.069-.01-.042-.016-.063-.013-.047-.02-.07-.013-.042-.019-.062-.015-.048-.024-.072l-.02-.059c-.009-.025-.019-.05-.029-.074s-.015-.038-.022-.056-.022-.052-.034-.078l-.023-.052c-.014-.029-.028-.058-.044-.088-.006-.014-.013-.026-.02-.04-.044-.086-.094-.172-.147-.256-.005-.009-.011-.018-.017-.027-.021-.033-.043-.067-.065-.1l-.027-.038c-.02-.029-.04-.058-.061-.086l-.032-.043-.062-.082-.035-.044-.066-.079-.038-.043c-.022-.026-.046-.053-.069-.079l-.039-.043c-.024-.026-.049-.053-.074-.079s-.026-.027-.039-.04-.054-.055-.082-.081l-.038-.036c-.03-.029-.061-.057-.092-.086l-.032-.03-.112-.1L-16.057,1q-.2-.173-.434-.336l-.028-.02C-16.56.609-16.6.58-16.644.552l-.041-.027L-16.8.447l-.048-.03-.117-.073L-17.02.313l-.118-.07-.056-.032-.121-.067L-17.37.113l-.044-.024A12.75,12.75,0,0,1-12.34-.871,12.352,12.352,0,0,1-6.871.276c1.4.71,2.166,1.633,2.166,2.6v7.5a.276.276,0,0,0,.276.276.276.276,0,0,0,.276-.276v-7.5C-4.153,1.69-5.029.593-6.62-.216Z" transform="translate(45.299 1.476)" fill="#fff" stroke="#fff" stroke-width="1"/></g><g transform="translate(3.977 14.596)"><path d="M-.794-1.588A4.644,4.644,0,0,0,3.844-6.226,4.644,4.644,0,0,0-.794-10.864,4.644,4.644,0,0,0-5.432-6.226,4.644,4.644,0,0,0-.794-1.588m0-8.725A4.091,4.091,0,0,1,3.293-6.226,4.091,4.091,0,0,1-.794-2.139,4.091,4.091,0,0,1-4.88-6.226,4.091,4.091,0,0,1-.794-10.312" transform="translate(5.432 10.864)" fill="#fff" stroke="#fff" stroke-width="1"/></g><g transform="translate(3.977 14.596)"><path d="M-.794-1.588A4.644,4.644,0,0,0,3.844-6.226,4.644,4.644,0,0,0-.794-10.864,4.644,4.644,0,0,0-5.432-6.226,4.644,4.644,0,0,0-.794-1.588Zm0-8.725A4.091,4.091,0,0,1,3.293-6.226,4.091,4.091,0,0,1-.794-2.139,4.091,4.091,0,0,1-4.88-6.226,4.091,4.091,0,0,1-.794-10.312Z" transform="translate(5.432 10.864)" fill="#fff" stroke="#fff" stroke-width="1"/></g><g transform="translate(9.986 5.558)"><path d="M-.631-1.262A3.691,3.691,0,0,0,3.055-4.948,3.69,3.69,0,0,0-.631-8.634,3.69,3.69,0,0,0-4.317-4.948,3.69,3.69,0,0,0-.631-1.262m0-6.821A3.138,3.138,0,0,1,2.5-4.948,3.138,3.138,0,0,1-.631-1.813,3.138,3.138,0,0,1-3.765-4.948,3.138,3.138,0,0,1-.631-8.082" transform="translate(4.317 8.634)" fill="#fff" stroke="#fff" stroke-width="1"/></g><g transform="translate(9.986 5.558)"><path d="M-.631-1.262A3.691,3.691,0,0,0,3.055-4.948,3.69,3.69,0,0,0-.631-8.634,3.69,3.69,0,0,0-4.317-4.948,3.69,3.69,0,0,0-.631-1.262Zm0-6.821A3.138,3.138,0,0,1,2.5-4.948,3.138,3.138,0,0,1-.631-1.813,3.138,3.138,0,0,1-3.765-4.948,3.138,3.138,0,0,1-.631-8.082Z" transform="translate(4.317 8.634)" fill="#fff" stroke="#fff" stroke-width="1"/></g><g transform="translate(24.879 5.558)"><path d="M-.631-1.262A3.69,3.69,0,0,0,3.055-4.948,3.69,3.69,0,0,0-.631-8.634,3.69,3.69,0,0,0-4.317-4.948,3.69,3.69,0,0,0-.631-1.262m0-6.821A3.138,3.138,0,0,1,2.5-4.948,3.138,3.138,0,0,1-.631-1.813,3.138,3.138,0,0,1-3.765-4.948,3.138,3.138,0,0,1-.631-8.082" transform="translate(4.317 8.634)" fill="#fff" stroke="#fff" stroke-width="1"/></g><g transform="translate(24.879 5.558)"><path d="M-.631-1.262A3.69,3.69,0,0,0,3.055-4.948,3.69,3.69,0,0,0-.631-8.634,3.69,3.69,0,0,0-4.317-4.948,3.69,3.69,0,0,0-.631-1.262Zm0-6.821A3.138,3.138,0,0,1,2.5-4.948,3.138,3.138,0,0,1-.631-1.813,3.138,3.138,0,0,1-3.765-4.948,3.138,3.138,0,0,1-.631-8.082Z" transform="translate(4.317 8.634)" fill="#fff" stroke="#fff" stroke-width="1"/></g></g></g></svg>