<svg xmlns="http://www.w3.org/2000/svg" xmlns:xlink="http://www.w3.org/1999/xlink" width="50" height="50" viewBox="0 0 50 50">
  <defs>
    <clipPath id="clip-path">
      <path id="Path_124" data-name="Path 124" d="M0,15.984H50v-50H0Z" transform="translate(0 34.016)" fill="#0f233d"/>
    </clipPath>
  </defs>
  <g id="ico-trofeu" clip-path="url(#clip-path)">
    <g id="Group_199" data-name="Group 199" transform="translate(0.178 0.178)">
      <path id="Path_122" data-name="Path 122" d="M15.576,1.764H5.463V-.994a2.758,2.758,0,0,0-.808-1.951,2.77,2.77,0,0,0-1.949-.808H-19.359a2.77,2.77,0,0,0-1.949.808,2.77,2.77,0,0,0-.808,1.951V1.764H-32.229a.919.919,0,0,0-.919.919V4.521a11.962,11.962,0,0,0,3.463,8.4,11.97,11.97,0,0,0,8.371,3.542,13.832,13.832,0,0,0,8.39,8.395v8.159h-5.109a2.747,2.747,0,0,0-1.612.52,2.745,2.745,0,0,0-1,1.366l-2.45,7.354h0a2.758,2.758,0,0,0,.379,2.484,2.757,2.757,0,0,0,2.237,1.147H3.832A2.761,2.761,0,0,0,6.45,42.261L4,34.907H4A2.749,2.749,0,0,0,1.38,33.021H-3.729V24.861a13.832,13.832,0,0,0,8.39-8.395A11.96,11.96,0,0,0,16.495,4.521V2.682a.918.918,0,0,0-.919-.919ZM-31.309,4.521V3.6h9.193v8.274a13.81,13.81,0,0,0,.273,2.725,10.118,10.118,0,0,1-6.725-3.171A10.123,10.123,0,0,1-31.309,4.521ZM2.252,35.487,4.7,42.843a.92.92,0,0,1-.873,1.21H-20.485a.918.918,0,0,1-.745-.382.914.914,0,0,1-.126-.828l2.45-7.355a.92.92,0,0,1,.873-.628H1.38A.915.915,0,0,1,2.252,35.487Zm-7.82-2.466h-5.515V25.388a13.824,13.824,0,0,0,5.515,0Zm-2.758-9.194a11.96,11.96,0,0,1-8.447-3.5,11.969,11.969,0,0,1-3.5-8.446V-.994a.92.92,0,0,1,.92-.92H2.706a.922.922,0,0,1,.92.92v12.87A11.964,11.964,0,0,1,.12,20.322a11.956,11.956,0,0,1-8.446,3.5M14.657,4.521A10.119,10.119,0,0,1,5.191,14.6a13.808,13.808,0,0,0,.272-2.725V3.6h9.194Z" transform="translate(33.148 3.753)" fill="#0f233d"/>
    </g>
    <g id="Group_200" data-name="Group 200" transform="translate(0.178 0.178)">
      <path id="Path_123" data-name="Path 123" d="M15.576,1.764H5.463V-.994a2.758,2.758,0,0,0-.808-1.951,2.77,2.77,0,0,0-1.949-.808H-19.359a2.77,2.77,0,0,0-1.949.808,2.77,2.77,0,0,0-.808,1.951V1.764H-32.229a.919.919,0,0,0-.919.919V4.521a11.962,11.962,0,0,0,3.463,8.4,11.97,11.97,0,0,0,8.371,3.542,13.832,13.832,0,0,0,8.39,8.395v8.159h-5.109a2.747,2.747,0,0,0-1.612.52,2.745,2.745,0,0,0-1,1.366l-2.45,7.354h0a2.758,2.758,0,0,0,.379,2.484,2.757,2.757,0,0,0,2.237,1.147H3.832A2.761,2.761,0,0,0,6.45,42.261L4,34.907H4A2.749,2.749,0,0,0,1.38,33.021H-3.729V24.861a13.832,13.832,0,0,0,8.39-8.395A11.96,11.96,0,0,0,16.495,4.521V2.682a.918.918,0,0,0-.919-.919ZM-31.309,4.521V3.6h9.193v8.274a13.81,13.81,0,0,0,.273,2.725,10.118,10.118,0,0,1-6.725-3.171,10.123,10.123,0,0,1-2.741-6.91ZM2.252,35.487,4.7,42.843a.92.92,0,0,1-.873,1.21H-20.485a.918.918,0,0,1-.745-.382.914.914,0,0,1-.126-.828l2.45-7.355a.92.92,0,0,1,.873-.628H1.38a.915.915,0,0,1,.872.628Zm-7.82-2.466h-5.515V25.388a13.824,13.824,0,0,0,5.515,0Zm-2.758-9.194a11.96,11.96,0,0,1-8.447-3.5,11.969,11.969,0,0,1-3.5-8.446V-.994a.92.92,0,0,1,.92-.92H2.706a.922.922,0,0,1,.92.92v12.87A11.964,11.964,0,0,1,.12,20.322,11.956,11.956,0,0,1-8.326,23.827ZM14.657,4.521A10.119,10.119,0,0,1,5.191,14.6a13.808,13.808,0,0,0,.272-2.725V3.6h9.194Z" transform="translate(33.148 3.753)" fill="#0f233d"/>
    </g>
  </g>
</svg>
