<svg xmlns="http://www.w3.org/2000/svg" xmlns:xlink="http://www.w3.org/1999/xlink" width="41.811" height="41.81" viewBox="0 0 41.811 41.81">
  <defs>
    <clipPath id="clip-path">
      <path id="Path_1328" data-name="Path 1328" d="M0-26.58H41.811V-68.39H0Z" transform="translate(0 68.39)" fill="#0face4"/>
    </clipPath>
  </defs>
  <g id="ico-engrenagem" clip-path="url(#clip-path)">
    <g id="Group_1700" data-name="Group 1700" transform="translate(16.663 0.305)">
      <path id="Path_1320" data-name="Path 1320" d="M-15.793-8.376V-9.863A2.057,2.057,0,0,0-17.521-11.9l-1.316-.232-.069-.2a9.838,9.838,0,0,0-.463-1.117l-.094-.191.767-1.091a2.06,2.06,0,0,0-.232-2.649l-1.036-1.057a2.058,2.058,0,0,0-2.646-.23L-23.7-17.9-23.892-18a9.757,9.757,0,0,0-1.117-.463l-.2-.069-.231-1.311a2.059,2.059,0,0,0-2.033-1.712h-1.494a2.064,2.064,0,0,0-2.037,1.711l-.231,1.308-.2.071a9.752,9.752,0,0,0-1.118.484l-.193.1-1.094-.769a2.061,2.061,0,0,0-2.648.232l-1.034,1.03a2.064,2.064,0,0,0-.232,2.653l.767,1.091-.094.191a9.9,9.9,0,0,0-.463,1.117l-.069.2-1.311.232a2.059,2.059,0,0,0-1.712,2.038v1.487a2.059,2.059,0,0,0,1.711,2.038l1.289.207.07.2A9.871,9.871,0,0,0-37.1-4.809l.094.191-.767,1.091a2.06,2.06,0,0,0,.232,2.649L-36.487.176a2.06,2.06,0,0,0,2.649.232l1.091-.767.191.094A9.975,9.975,0,0,0-31.439.2l.2.069.232,1.311A2.064,2.064,0,0,0-28.97,3.29h1.494A2.058,2.058,0,0,0-25.442,1.58l.233-1.291.2-.068a9.868,9.868,0,0,0,1.117-.463l.191-.094,1.091.767A2.061,2.061,0,0,0-19.961.2l1.055-1.055a2.059,2.059,0,0,0,.232-2.649L-19.441-4.6l.094-.191A9.976,9.976,0,0,0-18.884-5.9l.069-.2,1.311-.231a2.065,2.065,0,0,0,1.712-2.039m-1.951.623-1.753.324a.724.724,0,0,0-.582.521,8.4,8.4,0,0,1-.836,2,.721.721,0,0,0,.035.77l1.008,1.459a.625.625,0,0,1-.074.808L-21-.821a.626.626,0,0,1-.809.069l-1.459-1.023a.721.721,0,0,0-.775-.035,8.382,8.382,0,0,1-2.014.836.721.721,0,0,0-.52.575l-.307,1.757a.629.629,0,0,1-.619.519h-1.487a.628.628,0,0,1-.619-.517L-29.915-.4a.722.722,0,0,0-.521-.578A8.409,8.409,0,0,1-32.424-1.8a.722.722,0,0,0-.775.034L-34.659-.743a.625.625,0,0,1-.809-.072l-1.053-1.053a.625.625,0,0,1-.07-.81l1.023-1.459a.723.723,0,0,0,.035-.775,8.37,8.37,0,0,1-.836-2.014.72.72,0,0,0-.575-.52L-38.7-7.752a.626.626,0,0,1-.523-.619V-9.858a.628.628,0,0,1,.518-.619l1.756-.308a.722.722,0,0,0,.578-.521,8.368,8.368,0,0,1,.835-2.013.721.721,0,0,0-.034-.774L-36.6-15.55a.627.627,0,0,1,.072-.81l1.053-1.053a.625.625,0,0,1,.81-.069l1.459,1.023a.723.723,0,0,0,.775.035,8.377,8.377,0,0,1,2.015-.836.721.721,0,0,0,.52-.575l.308-1.757a.625.625,0,0,1,.618-.523h1.492a.628.628,0,0,1,.619.517l.3,1.757a.722.722,0,0,0,.521.577,8.384,8.384,0,0,1,2.013.836.721.721,0,0,0,.775-.035l1.451-1.028a.634.634,0,0,1,.808.068l1.056,1.056a.625.625,0,0,1,.07.809L-20.884-14.1a.724.724,0,0,0-.035.775,8.409,8.409,0,0,1,.836,2.014.722.722,0,0,0,.575.52l1.758.307a.629.629,0,0,1,.519.619l0,1.49a.63.63,0,0,1-.517.62" transform="translate(40.634 21.551)" fill="#0face4"/>
    </g>
    <g id="Group_1701" data-name="Group 1701" transform="translate(16.663 0.305)">
      <path id="Path_1321" data-name="Path 1321" d="M-15.793-8.376V-9.863A2.057,2.057,0,0,0-17.521-11.9l-1.316-.232-.069-.2a9.838,9.838,0,0,0-.463-1.117l-.094-.191.767-1.091a2.06,2.06,0,0,0-.232-2.649l-1.036-1.057a2.058,2.058,0,0,0-2.646-.23L-23.7-17.9-23.892-18a9.757,9.757,0,0,0-1.117-.463l-.2-.069-.231-1.311a2.059,2.059,0,0,0-2.033-1.712h-1.494a2.064,2.064,0,0,0-2.037,1.711l-.231,1.308-.2.071a9.752,9.752,0,0,0-1.118.484l-.193.1-1.094-.769a2.061,2.061,0,0,0-2.648.232l-1.034,1.03a2.064,2.064,0,0,0-.232,2.653l.767,1.091-.094.191a9.9,9.9,0,0,0-.463,1.117l-.069.2-1.311.232a2.059,2.059,0,0,0-1.712,2.038v1.487a2.059,2.059,0,0,0,1.711,2.038l1.289.207.07.2A9.871,9.871,0,0,0-37.1-4.809l.094.191-.767,1.091a2.06,2.06,0,0,0,.232,2.649L-36.487.176a2.06,2.06,0,0,0,2.649.232l1.091-.767.191.094A9.975,9.975,0,0,0-31.439.2l.2.069.232,1.311A2.064,2.064,0,0,0-28.97,3.29h1.494A2.058,2.058,0,0,0-25.442,1.58l.233-1.291.2-.068a9.868,9.868,0,0,0,1.117-.463l.191-.094,1.091.767A2.061,2.061,0,0,0-19.961.2l1.055-1.055a2.059,2.059,0,0,0,.232-2.649L-19.441-4.6l.094-.191A9.976,9.976,0,0,0-18.884-5.9l.069-.2,1.311-.231A2.065,2.065,0,0,0-15.793-8.376Zm-1.951.623-1.753.324a.724.724,0,0,0-.582.521,8.4,8.4,0,0,1-.836,2,.721.721,0,0,0,.035.77l1.008,1.459a.625.625,0,0,1-.074.808L-21-.821a.626.626,0,0,1-.809.069l-1.459-1.023a.721.721,0,0,0-.775-.035,8.382,8.382,0,0,1-2.014.836.721.721,0,0,0-.52.575l-.307,1.757a.629.629,0,0,1-.619.519h-1.487a.628.628,0,0,1-.619-.517L-29.915-.4a.722.722,0,0,0-.521-.578A8.409,8.409,0,0,1-32.424-1.8a.722.722,0,0,0-.775.034L-34.659-.743a.625.625,0,0,1-.809-.072l-1.053-1.053a.625.625,0,0,1-.07-.81l1.023-1.459a.723.723,0,0,0,.035-.775,8.37,8.37,0,0,1-.836-2.014.72.72,0,0,0-.575-.52L-38.7-7.752a.626.626,0,0,1-.523-.619V-9.858a.628.628,0,0,1,.518-.619l1.756-.308a.722.722,0,0,0,.578-.521,8.368,8.368,0,0,1,.835-2.013.721.721,0,0,0-.034-.774L-36.6-15.55a.627.627,0,0,1,.072-.81l1.053-1.053a.625.625,0,0,1,.81-.069l1.459,1.023a.723.723,0,0,0,.775.035,8.377,8.377,0,0,1,2.015-.836.721.721,0,0,0,.52-.575l.308-1.757a.625.625,0,0,1,.618-.523h1.492a.628.628,0,0,1,.619.517l.3,1.757a.722.722,0,0,0,.521.577,8.384,8.384,0,0,1,2.013.836.721.721,0,0,0,.775-.035l1.451-1.028a.634.634,0,0,1,.808.068l1.056,1.056a.625.625,0,0,1,.07.809L-20.884-14.1a.724.724,0,0,0-.035.775,8.409,8.409,0,0,1,.836,2.014.722.722,0,0,0,.575.52l1.758.307a.629.629,0,0,1,.519.619l0,1.49A.63.63,0,0,1-17.744-7.753Z" transform="translate(40.634 21.551)" fill="#0face4"/>
    </g>
    <g id="Group_1702" data-name="Group 1702" transform="translate(24.335 7.998)">
      <path id="Path_1322" data-name="Path 1322" d="M-3.012,0A4.744,4.744,0,0,0-7.751,4.739,4.744,4.744,0,0,0-3.012,9.478,4.744,4.744,0,0,0,1.727,4.739,4.75,4.75,0,0,0-3.012,0m0,8.039a3.3,3.3,0,0,1-3.3-3.3,3.3,3.3,0,0,1,3.3-3.3,3.3,3.3,0,0,1,3.3,3.3,3.3,3.3,0,0,1-3.3,3.3" transform="translate(7.751)" fill="#0face4"/>
    </g>
    <g id="Group_1703" data-name="Group 1703" transform="translate(24.335 7.998)">
      <path id="Path_1323" data-name="Path 1323" d="M-3.012,0A4.744,4.744,0,0,0-7.751,4.739,4.744,4.744,0,0,0-3.012,9.478,4.744,4.744,0,0,0,1.727,4.739,4.75,4.75,0,0,0-3.012,0Zm0,8.039a3.3,3.3,0,0,1-3.3-3.3,3.3,3.3,0,0,1,3.3-3.3,3.3,3.3,0,0,1,3.3,3.3A3.3,3.3,0,0,1-3.012,8.039Z" transform="translate(7.751)" fill="#0face4"/>
    </g>
    <g id="Group_1704" data-name="Group 1704" transform="translate(0.306 11.703)">
      <path id="Path_1324" data-name="Path 1324" d="M-18.933-10.669a.713.713,0,0,0-.273-.479.71.71,0,0,0-.531-.144c-.025,0-.048.007-.07.012l-2.239.392a.723.723,0,0,0-.578.521,10.853,10.853,0,0,1-1.077,2.6A.723.723,0,0,0-23.666-7l1.3,1.854a.991.991,0,0,1-.109,1.27l-1.336,1.336a.992.992,0,0,1-1.271.109l-1.849-1.3a.722.722,0,0,0-.775-.035,10.843,10.843,0,0,1-2.6,1.078.722.722,0,0,0-.52.575L-31.218.09a.989.989,0,0,1-.976.821h-1.887A.989.989,0,0,1-35.057.09l-.389-2.227a.724.724,0,0,0-.522-.578,10.884,10.884,0,0,1-2.6-1.076.719.719,0,0,0-.775.034l-1.85,1.3a.99.99,0,0,1-1.27-.109L-43.8-3.906a.992.992,0,0,1-.109-1.271l1.3-1.849a.722.722,0,0,0,.035-.775,10.8,10.8,0,0,1-1.081-2.574.722.722,0,0,0-.576-.522l-2.228-.389a1,1,0,0,1-.812-1.014v-1.874a.991.991,0,0,1,.822-.974l2.225-.389a.722.722,0,0,0,.578-.521,10.8,10.8,0,0,1,1.077-2.6.723.723,0,0,0-.034-.775l-1.3-1.85a.99.99,0,0,1,.109-1.27l1.336-1.336A.989.989,0,0,1-41.188-24l1.849,1.3a.724.724,0,0,0,.775.035,10.828,10.828,0,0,1,2.574-1.086.723.723,0,0,0,.523-.576l.389-2.228a.729.729,0,0,0-.091-.559.715.715,0,0,0-.451-.316.707.707,0,0,0-.542.095.713.713,0,0,0-.316.451.516.516,0,0,0-.012.066l-.292,1.8-.208.068a12.314,12.314,0,0,0-1.7.705l-.194.1L-40.36-25.19a2.42,2.42,0,0,0-3.114.271l-1.336,1.336a2.427,2.427,0,0,0-.3,3.122l1.04,1.471-.1.194a12.327,12.327,0,0,0-.705,1.7l-.067.205-1.781.314a2.423,2.423,0,0,0-2,2.4v1.89A2.422,2.422,0,0,0-46.763-9.9l.079.006,1.78.314.068.2A12.277,12.277,0,0,0-44.13-7.7l.1.194-1.042,1.475A2.421,2.421,0,0,0-44.8-2.912l1.336,1.336a2.423,2.423,0,0,0,3.115.271l1.473-1.042.194.1a12.326,12.326,0,0,0,1.7.706l.2.067.314,1.781A2.419,2.419,0,0,0-34.078,2.35h1.893A2.421,2.421,0,0,0-29.793.337l.314-1.781.2-.068a12.475,12.475,0,0,0,1.679-.7l.194-.1,1.475,1.042a2.427,2.427,0,0,0,3.115-.271l1.359-1.338A2.421,2.421,0,0,0-21.184-6l-1.042-1.474.1-.194a12.362,12.362,0,0,0,.705-1.679l.068-.2,1.78-.314a.728.728,0,0,0,.5-.275.713.713,0,0,0,.145-.531" transform="translate(48.715 27.451)" fill="#0face4"/>
    </g>
    <g id="Group_1705" data-name="Group 1705" transform="translate(0.306 11.703)">
      <path id="Path_1325" data-name="Path 1325" d="M-18.933-10.669a.713.713,0,0,0-.273-.479.71.71,0,0,0-.531-.144c-.025,0-.048.007-.07.012l-2.239.392a.723.723,0,0,0-.578.521,10.853,10.853,0,0,1-1.077,2.6A.723.723,0,0,0-23.666-7l1.3,1.854a.991.991,0,0,1-.109,1.27l-1.336,1.336a.992.992,0,0,1-1.271.109l-1.849-1.3a.722.722,0,0,0-.775-.035,10.843,10.843,0,0,1-2.6,1.078.722.722,0,0,0-.52.575L-31.218.09a.989.989,0,0,1-.976.821h-1.887A.989.989,0,0,1-35.057.09l-.389-2.227a.724.724,0,0,0-.522-.578,10.884,10.884,0,0,1-2.6-1.076.719.719,0,0,0-.775.034l-1.85,1.3a.99.99,0,0,1-1.27-.109L-43.8-3.906a.992.992,0,0,1-.109-1.271l1.3-1.849a.722.722,0,0,0,.035-.775,10.8,10.8,0,0,1-1.081-2.574.722.722,0,0,0-.576-.522l-2.228-.389a1,1,0,0,1-.812-1.014v-1.874a.991.991,0,0,1,.822-.974l2.225-.389a.722.722,0,0,0,.578-.521,10.8,10.8,0,0,1,1.077-2.6.723.723,0,0,0-.034-.775l-1.3-1.85a.99.99,0,0,1,.109-1.27l1.336-1.336A.989.989,0,0,1-41.188-24l1.849,1.3a.724.724,0,0,0,.775.035,10.828,10.828,0,0,1,2.574-1.086.723.723,0,0,0,.523-.576l.389-2.228a.729.729,0,0,0-.091-.559.715.715,0,0,0-.451-.316.707.707,0,0,0-.542.095.713.713,0,0,0-.316.451.516.516,0,0,0-.012.066l-.292,1.8-.208.068a12.314,12.314,0,0,0-1.7.705l-.194.1L-40.36-25.19a2.42,2.42,0,0,0-3.114.271l-1.336,1.336a2.427,2.427,0,0,0-.3,3.122l1.04,1.471-.1.194a12.327,12.327,0,0,0-.705,1.7l-.067.205-1.781.314a2.423,2.423,0,0,0-2,2.4v1.89A2.422,2.422,0,0,0-46.763-9.9l.079.006,1.78.314.068.2A12.277,12.277,0,0,0-44.13-7.7l.1.194-1.042,1.475A2.421,2.421,0,0,0-44.8-2.912l1.336,1.336a2.423,2.423,0,0,0,3.115.271l1.473-1.042.194.1a12.326,12.326,0,0,0,1.7.706l.2.067.314,1.781A2.419,2.419,0,0,0-34.078,2.35h1.893A2.421,2.421,0,0,0-29.793.337l.314-1.781.2-.068a12.475,12.475,0,0,0,1.679-.7l.194-.1,1.475,1.042a2.427,2.427,0,0,0,3.115-.271l1.359-1.338A2.421,2.421,0,0,0-21.184-6l-1.042-1.474.1-.194a12.362,12.362,0,0,0,.705-1.679l.068-.2,1.78-.314a.728.728,0,0,0,.5-.275A.713.713,0,0,0-18.933-10.669Z" transform="translate(48.715 27.451)" fill="#0face4"/>
    </g>
    <g id="Group_1706" data-name="Group 1706" transform="translate(9.118 19.153)">
      <path id="Path_1326" data-name="Path 1326" d="M0-4.3a6.777,6.777,0,0,0,6.77,6.77A6.777,6.777,0,0,0,13.54-4.3a.72.72,0,0,0-.72-.719.72.72,0,0,0-.72.719A5.337,5.337,0,0,1,6.77,1.028,5.337,5.337,0,0,1,1.439-4.3h0a5.342,5.342,0,0,1,5.335-5.33.721.721,0,0,0,.72-.72.72.72,0,0,0-.72-.719A6.778,6.778,0,0,0,0-4.3" transform="translate(0 11.073)" fill="#0face4"/>
    </g>
    <g id="Group_1707" data-name="Group 1707" transform="translate(9.118 19.153)">
      <path id="Path_1327" data-name="Path 1327" d="M0-4.3a6.777,6.777,0,0,0,6.77,6.77A6.777,6.777,0,0,0,13.54-4.3a.72.72,0,0,0-.72-.719.72.72,0,0,0-.72.719A5.337,5.337,0,0,1,6.77,1.028,5.337,5.337,0,0,1,1.439-4.3h0a5.342,5.342,0,0,1,5.335-5.33.721.721,0,0,0,.72-.72.72.72,0,0,0-.72-.719A6.778,6.778,0,0,0,0-4.3Z" transform="translate(0 11.073)" fill="#0face4"/>
    </g>
  </g>
</svg>
