<svg width="66" height="58" viewBox="0 0 66 58" fill="none" xmlns="http://www.w3.org/2000/svg">
<path d="M64.6 43.6001H61V1.50005C61 1.10005 60.9 0.800052 60.7 0.600052C60.4 0.400052 60.1 0.300049 59.8 0.300049H6.90002C6.20002 0.300049 5.69995 0.800046 5.69995 1.50005V43.6001H2.09998C1.39998 43.6001 0.900024 44.1 0.900024 44.8V56.8C0.900024 57.1 0.999951 57.4 1.19995 57.7C1.49995 57.9 1.79998 58 2.09998 58H64.6C65 58 65.3 57.9 65.5 57.7C65.7 57.4 65.8 57.1 65.8 56.8V44.8C65.8 44.5 65.7 44.1 65.5 43.9C65.3 43.7 65 43.6001 64.6 43.6001V43.6001ZM8.09998 2.70004H58.6V43.6001H40.6C39.9 43.6001 39.4 44.1 39.4 44.8V48.4H27.3V44.8C27.3 44.5 27.2 44.1 27 43.9C26.8 43.7 26.5 43.6001 26.1 43.6001H8.09998V2.70004ZM63.4 55.6001H3.30005V46H24.9V49.6001C24.9 49.9001 25.1 50.2 25.3 50.4C25.5 50.7 25.8 50.8 26.1 50.8H40.6C40.9 50.8 41.2 50.7 41.4 50.4C41.6 50.2 41.8 49.9001 41.8 49.6001V46H63.4V55.6001Z" fill="white"/>
<path d="M53.8 37.6001V8.70012C53.8 8.40012 53.7 8.10013 53.5 7.80013C53.2 7.60013 52.9 7.50012 52.6 7.50012H14.1C13.4 7.50012 12.9 8.00012 12.9 8.70012V37.6001C12.9 37.9001 13 38.2001 13.3 38.4001C13.5 38.6001 13.8 38.8001 14.1 38.8001H52.6C52.9 38.8001 53.2 38.6001 53.5 38.4001C53.7 38.2001 53.8 37.9001 53.8 37.6001V37.6001ZM51.4 36.4001H15.3V9.90012H51.4V36.4001V36.4001Z" fill="white"/>
<path d="M22.2 26.4001L26.1 22.4001L32.5 28.8001C33 29.2001 33.7 29.2001 34.2 28.8001L40.6 22.4001C40.6 22.4001 42.1 24.0001 42.2 24.0001C42.6 24.4001 43.3 24.4001 43.8 24.0001L43.9 23.9001C44.1 23.7001 44.2 23.4001 44.2 23.2001V18.3001C44.2 18.0001 44 17.7001 43.8 17.4001C43.6 17.2001 43.3 17.1001 43 17.1001H38.2C37.7 17.1001 37.2 17.4001 37.1 17.8001C36.9 18.3001 37 18.8001 37.3 19.2001L38.9 20.7001L33.4 26.2001L27 19.9001C26.5 19.4001 25.8 19.4001 25.3 19.9001L20.5 24.7001C20 25.1001 20 25.9001 20.5 26.4001C21 26.8001 21.7 26.8001 22.2 26.4001V26.4001Z" fill="white"/>
</svg>
