<svg xmlns="http://www.w3.org/2000/svg" xmlns:xlink="http://www.w3.org/1999/xlink" width="37" height="37.661" viewBox="0 0 37 37.661">
  <defs>
    <clipPath id="clip-path">
      <path id="Path_1294" data-name="Path 1294" d="M0,4.914H37V-32.747H0Z" transform="translate(0 32.747)" fill="none"/>
    </clipPath>
  </defs>
  <g id="ico-eletriccar" clip-path="url(#clip-path)">
    <g id="Group_1649" data-name="Group 1649" transform="translate(0.288 0.286)">
      <path id="Path_1290" data-name="Path 1290" d="M4.066.765h0L-17.112.773a4.721,4.721,0,0,1-4.572,3.694h-1.5a1.076,1.076,0,0,1-1.067-1.086V2.946h-1.773A1.077,1.077,0,0,1-27.1,1.859,1.077,1.077,0,0,1-26.029.773h1.773V-1.4h-1.773A1.077,1.077,0,0,1-27.1-2.487a1.077,1.077,0,0,1,1.067-1.087h1.773v-.435a1.077,1.077,0,0,1,1.067-1.087h1.5A4.722,4.722,0,0,1-17.112-1.4L4.064-1.408h0A5.324,5.324,0,0,1,9.329,3.916,5.368,5.368,0,0,1,7.8,7.725,5.188,5.188,0,0,1,4.062,9.312l-1.179,0c.551.917,2.588,4.3,2.588,4.3a5.517,5.517,0,0,1,3.716,5.194v5.94a3.249,3.249,0,0,1-1.28,2.582v1.827a2.812,2.812,0,0,1-2.783,2.834H1.939A2.812,2.812,0,0,1-.845,29.159v-1.15H-16.922v1.15a2.812,2.812,0,0,1-2.783,2.834H-22.89a2.812,2.812,0,0,1-2.783-2.834V27.331a3.249,3.249,0,0,1-1.28-2.582v-5.94a5.518,5.518,0,0,1,3.72-5.195q2.06-3.419,4.117-6.841a5.211,5.211,0,0,1,4.55-2.6H-3.2a5.212,5.212,0,0,1,4.55,2.6l.225.374,2.481-.007a3.091,3.091,0,0,0,2.227-.945A3.2,3.2,0,0,0,4.066.765m-25.75-3.686h-.437V2.294h.437A2.588,2.588,0,0,0-19.123-.314a2.587,2.587,0,0,0-2.561-2.607M6.76,19.827a.854.854,0,0,0-.692-.253,3.08,3.08,0,0,0-2.713,2.167h3.7V20.514a.882.882,0,0,0-.293-.687M1.29,29.159a.663.663,0,0,0,.649.66H5.123a.663.663,0,0,0,.649-.66v-1.15H1.29Zm-24.18.66h3.185a.663.663,0,0,0,.649-.66v-1.15h-4.482v1.15a.663.663,0,0,0,.649.66m-1.93-9.305v1.227h3.7a3.08,3.08,0,0,0-2.713-2.167.85.85,0,0,0-.692.253.882.882,0,0,0-.293.687m.293-3.051a3.03,3.03,0,0,1,.833-.056,5.262,5.262,0,0,1,4.851,5.277v.145a1.077,1.077,0,0,1-1.067,1.087h-4.91v.835a1.115,1.115,0,0,0,1.142,1.086H5.912a1.115,1.115,0,0,0,1.141-1.086v-.835H2.143a1.077,1.077,0,0,1-1.067-1.087v-.145a5.262,5.262,0,0,1,4.851-5.277,3.03,3.03,0,0,1,.833.056,3.432,3.432,0,0,0-3.13-1.985H-21.4a3.433,3.433,0,0,0-3.13,1.985M-3.2,6.35H-14.566A3.091,3.091,0,0,0-17.3,7.908q-1.622,2.7-3.247,5.4H2.779S.593,9.672-.467,7.908A3.091,3.091,0,0,0-3.2,6.35" transform="translate(27.096 5.095)" fill="#0face4"/>
    </g>
    <g id="Group_1650" data-name="Group 1650" transform="translate(0.288 0.286)">
      <path id="Path_1291" data-name="Path 1291" d="M4.066.765h0L-17.112.773a4.721,4.721,0,0,1-4.572,3.694h-1.5a1.076,1.076,0,0,1-1.067-1.086V2.946h-1.773A1.077,1.077,0,0,1-27.1,1.859,1.077,1.077,0,0,1-26.029.773h1.773V-1.4h-1.773A1.077,1.077,0,0,1-27.1-2.487a1.077,1.077,0,0,1,1.067-1.087h1.773v-.435a1.077,1.077,0,0,1,1.067-1.087h1.5A4.722,4.722,0,0,1-17.112-1.4L4.064-1.408h0A5.324,5.324,0,0,1,9.329,3.916,5.368,5.368,0,0,1,7.8,7.725,5.188,5.188,0,0,1,4.062,9.312l-1.179,0c.551.917,2.588,4.3,2.588,4.3a5.517,5.517,0,0,1,3.716,5.194v5.94a3.249,3.249,0,0,1-1.28,2.582v1.827a2.812,2.812,0,0,1-2.783,2.834H1.939A2.812,2.812,0,0,1-.845,29.159v-1.15H-16.922v1.15a2.812,2.812,0,0,1-2.783,2.834H-22.89a2.812,2.812,0,0,1-2.783-2.834V27.331a3.249,3.249,0,0,1-1.28-2.582v-5.94a5.518,5.518,0,0,1,3.72-5.195q2.06-3.419,4.117-6.841a5.211,5.211,0,0,1,4.55-2.6H-3.2a5.212,5.212,0,0,1,4.55,2.6l.225.374,2.481-.007a3.091,3.091,0,0,0,2.227-.945A3.2,3.2,0,0,0,4.066.765Zm-25.75-3.686h-.437V2.294h.437A2.588,2.588,0,0,0-19.123-.314,2.587,2.587,0,0,0-21.684-2.921ZM6.76,19.827a.854.854,0,0,0-.692-.253,3.08,3.08,0,0,0-2.713,2.167h3.7V20.514A.882.882,0,0,0,6.76,19.827ZM1.29,29.159a.663.663,0,0,0,.649.66H5.123a.663.663,0,0,0,.649-.66v-1.15H1.29Zm-24.18.66h3.185a.663.663,0,0,0,.649-.66v-1.15h-4.482v1.15A.663.663,0,0,0-22.89,29.819Zm-1.93-9.305v1.227h3.7a3.08,3.08,0,0,0-2.713-2.167.85.85,0,0,0-.692.253A.882.882,0,0,0-24.82,20.514Zm.293-3.051a3.03,3.03,0,0,1,.833-.056,5.262,5.262,0,0,1,4.851,5.277v.145a1.077,1.077,0,0,1-1.067,1.087h-4.91v.835a1.115,1.115,0,0,0,1.142,1.086H5.912a1.115,1.115,0,0,0,1.141-1.086v-.835H2.143a1.077,1.077,0,0,1-1.067-1.087v-.145a5.262,5.262,0,0,1,4.851-5.277,3.03,3.03,0,0,1,.833.056,3.432,3.432,0,0,0-3.13-1.985H-21.4A3.433,3.433,0,0,0-24.527,17.462ZM-3.2,6.35H-14.566A3.091,3.091,0,0,0-17.3,7.908q-1.622,2.7-3.247,5.4H2.779S.593,9.672-.467,7.908A3.091,3.091,0,0,0-3.2,6.35Z" transform="translate(27.096 5.095)" fill="none"/>
    </g>
    <g id="Group_1651" data-name="Group 1651" transform="translate(9.18 22.747)">
      <path id="Path_1292" data-name="Path 1292" d="M.139,0H16.645a1.063,1.063,0,0,1,.9.5,1.1,1.1,0,0,1,.072,1.039L16.2,4.687a3.165,3.165,0,0,1-2.91,1.9H3.5a3.167,3.167,0,0,1-2.911-1.9Q-.116,3.111-.83,1.54A1.1,1.1,0,0,1-.759.5a1.062,1.062,0,0,1,.9-.5M2.533,3.78a1.029,1.029,0,0,0,.97.634h9.784a1.032,1.032,0,0,0,.971-.633l.726-1.611H1.806l.727,1.61" transform="translate(0.928 0)" fill="#0face4"/>
    </g>
    <g id="Group_1652" data-name="Group 1652" transform="translate(9.18 22.747)">
      <path id="Path_1293" data-name="Path 1293" d="M.139,0H16.645a1.063,1.063,0,0,1,.9.5,1.1,1.1,0,0,1,.072,1.039L16.2,4.687a3.165,3.165,0,0,1-2.91,1.9H3.5a3.167,3.167,0,0,1-2.911-1.9Q-.116,3.111-.83,1.54A1.1,1.1,0,0,1-.759.5,1.062,1.062,0,0,1,.139,0ZM2.533,3.78a1.029,1.029,0,0,0,.97.634h9.784a1.032,1.032,0,0,0,.971-.633l.726-1.611H1.806Z" transform="translate(0.928 0)" fill="none"/>
    </g>
  </g>
</svg>
