<svg xmlns="http://www.w3.org/2000/svg" xmlns:xlink="http://www.w3.org/1999/xlink" width="39.327" height="39.247" viewBox="0 0 39.327 39.247">
  <defs>
    <clipPath id="clip-path">
      <path id="Path_1316" data-name="Path 1316" d="M0,0H39.327V-39.247H0Z" fill="none"/>
    </clipPath>
  </defs>
  <g id="ico-money" transform="translate(0 39.247)" clip-path="url(#clip-path)">
    <g id="Group_1691" data-name="Group 1691" transform="translate(19.663 -39.116)">
      <path id="Path_1312" data-name="Path 1312" d="M0,0A19.556,19.556,0,0,0-13.812,5.709a19.475,19.475,0,0,0-5.721,13.784,19.472,19.472,0,0,0,5.721,13.783A19.552,19.552,0,0,0,0,38.985a19.552,19.552,0,0,0,13.812-5.709,19.474,19.474,0,0,0,5.721-13.783A19.5,19.5,0,0,0,13.805,5.715,19.579,19.579,0,0,0,0,0ZM0,37.542a18.1,18.1,0,0,1-12.789-5.286,18.031,18.031,0,0,1-5.3-12.763,18.031,18.031,0,0,1,5.3-12.763A18.108,18.108,0,0,1,0,1.444,18.107,18.107,0,0,1,12.789,6.73a18.03,18.03,0,0,1,5.3,12.763,18.049,18.049,0,0,1-5.3,12.757A18.123,18.123,0,0,1,0,37.542Z" fill="#0face4"/>
    </g>
    <g id="Group_1692" data-name="Group 1692" transform="translate(19.663 -39.116)">
      <path id="Path_1313" data-name="Path 1313" d="M0,0A19.556,19.556,0,0,0-13.812,5.709a19.475,19.475,0,0,0-5.721,13.784,19.472,19.472,0,0,0,5.721,13.783A19.552,19.552,0,0,0,0,38.985a19.552,19.552,0,0,0,13.812-5.709,19.474,19.474,0,0,0,5.721-13.783A19.5,19.5,0,0,0,13.805,5.715,19.579,19.579,0,0,0,0,0ZM0,37.542a18.1,18.1,0,0,1-12.789-5.286,18.031,18.031,0,0,1-5.3-12.763,18.031,18.031,0,0,1,5.3-12.763A18.108,18.108,0,0,1,0,1.444,18.107,18.107,0,0,1,12.789,6.73a18.03,18.03,0,0,1,5.3,12.763,18.049,18.049,0,0,1-5.3,12.757A18.123,18.123,0,0,1,0,37.542Z" fill="none" stroke="#0face4" stroke-width="0.261"/>
    </g>
    <g id="Group_1693" data-name="Group 1693" transform="translate(18.223 -27.557)">
      <path id="Path_1314" data-name="Path 1314" d="M0,0H2.88A2.165,2.165,0,0,1,5.041,2.164a.72.72,0,1,0,1.44,0,3.609,3.609,0,0,0-3.6-3.607H2.16V-3.606a.721.721,0,0,0-.72-.722.721.721,0,0,0-.72.722v2.163H0A3.608,3.608,0,0,0-2.545-.385,3.617,3.617,0,0,0-3.6,2.164V5.049A3.617,3.617,0,0,0-2.545,7.6,3.6,3.6,0,0,0,0,8.655H2.88a2.166,2.166,0,0,1,2.161,2.164V13.7A2.165,2.165,0,0,1,2.88,15.868H0a2.165,2.165,0,0,1-1.527-.634A2.166,2.166,0,0,1-2.16,13.7a.721.721,0,0,0-.72-.721.72.72,0,0,0-.72.721,3.617,3.617,0,0,0,1.055,2.549A3.6,3.6,0,0,0,0,17.31H.72v2.164a.72.72,0,1,0,1.44,0V17.31h.72a3.607,3.607,0,0,0,3.6-3.606V10.819a3.607,3.607,0,0,0-3.6-3.606H0a2.161,2.161,0,0,1-1.527-.635A2.162,2.162,0,0,1-2.16,5.049V2.164A2.166,2.166,0,0,1-1.527.634,2.165,2.165,0,0,1,0,0" fill="#0face4"/>
    </g>
    <g id="Group_1694" data-name="Group 1694" transform="translate(18.223 -27.557)">
      <path id="Path_1315" data-name="Path 1315" d="M0,0H2.88A2.165,2.165,0,0,1,5.041,2.164a.72.72,0,1,0,1.44,0,3.609,3.609,0,0,0-3.6-3.607H2.16V-3.606a.721.721,0,0,0-.72-.722.721.721,0,0,0-.72.722v2.163H0A3.608,3.608,0,0,0-2.545-.385,3.617,3.617,0,0,0-3.6,2.164V5.049A3.617,3.617,0,0,0-2.545,7.6,3.6,3.6,0,0,0,0,8.655H2.88a2.166,2.166,0,0,1,2.161,2.164V13.7A2.165,2.165,0,0,1,2.88,15.868H0a2.165,2.165,0,0,1-1.527-.634A2.166,2.166,0,0,1-2.16,13.7a.721.721,0,0,0-.72-.721.72.72,0,0,0-.72.721,3.617,3.617,0,0,0,1.055,2.549A3.6,3.6,0,0,0,0,17.31H.72v2.164a.72.72,0,1,0,1.44,0V17.31h.72a3.607,3.607,0,0,0,3.6-3.606V10.819a3.607,3.607,0,0,0-3.6-3.606H0a2.161,2.161,0,0,1-1.527-.635A2.162,2.162,0,0,1-2.16,5.049V2.164A2.166,2.166,0,0,1-1.527.634,2.165,2.165,0,0,1,0,0Z" fill="none" stroke="#0face4" stroke-width="0.261"/>
    </g>
  </g>
</svg>
