<svg xmlns="http://www.w3.org/2000/svg" xmlns:xlink="http://www.w3.org/1999/xlink" width="51.33" height="52.247" viewBox="0 0 51.33 52.247">
  <defs>
    <clipPath id="clip-path">
      <path id="Path_1294" data-name="Path 1294" d="M0,19.5H51.33V-32.747H0Z" transform="translate(0 32.747)" fill="none"/>
    </clipPath>
  </defs>
  <g id="ico-carroeletrico" clip-path="url(#clip-path)">
    <g id="Group_1649" data-name="Group 1649" transform="translate(0.399 0.397)">
      <path id="Path_1290" data-name="Path 1290" d="M16.135,3.034h0l-29.379.011A6.55,6.55,0,0,1-19.588,8.17h-2.087a1.493,1.493,0,0,1-1.481-1.506v-.6h-2.46A1.494,1.494,0,0,1-27.1,4.553a1.494,1.494,0,0,1,1.481-1.508h2.46V.031h-2.46A1.494,1.494,0,0,1-27.1-1.476a1.494,1.494,0,0,1,1.481-1.508h2.46v-.6a1.494,1.494,0,0,1,1.481-1.508h2.087A6.551,6.551,0,0,1-13.246.03L16.132.02h0a7.386,7.386,0,0,1,7.3,7.385,7.447,7.447,0,0,1-2.122,5.284,7.2,7.2,0,0,1-5.185,2.2l-1.635,0c.764,1.272,3.59,5.965,3.59,5.965a7.654,7.654,0,0,1,5.155,7.205v8.241a4.508,4.508,0,0,1-1.776,3.582v2.535A3.9,3.9,0,0,1,17.6,46.356H13.183a3.9,3.9,0,0,1-3.861-3.931v-1.6h-22.3v1.6a3.9,3.9,0,0,1-3.861,3.931h-4.418a3.9,3.9,0,0,1-3.861-3.931V39.889A4.508,4.508,0,0,1-26.9,36.308V28.067a7.655,7.655,0,0,1,5.161-7.207q2.857-4.743,5.712-9.49a7.229,7.229,0,0,1,6.312-3.6H6.058a7.231,7.231,0,0,1,6.312,3.6l.313.519,3.441-.01a4.289,4.289,0,0,0,3.089-1.311,4.435,4.435,0,0,0-3.078-7.532M-19.588-2.08h-.606V5.156h.606a3.59,3.59,0,0,0,3.553-3.619A3.59,3.59,0,0,0-19.588-2.08M19.872,29.479a1.185,1.185,0,0,0-.96-.351,4.273,4.273,0,0,0-3.764,3.006h5.131v-1.7a1.224,1.224,0,0,0-.407-.952M12.283,42.425a.92.92,0,0,0,.9.916H17.6a.92.92,0,0,0,.9-.916v-1.6H12.283Zm-33.545.916h4.418a.92.92,0,0,0,.9-.916v-1.6h-6.218v1.6a.92.92,0,0,0,.9.916m-2.677-12.909v1.7h5.131a4.273,4.273,0,0,0-3.764-3.006,1.18,1.18,0,0,0-.96.351,1.224,1.224,0,0,0-.407.952m.407-4.233a4.2,4.2,0,0,1,1.155-.078,7.3,7.3,0,0,1,6.73,7.32v.2a1.5,1.5,0,0,1-1.481,1.508h-6.811v1.158a1.547,1.547,0,0,0,1.584,1.506H18.7a1.547,1.547,0,0,0,1.583-1.506V35.149H13.467a1.5,1.5,0,0,1-1.481-1.508v-.2a7.3,7.3,0,0,1,6.73-7.32,4.2,4.2,0,0,1,1.155.078,4.761,4.761,0,0,0-4.343-2.754H-19.189A4.763,4.763,0,0,0-23.532,26.2M6.058,10.783H-9.713a4.287,4.287,0,0,0-3.788,2.16q-2.25,3.745-4.5,7.486H14.35s-3.033-5.039-4.5-7.486a4.287,4.287,0,0,0-3.788-2.16" transform="translate(27.096 5.095)" fill="#0face4"/>
    </g>
    <g id="Group_1650" data-name="Group 1650" transform="translate(0.399 0.397)">
      <path id="Path_1291" data-name="Path 1291" d="M16.135,3.034h0l-29.379.011A6.55,6.55,0,0,1-19.588,8.17h-2.087a1.493,1.493,0,0,1-1.481-1.506v-.6h-2.46A1.494,1.494,0,0,1-27.1,4.553a1.494,1.494,0,0,1,1.481-1.508h2.46V.031h-2.46A1.494,1.494,0,0,1-27.1-1.476a1.494,1.494,0,0,1,1.481-1.508h2.46v-.6a1.494,1.494,0,0,1,1.481-1.508h2.087A6.551,6.551,0,0,1-13.246.03L16.132.02h0a7.386,7.386,0,0,1,7.3,7.385,7.447,7.447,0,0,1-2.122,5.284,7.2,7.2,0,0,1-5.185,2.2l-1.635,0c.764,1.272,3.59,5.965,3.59,5.965a7.654,7.654,0,0,1,5.155,7.205v8.241a4.508,4.508,0,0,1-1.776,3.582v2.535A3.9,3.9,0,0,1,17.6,46.356H13.183a3.9,3.9,0,0,1-3.861-3.931v-1.6h-22.3v1.6a3.9,3.9,0,0,1-3.861,3.931h-4.418a3.9,3.9,0,0,1-3.861-3.931V39.889A4.508,4.508,0,0,1-26.9,36.308V28.067a7.655,7.655,0,0,1,5.161-7.207q2.857-4.743,5.712-9.49a7.229,7.229,0,0,1,6.312-3.6H6.058a7.231,7.231,0,0,1,6.312,3.6l.313.519,3.441-.01a4.289,4.289,0,0,0,3.089-1.311,4.435,4.435,0,0,0-3.078-7.532ZM-19.588-2.08h-.606V5.156h.606a3.59,3.59,0,0,0,3.553-3.619A3.59,3.59,0,0,0-19.588-2.08ZM19.872,29.479a1.185,1.185,0,0,0-.96-.351,4.273,4.273,0,0,0-3.764,3.006h5.131v-1.7A1.224,1.224,0,0,0,19.872,29.479ZM12.283,42.425a.92.92,0,0,0,.9.916H17.6a.92.92,0,0,0,.9-.916v-1.6H12.283Zm-33.545.916h4.418a.92.92,0,0,0,.9-.916v-1.6h-6.218v1.6A.92.92,0,0,0-21.261,43.34Zm-2.677-12.909v1.7h5.131a4.273,4.273,0,0,0-3.764-3.006,1.18,1.18,0,0,0-.96.351A1.224,1.224,0,0,0-23.939,30.431Zm.407-4.233a4.2,4.2,0,0,1,1.155-.078,7.3,7.3,0,0,1,6.73,7.32v.2a1.5,1.5,0,0,1-1.481,1.508h-6.811v1.158a1.547,1.547,0,0,0,1.584,1.506H18.7a1.547,1.547,0,0,0,1.583-1.506V35.149H13.467a1.5,1.5,0,0,1-1.481-1.508v-.2a7.3,7.3,0,0,1,6.73-7.32,4.2,4.2,0,0,1,1.155.078,4.761,4.761,0,0,0-4.343-2.754H-19.189A4.763,4.763,0,0,0-23.532,26.2ZM6.058,10.783H-9.713a4.287,4.287,0,0,0-3.788,2.16q-2.25,3.745-4.5,7.486H14.35s-3.033-5.039-4.5-7.486A4.287,4.287,0,0,0,6.058,10.783Z" transform="translate(27.096 5.095)" fill="none"/>
    </g>
    <g id="Group_1651" data-name="Group 1651" transform="translate(12.735 31.557)">
      <path id="Path_1292" data-name="Path 1292" d="M.553,0h22.9A1.475,1.475,0,0,1,24.7.692a1.526,1.526,0,0,1,.1,1.441L22.827,6.5A4.39,4.39,0,0,1,18.79,9.134H5.218A4.393,4.393,0,0,1,1.18,6.5Q.2,4.316-.792,2.136A1.529,1.529,0,0,1-.694.694,1.473,1.473,0,0,1,.553,0m3.32,5.244a1.427,1.427,0,0,0,1.345.879H18.79a1.432,1.432,0,0,0,1.347-.878l1.007-2.235H2.864L3.873,5.244" transform="translate(0.928)" fill="#0face4"/>
    </g>
    <g id="Group_1652" data-name="Group 1652" transform="translate(12.735 31.557)">
      <path id="Path_1293" data-name="Path 1293" d="M.553,0h22.9A1.475,1.475,0,0,1,24.7.692a1.526,1.526,0,0,1,.1,1.441L22.827,6.5A4.39,4.39,0,0,1,18.79,9.134H5.218A4.393,4.393,0,0,1,1.18,6.5Q.2,4.316-.792,2.136A1.529,1.529,0,0,1-.694.694,1.473,1.473,0,0,1,.553,0Zm3.32,5.244a1.427,1.427,0,0,0,1.345.879H18.79a1.432,1.432,0,0,0,1.347-.878l1.007-2.235H2.864Z" transform="translate(0.928)" fill="none"/>
    </g>
  </g>
</svg>
