<svg xmlns="http://www.w3.org/2000/svg" xmlns:xlink="http://www.w3.org/1999/xlink" width="93.664" height="20.226" viewBox="0 0 93.664 20.226"><defs><clipPath id="a"><path d="M0,0H93.664V-20.226H0Z" fill="#0f233d"/></clipPath></defs><g transform="translate(0 20.226)"><g clip-path="url(#a)"><g transform="translate(27.446 -9.09)"><path d="M0,0A5.57,5.57,0,0,0,4.586,2.11c1.731,0,2.957-.528,2.957-1.378,0-1-.851-1.084-3.765-1.406C1.24-.967-.707-1.45-.707-3.531c0-1.993,1.919-3.355,4.861-3.355,2.308,0,4.384.835,5.322,2.1L8.062-3.414A4.957,4.957,0,0,0,4.038-5.055c-1.846,0-2.682.6-2.682,1.3,0,.762.692.938,3.317,1.246,2.942.337,5.019.732,5.019,3,0,2.3-2.264,3.458-5.192,3.458-2.467,0-4.919-.967-5.928-2.447Z" fill="#0f233d"/></g></g><path d="M40.989-5.3h-2.12V-15.815h2.12Z" fill="#0f233d"/><g transform="translate(49.196 -5.296)"><path d="M0,0-3.765-8.468V0H-5.827V-10.519H-2.6L.88-2.637l3.475-7.882H7.543V0H5.466V-8.468L1.716,0Z" fill="#0f233d"/></g><g clip-path="url(#a)"><g transform="translate(61.254 -5.295)"><path d="M0,0H-2.12V-10.52H4.356c2.365,0,3.923,1.143,3.923,3.326,0,2.168-1.558,3.326-3.923,3.326H0ZM4.24-5.7c1.227,0,1.948-.557,1.948-1.495S5.467-8.688,4.24-8.688H0V-5.7Z" fill="#0f233d"/></g></g><g transform="translate(76.355 -15.815)"><path d="M0,0,5.221,10.519H2.928l-1.2-2.446H-4.125l-1.211,2.446H-7.6L-2.38,0ZM-3.231,6.241H.822L-1.2,2.124Z" fill="#0f233d"/></g><g clip-path="url(#a)"><g transform="translate(85.096 -5.296)"><path d="M0,0H-2.12V-10.519H4.385c2.351,0,3.937,1.143,3.937,3.311A3.04,3.04,0,0,1,5.928-4.117L8.568,0H6.13L3.693-3.911H0ZM4.269-5.714c1.24,0,1.948-.542,1.948-1.48S5.509-8.688,4.269-8.688H0v2.974Z" fill="#0f233d"/></g><g transform="translate(0.004 -12.922)"><path d="M0,0,5.378,4.85,8.86,1.36A2.028,2.028,0,0,1,10.3.769h4.729C14.017-.1,9.077-4.894,7-6.706a5.124,5.124,0,0,0-1.273.935Z" fill="#0f233d"/></g><g transform="translate(9.431 -20.226)"><path d="M0,0A5.256,5.256,0,0,0-2.432.6C-.351,2.41,4.589,7.2,5.6,8.073h5.382V0Z" fill="#fff"/></g><g transform="translate(20.404 -7.304)"><path d="M0,0-5.378-4.85-8.86-1.36A2.028,2.028,0,0,1-10.3-.769h-4.729C-14.017.1-9.077,4.894-7,6.707a5.128,5.128,0,0,0,1.273-.936Z" fill="#0f233d"/></g><g transform="translate(10.977)"><path d="M0,0A5.256,5.256,0,0,0,2.432-.6C.351-2.41-4.589-7.2-5.6-8.073h-5.381V0Z" fill="#fff"/></g></g></g></svg>