<svg xmlns="http://www.w3.org/2000/svg" xmlns:xlink="http://www.w3.org/1999/xlink" width="121" height="26" viewBox="0 0 121 26"><defs><clipPath id="a"><path d="M0,10.542H121v-26H0Z" transform="translate(0 15.458)" fill="none"/></clipPath></defs><g transform="translate(0 15.458)"><g transform="translate(0 -15.458)" clip-path="url(#a)"><g transform="translate(33.611 5.463)"><path d="M.753,3.589A7.208,7.208,0,0,0,6.678,6.3c2.236,0,3.82-.678,3.82-1.769,0-1.282-1.1-1.394-4.863-1.808C2.356,2.346-.16,1.724-.16-.95c0-2.56,2.478-4.313,6.278-4.313C9.1-5.263,11.783-4.188,13-2.568L11.169-.8a6.423,6.423,0,0,0-5.2-2.109c-2.385,0-3.465.772-3.465,1.677,0,.979.894,1.2,4.285,1.6,3.8.434,6.484.942,6.484,3.862,0,2.955-2.926,4.444-6.707,4.444C3.38,8.674.212,7.431-1.091,5.529Z" transform="translate(1.091 5.263)" fill="#0f233d"/></g></g><path d="M32.453,1.553H29.7V-12.086h2.748Z" transform="translate(20.504 2.246)" fill="#0f233d"/><g transform="translate(55.992 -9.84)"><path d="M3.1,5.6-1.779-5.38V5.6H-4.453V-8.039H-.264L4.242,2.181,8.75-8.039h4.133V5.6H10.189V-5.38L5.328,5.6Z" transform="translate(4.453 8.039)" fill="#0f233d"/></g><g transform="translate(0 -15.458)" clip-path="url(#a)"><g transform="translate(76.393 5.672)"><path d="M1.118,5.482H-1.62V-8.039H6.746c3.056,0,5.068,1.468,5.068,4.274C11.814-.978,9.8.51,6.746.51H1.118ZM6.6-1.844c1.584,0,2.515-.715,2.515-1.921,0-1.223-.931-1.921-2.515-1.921H1.118v3.842Z" transform="translate(1.62 8.039)" fill="#0f233d"/></g></g><g transform="translate(88.702 -9.84)"><path d="M4.046,0l6.769,13.639H7.843L6.291,10.468H-1.3l-1.571,3.171H-5.809L.96,0ZM-.142,8.093H5.114L2.494,2.755Z" transform="translate(5.809)" fill="#0f233d"/></g><g transform="translate(0 -15.458)" clip-path="url(#a)"><g transform="translate(107.193 5.671)"><path d="M1.118,5.482H-1.62V-8.039h8.4c3.038,0,5.086,1.468,5.086,4.255A3.912,3.912,0,0,1,8.776.191l3.411,5.291H9.038L5.889.455H1.118ZM6.634-1.863c1.6,0,2.515-.7,2.515-1.9,0-1.223-.915-1.921-2.515-1.921H1.118v3.823Z" transform="translate(1.62 8.039)" fill="#0f233d"/></g><g transform="translate(0.005 0.77)"><path d="M0,3.5,6.948,9.73l4.5-4.488A2.631,2.631,0,0,1,13.3,4.484h6.109c-1.3-1.119-7.683-7.28-10.371-9.609a6.605,6.605,0,0,0-1.646,1.2Z" transform="translate(0 5.125)" fill="#0f233d"/></g><g transform="translate(9.041 0.001)"><path d="M1.283,0A6.839,6.839,0,0,0-1.859.767C.83,3.1,7.212,9.259,8.513,10.376h6.953V0Z" transform="translate(1.859)" fill="#0face4"/></g><g transform="translate(6.95 10.376)"><path d="M7.927,2.528.98-3.707-3.519.779a2.626,2.626,0,0,1-1.854.76h-6.109c1.3,1.117,7.683,7.28,10.371,9.609a6.605,6.605,0,0,0,1.646-1.2Z" transform="translate(11.482 3.707)" fill="#0f233d"/></g><g transform="translate(0.001 15.624)"><path d="M5.792,4.207A6.818,6.818,0,0,0,8.934,3.44C6.245,1.109-.137-5.052-1.438-6.169H-8.389V4.207Z" transform="translate(8.389 6.169)" fill="#0face4"/></g></g></g></svg>