<svg width="95" height="78" viewBox="0 0 95 78" fill="none" xmlns="http://www.w3.org/2000/svg">
<path d="M78.7 61.4001C80 60.1001 81.8 59.7001 83.5 59.6001C85.6 59.5001 87.7 59.9001 89.6 60.9001V64.5001C87.8 63.3001 85.7 62.8001 83.6 62.9001C82.9 63.0001 82.2 63.1001 81.7 63.6001C81.1 64.1001 81.2 65.1001 81.8 65.5001C82.4 66.1001 83.3 66.4001 84.1 66.7001C86 67.4001 88 67.9001 89.5 69.2001C90.5 70.2001 91 71.5001 90.9 72.9001C90.9 74.3001 90.3 75.8001 89.1 76.6001C87.6 77.7001 85.6 77.9001 83.7 77.8001C81.6 77.8001 79.4 77.3001 77.6 76.2001C77.5 75.1001 77.6 73.9001 77.6 72.7001C79.8 74.1001 82.6 74.8001 85.3 74.4001C86 74.3001 86.9 74.0001 87 73.2001C87.3 72.3001 86.5 71.5001 85.8 71.2001C83.8 70.2001 81.6 69.8001 79.7 68.6001C78.7 68.0001 77.9 67.0001 77.6 65.9001C77.2 64.4001 77.5 62.5001 78.7 61.4001V61.4001Z" fill="#ED1C24"/>
<path d="M0 59.9001H3.4C3.8 59.9001 4.1 60.2002 4.2 60.5002C5.7 64.7002 7.2 68.9002 8.7 73.0002C9.1 71.9002 12.1 63.5002 13.2 60.5002C13.3 60.2002 13.7 59.9001 14 59.9001H17.5C15.2 65.8001 12.9 71.6002 10.6 77.5002H6.8C4.5 71.6002 2.2 65.8001 0 59.9001V59.9001Z" fill="#ED1C24"/>
<path d="M35.7001 60.0002C36.6001 59.9002 38.0001 59.9001 38.8001 59.9001C39.1001 60.0001 39.3001 60.1001 39.5001 60.4001C40.3001 61.8001 43.0001 66.5001 45.2001 69.1001C47.5001 66.6001 50.3001 61.8002 51.0001 60.3002C51.2001 60.1002 51.4001 59.9001 51.7001 59.9001C52.5001 59.9001 53.9001 59.9002 54.7001 60.0002C54.7001 65.8002 54.7001 71.6002 54.7001 77.5002C53.5001 77.5002 52.2001 77.5002 51.0001 77.5002C51.0001 73.9002 51.0001 70.3001 51.0001 66.7001C50.8001 66.9001 50.7001 67.0001 50.6001 67.2001C49.2001 69.4001 47.7001 71.5001 46.4001 73.7001C45.6001 73.8001 44.9001 73.7001 44.1001 73.7001C42.6001 71.4001 41.0001 69.0001 39.5001 66.6001C39.5001 70.2001 39.5001 73.9002 39.5001 77.5002C38.3001 77.5002 37.0001 77.5002 35.7001 77.5002C35.8001 71.6002 35.7001 65.8002 35.7001 60.0002V60.0002Z" fill="#ED1C24"/>
<path d="M75.4001 66.4C75.0001 64.1 73.6001 62.1 71.6001 60.9C69.6001 59.7 67.2001 59.4 64.9001 59.7C63.4001 59.8 61.9001 60.4 60.7001 61.3C59.0001 62.4 57.9001 64.2 57.4001 66.1C56.7001 68.7 57.0001 71.5 58.4001 73.8C59.6001 75.7 61.5001 77 63.7001 77.5C65.6001 78 67.7001 77.9 69.7001 77.4C71.6001 76.8 73.3001 75.5 74.3001 73.8C75.7001 71.6 76.0001 68.9 75.4001 66.4ZM70.8001 72.3C70.0001 73.4 68.8001 74 67.6001 74.3C66.2001 74.5 64.7001 74.4 63.5001 73.7C62.4001 73.1 61.6001 72.1 61.2001 70.9C60.7001 69.2 60.8001 67.2 61.6001 65.6C62.3001 64.4 63.5001 63.5 64.9001 63.2C66.4001 62.9 68.2001 63 69.6001 63.9C70.8001 64.7 71.6001 66.2 71.8001 67.6C72.0001 69.2 71.7001 71 70.8001 72.3V72.3Z" fill="#ED1C24"/>
<path d="M93.6001 60.4001C94.3001 60.4001 94.9001 61.0001 94.9001 61.7001C94.9001 62.5001 94.3001 63.1001 93.5001 63.1001C92.8001 63.1001 92.2001 62.5001 92.2001 61.7001C92.2001 61.0001 92.8001 60.4001 93.5001 60.4001H93.6001ZM93.5001 60.7001C93.0001 60.7001 92.5001 61.2001 92.5001 61.7001C92.5001 62.3001 93.0001 62.8002 93.6001 62.8002C94.1001 62.8002 94.6001 62.3001 94.6001 61.7001C94.6001 61.2001 94.1001 60.7001 93.5001 60.7001ZM93.3001 62.4001H93.0001V61.1001C93.1001 61.1001 93.3001 61.1001 93.5001 61.1001C93.8001 61.1001 93.9001 61.1001 94.0001 61.2001C94.1001 61.2001 94.1001 61.3001 94.1001 61.4001C94.1001 61.6001 94.0001 61.7002 93.9001 61.8002C94.0001 61.8002 94.1001 61.9001 94.1001 62.1001C94.1001 62.3001 94.2001 62.4001 94.2001 62.4001H93.9001C93.8001 62.4001 93.8001 62.3001 93.8001 62.1001C93.7001 62.0001 93.7001 61.9001 93.5001 61.9001H93.3001V62.4001ZM93.3001 61.7001H93.5001C93.7001 61.7001 93.8001 61.6002 93.8001 61.5002C93.8001 61.4002 93.7001 61.3002 93.5001 61.3002C93.4334 61.3002 93.3667 61.3002 93.3001 61.3002V61.7001Z" fill="#ED1C24"/>
<path d="M26.6 59.9001H22.6C20.2 65.8001 17.8 71.6002 15.4 77.5002C16.7 77.5002 18 77.5002 19.3 77.5002C19.7 76.4002 20.6 74.2001 20.6 74.2001L20.7 73.8002H28.5L28.6 74.2001C28.6 74.2001 29.5 76.4002 29.9 77.5002C31.2 77.5002 32.5 77.5002 33.8 77.5002C31.4 71.6002 29 65.8001 26.6 59.9001ZM24.6 63.4001L26.9 69.7001L27.3 70.7001H21.9L22.3 69.7001L24.6 63.4001Z" fill="#ED1C24"/>
<path d="M3 55.6001C2.6 56.0001 2.2 56.1001 1.7 56.1001C1.2 56.1001 0.800002 56.0001 0.400002 55.6001C0.200002 55.4001 0.1 55.2001 0 54.9001C0 54.7001 0 54.3002 0 53.8002C0 53.2002 0 52.9001 0 52.6001C0.1 52.3001 0.200002 52.1001 0.400002 51.9001C0.800002 51.5001 1.2 51.4001 1.7 51.4001C2.8 51.4001 3.3 52.1001 3.5 52.9001H2.5C2.4 52.4001 2.1 52.2001 1.7 52.2001C1.4 52.2001 1.2 52.3001 1.1 52.4001C0.899998 52.7001 0.900002 52.8002 0.900002 53.8002C0.900002 54.7002 0.899998 54.9001 1.1 55.1001C1.2 55.2001 1.4 55.3002 1.7 55.3002C2 55.3002 2.2 55.2001 2.3 55.1001C2.5 54.9001 2.6 54.7001 2.6 54.4001V54.3002H1.7V53.5002H3.5V54.2001C3.5 54.9001 3.3 55.3001 3 55.6001V55.6001Z" fill="#ED1C24"/>
<path d="M8.40002 56.1001L7.50002 54.2001H6.80003V56.1001H5.90002V51.4001H7.80003C8.70003 51.4001 9.30003 52.1002 9.30003 52.8002C9.30003 53.5002 8.90002 53.9001 8.40002 54.1001L9.50002 56.1001H8.40002ZM7.70003 52.2001H6.80003V53.5002H7.70003C8.10003 53.5002 8.40002 53.2002 8.40002 52.8002C8.40002 52.5002 8.10003 52.2001 7.70003 52.2001V52.2001Z" fill="#ED1C24"/>
<path d="M13.5 56.1001C12.5 56.1001 11.8 55.5002 11.8 54.5002V51.4001H12.7001V54.5002C12.7001 55.0002 13 55.3002 13.5 55.3002C14 55.3002 14.3 55.0002 14.3 54.5002V51.4001H15.2001V54.5002C15.2001 55.5002 14.4 56.1001 13.5 56.1001Z" fill="#ED1C24"/>
<path d="M19.6 54.3002H18.7001V56.1001H17.8V51.4001H19.6C20.6 51.4001 21.2001 52.1001 21.2001 52.9001C21.2001 53.7001 20.6 54.3002 19.6 54.3002V54.3002ZM19.6 52.2001H18.7001V53.5002H19.6C20 53.5002 20.3 53.3001 20.3 52.9001C20.3 52.5001 20 52.2001 19.6 52.2001V52.2001Z" fill="#ED1C24"/>
<path d="M26.4 55.6001C26.1 56.0001 25.7 56.1001 25.1 56.1001C24.6 56.1001 24.2 56.0001 23.9 55.6001C23.4 55.2001 23.4 54.6002 23.4 53.8002C23.4 52.9002 23.4 52.4001 23.9 51.9001C24.2 51.6001 24.6 51.4001 25.1 51.4001C25.7 51.4001 26.1 51.6001 26.4 51.9001C26.9 52.4001 26.9 52.9002 26.9 53.8002C26.9 54.6002 26.9 55.2001 26.4 55.6001ZM25.7 52.4001C25.6 52.3001 25.4 52.2001 25.1 52.2001C24.9 52.2001 24.7 52.3001 24.5 52.4001C24.4 52.6001 24.3 52.9002 24.3 53.8002C24.3 54.7002 24.4 54.9001 24.5 55.1001C24.7 55.2001 24.9 55.3002 25.1 55.3002C25.4 55.3002 25.6 55.2001 25.7 55.1001C25.9 54.9001 26 54.7002 26 53.8002C26 52.9002 25.9 52.6001 25.7 52.4001Z" fill="#ED1C24"/>
<path d="M45.1001 37.1C35.8001 37.1 28.2001 29.5 28.2001 20.2C28.2001 10.9 35.8001 3.30005 45.1001 3.30005C54.4001 3.30005 62.0001 10.9 62.0001 20.2C62.0001 29.5 54.4001 37.1 45.1001 37.1V37.1Z" fill="#00BAC4"/>
<path d="M62.0001 20.1999C62.0001 19.0999 61.9001 17.9999 61.7001 16.9999C61.5001 16.7999 61.3001 16.5999 61.3001 16.5999C60.0001 15.3999 58.1001 14.1999 57.5001 13.3999C57.3001 13.2999 57.0001 13.1999 56.7001 13.1999C56.6001 13.2999 56.5001 13.1999 56.4001 13.1999C56.0001 13.2999 55.9001 13.2999 55.5001 13.5999C55.2001 13.7999 54.7001 14.2999 54.2001 14.8999C54.1001 14.9999 53.9001 15.2999 53.6001 15.6999C53.6001 15.7999 53.5001 15.8999 53.4001 15.9999C51.5001 13.6999 49.4001 11.0999 48.8001 10.3999C48.8001 10.2999 48.5001 9.89993 48.2001 9.69993C47.5001 9.29993 46.3001 9.99993 45.1001 10.8999C44.4001 11.4999 43.7001 12.1999 43.0001 12.8999C43.0001 13.0999 33.6001 17.7999 33.4001 17.8999C32.5001 16.4999 31.8001 15.3999 31.3001 15.3999C31.1001 15.3999 30.6001 15.4999 30.5001 15.5999C30.1001 15.5999 29.6001 15.7999 29.1001 15.8999C29.0001 15.8999 28.8001 15.9999 28.7001 15.9999C28.4001 17.3999 28.2001 18.7999 28.2001 20.1999C28.2001 29.4999 35.8001 37.0999 45.1001 37.0999C54.4001 37.0999 62.0001 29.4999 62.0001 20.1999V20.1999Z" fill="#3B9947"/>
<path d="M56.5 19.0999C57.8 20.2999 60.5 21.7 60.5 21.7C58.7 19.9 56.2 17.5 56.2 17.5C56.2 17.4 56.8 13.8 56.8 13.8L56.7 13.2C56.6 13.3 56.5 13.2 56.4 13.2C56 13.3 55.9 13.2999 55.5 13.5999C55.2 13.7999 54.7 14.2999 54.2 14.8999C54.1 15.0999 53.7 15.5 53.4 16C53.6 16.2 53.8 16.3999 53.9 16.5999C54.9 17.6999 55.9 18.5999 56.5 19.0999V19.0999Z" fill="#176330"/>
<path d="M43 12.8999C43 13.0999 33.6 17.7999 33.4 17.8999C34.4 19.2999 35.4 20.9999 36.3 22.2999C36.3 22.2999 36.5 22.3999 36.6 22.3999C36.6 22.3999 40.2 22.4999 41.6 22.6999C43.2 22.8999 44.9 23.1999 46.6 23.4999C47.9 23.7999 48.9 24.0999 50.3 24.5999C50.5 24.5999 50.9 24.6999 51.1 24.5999C49.1 22.3999 46.9 21.3999 45.3 20.3999C45.3 19.3999 45.4 18.3999 45.7 17.3999C46.1 15.7999 47.6 14.2999 47.9 13.5999C48.1 12.9999 48.8 10.3999 48.8 10.3999C48.8 10.2999 48.5 9.89993 48.2 9.69993C47.5 9.29993 46.3 9.99993 45.1 10.8999C44.4 11.4999 43.7 12.1999 43 12.8999V12.8999Z" fill="#176330"/>
<path d="M28.7001 16.0001C28.4001 17.4001 28.2001 18.8001 28.2001 20.2001C28.2001 20.9001 28.2001 21.5001 28.3001 22.1001C28.4001 22.2001 28.6001 22.2001 28.6001 22.2001C28.8001 22.1001 29.4001 21.4001 29.5001 21.0001C30.4001 19.0001 30.5001 15.9001 30.5001 15.9001C30.5001 15.9001 30.5001 15.7001 30.5001 15.6001C30.1001 15.6001 29.6001 15.8001 29.1001 15.9001C29.0001 15.9001 28.8001 16.0001 28.7001 16.0001V16.0001Z" fill="#176330"/>
<path d="M65.3 20.2C65.3 9 56.3 0 45.1 0C33.9 0 24.9 9 24.9 20.2C24.9 22.2 25.2 24.2 25.7 26.1C25.8 26.2 25.8 26.4 25.9 26.5C27 30.1 29.1 34.1 31.5 38.3C32.8 40.6 34.3 42.9 35.9 45.4C42.7 56.1 45.1 59.8 45.1 59.8C45.1 59.8 47.4 56.1 54.3 45.4C55.9 42.9 57.3 40.6 58.7 38.3C61.1 34.1 63.2 30.1 64.3 26.5C64.4 26.4 64.4 26.2 64.5 26.1C65 24.2 65.3 22.2 65.3 20.2ZM45.1 3.59999C54.2 3.59999 61.7 11.1 61.7 20.2C61.7 29.3 54.2 36.8 45.1 36.8C35.9 36.8 28.5 29.3 28.5 20.2C28.5 11.1 35.9 3.59999 45.1 3.59999V3.59999Z" fill="#ED1C24"/>
<path d="M59.3 36.1C58.8 35.4 58.4 34.7 58 34.1C57.7 33.7 57.5 33.4 57.3 33.1C57.1 32.8 56.8 32.5 56.6 32.2V32.1C56.4 31.9 56.2 31.6 55.9 31.3C55.7 31 55.5 30.7 55.2 30.4L55.1 30.3L55 30.2V30.1C54.9333 30.1 54.9 30.0667 54.9 30C54.8333 30 54.8 29.9667 54.8 29.9C54.7333 29.9 54.7 29.8667 54.7 29.8C54.7 29.8 54.6 29.8 54.6 29.7C54.6 29.7 54.5 29.7 54.5 29.6C54.4 29.6 54.4 29.5 54.3 29.4C54.3 29.4 54.2 29.3 54.1 29.2C54.1 29.2 54 29.1 53.9 29L53.8 28.9C53.7 28.8 53.6 28.7 53.6 28.7C53.5333 28.6334 53.5 28.6 53.5 28.6C53.4333 28.5334 53.4 28.5 53.4 28.5C53.3 28.4 53.2 28.4 53.2 28.3C53.1333 28.2334 53.0666 28.1667 53 28.1C52.9 28.1 52.9 28 52.8 27.9C52.7 27.9 52.7 27.8 52.6 27.8C52.5333 27.7334 52.4666 27.6667 52.4 27.6C52.3333 27.5334 52.2666 27.4667 52.2 27.4C52.1 27.3 51.9 27.2 51.8 27.1C51.7 27 51.5 26.9 51.4 26.8C51.2 26.7 51.1 26.6 50.9 26.5C50.8 26.4 50.6 26.3 50.5 26.1C50.4333 26.1 50.4 26.1 50.4 26.1C50.3333 26.0334 50.3 26 50.3 26C50.2 26 50.2 25.9 50.1 25.9H50C50 25.8334 50 25.8 50 25.8C49.9333 25.8 49.9 25.8 49.9 25.8L49.8 25.7H49.7V25.6C49.6333 25.6 49.6 25.6 49.6 25.6H49.5C49.5 25.5 49.4 25.5 49.3 25.4C49.2 25.4 49.1 25.3 49 25.3C48.9333 25.2334 48.8666 25.1667 48.8 25.1C48.7 25.1 48.6 25.1 48.5 25C48.4 25 48.3 24.9 48.2 24.9C48.1 24.8 48 24.8 47.9 24.8C47.8 24.7 47.7 24.7 47.6 24.6C47.5 24.6 47.4 24.6 47.3 24.5C47.2 24.5 47.1 24.4 47 24.4C46.9 24.4 46.8 24.3 46.7 24.3C46.5 24.3 46.4 24.2 46.3 24.2C46.2 24.1 46.1 24.1 46 24.1C45.8 24 45.5 24 45.3 23.9C45.1 23.8 44.9 23.8 44.6 23.7C44.4 23.7 44.2 23.6 43.9 23.6C43.7 23.5 43.5 23.5 43.2 23.4C43 23.4 42.8 23.3 42.6 23.3C42.3 23.3 42.1 23.2 41.9 23.2C41.6 23.2 41.4 23.1 41.2 23.1C41 23.1 40.7 23 40.5 23C40.3 23 40.1 23 39.9 23C39.7 22.9 39.5 22.9 39.3 22.9C39 22.9 38.8 22.9 38.6 22.9C38.4 22.9 38.2 22.9 38 22.9C37.8 22.8 37.6 22.8 37.5 22.8C37.3 22.8 37.1 22.8 36.9 22.8H36.8C36.7 22.8 36.6 22.8 36.6 22.8C36.7 22.9 36.8 22.9 36.9 22.9C37.1 22.9 37.3 22.9 37.5 22.9C37.7 22.9 37.8 22.9 38 22.9C38.2 22.9 38.4 22.9 38.6 22.9C38.8 22.9 39 22.9 39.2 23C39.5 23 39.7 23 39.9 23C40.1 23 40.3 23 40.5 23.1C40.7 23.1 40.9 23.1 41.2 23.1C41.4 23.2 41.6 23.2 41.8 23.2C42.1 23.3 42.3 23.3 42.5 23.3C42.7 23.4 43 23.4 43.2 23.4C43.4 23.5 43.6 23.5 43.9 23.6C44.1 23.6 44.3 23.7 44.5 23.7C44.8 23.8 45 23.9 45.2 23.9C45.4 24 45.7 24 45.9 24.1C46 24.1 46.1 24.2 46.2 24.2C46.3 24.2 46.4 24.3 46.5 24.3C46.6 24.3 46.7 24.4 46.8 24.4C46.9 24.5 47 24.5 47.1 24.5C47.3 24.6 47.4 24.6 47.5 24.7C47.6 24.7 47.7 24.7 47.7 24.8C47.8 24.8 47.9 24.9 48 24.9C48.1 24.9 48.2 25 48.3 25C48.4 25.1 48.5 25.1 48.6 25.2C48.6666 25.2 48.7333 25.2334 48.8 25.3C48.9 25.3 49 25.4 49.1 25.4C49.1666 25.4667 49.2333 25.5334 49.3 25.6H49.4C49.5 25.6 49.5 25.7 49.5 25.7H49.6L49.7 25.8C49.7666 25.8 49.8 25.8 49.8 25.8C49.8 25.9 49.9 25.9 49.9 25.9C50 25.9 50 26 50 26C50.0666 26 50.1 26.0334 50.1 26.1C50.1666 26.1 50.2 26.1 50.2 26.1C50.4 26.2 50.5 26.3 50.7 26.4C50.8 26.5 51 26.6 51.1 26.8C51.2 26.9 51.4 27 51.5 27.1C51.7 27.2 51.8 27.3 51.9 27.4C52 27.5 52.1 27.5 52.1 27.6C52.2 27.6 52.2 27.7 52.3 27.7C52.4 27.8 52.4 27.9 52.5 27.9C52.5666 27.9667 52.6333 28.0334 52.7 28.1C52.7666 28.1667 52.8333 28.2334 52.9 28.3C52.9 28.3 53 28.4 53.1 28.4C53.1 28.5 53.2 28.6 53.3 28.6C53.3 28.7 53.4 28.8 53.4 28.8C53.4666 28.8667 53.5333 28.9334 53.6 29C53.6666 29.0667 53.7333 29.1334 53.8 29.2C53.8666 29.2667 53.9333 29.3334 54 29.4C54 29.4 54.1 29.5 54.2 29.6V29.7C54.2666 29.7 54.3 29.7334 54.3 29.8C54.3666 29.8 54.4 29.8334 54.4 29.9C54.4 29.9 54.5 29.9 54.5 30C54.5 30 54.6 30 54.6 30.1C54.6 30.1 54.7 30.1 54.7 30.2L54.8 30.3L54.9 30.4C55.1 30.6 55.3 30.9 55.5 31.2C55.8 31.5 56 31.8 56.2 32.1C56.3 32.2 56.3 32.3 56.4 32.3C56.5 32.6 56.7 32.8 56.9 33C57.1 33.3 57.3 33.6 57.5 33.9C57.9 34.6 58.3 35.3 58.7 35.9C59 36.3 59.2 36.7 59.4 37.1C59.5 36.9 59.5 36.8 59.6 36.7C59.5 36.5 59.4 36.3 59.3 36.1V36.1Z" fill="#D1D3D4"/>
<path d="M58.3 35.9001C57.9 35.2001 57.5 34.6001 57.1 33.9001C56.9 33.6001 56.7 33.3002 56.4 33.0002C56.4 32.8002 56.3 32.7001 56.2 32.6001C56 32.4001 55.9 32.2001 55.8 32.1001C55.6 31.8001 55.4 31.5001 55.1 31.2001C54.9 30.9001 54.7 30.6001 54.5 30.4001C54.4333 30.3335 54.4 30.3002 54.4 30.3002C54.4 30.2002 54.3 30.2001 54.3 30.2001C54.3 30.1001 54.2 30.1001 54.2 30.1001C54.2 30.0335 54.1666 30.0002 54.1 30.0002C54.1 29.9335 54.0666 29.9001 54 29.9001C54 29.8335 54 29.8002 54 29.8002C53.9333 29.7335 53.9 29.7001 53.9 29.7001C53.8333 29.6335 53.8 29.6001 53.8 29.6001C53.7 29.5001 53.7 29.4001 53.6 29.4001C53.5333 29.3335 53.4666 29.2668 53.4 29.2001C53.4 29.1001 53.3 29.1002 53.3 29.0002C53.2 28.9002 53.1 28.9002 53.1 28.8002H53C53 28.7002 52.9 28.7001 52.9 28.6001C52.8 28.6001 52.8 28.5002 52.7 28.5002C52.6 28.4002 52.6 28.3002 52.5 28.3002C52.5 28.2002 52.4 28.2001 52.3 28.1001C52.3 28.0001 52.2 28.0001 52.1 27.9001L52 27.8002C51.9 27.7002 51.8 27.6001 51.8 27.6001C51.7 27.5001 51.6 27.5001 51.6 27.4001C51.4 27.3001 51.3 27.2001 51.2 27.1001C51 27.0001 50.9 26.9002 50.8 26.8002C50.6 26.7002 50.5 26.6002 50.4 26.5002C50.2 26.4002 50.1 26.3001 49.9 26.2001C49.9 26.1001 49.8 26.1001 49.8 26.1001C49.8 26.1001 49.7 26.1002 49.7 26.0002H49.6C49.6 25.9002 49.5 25.9001 49.5 25.9001C49.5 25.9001 49.4 25.9002 49.4 25.8002C49.3333 25.8002 49.3 25.8002 49.3 25.8002L49.2 25.7001H49.1V25.6001C49.0333 25.6001 49 25.6001 49 25.6001C48.9 25.6001 48.8 25.5002 48.8 25.5002C48.7 25.4002 48.6 25.4002 48.5 25.3002C48.4 25.3002 48.3 25.2001 48.3 25.2001C48.2 25.2001 48.1 25.1001 48 25.1001C47.9 25.0001 47.8 25.0001 47.7 24.9001C47.6 24.9001 47.5 24.9002 47.4 24.8002C47.4 24.8002 47.3 24.7001 47.2 24.7001C47.1 24.7001 47 24.6001 46.9 24.6001C46.8 24.6001 46.7 24.5002 46.5 24.5002C46.4 24.4002 46.3 24.4001 46.2 24.4001C46.1 24.3001 46 24.3002 45.9 24.3002C45.8 24.2002 45.7 24.2001 45.6 24.2001C45.4 24.1001 45.2 24.0002 44.9 24.0002C44.7 23.9002 44.5 23.9002 44.3 23.8002C44.1 23.8002 43.8 23.7001 43.6 23.7001C43.4 23.6001 43.2 23.6002 42.9 23.5002C42.7 23.5002 42.5 23.4001 42.3 23.4001C42 23.4001 41.8 23.3002 41.6 23.3002C41.4 23.3002 41.1 23.2001 40.9 23.2001C40.7 23.2001 40.5 23.2001 40.3 23.1001C40.1 23.1001 39.8 23.1001 39.6 23.1001C39.4 23.1001 39.2 23.0002 39 23.0002C38.8 23.0002 38.6 23.0002 38.4 23.0002C38.2 23.0002 38 23.0002 37.8 23.0002C37.6 22.9002 37.4 22.9001 37.2 22.9001H37.1C36.9 22.9001 36.8 22.9001 36.7 22.9001H36.6L36.7 23.0002C36.8 23.0002 37 23.0002 37.2 23.0002C37.4 23.0002 37.6 23.0002 37.8 23.0002C38 23.0002 38.2 23.0002 38.4 23.0002C38.6 23.0002 38.8 23.0001 39 23.1001C39.2 23.1001 39.4 23.1001 39.6 23.1001C39.8 23.1001 40 23.1001 40.3 23.2001C40.5 23.2001 40.7 23.2001 40.9 23.2001C41.1 23.3001 41.3 23.3002 41.5 23.3002C41.8 23.4002 42 23.4001 42.2 23.4001C42.4 23.5001 42.6 23.5002 42.9 23.5002C43.1 23.6002 43.3 23.6001 43.5 23.7001C43.7 23.7001 44 23.8002 44.2 23.8002C44.4 23.9002 44.6 23.9002 44.8 24.0002C45 24.1002 45.3 24.1001 45.5 24.2001C45.6 24.2001 45.7 24.3002 45.8 24.3002C45.9 24.3002 46 24.4001 46.1 24.4001C46.2 24.4001 46.3 24.5002 46.4 24.5002C46.5 24.5002 46.6 24.6001 46.7 24.6001C46.8 24.6001 46.9 24.7001 47 24.7001C47.1 24.8001 47.2 24.8002 47.3 24.8002C47.4 24.9002 47.5 24.9002 47.6 25.0002C47.6 25.0002 47.7 25.0001 47.8 25.1001C47.9 25.1001 48 25.2001 48.1 25.2001C48.2 25.2001 48.2 25.3002 48.3 25.3002C48.4 25.4002 48.5 25.4002 48.6 25.5002C48.6 25.5002 48.7 25.6001 48.8 25.6001H48.9V25.7001H49L49.1 25.8002C49.1666 25.8002 49.2 25.8002 49.2 25.8002C49.2 25.8668 49.2 25.9001 49.2 25.9001C49.2666 25.9001 49.3333 25.9001 49.4 25.9001C49.4 25.9668 49.4333 26.0002 49.5 26.0002C49.5 26.0002 49.5 26.1001 49.6 26.1001L49.7 26.2001C49.8 26.3001 50 26.4002 50.1 26.5002C50.2 26.6002 50.4 26.7002 50.5 26.8002C50.6 26.9002 50.8 27.0001 50.9 27.1001C51 27.2001 51.2 27.3001 51.3 27.4001C51.3666 27.4668 51.4333 27.5335 51.5 27.6001C51.5 27.6001 51.6 27.7001 51.7 27.7001C51.7 27.8001 51.8 27.8001 51.9 27.9001C51.9 28.0001 52 28.0001 52 28.1001C52.1 28.1001 52.2 28.2001 52.2 28.2001C52.3 28.3001 52.3 28.4001 52.4 28.4001C52.4 28.5001 52.5 28.5002 52.5 28.5002C52.5 28.6002 52.6 28.6001 52.6 28.6001C52.6 28.7001 52.7 28.7002 52.8 28.8002C52.8 28.8002 52.9 28.9002 52.9 29.0002C53 29.0002 53 29.1001 53.1 29.1001C53.2 29.2001 53.2 29.3002 53.3 29.3002C53.3 29.4002 53.4 29.5002 53.4 29.5002C53.4666 29.5668 53.5 29.6001 53.5 29.6001C53.5666 29.6668 53.6 29.7001 53.6 29.7001L53.7 29.8002L53.8 29.9001C53.8 29.9001 53.8 30.0002 53.9 30.0002C53.9 30.0002 53.9 30.1001 54 30.1001V30.2001C54.1 30.2001 54.1 30.3002 54.1 30.3002C54.3 30.6002 54.6 30.8001 54.8 31.1001C55 31.4001 55.2 31.7002 55.4 32.0002C55.6 32.2002 55.8 32.5001 55.9 32.7001C55.9666 32.7668 56 32.8335 56 32.9001C56.2 33.2001 56.4 33.5002 56.6 33.8002C57 34.4002 57.4 35.1001 57.8 35.7001C58.2 36.4001 58.6 37.1002 58.9 37.8002C59 37.7002 59.1 37.6001 59.2 37.4001C58.9 36.9001 58.6 36.4001 58.3 35.9001V35.9001Z" fill="#D1D3D4"/>
<path d="M52.8 44.8C52.8 44.4 52.8 43.9 52.7 43.4C52.7 43 52.6 42.5 52.6 41.9C52.5 41.4 52.5 40.9 52.4 40.3C52.3 39.8 52.2 39.2 52.1 38.7C52 38.1 51.9 37.6 51.8 37C51.7 36.5 51.6 36 51.5 35.5C51.4 35.5 51.4 35.4 51.4 35.3C51.3 34.8 51.1 34.3 50.9 33.7C50.8 33.2 50.6 32.7 50.4 32.2C50.3 31.9 50.2 31.7 50.1 31.5C50 31.2 49.9 31 49.8 30.7C49.7 30.5 49.6 30.3 49.4 30C49.3 29.8 49.2 29.6 49.1 29.4L49 29.3V29.2C49 29.2 48.9 29.2 48.9 29.1C48.9 29 48.8 29 48.8 29V28.9C48.8 28.9 48.8 28.8 48.7 28.8V28.7C48.6 28.7 48.6 28.6 48.6 28.6C48.5333 28.5333 48.5 28.4667 48.5 28.4C48.4 28.4 48.4 28.3 48.4 28.3C48.3333 28.2333 48.3 28.1667 48.3 28.1C48.2 28.1 48.2 28 48.2 28C48.1333 27.9333 48.0667 27.8667 48 27.8V27.7C47.9333 27.7 47.9 27.7 47.9 27.7C47.9 27.6333 47.8667 27.5667 47.8 27.5L47.7 27.4L47.6 27.3C47.6 27.2333 47.6 27.2 47.6 27.2C47.5333 27.2 47.5 27.1667 47.5 27.1C47.4 27.1 47.4 27 47.3 27C47.3 26.9 47.2 26.8 47.1 26.7C47 26.6 46.9 26.6 46.9 26.5H46.8V26.4C46.7 26.4 46.7 26.3 46.6 26.2C46.5 26.1 46.4 26.1 46.3 26L46.2 25.9C46.1333 25.8333 46.1 25.8 46.1 25.8C46.1 25.8 46 25.8 46 25.7H45.9V25.6C45.8333 25.6 45.8 25.6 45.8 25.6H45.7C45.7 25.5333 45.7 25.5 45.7 25.5C45.7 25.5 45.6 25.5 45.6 25.4C45.5333 25.4 45.4667 25.3667 45.4 25.3C45.4 25.3 45.3 25.3 45.3 25.2C45.2333 25.2 45.1667 25.1667 45.1 25.1H45C44.9333 25.1 44.9 25.1 44.9 25.1C44.9 25.0333 44.9 25 44.9 25H44.7V24.9H44.6C44.5333 24.9 44.5 24.9 44.5 24.9C44.4333 24.8333 44.3667 24.8 44.3 24.8C44.2333 24.7333 44.1667 24.7 44.1 24.7C44 24.7 44 24.6 43.9 24.6C43.8333 24.6 43.7667 24.5667 43.7 24.5C43.6 24.5 43.4 24.5 43.3 24.4C43.2333 24.4 43.1667 24.4 43.1 24.4C43.0333 24.3333 42.9667 24.3 42.9 24.3C42.8 24.3 42.6 24.2 42.5 24.2C42.3 24.1 42.2 24.1 42 24.1C41.9 24 41.7 24 41.6 24C41.4 24 41.3 23.9 41.1 23.9C41 23.9 40.8 23.9 40.7 23.8C40.5 23.8 40.3 23.8 40.2 23.8C40 23.7 39.8 23.7 39.7 23.7C39.5 23.7 39.3 23.7 39.2 23.7C39 23.6 38.8 23.6 38.7 23.6H38.6C38.5 23.6 38.4 23.6 38.2 23.6H38.1C38 23.6 37.8 23.6 37.6 23.6C37.5 23.6 37.3 23.5 37.1 23.5H37C37 23.5667 37 23.6 37 23.6C37.0667 23.6 37.1 23.6 37.1 23.6C37.3 23.6 37.5 23.6 37.6 23.6C37.8 23.6 38 23.6 38.2 23.6C38.2 23.6 38.3 23.6 38.4 23.6C38.5 23.7 38.6 23.7 38.7 23.7H38.8C38.9 23.7 39 23.7 39.2 23.7C39.3 23.7 39.5 23.7 39.7 23.8C39.8 23.8 40 23.8 40.2 23.8C40.3 23.8 40.5 23.9 40.6 23.9C40.8 23.9 40.9 23.9 41.1 23.9C41.2 24 41.4 24 41.5 24C41.7 24.1 41.8 24.1 42 24.1C42.1 24.1 42.3 24.2 42.4 24.2C42.5 24.2 42.7 24.3 42.8 24.3C42.9 24.4 43.1 24.4 43.2 24.4C43.3 24.5 43.5 24.5 43.6 24.6C43.6667 24.6 43.7333 24.6 43.8 24.6C43.8667 24.6667 43.9333 24.7 44 24.7C44 24.7 44.1 24.8 44.2 24.8C44.2 24.8 44.3 24.8 44.4 24.9H44.5L44.6 25H44.7C44.7 25 44.7 25.1 44.8 25.1H44.9V25.2C44.9667 25.2 45.0333 25.2 45.1 25.2C45.1 25.3 45.2 25.3 45.2 25.3C45.2667 25.3667 45.3333 25.4 45.4 25.4C45.4 25.5 45.5 25.5 45.5 25.5L45.6 25.6H45.7V25.7H45.8C45.8 25.8 45.9 25.8 45.9 25.8C45.9667 25.8667 46 25.9 46 25.9C46 25.9 46.1 25.9 46.1 26C46.2 26 46.3 26.1 46.4 26.2L46.5 26.3C46.5 26.3667 46.5333 26.4 46.6 26.4C46.7 26.5 46.8 26.6 46.9 26.7C46.9 26.8 47 26.9 47.1 27C47.1 27 47.2 27 47.2 27.1C47.3 27.1 47.3 27.2 47.3 27.2C47.3667 27.2667 47.4333 27.3333 47.5 27.4C47.5 27.4 47.5 27.5 47.6 27.5C47.6 27.5 47.6 27.6 47.7 27.6V27.7C47.7 27.7 47.8 27.7 47.8 27.8L47.9 27.9C47.9 28 48 28 48 28.1L48.1 28.2C48.1 28.3 48.2 28.3 48.2 28.4L48.3 28.5C48.3 28.6 48.4 28.6 48.4 28.7C48.4 28.7 48.4 28.8 48.5 28.8V28.9C48.5667 28.9667 48.6 29 48.6 29V29.1C48.6667 29.1 48.7 29.1333 48.7 29.2V29.3C48.7667 29.3 48.8 29.3 48.8 29.3C48.9 29.6 49 29.8 49.1 30C49.2 30.2 49.4 30.4 49.5 30.7C49.6 30.9 49.7 31.1 49.8 31.4C49.9 31.6 50 31.9 50.1 32.1C50.2 32.6 50.4 33.1 50.6 33.6C50.7 34.2 50.9 34.7 51 35.2C51 35.4 51.1 35.5 51.1 35.7C51.2 36.1 51.3 36.4 51.4 36.8C51.5 37.4 51.6 37.9 51.6 38.5C51.7 39 51.8 39.6 51.9 40.1C52 40.7 52 41.2 52.1 41.7C52.1 42.2 52.2 42.7 52.2 43.1C52.2 43.6 52.3 44.1 52.3 44.5C52.3 44.9 52.3 45.2 52.3 45.5C52.3 45.6 52.4 47.1 52.4 48.4C52.6 48.1 52.7 47.8 52.9 47.5C52.9 46.3 52.9 44.9 52.8 44.8V44.8Z" fill="#DEBF2E"/>
<path d="M62.1 31.6001C62 31.6001 62 31.5001 61.9 31.5001L61.8 31.4001C61.7334 31.3334 61.6667 31.2668 61.6 31.2001C61.6 31.2001 61.5 31.2001 61.5 31.1001C61.4 31.1001 61.4 31.0001 61.3 31.0001C61.2 30.9001 61.1 30.8001 61 30.8001C60.9 30.7001 60.8 30.6001 60.7 30.5001C60.6 30.4001 60.5 30.4001 60.4 30.3001C60.3 30.2001 60.2 30.1001 60.1 30.0001C60 30.0001 59.9 29.9001 59.8 29.8001C59.7 29.7001 59.6 29.7001 59.5 29.6001C59.4 29.5001 59.3 29.4001 59.2 29.4001C59.1334 29.3334 59.0667 29.2668 59 29.2001C59 29.2001 58.9 29.2001 58.9 29.1001C58.8 29.1001 58.7 29.0001 58.6 28.9001C58.5 28.8001 58.4 28.8001 58.3 28.7001C58.2 28.6001 58.1 28.6001 58 28.5001C57.9 28.4001 57.7 28.3001 57.6 28.3001C57.4 28.1001 57.2 28.0001 57 27.9001C56.8 27.7001 56.6 27.6001 56.4 27.5001C56.2 27.3001 55.9 27.2001 55.7 27.1001C55.5 26.9001 55.3 26.8001 55 26.7001L54.9 26.6001C54.8 26.6001 54.8 26.5001 54.7 26.5001C54.6 26.5001 54.6 26.4001 54.5 26.4001L54.4 26.3001C54.3334 26.3001 54.3 26.3001 54.3 26.3001C54.2 26.3001 54.2 26.2001 54.2 26.2001C54.1334 26.2001 54.1 26.2001 54.1 26.2001L54 26.1001H53.9C53.9 26.1001 53.8 26.1001 53.8 26.0001H53.6C53.5 25.9001 53.4 25.8001 53.3 25.8001C53.1 25.7001 53 25.7001 52.9 25.6001C52.7 25.5001 52.6 25.5001 52.4 25.4001C52.3 25.4001 52.2 25.3001 52 25.2001H51.9H51.8C51.8 25.1001 51.7 25.1001 51.7 25.1001H51.6C51.6 25.1001 51.6 25.0001 51.5 25.0001H51.4L51.1 24.9001C51 24.9001 51 24.8001 51 24.8001H50.9L50.6 24.7001H50.5C50.4334 24.6334 50.3667 24.6001 50.3 24.6001H50.2C50.2 24.6001 50.1 24.6001 50.1 24.5001C50 24.5001 49.8 24.4001 49.6 24.4001C49.5 24.4001 49.3 24.3001 49.2 24.3001C49 24.2001 48.9 24.2001 48.7 24.1001C48.6 24.1001 48.4 24.0001 48.2 24.0001C48.1 24.0001 47.9 23.9001 47.8 23.9001C47.6 23.8001 47.5 23.8001 47.3 23.8001C47.1 23.7001 47 23.7001 46.8 23.6001C46.7 23.6001 46.5 23.6001 46.3 23.5001C46.2 23.5001 46 23.5001 45.9 23.4001C45.7 23.4001 45.5 23.4001 45.4 23.3001C45.2 23.3001 45.1 23.3001 44.9 23.3001C44.7 23.2001 44.6 23.2001 44.4 23.2001C44.1 23.1001 43.8 23.1001 43.5 23.0001C43.2 23.0001 42.9 23.0001 42.6 22.9001C42.3 22.9001 42 22.9001 41.8 22.8001C41.5 22.8001 41.2 22.8001 40.9 22.8001C40.7 22.7001 40.4 22.7001 40.2 22.7001C39.9 22.7001 39.7 22.7001 39.4 22.6001C39.2 22.6001 39 22.6001 38.7 22.6001C38.6 22.6001 38.5 22.6001 38.4 22.6001H38.1C37.9 22.6001 37.6 22.6001 37.4 22.6001C37.2 22.6001 37 22.6001 36.8 22.6001C36.7 22.6001 36.6 22.6001 36.4 22.6001C36.6 22.6001 36.7 22.6001 36.8 22.6001C37 22.6001 37.2 22.6001 37.4 22.6001C37.6 22.6001 37.9 22.6001 38.1 22.6001H38.4C38.5 22.6001 38.6 22.6001 38.7 22.7001C39 22.7001 39.2 22.7001 39.4 22.7001C39.7 22.7001 39.9 22.7001 40.2 22.7001C40.4 22.7001 40.7 22.8001 40.9 22.8001C41.2 22.8001 41.5 22.8001 41.7 22.9001C42 22.9001 42.3 22.9001 42.6 23.0001C42.9 23.0001 43.2 23.0001 43.5 23.1001C43.8 23.1001 44.1 23.2001 44.4 23.2001C44.7 23.3001 45 23.3001 45.3 23.4001C45.6 23.4001 45.9 23.5001 46.2 23.6001C46.6 23.6001 46.9 23.7001 47.2 23.8001C47.5 23.9001 47.8 23.9001 48.1 24.0001C48.3 24.1001 48.4 24.1001 48.6 24.2001C48.7 24.2001 48.9 24.2001 49 24.3001C49.2 24.3001 49.3 24.4001 49.5 24.4001C49.6 24.5001 49.8 24.5001 49.9 24.6001C49.9667 24.6001 50.0334 24.6001 50.1 24.6001H50.2C50.2 24.7001 50.3 24.7001 50.3 24.7001C50.3667 24.7001 50.4 24.7001 50.4 24.7001L50.7 24.8001H50.8V24.9001H50.9L51.2 25.0001H51.3V25.1001C51.3667 25.1001 51.4 25.1001 51.4 25.1001H51.5C51.5 25.1001 51.6 25.1001 51.6 25.2001H51.7C51.7667 25.2001 51.8 25.2001 51.8 25.2001C52 25.3001 52.1 25.4001 52.2 25.4001C52.4 25.5001 52.5 25.5001 52.6 25.6001C52.8 25.7001 52.9 25.7001 53 25.8001C53.1 25.8001 53.3 25.9001 53.4 26.0001H53.6C53.6 26.0668 53.6334 26.1001 53.7 26.1001C53.8 26.1001 53.8 26.2001 53.8 26.2001C53.8667 26.2001 53.9 26.2001 53.9 26.2001C54 26.2001 54 26.3001 54 26.3001H54.1C54.2 26.3001 54.2 26.4001 54.3 26.4001L54.4 26.5001C54.5 26.5001 54.6 26.6001 54.6 26.6001C54.6667 26.6001 54.7334 26.6334 54.8 26.7001C55 26.8001 55.2 26.9001 55.4 27.1001C55.6 27.2001 55.9 27.3001 56.1 27.4001C56.3 27.6001 56.5 27.7001 56.7 27.8001C56.9 28.0001 57.1 28.1001 57.3 28.2001C57.4 28.3001 57.5 28.4001 57.6 28.5001C57.7 28.5001 57.8 28.6001 57.9 28.7001C58 28.7001 58.1 28.8001 58.2 28.9001C58.3 28.9001 58.4 29.0001 58.5 29.1001C58.6 29.2001 58.7 29.2001 58.8 29.3001L58.9 29.4001C59 29.4001 59 29.5001 59.1 29.5001C59.2 29.6001 59.3 29.7001 59.4 29.8001C59.5 29.8001 59.6 29.9001 59.7 30.0001C59.8 30.1001 59.9 30.1001 60 30.2001C60.1 30.3001 60.2 30.4001 60.3 30.5001C60.4 30.5001 60.5 30.6001 60.6 30.7001C60.7 30.8001 60.8 30.9001 60.9 30.9001C60.9 31.0001 61 31.0001 61 31.1001C61.0667 31.1001 61.1334 31.1334 61.2 31.2001L61.3 31.3001C61.4 31.3001 61.4 31.4001 61.5 31.4001C61.5 31.5001 61.6 31.5001 61.6 31.6001C61.6667 31.6001 61.7334 31.6334 61.8 31.7001L61.9 31.8001C61.9667 31.8668 62.0334 31.9001 62.1 31.9001V32.0001C62.1 31.9001 62.2 31.8001 62.2 31.7001C62.2 31.7001 62.1 31.7001 62.1 31.6001V31.6001Z" fill="#DEBF2E"/>
<path d="M38.3 8.69995C35.6 8.69995 33.5 10.9 33.5 13.5C33.5 14 33.6 14.4999 33.7 14.8999C33.7 14.8999 33.7 15 33.8 15C34 15.8 34.5 16.8 35.1 17.8C35.4 18.3 35.7 18.8999 36.1 19.3999C37.7 21.9999 38.3 22.8 38.3 22.8C38.3 22.8 38.8 21.9999 40.4 19.3999C40.8 18.8999 41.2 18.3 41.5 17.8C42 16.8 42.5 15.8 42.8 15V14.8999C43 14.4999 43 14 43 13.5C43 10.9 40.9 8.69995 38.3 8.69995V8.69995ZM38.3 14.8C37.1 14.8 36.1 13.9 36.1 12.7C36.1 11.5 37.1 10.5999 38.3 10.5999C39.5 10.5999 40.4 11.5 40.4 12.7C40.4 13.9 39.5 14.8 38.3 14.8Z" fill="#E6E8E8"/>
</svg>
