<svg width="130" height="50" viewBox="0 0 130 50" fill="none" xmlns="http://www.w3.org/2000/svg">
<path d="M3.40002 47.2L3.29993 46.7C2.89993 47.1 2.40002 47.3 1.90002 47.3C0.900024 47.3 0.299927 46.6 0.299927 45.8C0.299927 44.5 1.39995 43.8999 3.19995 43.8999C3.19995 43.5999 2.99993 43.2 2.29993 43.2C1.79993 43.2 1.20002 43.3999 0.900024 43.5999L0.599976 42.5999C0.999976 42.3999 1.6 42.2 2.5 42.2C4.2 42.2 4.69995 43.1 4.69995 44.3V46C4.69995 46.5 4.69995 46.9 4.69995 47.2H3.40002ZM3.19995 44.8999C2.39995 44.8999 1.79993 44.9999 1.79993 45.5999C1.79993 45.9999 2.00002 46.2 2.40002 46.2C2.80002 46.2 3.09995 46 3.19995 45.7C3.19995 45.6 3.19995 45.4999 3.19995 45.3999V44.8999Z" fill="#ED730A"/>
<path d="M5.90002 47.2H7.40002V40.1H5.90002V47.2Z" fill="#ED730A"/>
<path d="M13.2 45.5999C13.2 46.1999 13.2999 46.7999 13.2999 47.1999H12L11.9 46.4999C11.7 46.7999 11.1999 47.2999 10.2999 47.2999C9.29993 47.2999 8.59998 46.6999 8.59998 45.1999V42.2999H10.1V44.8999C10.1 45.5999 10.4 46.0999 10.9 46.0999C11.3 46.0999 11.6 45.7999 11.7 45.4999C11.7 45.3999 11.7 45.2999 11.7 45.1999V42.2999H13.2V45.5999Z" fill="#ED730A"/>
<path d="M19.1 42.3C19.1 42.6 19.1 43 19.1 43.7V46.5C19.1 47.4 18.9 48.2 18.4 48.7C17.8 49.1 17.1 49.3 16.4 49.3C15.7 49.3 15.1 49.0999 14.6 48.8999L14.9 47.7C15.2 47.9 15.7999 48.0999 16.2999 48.0999C17.0999 48.0999 17.6 47.7 17.6 46.8V46.5C17.3 46.9 16.7999 47.0999 16.2999 47.0999C15.0999 47.0999 14.2 46.2 14.2 44.8C14.2 43.2 15.2 42.2 16.4 42.2C17.1 42.2 17.5 42.4999 17.7 42.8999H17.7999V42.3H19.1ZM17.6 44.3C17.6 44.2 17.6 44.1 17.5 44C17.4 43.6 17.2 43.3 16.7 43.3C16.2 43.3 15.7 43.8 15.7 44.7C15.7 45.5 16.1 46 16.7 46C17.1 46 17.4 45.7999 17.5 45.3999C17.6 45.2999 17.6 45.1 17.6 45V44.3Z" fill="#ED730A"/>
<path d="M24.9 45.5999C24.9 46.1999 25 46.7999 25 47.1999H23.7L23.6 46.4999C23.4 46.7999 22.9 47.2999 22 47.2999C21 47.2999 20.2999 46.6999 20.2999 45.1999V42.2999H21.7999V44.8999C21.7999 45.5999 22.1 46.0999 22.6 46.0999C23 46.0999 23.3 45.7999 23.4 45.4999C23.4 45.3999 23.4 45.2999 23.4 45.1999V42.2999H24.9V45.5999Z" fill="#ED730A"/>
<path d="M27.2999 45.2C27.3999 45.8 28 46.0999 28.7 46.0999C29.2 46.0999 29.6 46.0999 30 45.8999L30.2 47C29.8 47.2 29.1 47.3 28.5 47.3C26.8 47.3 25.9 46.3 25.9 44.8C25.9 43.6 26.5999 42.2 28.2999 42.2C29.8999 42.2 30.5 43.3999 30.5 44.5999C30.5 44.8999 30.5 45.1 30.5 45.2H27.2999ZM29.1 44.2C29.1 43.8 28.9999 43.2 28.2999 43.2C27.5999 43.2 27.3999 43.8 27.2999 44.2H29.1Z" fill="#ED730A"/>
<path d="M31.4 47.2H33V40.1H31.4V47.2Z" fill="#ED730A"/>
<path d="M41 40.1V45.7C41 46.3 41 46.8 41 47.2H39.6V46.5C39.2 47 38.7 47.3 38 47.3C36.9 47.3 35.9 46.3 35.9 44.8C35.9 43.1 37 42.2 38.1 42.2C38.7 42.2 39.2 42.4 39.4 42.7V40.1H41ZM39.4 44.4C39.4 44.3 39.4 44.2 39.4 44.1C39.3 43.7 39 43.3 38.5 43.3C37.8 43.3 37.5 44 37.5 44.7C37.5 45.6 37.9 46.1 38.5 46.1C39 46.1 39.3 45.8 39.4 45.3C39.4 45.2 39.4 45.1 39.4 45V44.4Z" fill="#ED730A"/>
<path d="M43.2999 45.2C43.3999 45.8 44 46.0999 44.7 46.0999C45.2 46.0999 45.7 46.0999 46.1 45.8999L46.2999 47C45.7999 47.2 45.2 47.3 44.5 47.3C42.9 47.3 41.9 46.3 41.9 44.8C41.9 43.6 42.7 42.2 44.4 42.2C45.9 42.2 46.5 43.3999 46.5 44.5999C46.5 44.8999 46.5 45.1 46.5 45.2H43.2999ZM45.1 44.2C45.1 43.8 44.9999 43.2 44.2999 43.2C43.5999 43.2 43.3999 43.8 43.2999 44.2H45.1Z" fill="#ED730A"/>
<path d="M53.1 47.0999C52.9 47.1999 52.3999 47.3 51.7999 47.3C50.1999 47.3 49.2 46.3 49.2 44.8C49.2 43.4 50.2 42.2 52 42.2C52.4 42.2 52.8 42.2999 53.2 42.3999L52.9 43.5C52.7 43.4 52.5 43.3999 52.1 43.3999C51.3 43.3999 50.6999 43.9 50.7999 44.7C50.7999 45.6 51.4 46.0999 52.1 46.0999C52.5 46.0999 52.7 45.9999 53 45.8999L53.1 47.0999Z" fill="#ED730A"/>
<path d="M56.7999 47.2L56.7 46.7C56.4 47.1 55.8999 47.3 55.2999 47.3C54.2999 47.3 53.7 46.6 53.7 45.8C53.7 44.5 54.9 43.8999 56.6 43.8999C56.6 43.5999 56.4 43.2 55.7 43.2C55.2 43.2 54.7 43.3999 54.4 43.5999L54.1 42.5999C54.4 42.3999 55.1 42.2 56 42.2C57.6 42.2 58.1 43.1 58.1 44.3V46C58.1 46.5 58.1 46.9 58.2 47.2H56.7999ZM56.6 44.8999C55.8 44.8999 55.2 44.9999 55.2 45.5999C55.2 45.9999 55.4999 46.2 55.7999 46.2C56.1999 46.2 56.5 46 56.6 45.7C56.6 45.6 56.6 45.4999 56.6 45.3999V44.8999Z" fill="#ED730A"/>
<path d="M59.2999 43.8999C59.2999 43.1999 59.2999 42.7 59.2999 42.3H60.6V43.2H60.7C60.9 42.5 61.5 42.2 62 42.2C62.1 42.2 62.1999 42.2 62.2999 42.2V43.5999C62.1999 43.5999 62.1 43.5999 61.9 43.5999C61.3 43.5999 61 43.8999 60.9 44.3999C60.8 44.4999 60.7999 44.6 60.7999 44.7V47.2H59.2999V43.8999Z" fill="#ED730A"/>
<path d="M63.1 43.8999C63.1 43.1999 63.1 42.7 63.1 42.3H64.4V43.2H64.5C64.7 42.5 65.2999 42.2 65.7999 42.2C65.8999 42.2 66 42.2 66.1 42.2V43.5999C66 43.5999 65.9 43.5999 65.7 43.5999C65.2 43.5999 64.8 43.8999 64.7 44.3999C64.7 44.4999 64.6 44.6 64.6 44.7V47.2H63.1V43.8999Z" fill="#ED730A"/>
<path d="M71.7 44.7C71.7 46.5 70.4 47.3 69.1 47.3C67.7 47.3 66.6 46.3 66.6 44.8C66.6 43.2 67.6 42.2 69.2 42.2C70.7 42.2 71.7 43.2 71.7 44.7ZM68.2 44.7C68.2 45.6 68.5 46.2 69.2 46.2C69.7 46.2 70.1 45.6 70.1 44.7C70.1 44 69.8 43.3 69.2 43.3C68.4 43.3 68.2 44 68.2 44.7Z" fill="#ED730A"/>
<path d="M72.6 45.8C72.9 46 73.5 46.2 73.9 46.2C74.4 46.2 74.6 46.1 74.6 45.8C74.6 45.6 74.4 45.4 73.9 45.3C72.9 44.9 72.5 44.4 72.5 43.8C72.5 42.9 73.3 42.2 74.5 42.2C75 42.2 75.4999 42.3 75.7999 42.5L75.6 43.5C75.4 43.4 74.9 43.2 74.5 43.2C74.1 43.2 73.9 43.3999 73.9 43.5999C73.9 43.8999 74.1 44 74.7 44.2C75.7 44.5 76 45 76.1 45.7C76.1 46.6 75.3 47.3 73.9 47.3C73.3 47.3 72.7 47.0999 72.4 46.8999L72.6 45.8Z" fill="#ED730A"/>
<path d="M100.9 24.2C100.9 24.7 100.9 25.1999 100.8 25.5999C100.6 27.0999 99.3 28.3 97.6 28.3C95.3 28.3 93.7 26.6999 93.7 23.8999C93.7 21.4999 94.9 19.3999 97.6 19.3999C99.3 19.3999 100.6 20.6 100.8 22.2C100.9 22.5 100.9 22.8 100.9 23V24.2ZM100.9 5.69995V15.8H100.8C99.8 14.5 97.7 14 95.5 14C90.6 14 86.1 17.8 86.2 24.2C86.2 30.6 90.5 34.2 95 34.2C97.4 34.2 100 33.2999 101.5 30.8999L101.8 33.7H108.4C108.4 32.7 108.3 30.0999 108.3 27.5999V5.69995H100.9Z" fill="#ED730A"/>
<path d="M122.5 26C122.5 26.4 122.5 26.8 122.4 27.1C122.1 28.2 120.9 29.1 119.8 29.1C118.4 29.1 117.7 28.5 117.7 27.4C117.7 25.8 119.2 25 122.5 25V26ZM129.6 22.5C129.6 17.3 126.8 14 120.2 14C115.9 14 113 15.1 111.8 15.8L113 20.4C114.3 19.7 116.7 18.8 118.9 18.8C121.8 18.8 122.3 19.7 122.3 20.4V20.5C115 20.5 110.3 22.9 110.3 28.1C110.3 31.2 112.9 34.2 117.1 34.2C119.3 34.2 121.3 33.6 122.7 32H122.9L123.3 33.7H129.9C129.7 32.8 129.6 30.9 129.6 28.9V22.5Z" fill="#ED730A"/>
<path d="M0.199951 20.7C0.199951 18 0.1 15.8 0 14H6.09998L6.40002 16.5H6.59998C7.19998 15.7 8.79998 13.6 12.6 13.6C15.1 13.6 17.2 14.7 18.1 16.8H18.2C19.1 15.7 20 14.9 21.1 14.4C22.1 13.8 23.3 13.6 24.7 13.6C29 13.6 31.7 16.6 31.7 22.2V33.3H24.6V23.3C24.6 20.8 23.7 19.5 22 19.5C20.8 19.5 20 20.3 19.7 21.2C19.5 21.7 19.5 22.3 19.5 22.7V33.3H12.4V23.3C12.4 20.8 11.4999 19.5 9.79993 19.5C8.29993 19.5 7.7 20.6 7.5 21.2C7.3 21.7 7.29993 22.2 7.29993 22.6V33.3H0.199951V20.7Z" fill="#ED730A"/>
<path d="M44.2999 28.6C41.8999 28.6 40.7999 26.4 40.7999 23.7C40.7999 21.2 41.8 18.7 44.4 18.7C46.7 18.7 47.7 21 47.7 23.7C47.7 26.9 46.5 28.6 44.4 28.6H44.2999ZM44.2999 33.8C50.3999 33.8 55.5 30 55.5 23.4C55.5 17.7 51.1 13.6 44.7 13.6C37.3 13.6 33.2 18 33.2 23.8C33.2 30.2 38.2 33.8 44.2 33.8H44.2999Z" fill="#ED730A"/>
<path d="M62.5 14L64.9 22.4C65.4 23.8 65.6 25.2 65.9 26.6H66C66.3 25.2 66.5 23.9 66.9 22.4L69.1 14H77L69.4 33.3H61.7999L54.4 14H62.5Z" fill="#ED730A"/>
<path d="M87.7 37.0999C85 33.4999 83.2999 28.9999 83.2999 24.0999C83.2999 18.6999 84.4 13.7999 87.7 10.0999L82.5 7.19995C78.8 11.9 77.4 17.6999 77.4 24.0999C77.4 30.0999 79.3 35.5 82.5 40L87.7 37.0999Z" fill="#ED730A"/>
<path d="M91.6 3.8C91.6 5.9 89.8999 7.59999 87.7999 7.59999C85.5999 7.59999 83.9 5.9 83.9 3.8C83.9 1.7 85.5999 0 87.7999 0C89.8999 0 91.6 1.7 91.6 3.8Z" fill="#ED730A"/>
</svg>
