<svg width="121" height="38" viewBox="0 0 121 38" fill="none" xmlns="http://www.w3.org/2000/svg">
<path d="M0.375 22.4999L6.175 28.2999C7.275 29.3999 8.475 29.8999 9.775 29.7999C10.975 29.7999 11.975 29.1999 12.575 28.6999C13.575 29.4999 14.575 29.8999 15.675 29.7999C16.975 29.6999 17.975 29.1999 18.675 28.5999C19.575 29.4999 20.675 29.7999 21.775 29.7999C23.175 29.6999 24.275 28.9999 24.975 28.3999C26.075 29.3999 27.275 29.8999 28.575 29.7999C30.875 29.6999 32.575 27.7999 32.575 27.6999H32.675L39.975 16.8999C40.375 16.3999 40.275 15.5999 39.675 15.2999C39.175 14.8999 38.475 14.9999 38.075 15.5999L30.775 26.1999C30.575 26.3999 29.575 27.4999 28.475 27.4999C27.775 27.4999 27.075 27.1999 26.375 26.4999L9.575 9.69989C9.375 9.49989 9.075 9.3999 8.775 9.3999C8.475 9.3999 8.175 9.49989 7.875 9.69989C7.475 10.1999 7.475 10.8999 7.875 11.3999L23.275 26.7999C22.875 27.0999 22.375 27.3999 21.675 27.4999C21.075 27.4999 20.475 27.1999 19.875 26.5999L6.775 13.4999C6.475 13.2999 6.175 13.0999 5.875 13.0999C5.675 13.0999 5.375 13.2999 5.075 13.4999C4.675 13.8999 4.675 14.6999 5.075 15.0999L16.975 26.9999C16.575 27.1999 16.075 27.4999 15.575 27.4999C14.975 27.4999 14.375 27.1999 13.775 26.5999L4.375 17.0999C4.075 16.8999 3.775 16.7999 3.475 16.7999C3.175 16.7999 2.875 16.8999 2.675 17.0999C2.275 17.5999 2.275 18.2999 2.675 18.7999L10.875 26.9999C10.575 27.2999 10.075 27.4999 9.575 27.4999C8.975 27.4999 8.375 27.1999 7.775 26.5999L1.975 20.7999C1.775 20.5999 1.475 20.4999 1.175 20.4999C0.874999 20.4999 0.575 20.5999 0.375 20.7999C-0.125 21.2999 -0.125 21.9999 0.375 22.4999V22.4999Z" fill="#FACC00"/>
<path d="M39.875 7.39996L34.075 1.59998C32.975 0.499976 31.775 -2.44156e-05 30.475 0.0999756C29.275 0.0999756 28.275 0.699951 27.575 1.19995C26.675 0.399951 25.575 -2.44156e-05 24.475 0.0999756C23.275 0.0999756 22.275 0.699951 21.575 1.19995C20.575 0.399951 19.575 -2.44156e-05 18.475 0.0999756C17.075 0.199976 15.875 0.9 15.275 1.5C14.175 0.5 12.975 0 11.675 0C9.37503 0.1 7.67503 2.09995 7.67503 2.19995H7.57504L0.275033 13C-0.124967 13.5 -0.0249639 14.2 0.575036 14.6C1.07504 15 1.77503 14.8 2.17503 14.3L9.47503 3.59998C9.57503 3.39998 10.575 2.39996 11.775 2.39996C12.475 2.29996 13.175 2.59999 13.875 3.29999L30.675 20.1C30.875 20.4 31.175 20.5 31.475 20.5C31.775 20.5 32.075 20.4 32.275 20.1C32.775 19.7 32.775 18.9 32.275 18.5L16.975 3.09998C17.275 2.79998 17.875 2.39996 18.575 2.39996C19.175 2.39996 19.775 2.69999 20.375 3.29999L33.475 16.4C33.675 16.6 33.975 16.7 34.275 16.7C34.575 16.7 34.875 16.6 35.075 16.4C35.575 15.9 35.575 15.2 35.075 14.7L23.275 2.89996C23.675 2.69996 24.075 2.39996 24.575 2.39996C25.175 2.39996 25.775 2.59995 26.375 3.19995L35.875 12.7C36.075 12.9 36.375 13.1 36.675 13.1C36.975 13.1 37.275 12.9 37.575 12.7C37.975 12.3 37.975 11.5 37.575 11.1L29.275 2.79999C29.675 2.59999 30.075 2.39996 30.575 2.39996C31.175 2.29996 31.775 2.59995 32.375 3.19995L38.175 9C38.475 9.3 38.775 9.39996 39.075 9.39996C39.375 9.39996 39.575 9.3 39.875 9C40.275 8.6 40.275 7.79996 39.875 7.39996V7.39996Z" fill="#0D6930"/>
<path d="M50.875 2.19995H61.375C68.175 2.19995 70.375 5.09999 70.375 8.29999C70.375 11.4 68.275 13.8 64.775 14.7C66.975 15.5 68.5751 17.1 68.5751 19.7C68.5751 24 64.975 27.3 57.175 27.3H44.175L50.875 2.19995ZM57.4751 21.7C59.8751 21.7 61.275 20.7 61.275 19.1C61.275 17.8 60.275 17.1 58.275 17.1H53.4751L52.175 21.7H57.4751ZM59.4751 12.2C61.8751 12.2 63.275 11.3 63.275 9.69995C63.275 8.49995 62.375 7.79999 60.275 7.79999H55.875L54.775 12.2H59.4751Z" fill="#0D6930"/>
<path d="M75.2751 2.30005H85.6751C92.4751 2.30005 94.6751 5.10005 94.6751 8.30005C94.6751 11.5 92.5751 13.8 89.1751 14.7C91.3751 15.5 92.8751 17.1 92.8751 19.7C92.8751 24 89.2751 27.3 81.5751 27.3H68.5751L75.2751 2.30005ZM81.8751 21.7C84.1751 21.7 85.6751 20.7 85.6751 19.1C85.6751 17.8 84.6751 17.1 82.5751 17.1H77.8751L76.5751 21.7H81.8751ZM83.8751 12.3C86.2751 12.3 87.5751 11.3 87.5751 9.70001C87.5751 8.60001 86.6751 7.90002 84.5751 7.90002H80.2751L79.1751 12.3H83.8751Z" fill="#0D6930"/>
<path d="M95.0751 16.8C95.0751 9.50005 101.075 1.80005 110.675 1.80005C115.775 1.80005 119.375 4.20004 120.875 8.10004L114.875 11.3C113.875 9.30005 112.275 8.10004 109.775 8.10004C105.675 8.10004 102.375 12 102.375 16.3C102.375 19.5 104.475 21.5001 107.375 21.5001C109.575 21.5001 111.075 20.6001 112.675 19.0001L117.375 23.1C114.975 25.9 111.675 27.8 106.875 27.8C99.9751 27.8 95.0751 23.5 95.0751 16.8V16.8Z" fill="#0D6930"/>
<path d="M80.675 32.1H82.375C82.675 32.1 83.075 32.1 83.375 32.2C83.675 32.3 83.975 32.5 84.175 32.7C84.475 32.9 84.675 33.1 84.875 33.4C84.975 33.8 85.075 34.1 85.075 34.6C85.075 35 84.975 35.4 84.875 35.7C84.675 36 84.475 36.3 84.175 36.5C83.975 36.7 83.675 36.8 83.375 36.9C83.075 37 82.675 37.1 82.375 37.1H80.675V32.1ZM81.375 36.5H82.275C82.575 36.5 82.8751 36.4 83.0751 36.3C83.3751 36.3 83.575 36.1 83.775 36C83.975 35.8 84.075 35.6 84.175 35.4C84.275 35.1 84.375 34.9 84.375 34.6C84.375 34.3 84.275 34 84.175 33.8C84.075 33.5 83.975 33.3 83.775 33.2C83.575 33 83.3751 32.9 83.0751 32.8C82.8751 32.7 82.575 32.7 82.275 32.7H81.375V36.5Z" fill="#0D6930"/>
<path d="M87.0751 37.1H87.7751V32.1H87.0751V37.1Z" fill="#0D6930"/>
<path d="M94.0751 33.1C93.8751 32.9 93.6751 32.8 93.4751 32.7C93.1751 32.6 92.9751 32.6 92.6751 32.6C92.3751 32.6 92.0751 32.6 91.8751 32.7C91.6751 32.8 91.4751 33 91.2751 33.2C91.0751 33.3 90.9751 33.6 90.8751 33.8C90.7751 34 90.7751 34.3 90.7751 34.6C90.7751 34.9 90.7751 35.1 90.8751 35.4C90.9751 35.6 91.0751 35.8 91.2751 36C91.4751 36.2 91.6751 36.3 91.8751 36.4C92.1751 36.5 92.3751 36.6 92.6751 36.6C92.9751 36.6 93.1751 36.6 93.3751 36.5C93.5751 36.5 93.6751 36.4 93.8751 36.3V34.9H92.7751V34.3H94.5751V36.8C94.2751 36.9 93.9751 37 93.6751 37.1C93.3751 37.2 93.0751 37.2 92.6751 37.2C92.2751 37.2 91.8751 37.1 91.5751 37C91.2751 36.9 90.9751 36.7 90.7751 36.5C90.4751 36.2 90.3751 36 90.1751 35.6C90.0751 35.3 89.9751 35 89.9751 34.6C89.9751 34.2 90.0751 33.8 90.1751 33.5C90.3751 33.2 90.4751 32.9 90.7751 32.7C90.9751 32.5 91.2751 32.3 91.5751 32.1C91.9751 32 92.2751 32 92.6751 32C93.0751 32 93.3751 32 93.7751 32.1C94.0751 32.2 94.2751 32.4 94.4751 32.6L94.0751 33.1Z" fill="#0D6930"/>
<path d="M96.875 37.1H97.575V32.1H96.875V37.1Z" fill="#0D6930"/>
<path d="M101.875 37.1H101.175V32.7H99.5751V32.1H103.475V32.7H101.875V37.1Z" fill="#0D6930"/>
<path d="M104.775 37.1H103.975L106.175 32.1H106.775L108.875 37.1H108.075L107.575 35.9H105.275L104.775 37.1ZM105.475 35.2H107.375L106.475 32.9L105.475 35.2Z" fill="#0D6930"/>
<path d="M111.575 36.5H113.775V37.1H110.875V32.1H111.575V36.5Z" fill="#0D6930"/>
</svg>
