<svg width="122" height="49" viewBox="0 0 122 49" fill="none" xmlns="http://www.w3.org/2000/svg">
<path d="M17.5 38.9999H21L20.7 40.3999H18.5L18 42.9999H19.8L19.5 44.3999H17.7L17.1 46.9999H19.3L19 48.2999H15.5L17.5 38.9999Z" fill="#737575"/>
<path d="M22 38.9999H23.3L23.4 44.3999L24.6 38.9999H25.8L23.8 48.2999H22.5L22.4 43.0999L21.3 48.2999H20L22 38.9999Z" fill="#737575"/>
<path d="M30.5 38.9999L30.2 40.3999H29L27.3 48.2999H25.9L27.6 40.3999H26.4L26.7 38.9999H30.5Z" fill="#737575"/>
<path d="M31.4 38.9999H34.9L34.6 40.3999H32.4L31.9 42.9999H33.7L33.4 44.3999H31.6L31 46.9999H33.2L32.9 48.2999H29.4L31.4 38.9999Z" fill="#737575"/>
<path d="M35.8 38.9999H37.2L37.3 44.3999L38.5 38.9999H39.7L37.7 48.2999H36.4L36.3 43.0999L35.2 48.2999H33.9L35.8 38.9999Z" fill="#737575"/>
<path d="M40.9 38.9999H43C44 38.9999 44.5 39.4999 44.5 40.2999C44.5 40.4999 44.4 40.6999 44.4 40.9999L43.2 46.3999C43 47.6999 42.2 48.2999 40.9 48.2999H39L40.9 38.9999ZM42 40.3999L40.6 46.9999H41.2C41.6 46.9999 41.8 46.7999 41.9 46.3999L43 40.9999C43 40.8999 43.1 40.7999 43.1 40.7999C43.1 40.4999 42.9 40.3999 42.6 40.3999H42Z" fill="#737575"/>
<path d="M45.9 38.9999H49.4L49.1 40.3999H47L46.4 42.9999H48.3L48 44.3999H46.1L45.6 46.9999H47.7L47.4 48.2999H44L45.9 38.9999Z" fill="#737575"/>
<path d="M50.4 38.9999H52.4C53.3 38.9999 53.8 39.4999 53.8 40.2999C53.8 40.4999 53.8 40.6999 53.7 40.9999L53.4 42.3999C53.3 43.1999 52.8 43.6999 52 43.9999L52.6 48.2999H51.1L50.8 44.1999L50.6 44.2999L49.8 48.2999H48.4L50.4 38.9999ZM51.5 40.3999L50.9 42.9999H51.2C51.4 42.9999 51.5 42.9999 51.6 42.9999C51.9 42.8999 52 42.6999 52.1 42.3999L52.4 40.9999C52.4 40.8999 52.4 40.7999 52.4 40.7999C52.4 40.4999 52.3 40.3999 51.9 40.3999H51.5Z" fill="#737575"/>
<path d="M57.8 38.9999H59.7C60.7 38.9999 61.2 39.4999 61.2 40.2999C61.2 40.4999 61.1 40.6999 61.1 40.9999L60.8 42.3999C60.6 43.3999 60 43.9999 59.1 44.2999C58.9 44.2999 58.6 44.3999 58.2 44.3999H58L57.1 48.2999H55.8L57.8 38.9999ZM58.8 40.3999L58.3 42.9999H58.6C58.8 42.9999 58.9 42.9999 59 42.9999C59.2 42.8999 59.4 42.6999 59.5 42.3999L59.7 40.9999C59.8 40.8999 59.8 40.7999 59.8 40.7999C59.8 40.4999 59.6 40.3999 59.3 40.3999H58.8Z" fill="#737575"/>
<path d="M64.6 44.9999L64.3 48.2999H62.9L63.1 46.3999H61.7L61 48.2999H59.7L60.8 45.0999L63.1 38.9999H64.9L64.6 44.9999ZM63.2 44.9999L63.5 41.1999L62.2 44.9999H63.2Z" fill="#737575"/>
<path d="M67.1 38.9999H69C70 38.9999 70.5 39.4999 70.5 40.2999C70.5 40.4999 70.5 40.6999 70.4 40.9999L70.1 42.3999C69.9 43.1999 69.5 43.6999 68.7 43.9999L69.3 48.2999H67.8L67.5 44.1999L67.3 44.2999L66.4 48.2999H65.1L67.1 38.9999ZM68.1 40.3999L67.6 42.9999H67.9C68.1 42.9999 68.2 42.9999 68.3 42.9999C68.5 42.8999 68.7 42.6999 68.8 42.3999L69.1 40.9999C69.1 40.8999 69.1 40.7999 69.1 40.7999C69.1 40.4999 68.9 40.3999 68.6 40.3999H68.1Z" fill="#737575"/>
<path d="M74.5 44.9999L74.2 48.2999H72.9L73 46.3999H71.7L71 48.2999H69.6L70.8 45.0999L73 38.9999H74.8L74.5 44.9999ZM73.1 44.9999L73.4 41.1999L72.1 44.9999H73.1Z" fill="#737575"/>
<path d="M81.9 44.9999L81.6 48.2999H80.3L80.4 46.3999H79.1L78.4 48.2999H77L78.2 45.0999L80.4 38.9999H82.2L81.9 44.9999ZM80.5 44.9999L80.8 41.1999L79.5 44.9999H80.5Z" fill="#737575"/>
<path d="M87.7 38.9999L87.5 40.3999H86.2L84.5 48.2999H83.2L84.9 40.3999H83.6L83.9 38.9999H87.7Z" fill="#737575"/>
<path d="M114.8 22.0999C110 22.0999 108.9 21.3999 109.5 19.0999L114.4 1.99988H100.4L95.0999 20.6999C93.2999 27.0999 97.7999 29.5999 108.6 29.5999H119.3L121.5 22.0999H114.8Z" fill="#737575"/>
<path d="M31.9 15.8999C31.9 24.4999 24.9 31.5 16.3 31.5C7.59996 31.5 0.599976 24.4999 0.599976 15.8999C0.599976 7.19995 7.59996 0.199951 16.3 0.199951C24.9 0.199951 31.9 7.19995 31.9 15.8999Z" fill="#EB1F26"/>
<path d="M16.2 21.1999C14.8 21.8999 13 22.3999 10.4 22.3999H4.29999L3.70001 25.0999H10.3C13 25.1999 14.9 24.2999 16.2 23.0999C18.3 21.1999 18.8 18.5999 18.8 18.5999C18.3 19.4999 17.5 20.4999 16.2 21.1999V21.1999Z" fill="white"/>
<path d="M22.5 9.8999C19.9 9.8999 17.8 10.0999 16.2 11.1999C15 11.9999 14 13.1999 13.4 15.0999L12.6 17.5999C12 18.8999 10.9 18.6999 10.1 18.7999H5.29996L4.59998 21.5999H10.4C12.6 21.5999 14.6 21.2999 16.2 20.5999C17.7 19.9999 18.7 18.9999 19.1 17.8999L20.2 14.1999C20.2 14.1999 20.5 12.5999 22.4 12.5999C23.7 12.5999 27.0999 12.5999 27.0999 12.5999L27.8 9.8999H22.5Z" fill="white"/>
<path d="M22.6 9.0999H28L28.7 6.3999H22.5C15.8 6.3999 14.5 11.3999 14.3 12.1999L13.7 13.8999C15.5 10.7999 16.9 8.8999 22.6 9.0999V9.0999Z" fill="#737575"/>
<path d="M83.9 8.39987C84.3 8.39987 84.6 8.39987 84.8 8.39987C86.9 8.39987 95 8.39987 96.7 8.39987L98.6 1.99988H81.3C73.9 1.99988 66.2 4.09987 64.6 9.79987C64.5 9.99987 64.5 10.1999 64.5 10.3999C64.2 11.8999 64.6 13.3999 66.2 14.7999C69.3 17.4999 74.9 18.7999 74.5 20.7999C74.3 21.7999 73.4 22.0999 70.9 21.9999H60.6C60.2 23.0999 58.4 27.8999 51.6 29.5999H72.1C87.4 29.5999 91.3 26.3999 91.4 21.4999C91.6 16.2999 83.8 13.2999 80.9 11.0999C80.4 10.6999 80.2 10.1999 80.4 9.59987C80.6 8.49987 82.1 8.39987 83.9 8.39987Z" fill="#737575"/>
<path d="M65 2.19995H50.9L46.2 19.0999C45.5 21.1999 43.9 21.4999 42.5 21.7999C41.6 21.9999 38.8 22 36.7 22H34.5L32.3 29.5C48.3 29.5 57.3 28.8999 60.2 18.8999L61 15.8999L65 2.19995Z" fill="#737575"/>
<path d="M88.6 38.9999H92.1L91.8 40.3999H89.7L89.1 42.9999H90.9L90.6 44.3999H88.8L88.2 46.9999H90.4L90.1 48.2999H86.6L88.6 38.9999Z" fill="#737575"/>
<path d="M93.1 38.9999H94.4L94.5 44.3999L95.7 38.9999H96.9L94.9 48.2999H93.6L93.5 43.0999L92.4 48.2999H91.1L93.1 38.9999Z" fill="#737575"/>
<path d="M98.2 38.9999H100.2C101.2 38.9999 101.7 39.4999 101.7 40.2999C101.7 40.4999 101.6 40.6999 101.6 40.9999L100.4 46.3999C100.2 47.6999 99.4 48.2999 98.2 48.2999H96.2L98.2 38.9999ZM99.2 40.3999L97.8 46.9999H98.4C98.8 46.9999 99 46.7999 99.1 46.3999L100.2 40.9999C100.3 40.8999 100.3 40.7999 100.3 40.7999C100.3 40.4999 100.1 40.3999 99.8 40.3999H99.2Z" fill="#737575"/>
<path d="M103.1 38.9999H106.6L106.3 40.3999H104.2L103.6 42.9999H105.5L105.2 44.3999H103.4L102.8 46.9999H104.9L104.6 48.2999H101.2L103.1 38.9999Z" fill="#737575"/>
<path d="M107.6 38.9999H109.6C110.5 38.9999 111 39.4999 111 40.2999C111 40.4999 111 40.6999 110.9 40.9999L110.7 42.3999C110.5 43.1999 110 43.6999 109.2 43.9999L109.8 48.2999H108.4L108 44.1999L107.9 44.2999L107 48.2999H105.6L107.6 38.9999ZM108.7 40.3999L108.1 42.9999H108.4C108.6 42.9999 108.7 42.9999 108.8 42.9999C109.1 42.8999 109.2 42.6999 109.3 42.3999L109.6 40.9999C109.6 40.8999 109.6 40.7999 109.6 40.7999C109.6 40.4999 109.5 40.3999 109.2 40.3999H108.7Z" fill="#737575"/>
</svg>
