<svg width="112" height="97" viewBox="0 0 112 97" fill="none" xmlns="http://www.w3.org/2000/svg">
<path d="M8.79999 86.7C3.59999 86.7 0 82.7 0 76.8C0 70.5 4.39998 67 8.59998 67C10.9 67 12.3 67.6 13 67.8L13.1 67.9C13.6 68.1 14 68.6 14 69.1L13.8 72.3C13.8 72.8 13.5 73.2 13.1 73.4C12.7 73.6 12.2 73.6 11.8 73.3C11.3 73 10.7 72.6 9.5 72.6C7.8 72.6 6.70001 74.3 6.70001 76.8C6.70001 78.9 7.39996 81.1 9.39996 81.1C10.7 81.1 11.4 80.7 11.8 80.5C11.9 80.4 12 80.3 12.1 80.3C12.5 80.1 13 80.2 13.3 80.4C13.7 80.6 13.9 81 13.9 81.4L14.1 84.8C14.1 85.4 13.7 85.9 13.1 86.1H13C12.2 86.3 10.9 86.7 8.79999 86.7V86.7ZM8.59998 69.5C6.19998 69.5 2.59998 71.5 2.59998 76.8C2.59998 81.3 4.99999 84.1 8.79999 84.1C9.99999 84.1 10.8 84 11.5 83.9L11.4 83.4C10.9 83.5 10.2 83.6 9.39996 83.6C6.29996 83.6 4.09998 80.9 4.09998 76.8C4.09998 72.8 6.3 70.1 9.5 70.1C10.2 70.1 10.8 70.2 11.4 70.3V69.9C10.8 69.7 9.89998 69.5 8.59998 69.5V69.5Z" fill="white"/>
<path d="M20.8 86.7C19.2 86.7 17.2 86.4 15.9 85.9C15.4 85.8 15 85.2 15 84.7L15.2 81.5C15.2 81.1 15.5 80.7 15.8 80.4C16.2 80.2 16.7 80.2 17.1 80.4C18.1 81 19.4 81.3 20.2 81.3C21.1 81.3 21.2 80.9 21.2 80.6C21.2 80.3 21.2 80.1 20.1 79.5L18.6 78.8C16.1 77.7 14.9 75.8 14.9 73C14.9 69.5 17.9 67 22.1 67C23.6 67 24.7 67.3 25.9 67.5L26.2 67.6C26.8 67.8 27.2 68.3 27.2 68.9L27 72.1C27 72.5 26.8 72.9 26.4 73.1C26 73.3 25.6 73.3 25.2 73.1C24.3 72.7 23.2 72.4 22.5 72.4C22.3 72.4 21.6 72.4 21.6 72.9C21.6 73.1 21.6 73.2 22.4 73.6L23.9 74.3C26.3 75.4 27.8 76.8 27.8 80.2C27.8 84 24.9 86.7 20.8 86.7V86.7ZM17.6 83.8C18.6 84 19.8 84.1 20.8 84.1C23.4 84.1 25.3 82.5 25.3 80.2C25.3 78.1 24.6 77.4 22.8 76.6L21.4 75.9C20.6 75.6 19 74.9 19 72.9C19 71.1 20.5 69.8 22.5 69.8C23.2 69.8 23.9 70 24.6 70.2V69.9C23.8 69.7 23 69.5 22.1 69.5C19.8 69.5 17.5 70.6 17.5 73C17.5 74.8 18.1 75.8 19.7 76.5L21.2 77.2C22.1 77.7 23.8 78.5 23.8 80.6C23.8 82.2 22.6 83.8 20.2 83.8C19.4 83.8 18.5 83.7 17.7 83.4L17.6 83.8Z" fill="white"/>
<path d="M37 86.4H30.8C30.1 86.4 29.6 85.8 29.6 85.1V68.5C29.6 67.8 30.1 67.3 30.8 67.3H36.9C40.4 67.3 43 69.5 43 72.7C43 74.3 42.3 75.5 41.4 76.4C42.5 77.3 43.3 78.6 43.3 80.4C43.3 83.9 40.6 86.4 37 86.4V86.4ZM32.1 83.9H37C38.9 83.9 40.8 82.8 40.8 80.4C40.8 78.4 39.1 77.9 38.5 77.8C39.1 78.4 39.4 79.2 39.4 80.2C39.4 82.3 38.1 83.6 36 83.6H34.7C34 83.6 33.4 83 33.4 82.3V78C33.4 77.3 34 76.7 34.7 76.7H36C36.6 76.7 37.1 76.9 37.6 77.1C37.5 76.9 37.5 76.8 37.5 76.6C37.5 76.4 37.5 76.3 37.5 76.2C37 76.5 36.4 76.6 35.8 76.6H34.7C34 76.6 33.4 76.1 33.4 75.4V71.3C33.4 70.6 34 70 34.7 70H35.8C37.8 70 39.1 71.3 39.1 73.2C39.1 74 38.9 74.7 38.6 75.2C39.5 74.9 40.4 74.1 40.4 72.7C40.4 70.7 38.6 69.8 36.9 69.8H32.1V83.9ZM36 79.3V81.1C36.7 81.1 36.9 80.8 36.9 80.2C36.9 79.6 36.6 79.3 36 79.3ZM36 72.6V74.1C36.4 74 36.6 73.8 36.6 73.2C36.6 73 36.6 72.6 36 72.6Z" fill="white"/>
<path d="M58.2 86.4H54C53.4 86.4 52.9 86 52.8 85.5L51.5 80.6V85.1C51.5 85.8 50.9 86.4 50.2 86.4H46.3C45.6 86.4 45 85.8 45 85.1V68.5C45 67.8 45.6 67.3 46.3 67.3H52.4C56.2 67.3 58.8 69.5 58.8 72.8C58.8 74.7 58.1 76.2 56.8 77.1C57.2 77.7 57.5 78.3 57.7 79.1L59.4 84.8C59.6 85.1 59.5 85.6 59.2 85.9C59 86.2 58.6 86.4 58.2 86.4V86.4ZM55 83.9H56.5L55.3 79.9C54.8 78.4 54.4 78.2 53.9 78.1C53.3 77.9 52.9 77.4 52.9 76.8C52.9 76.7 53 76.6 53 76.5C52.5 76.7 51.9 76.8 51.3 76.8H50.2C49.5 76.8 48.9 76.3 48.9 75.6V71.4C48.9 70.7 49.5 70.1 50.2 70.1H51.2C53.4 70.1 54.8 71.4 54.8 73.5C54.8 74.3 54.5 75 54.1 75.6C55.5 75.3 56.3 74.3 56.3 72.8C56.3 69.9 53 69.8 52.4 69.8H47.6V83.9H48.9V78.5C48.9 77.8 49.5 77.2 50.2 77.2H51C53.2 77.2 53.7 79.3 53.9 79.9L55 83.9ZM51.4 72.7V74.3C52.2 74.2 52.2 73.9 52.2 73.5C52.2 73.1 52.2 72.7 51.4 72.7V72.7Z" fill="white"/>
<path d="M75.3 86.4H71.2C70.6 86.4 70.1 86 70 85.4L69.3 82.7H66.4L65.7 85.4C65.6 86 65.1 86.4 64.5 86.4H60.5C60.1 86.4 59.7 86.2 59.5 85.9C59.2 85.6 59.2 85.1 59.3 84.8L64.4 68.2C64.6 67.6 65.1 67.3 65.6 67.3H70.2C70.7 67.3 71.2 67.6 71.4 68.2L76.5 84.8C76.6 85.1 76.6 85.6 76.3 85.9C76.1 86.2 75.7 86.4 75.3 86.4V86.4ZM72.2 83.9H73.6L69.2 69.8H66.6L62.2 83.9H63.5L64.2 81.1C64.3 80.5 64.8 80.1 65.4 80.1H70.2C70.8 80.1 71.3 80.5 71.5 81.1L72.2 83.9ZM69.6 79.9H66C65.6 79.9 65.3 79.7 65 79.4C64.8 79.1 64.7 78.7 64.8 78.3L66.6 71.5C66.7 70.9 67.2 70.5 67.8 70.5C68.4 70.5 68.9 70.9 69 71.4L70.8 78.3C70.9 78.7 70.8 79.1 70.6 79.4C70.3 79.7 70 79.9 69.6 79.9V79.9ZM67.7 77.4H67.9L67.8 76.9L67.7 77.4Z" fill="white"/>
<path d="M82.3 86.7C80.8 86.7 78.8 86.4 77.5 85.9C76.9 85.8 76.6 85.2 76.6 84.7L76.8 81.5C76.8 81.1 77 80.7 77.4 80.4C77.8 80.2 78.3 80.2 78.7 80.4C79.7 81 81 81.3 81.7 81.3C82.7 81.3 82.8 80.9 82.8 80.6C82.8 80.3 82.7 80.1 81.6 79.5L80.1 78.8C77.7 77.7 76.5 75.8 76.5 73C76.5 69.5 79.4 67 83.6 67C85.2 67 86.3 67.3 87.5 67.5L87.8 67.6C88.4 67.8 88.8 68.3 88.8 68.9L88.6 72.1C88.6 72.5 88.4 72.9 88 73.1C87.6 73.3 87.1 73.3 86.8 73.1C85.9 72.7 84.8 72.4 84.1 72.4C83.8 72.4 83.1 72.4 83.1 72.9C83.1 73.1 83.1 73.2 84 73.6L85.4 74.3C87.8 75.4 89.4 76.8 89.4 80.2C89.4 84 86.4 86.7 82.3 86.7V86.7ZM79.2 83.8C80.2 84 81.4 84.1 82.3 84.1C85 84.1 86.9 82.5 86.9 80.2C86.9 78.1 86.1 77.4 84.4 76.6L83 75.9C82.2 75.6 80.6 74.9 80.6 72.9C80.6 71.1 82 69.8 84.1 69.8C84.7 69.8 85.5 70 86.2 70.2V69.9C85.4 69.7 84.6 69.5 83.6 69.5C81.4 69.5 79.1 70.6 79.1 73C79.1 74.8 79.7 75.8 81.2 76.5L82.7 77.2C83.6 77.7 85.3 78.5 85.3 80.6C85.3 82.2 84.2 83.8 81.7 83.8C80.9 83.8 80.1 83.7 79.2 83.4V83.8Z" fill="white"/>
<path d="M96.4 86.4H92.4C91.7 86.4 91.1 85.8 91.1 85.1V68.5C91.1 67.8 91.7 67.3 92.4 67.3H96.4C97.1 67.3 97.6 67.8 97.6 68.5V85.1C97.6 85.8 97.1 86.4 96.4 86.4V86.4ZM93.7 83.9H95.1V69.8H93.7V83.9V83.9Z" fill="white"/>
<path d="M110.5 86.4H101.4C100.7 86.4 100.1 85.8 100.1 85.1V68.5C100.1 67.8 100.7 67.3 101.4 67.3H105.3C106 67.3 106.6 67.8 106.6 68.5V80.8H110.5C111.2 80.8 111.8 81.3 111.8 82V85.1C111.8 85.8 111.2 86.4 110.5 86.4V86.4ZM102.6 83.9H109.2V83.3H105.3C104.6 83.3 104 82.7 104 82V69.8H102.6V83.9Z" fill="white"/>
<path d="M29.7 26.8999C29.6 26.8999 29.5 26.8999 29.3 26.8999C28.7 26.5999 28.3 26 28.5 25.3V25.2L28.6 25.0999C28.7 24.5999 29.2 24.2 29.8 24.2C30.3 24.2 30.8 24.5 31 25C31.1 25.3 31.1 25.5999 31 25.8999V26C30.9 26 30.9 26.0999 30.9 26.0999C30.7 26.5999 30.2 26.8999 29.7 26.8999V26.8999Z" fill="white"/>
<path d="M36.1 45.6C35.7 45.6 35.4 45.4 35.1 45.1C34.8 44.8 34.5999 44.4 34.3999 44.1C33.5999 43 33 41.8 32.7 40.6C32.5 40.1 32.7 39.6 33.1 39.2C33.4 38.9 33.9999 38.8 34.3999 39C34.9999 39.3 35.7 39.5 36.3 39.7C37 39.9 37.4 40.4 37.3 41.1C37.2 42.1 37.2 43.1 37.3 44.1C37.4 44.7 37.1 45.2 36.6 45.4C36.4 45.5 36.3 45.6 36.1 45.6V45.6Z" fill="white"/>
<path d="M47.4 56.6C47.3 56.6 47.3 56.5 47.2 56.5C44.6 56 42.1 55.1 39.9 53.7C39.8333 53.6333 39.7667 53.5667 39.7 53.5C39 52.9 38.4 52.1 37.8 51.4C36.6 49.6 35.9 47.6 35.6 45.4C35.5 44.8 35.8 44.3 36.3 44.1C36.9 43.9 37.5 44 37.8 44.4C39 45.8 40.6 46.9 42.6 47.7C42.8 47.8 43 47.9 43.1 48.1C44.9 50.4 46.6 52.6 48.4 54.4C48.7 54.8 48.8 55.4 48.5 55.9C48.3 56.3 47.9 56.6 47.4 56.6V56.6ZM41.4 51.6C42.1 52 42.8 52.4 43.5 52.7C42.8 51.8 42 50.9 41.3 49.9C40.6 49.6 40 49.3 39.4 49C39.5 49.3 39.7 49.6 39.9 49.9C40.3 50.5 40.8 51.1 41.4 51.6V51.6Z" fill="white"/>
<path d="M29.8 26.8C29.3 26.8 28.8 26.3999 28.6 25.8999C28.5 25.5999 28.5 25.3999 28.6 25.0999C29.4 21.9999 30.9 18.9999 33 16.0999C33.3 15.6999 33.8 15.4999 34.2 15.5999C34.7 15.6999 35.1 16 35.2 16.5C35.3 16.9 35.4 17.1999 35.6 17.5999C35.7 17.9999 35.6 18.4 35.3 18.8C33.3 21.2 31.9 23.5999 31 25.8999C30.8 26.3999 30.3 26.8 29.8 26.8V26.8Z" fill="white"/>
<path d="M33.3 34.3001C32.8 34.3001 32.3 34.1001 32.1 33.6001C30.9 31.2001 29.7999 28.7001 28.8999 26.3001C28.6999 26.0001 28.6999 25.6001 28.8999 25.3001C29.7999 22.8001 31.4 20.2001 33.5 17.6001C33.8 17.2001 34.3 17.1001 34.7 17.2001C35.2 17.3001 35.6 17.6001 35.7 18.1001C36.3 19.9001 36.9 21.8001 37.6 23.7001C37.8 24.0001 37.7 24.5001 37.5 24.8001C35.9 27.6001 34.8 30.5001 34.5 33.2001C34.5 33.8001 34 34.2001 33.5 34.3001C33.4 34.3001 33.3 34.3001 33.3 34.3001V34.3001ZM31.3999 25.8001C31.7999 26.9001 32.3 28.0001 32.8 29.1001C33.3 27.4001 34.1 25.7001 35 24.0001C34.7 23.1001 34.3 22.1001 34 21.1001C32.9 22.7001 31.9999 24.3001 31.3999 25.8001Z" fill="white"/>
<path d="M36.3 39.5C35.8 39.5 35.4 39.2999 35.2 38.8999C34.7 38.0999 34.4 37.5 34 36.8C33.5 35.8 33 34.8 32.4 33.8C32.3 33.6 32.3 33.2999 32.3 33.0999C32.6 30.0999 33.8 26.9 35.6 23.8C35.9 23.4 36.4 23.2 36.8 23.2C37.3 23.3 37.7 23.6 37.9 24C38.6 25.9 39.5 27.8 40.4 29.7C40.5 30.1 40.5 30.4999 40.3 30.8999C38.8 33.3999 37.9 35.8999 37.5 38.3999C37.4 38.9999 37 39.4 36.5 39.5C36.4 39.5 36.3 39.5 36.3 39.5V39.5ZM34.9 33C35.2 33.6 35.5 34.2 35.8 34.7C36.3 33.2 36.9 31.7 37.8 30.2C37.4 29.3 37 28.4 36.6 27.5C35.7 29.3 35.1 31.2 34.9 33V33Z" fill="white"/>
<path d="M49.4 50.8C46.6 50.8 44.1 50.3 41.9 49.5C41.6 49.4 41.4 49.2 41.3 49C39.7 46.8 38.2 44.4 36.7 41.9C36.5 41.4 36.5 40.9 36.8 40.5C37.1 40.1 37.6 39.9 38.1 40C40 40.3 42.3 40.3 44.8 39.9C45.3 39.8 45.8 40.1 46.1 40.5C47.9 43.5 49.9 46.2 51.9 48.7C52.2 49 52.2 49.6 52 50C51.8 50.4 51.4 50.7 51 50.8C50.4 50.8 49.9 50.8 49.4 50.8V50.8ZM43.2 47.2C44.7 47.8 46.4 48.1 48.3 48.2C46.9 46.5 45.6 44.6 44.4 42.6C42.9 42.7 41.5 42.8 40.2 42.8C41.2 44.3 42.2 45.8 43.2 47.2Z" fill="white"/>
<path d="M40.6 41.9001C39.3 41.9001 38.1 41.8001 37 41.6001C36.6 41.5001 36.3 41.3001 36.1 41.0001C35.9 40.6001 35.6 40.1001 35.4 39.7001C35.2 39.4001 35.2 39.1001 35.2 38.9001C35.7 36.0001 36.7 33.1001 38.4 30.3001C38.6 29.9001 39 29.6001 39.5 29.6001C40 29.7001 40.4 29.9001 40.6 30.4001C41.3 31.8001 41.9 33.1001 42.6 34.4001C43.5 36.2001 44.6 37.9001 45.6 39.6001C45.8 40.0001 45.9 40.5001 45.7 40.8001C45.5 41.2001 45.2 41.5001 44.7 41.6001C43.3 41.8001 41.9 41.9001 40.6 41.9001ZM38 39.2001C39.4 39.4001 40.8 39.4001 42.4 39.3001C41.7 38.1001 41 36.8001 40.4 35.6001C40 35.0001 39.7 34.4001 39.4 33.7001C38.6 35.4001 38.1 37.1001 37.8 38.8001C37.9 39.0001 37.9 39.1001 38 39.2001Z" fill="white"/>
<path d="M34.6 18.8002C34.5 18.8002 34.4 18.8002 34.3 18.8002C33.9 18.7002 33.4999 18.4001 33.3999 17.9001C33.2999 17.5001 33.1 17.1001 33 16.7001C32.9 16.3001 33 15.9001 33.2 15.6001C34.8 13.4001 36.6 11.3002 38.8 9.30015C39.1 9.00015 39.6 8.90014 40 9.10014C40.4 9.20014 40.6999 9.50015 40.8999 10.0002C40.9999 10.5002 41.1 11.1001 41.3 11.7001C41.4 12.1001 41.2999 12.6002 40.8999 13.0002C38.8999 14.7002 37.1 16.5002 35.6 18.3002C35.3 18.6002 35 18.8002 34.6 18.8002V18.8002Z" fill="white"/>
<path d="M36.8 24.8001H36.7C36.2 24.7001 35.8 24.4 35.6 24C34.9 22 34.2 20 33.7 18.2C33.5 17.8 33.6 17.3 33.9 17C35.4 15.2 37.2 13.4 39.1 11.7C39.4 11.4 39.9 11.3 40.3 11.5C40.7 11.6 41 11.9001 41.2 12.3001C41.6 13.9001 42.1 15.5 42.7 17.2C42.8 17.6 42.7 18.2 42.4 18.5C40.6 20.3 39.1 22.2 37.9 24.2C37.7 24.6 37.3 24.8001 36.8 24.8001V24.8001ZM36.3 18.1C36.5 18.9 36.8 19.8 37.1 20.7C38 19.5 39 18.4001 40 17.3001C39.7 16.5001 39.5 15.7 39.3 15C38.2 16 37.2 17 36.3 18.1V18.1Z" fill="white"/>
<path d="M39.5 31.1H39.4C39 31 38.5 30.8 38.3 30.3C37.4 28.4 36.6 26.4 35.8 24.5C35.7 24.2 35.7 23.8 35.9 23.4C37.2 21.3 38.8 19.3 40.7 17.4C41 17.1 41.5 17 41.9 17.1C42.3 17.2 42.7 17.5 42.8 17.9C43.5 19.8 44.2 21.7 45 23.5C45.2 24 45.1 24.6 44.8 24.9C43.1 26.7 41.7 28.5 40.6 30.4C40.4 30.8 39.9 31.1 39.5 31.1V31.1ZM38.4 24.2C38.8 25.2 39.2 26.2 39.7 27.2C40.5 26 41.4 24.9 42.4 23.8C41.9 22.8 41.5 21.7 41.1 20.7C40.1 21.8 39.2 23 38.4 24.2Z" fill="white"/>
<path d="M57.6 56.8001C57.3 56.8001 57 56.7001 56.8 56.5001C55 54.9001 53.2 52.9001 51.5 50.8001C51.2 50.4001 51.1 49.9001 51.3 49.5001C51.5 49.0001 51.8999 48.7001 52.3999 48.7001C54.5999 48.6001 56.8 48.1001 59.1 47.4001C59.6 47.2001 60.0999 47.4001 60.3999 47.7001C62.0999 49.6001 63.7999 51.3001 65.3999 52.7001C65.6999 53.0001 65.9 53.4001 65.8 53.8001C65.8 54.3001 65.5 54.7001 65.1 54.8001C62.6 55.8001 60.2 56.4001 57.8 56.8001C57.8 56.8001 57.7 56.8001 57.6 56.8001V56.8001ZM55 51.0001C56 52.2001 57 53.2001 58.1 54.2001C59.4 54.0001 60.8 53.6001 62.1 53.2001C61.1 52.2001 60.1 51.2001 59.1 50.0001C57.7 50.5001 56.3 50.8001 55 51.0001Z" fill="white"/>
<path d="M44.9 41.4001C44.5 41.4001 44.1 41.2001 43.9 40.8001C42.7 39.0001 41.7 37.2001 40.7 35.4001C40 34.1001 39.3 32.8001 38.6 31.3001C38.4 30.9001 38.5 30.5001 38.7 30.1001C39.9 28.0001 41.5 25.9001 43.4 24.0001C43.6 23.7001 44.1 23.6001 44.5 23.6001C44.9 23.7001 45.3 24.0001 45.4 24.4001C46.4 26.5001 47.4 28.6001 48.5 30.7001C49.8 33.1001 51.2 35.4001 52.7 37.6001C52.9 38.0001 53 38.4001 52.9 38.7001C52.7 39.1001 52.4 39.4001 52.1 39.5001C49.7 40.4001 47.4 41.0001 45.1 41.4001C45.1 41.4001 45 41.4001 44.9 41.4001V41.4001ZM41.2 30.8001C41.8 32.0001 42.4 33.1001 43 34.2001C43.8 35.7001 44.6 37.2001 45.6 38.7001C46.9 38.5001 48.3 38.1001 49.7 37.7001C48.5 35.8001 47.4 33.9001 46.3 31.9001C45.5 30.3001 44.7 28.8001 43.9 27.2001C42.9 28.3001 42 29.6001 41.2 30.8001Z" fill="white"/>
<path d="M59.4 8.40005C59 8.40005 58.6 8.30005 58.4 7.90005C57.3 6.50005 56.1 5.10005 55 3.90005C54.7 3.60005 54.6 3.10005 54.7 2.70005C54.8 2.30005 55.1 2.00005 55.5 1.80005C57.5 1.10005 59.5 0.500048 61.5 0.200048C62 0.100048 62.5 0.300054 62.8 0.800054L65.6 5.60004C65.8 6.00004 65.8 6.50005 65.6 6.90005C65.4 7.30005 65 7.50005 64.6 7.50005C63 7.70005 61.3 8.00005 59.7 8.40005C59.6 8.40005 59.5 8.40005 59.4 8.40005V8.40005ZM58.1 3.60004C58.7 4.30004 59.3 5.00005 59.9 5.70005C60.7 5.50005 61.6 5.40005 62.4 5.20005L61.1 2.80005C60.1 3.10005 59.1 3.30004 58.1 3.60004Z" fill="white"/>
<path d="M46.7 8.50001C46.3 8.50001 45.9 8.30001 45.7 8.00001C45.3 7.50001 44.8 7 44.5 6.6C44.2 6.3 44.1 6 44.2 5.6C44.2 5.2 44.4 4.90001 44.7 4.70001H44.8C45.1 4.50001 45.4 4.3 45.6 4.1C47.8 2.8 50.3 1.4 53.3 0.0999992C53.7 -0.100001 54.3 2.26498e-06 54.7 0.400002C55.2 0.900002 55.8 1.5 56.4 2.1C56.6 2.4 56.7 2.90001 56.6 3.30001C56.5 3.70001 56.2 4.00001 55.8 4.20001C53 5.20001 50.1 6.60001 47.3 8.30001C47.1 8.40001 46.9 8.50001 46.7 8.50001V8.50001Z" fill="white"/>
<path d="M53.4 17.7001C53 17.7001 52.6 17.4001 52.4 17.1001C51.2 15.3001 50.1 13.6001 48.9 12.0001C48.7 11.7001 48.6 11.3001 48.7 11.0001C48.7 10.6001 48.9 10.3001 49.3 10.1001C52.2 8.40013 55.3 7.10014 58.5 6.30014C59 6.10014 59.5 6.30014 59.8 6.70014C60.8 8.00014 61.8 9.40014 62.8 10.8001C63 11.1001 63 11.5001 62.9 11.9001C62.8 12.3001 62.5 12.6001 62.2 12.7001C60.3 13.4001 58.8 14.1001 57.4 15.0001C56.3 15.6001 55.4 16.4001 54.5 17.2001C54.4 17.3001 54.3 17.3001 54.2 17.4001C54.1 17.4001 54.1 17.5001 54 17.5001C53.8 17.6001 53.6 17.7001 53.4 17.7001V17.7001ZM51.8 11.7001C52.4 12.6001 53.1 13.5001 53.7 14.5001C54.5 13.9001 55.2 13.3001 56.1 12.8001C57.2 12.1001 58.4 11.5001 59.8 10.9001C59.3 10.3001 58.8 9.60014 58.3 9.00014C56.1 9.60014 53.9 10.5001 51.8 11.7001Z" fill="white"/>
<path d="M68.6 52.5C68.4 52.5 68.2 52.5 68 52.4C67.6 52.2 67.4 51.9 67.3 51.5C67 49.7 66.5 47.7 65.8 45.6C65.6 45.1 65.8 44.4 66.4 44.1C66.9 43.8 67.5 43.4 68 43.1C69.9 41.8 71.6 40.4 73.1 38.8C73.4 38.5 73.9 38.3 74.3 38.4C74.7 38.5 75.1 38.8 75.2 39.2C76.1 41.8 76.8 44.3 77.2 46.5C77.3 47 77.1 47.5 76.7 47.8C75.9 48.4 75 49 74.2 49.5C72.5 50.6 70.8 51.5 69.1 52.4C69 52.5 68.8 52.5 68.6 52.5ZM68.5 45.8C68.9 47 69.2 48.2 69.5 49.3C70.6 48.7 71.7 48.1 72.8 47.4C73.4 47 74 46.6 74.6 46.2C74.3 44.8 73.9 43.4 73.5 42C72.2 43.1 70.9 44.2 69.5 45.2C69.2 45.4 68.8 45.6 68.5 45.8V45.8Z" fill="white"/>
<path d="M41.9 18.5002C41.8 18.5002 41.7 18.5001 41.6 18.4001C41.2 18.3001 40.8 18.0001 40.7 17.6001C40.1 15.9001 39.5 14.2001 39.1 12.6001C39 12.1001 39.1 11.6002 39.5 11.3002C41.1 9.90016 42.8 8.60015 44.6 7.50015C45.1 7.20015 45.5 6.90015 46 6.60015C46.5 6.30015 47.2 6.40015 47.6 6.90015C48.6 8.00015 49.6 9.30015 50.6 10.6001C50.8 10.9001 50.9 11.3001 50.8 11.6001C50.8 12.0001 50.5 12.3002 50.2 12.5002C49.5 12.9002 49 13.2002 48.5 13.5002C46.4 14.8002 44.5 16.4001 42.8 18.1001C42.5 18.3001 42.2 18.5002 41.9 18.5002V18.5002ZM41.8 12.7002C42 13.4002 42.2 14.2001 42.5 14.9001C43.9 13.6001 45.5 12.4001 47.1 11.4001C47.3 11.2001 47.5 11.1002 47.7 11.0002C47.3 10.4002 46.8 9.90016 46.4 9.30016C46.3 9.40016 46.1 9.50015 46 9.60015C44.5 10.5001 43.1 11.6002 41.8 12.7002V12.7002Z" fill="white"/>
<path d="M59.5 48.8001C59.1 48.8001 58.8 48.7001 58.5 48.4001C56.2 45.8001 53.8 42.8001 51.6 39.5001C51.4 39.2001 51.4 38.8001 51.5 38.4001C51.6 38.0001 51.9 37.7001 52.2 37.6001C53.1 37.3001 54 36.9001 54.9 36.5001C55.3 36.3001 55.8 36.4001 56.1 36.6001C58.4 38.1001 61.1 38.5001 64.1 37.8001C64.7 37.7001 65.3 38.0001 65.5 38.6001C66.3 40.6001 66.9 42.5001 67.4 44.3001C67.5 44.9001 67.3 45.5001 66.8 45.7001C64.5 47.0001 62.2 48.0001 59.9 48.7001C59.7 48.8001 59.6 48.8001 59.5 48.8001V48.8001ZM54.6 39.4001C56.3 41.8001 58.1 44.0001 59.9 46.1001C61.5 45.5001 63.1 44.8001 64.6 44.0001C64.3 42.9001 63.9 41.7001 63.5 40.5001C60.5 41.0001 57.7 40.5001 55.3 39.1001C55.1 39.2001 54.9 39.3001 54.6 39.4001V39.4001Z" fill="white"/>
<path d="M52.1 39.3C51.7 39.3 51.3 39.1 51.1 38.8C49.6 36.5 48.1 34.1 46.8 31.7C45.6 29.6 44.5 27.4 43.6 25.3C43.4 24.8 43.4 24.3 43.8 23.9C45.7 21.8 47.9 19.9 50.2 18.2C50.9 17.7 51.6 17.2 52.4 16.8C52.6 16.6 53 16.6 53.3 16.7C53.6 16.7 53.9 16.9 54.1 17.2C54.4 17.7 54.4 18.4 53.9 18.8C49.9 22.9 49.2 27.8 52.1 32.3C53.1 33.8 54.2 35 55.4 35.8C55.8 36.1 56 36.5 56 37C56 37.4 55.7 37.8 55.3 38C54.4 38.5 53.5 38.9 52.6 39.2C52.4 39.3 52.3 39.3 52.1 39.3V39.3ZM46.2 25C46.8 26.2 47.3 27.3 47.9 28.5C47.7 26.6 47.8 24.7 48.4 22.9C47.7 23.5 46.9 24.3 46.2 25Z" fill="white"/>
<path d="M39.6 53.5C39.3 53.5 39.1 53.4 38.9 53.3C36 51.4 33.5 48.7 31.4 45.4C29.3 42 28.1 38.4 27.9 34.7C27.9 34.1 28.3 33.5 29 33.4C29.7 33.3 30.3 33.7 30.4 34.4C30.6 35.2 30.9 35.9 31.3 36.5C32 37.5 32.9 38.3 34.1 38.9C34.5 39.1 34.7 39.4 34.8 39.7C35.1 40.8 35.6 41.8 36.1 42.7C36.3 43 36.5 43.2 36.8 43.5C36.9 43.7 37 43.9 37 44.2C37.3 46.1 37.9 47.9 38.9 49.4C39.4 50.1 39.9 50.7 40.5 51.3C40.9 51.8 41 52.5 40.6 53C40.3 53.3 39.9 53.5 39.6 53.5ZM31.8 40.5C32.2 41.7 32.8 42.9 33.6 44.1C33.9 44.6 34.3 45.2 34.7 45.7C34.6 45.4 34.6 45.1 34.5 44.8C34.4 44.6 34.2 44.4 34 44.1C33.4 43.1 32.9 42.1 32.5 40.9C32.3 40.8 32 40.6 31.8 40.5V40.5Z" fill="white"/>
<path d="M41.6 49.0999C41.4 49.0999 41.3 49.0999 41.1 48.9999C38.9 48.1999 37.1 46.8999 35.7 45.0999C35.6 44.9999 35.5 44.6999 35.5 44.4999C35.3 43.3999 35.3 42.2999 35.4 41.0999C35.5 40.6999 35.7 40.3999 36 40.1999C36.3 39.9999 36.6 39.8999 37 39.9999C37.2 39.9999 37.5 40.0999 37.7 40.0999C38.1 40.1999 38.4 40.3999 38.6 40.7999C39.9 42.9999 41.2 45.0999 42.6 47.0999C43 47.5999 42.9 48.1999 42.6 48.5999C42.3 48.9999 42 49.0999 41.6 49.0999Z" fill="white"/>
<path d="M52.6 57.2C51.1 57.2 49.6 57.1 48.1 56.8C47.8 56.7 47.6 56.5999 47.4 56.3999C45.6 54.2999 43.8 52 42 49.5C41.7 49.1 41.7 48.5 42.1 48C42.4 47.6 43 47.3999 43.5 47.5999C45.8 48.4999 48.5 48.8999 51.4 48.6999C51.9 48.6999 52.2 48.8999 52.5 49.1999C54.2 51.2999 55.9 53.0999 57.6 54.6999C57.9 54.9999 58.1 55.5 57.9 56C57.8 56.4 57.4 56.7999 56.9 56.8999C55.5 57.0999 54 57.2 52.6 57.2ZM49 54.3999C50.6 54.5999 52.2 54.6999 53.9 54.5999C52.9 53.5999 51.9 52.5 50.9 51.3C49.3 51.4 47.7 51.3 46.3 51C47.2 52.2 48.1 53.2999 49 54.3999V54.3999Z" fill="white"/>
<path d="M51.5 50.5C51.1 50.5 50.7 50.3 50.5 50C48.4 47.5 46.3 44.7 44.4 41.6C44.2 41.3 44.2 40.8 44.3 40.4C44.5 40 44.9 39.8 45.3 39.7C47.3 39.4 49.5 38.8 51.6 38C52.2 37.8 52.8 38 53.1 38.5C55.2 41.6 57.4 44.5 59.6 46.9C59.9 47.3 60 47.7 59.9 48.1C59.8 48.5 59.5 48.9 59 49C56.5 49.8 54 50.3 51.5 50.5V50.5ZM47.6 41.9C49 44 50.5 46 52 47.9C53.4 47.7 54.9 47.5 56.4 47.1C54.7 45.2 53.1 43 51.5 40.7C50.2 41.2 48.9 41.6 47.6 41.9V41.9Z" fill="white"/>
<path d="M74.5 40.1001C74.4 40.1001 74.3 40.1001 74.2 40.1001C73.7 40.0001 73.4 39.7001 73.3 39.2001C72.9 37.8001 72.4 36.3001 71.9 34.8001C71.7 34.3001 71.8 33.8001 72.2 33.4001C73.9 32.0001 75.5 30.4001 77 28.6001C77.2 28.2001 77.6 28.1001 78 28.1001C78.4 28.1001 78.8 28.3001 79 28.6001L80.8 31.3001C81.1 31.7001 81.1 32.2001 80.9 32.6001C79.4 35.1001 77.6 37.5001 75.4 39.8001C75.2 40.0001 74.8 40.1001 74.5 40.1001V40.1001ZM74.5 34.8001C74.7 35.3001 74.9 35.9001 75.1 36.4001C76.3 35.0001 77.3 33.5001 78.3 32.0001L77.9 31.5001C76.8 32.7001 75.7 33.8001 74.5 34.8001V34.8001Z" fill="white"/>
<path d="M65.2 54.4C64.9 54.4 64.6 54.3 64.4 54.1C62.7 52.7 61 51 59.3 49.1C59.1 48.8 58.9 48.3 59.1 47.9C59.2 47.5 59.5 47.2 59.9 47C61.9 46.4 63.9 45.5 65.7 44.4C66.1 44.2 66.5 44.2 66.9 44.4C67.2 44.5 67.5 44.8 67.6 45.2C68.2 47.6 68.7 49.9 68.9 51.9C69 52.5 68.7 53 68.2 53.2C67.3 53.6 66.5 54 65.7 54.3C65.5 54.4 65.4 54.4 65.2 54.4V54.4ZM62.5 48.8C63.5 49.8 64.5 50.8 65.4 51.6C65.7 51.5 66 51.4 66.3 51.3C66.1 50.1 65.8 48.8 65.5 47.4C64.5 47.9 63.5 48.4 62.5 48.8Z" fill="white"/>
<path d="M82.7 36.4001C82.3 36.4001 81.8 36.2001 81.6 35.8001C81.1 34.9001 80.5 33.9001 79.8 32.9001C79.6 32.5001 79.6 32.1001 79.7 31.7001C80.3 30.4001 80.7 29.0001 81.1 27.4001C81.2 27.0001 81.6 26.6001 82 26.5001C82.5 26.4001 82.9 26.5001 83.3 26.8001L84.8 28.4001C85.1 28.7001 85.2 29.0001 85.2 29.4001C85 31.5001 84.6 33.5001 83.9 35.6001C83.8 36.0001 83.3 36.4001 82.8 36.4001H82.7V36.4001Z" fill="white"/>
<path d="M82.3 28.6001C81.9 28.6001 81.5 28.4001 81.3 28.1001C81 27.8001 80.7 27.4001 80.4 27.1001C80.1 26.7001 80 26.1001 80.2 25.7001C80.5 25.1001 80.7 24.6001 80.9 23.9001C81 23.6001 81.3 23.3001 81.7 23.1001C82.1 23.0001 82.5 23.0001 82.8 23.2001L83.6 23.8001C84 24.0001 84.2 24.5001 84.2 25.0001C84.1 25.9001 83.8 26.8001 83.4 27.8001C83.3 28.2001 82.9 28.5001 82.4 28.6001H82.3V28.6001Z" fill="white"/>
<path d="M66.5 9.9001C66.1 9.9001 65.6 9.6001 65.4 9.2001C65 8.5001 64.7 7.90011 64.3 7.30011C64.1 7.00011 64 6.5001 64.2 6.2001C64.4 5.8001 64.7 5.5001 65.1 5.4001C66 5.2001 67 5.1001 67.8 5.1001C68.4 5.1001 68.9 5.4001 69.1 5.9001L69.9 8.1001C70 8.5001 70 9.00011 69.7 9.30011C69.4 9.70011 69 9.9001 68.6 9.9001C68 9.8001 67.3 9.8001 66.6 9.9001H66.5V9.9001Z" fill="white"/>
<path d="M69.7 8.09995C69.6 8.09995 69.5 7.99995 69.3 7.99995C69 7.89995 68.5 7.79995 68.1 7.69995C67.6 7.59995 67.2 7.29996 67.1 6.79996C67 6.29996 66.8 5.79995 66.7 5.39995C66.5 4.99995 66.6 4.49995 66.9 4.19995C67.1 3.89995 67.5 3.69995 67.9 3.69995C68.6 3.79995 69.3 3.79995 69.8 3.99995C70.4 4.09995 70.8 4.49995 70.8 5.09995L71 6.69995C71.1 7.09995 70.9 7.49996 70.5 7.79996C70.3 7.99996 70 8.09995 69.7 8.09995V8.09995Z" fill="white"/>
<path d="M76.7 47.1001C76.6 47.1001 76.5 47.1001 76.4 47.0001C76 46.9001 75.7 46.7001 75.6 46.3001C75.3 45.5001 75 44.6001 74.8 43.7001C74.5 42.4001 74.2 41.0001 73.6 40.0001C73.3 39.5001 73.4 38.8001 73.8 38.4001C74.3 38.0001 74.7 37.5001 75.1 37.0001C76.6 35.4001 78 33.6001 79 31.8001C79.3 31.4001 79.7 31.1001 80.1 31.1001C80.6 31.1001 81 31.4001 81.2 31.7001L81.7 32.5001C82.7 34.2001 83 34.7001 83.8 36.6001C83.9 36.9001 83.9 37.3001 83.8 37.6001C82.7 40.2001 79.2 45.4001 77.6 46.8001C77.3 47.0001 77 47.1001 76.7 47.1001V47.1001ZM76.2 39.6001C76.7 40.8001 77 42.0001 77.3 43.1001C77.3 43.1668 77.3 43.2334 77.3 43.3001C78.7 41.5001 80.4 38.8001 81.2 37.1001C80.8 36.1001 80.6 35.6001 80.1 34.8001C79.2 36.2001 78.1 37.5001 77 38.8001C76.8 39.0001 76.5 39.3001 76.2 39.6001Z" fill="white"/>
<path d="M36 41.2C35.9 41.2 35.7 41.2 35.6 41.1C34.7 40.8 33.7 40.4 32.8 39.8C32.5 39.6 32.3 39.2 32.2 38.8C32.1 36.7 32.1 35.2 32.2 34.3C32.3 33.6 33 33.1 33.7 33.2C34.1 33.3 34.4 33.5 34.6 33.9C35.4 35.3 36.3 36.7 37.2 38C37.4 38.3 37.4 38.6 37.4 38.9C37.3 39.2 37.3 39.6 37.3 40H37.2C37.2 40.4 37 40.8 36.7 41C36.5 41.1 36.2 41.2 36 41.2V41.2Z" fill="white"/>
<path d="M33.2 39.9C33 39.9 32.8 39.8 32.6 39.7C31.1 39 29.9 37.9 29.1 36.6C28.5 35.8 28.1 34.8 27.8 33.8C27.8 33.7 27.8 33.6 27.8 33.5C27.7 31.2 27.9 28.8 28.6 26.4C28.6 26.3334 28.6 26.3 28.6 26.3L28.7 26.1C28.9 25.7 29.2999 25.3 29.8999 25.3C30.3999 25.3 30.9 25.6 31.1 26.1C32.1 28.7 33.5 31.7 34.2 33.2C34.3 33.4 34.3999 33.6 34.3999 33.9C34.2999 34.4 34.3 35 34.3 35.6V35.7C34.2 36.2 34.2 36.7 34.3 37.2C34.3 37.6 34.3999 38 34.3999 38.4C34.4999 38.9 34.2999 39.4 33.8999 39.6C33.6999 39.8 33.4 39.9 33.2 39.9V39.9ZM30.3 33.3C30.5 34 30.8 34.7 31.2 35.2C31.3 35.5 31.5 35.7 31.7 35.9C31.7 35.8 31.7 35.7 31.7 35.6C31.7 35 31.8 34.5 31.8 34C31.4 33.2 30.8999 32.1 30.3999 31C30.2999 31.7 30.3 32.5 30.3 33.3Z" fill="white"/>
<path d="M8.79999 85.4C4.29999 85.4 1.29999 82 1.29999 76.8C1.29999 70.9 5.39998 68.3 8.59998 68.3C10.9 68.3 12.2 68.9 12.7 69.1L12.5 72.3C12 71.9 11.1 71.3 9.5 71.3C7.1 71.3 5.39996 73.5 5.39996 76.8C5.39996 80.2 6.99996 82.3 9.39996 82.3C11.4 82.3 12.3 81.6 12.6 81.5L12.8 84.8C12 85.1 10.9 85.4 8.79999 85.4Z" fill="#BF0D0D"/>
<path d="M20.8 85.4C19.4 85.4 17.5 85.1 16.3 84.7L16.5 81.5C17.7 82.2 19.2 82.6 20.2 82.6C22 82.6 22.5 81.5 22.5 80.6C22.5 79.4 21.7 78.9 20.6 78.4L19.1 77.7C17 76.6 16.2 75.1 16.2 73C16.2 69.9 19 68.3 22.1 68.3C23.6 68.3 24.6 68.6 25.9 68.9L25.8 72C24.9 71.5 23.5 71.1 22.5 71.1C21.3 71.1 20.3 71.7 20.3 72.9C20.3 73.9 20.9 74.3 21.9 74.8L23.3 75.4C25.4 76.4 26.6 77.4 26.6 80.2C26.6 83.3 24.1 85.4 20.8 85.4V85.4Z" fill="#BF0D0D"/>
<path d="M37 85.1H30.8V68.5H36.9C39.4 68.5 41.7 70 41.7 72.7C41.7 74.8 40.3 76.1 38.7 76.5C40.4 76.8 42 78.1 42 80.4C42 83.4 39.7 85.1 37 85.1V85.1ZM35.8 71.3H34.7V75.3H35.8C37.1 75.3 37.9 74.6 37.9 73.2C37.9 71.9 37 71.3 35.8 71.3ZM36 78H34.7V82.3H36C37.3 82.3 38.2 81.6 38.2 80.2C38.2 78.8 37.3 78 36 78V78Z" fill="#00528C"/>
<path d="M54 85.1L52.7 80.3C52.3 78.9 51.8 78.5 51 78.5H50.2V85.1H46.3V68.5H52.4C55.1 68.5 57.5 69.9 57.5 72.8C57.5 75 56.4 76.4 54.2 76.9C55.4 77.2 56 77.9 56.5 79.5L58.2 85.1H54ZM51.2 71.4H50.2V75.6H51.3C52.7 75.6 53.5 74.8 53.5 73.5C53.5 72 52.6 71.4 51.2 71.4Z" fill="#00528C"/>
<path d="M71.2 85.1L70.2 81.4H65.4L64.5 85.1H60.5L65.6 68.5H70.2L75.3 85.1H71.2ZM67.8 71.8L66 78.6H69.6L67.8 71.8Z" fill="#00528C"/>
<path d="M82.3 85.4C80.9 85.4 79.1 85.1 77.9 84.7L78 81.5C79.3 82.2 80.7 82.6 81.7 82.6C83.5 82.6 84.1 81.5 84.1 80.6C84.1 79.4 83.2 78.9 82.2 78.4L80.7 77.7C78.5 76.6 77.8 75.1 77.8 73C77.8 69.9 80.5 68.3 83.6 68.3C85.2 68.3 86.2 68.6 87.5 68.9L87.3 72C86.4 71.5 85.1 71.1 84.1 71.1C82.9 71.1 81.9 71.7 81.9 72.9C81.9 73.9 82.4 74.3 83.5 74.8L84.9 75.4C87 76.4 88.1 77.4 88.1 80.2C88.1 83.3 85.7 85.4 82.3 85.4V85.4Z" fill="#00528C"/>
<path d="M92.4 68.5H96.4V85.1H92.4V68.5Z" fill="#00528C"/>
<path d="M101.4 85.1V68.5H105.3V82H110.5V85.1H101.4Z" fill="#00528C"/>
<path d="M29.8 25.5C29.8 25.5 29.8 25.6 29.7 25.6C29.8 25.6 29.8 25.5 29.8 25.5Z" fill="black"/>
<path d="M36 40.8999C35.3 40.7999 34.5 40.5 33.9 40.2C34.2 41.3 34.7 42.3999 35.4 43.3999C35.6 43.6999 35.8 44 36.1 44.3C35.9 43.2 35.9 42.0999 36 40.8999Z" fill="#008AD1"/>
<path d="M42.1 48.8999C40 48.0999 38.2 46.9 36.9 45.2C37.1 47.2 37.8 48.9999 38.9 50.5999C39.4 51.2999 40 51.9999 40.6 52.5999C42.7 53.8999 45 54.8 47.4 55.3C45.7 53.4 43.9 51.2999 42.1 48.8999Z" fill="#008AD1"/>
<path d="M34.3 18C34.2 17.6 34.1 17.2 34 16.8C32.1 19.5 30.6 22.4 29.8 25.5C30.7 23 32.3 20.5 34.3 18Z" fill="#BF0D0D"/>
<path d="M34.5 18.4001C32.5 20.9001 31 23.4002 30 25.8002C31 28.2002 32 30.6001 33.3 33.1001C33.6 30.1001 34.7 27.1001 36.4 24.1001C35.7 22.2001 35 20.3001 34.5 18.4001V18.4001Z" fill="#EB6608"/>
<path d="M36.3 38.2C36.7 35.6 37.7 32.9 39.2 30.3C38.3 28.3 37.5 26.4 36.7 24.5C35 27.4 33.9 30.4 33.6 33.2C34.1 34.2 34.6 35.2 35.1 36.2C35.5 36.9 35.9 37.6 36.3 38.2V38.2Z" fill="#BF0D0D"/>
<path d="M50.9 49.5C48.9 47 46.9 44.2 45 41.2C42.4 41.6 39.9 41.6 37.8 41.2C39.3 43.7 40.8 46.1 42.3 48.3C44.8 49.3 47.8 49.7 50.9 49.5V49.5Z" fill="#008AD1"/>
<path d="M39.5 30.9001C37.9 33.6001 36.9 36.4001 36.5 39.1001C36.7 39.5001 37 39.9001 37.2 40.4001C39.4 40.8001 41.9 40.8002 44.5 40.3002C43.5 38.6002 42.5 36.8002 41.5 35.0002C40.8 33.6002 40.1 32.3001 39.5 30.9001Z" fill="#EB6608"/>
<path d="M40.1 12C39.9 11.4 39.8 10.8 39.6 10.3C37.6 12.2 35.8 14.2 34.3 16.3C34.4 16.7 34.5 17.1 34.6 17.5C36.2 15.6 38 13.8 40.1 12Z" fill="#EB6608"/>
<path d="M41.5 17.5999C40.9 15.8999 40.4 14.3 39.9 12.7C38 14.3 36.3 16 34.9 17.8C35.4 19.7 36.1 21.6 36.8 23.5C38 21.5 39.6 19.4999 41.5 17.5999V17.5999Z" fill="#BF0D0D"/>
<path d="M41.6 18.3C39.8 20.2 38.2 22.1 37 24.1C37.7 26 38.6 27.9 39.5 29.8C40.7 27.8 42.1 25.9 43.9 24C43 22.1 42.3 20.2 41.6 18.3Z" fill="#EB6608"/>
<path d="M59.5 48.6001C57.1 49.4001 54.7 49.8001 52.5 50.0001C54.2 52.1001 55.9 54.0001 57.6 55.6001C59.9 55.2001 62.3 54.6001 64.6 53.6001C62.9 52.2001 61.2 50.5001 59.5 48.6001Z" fill="#008AD1"/>
<path d="M47.4 31.3002C46.3 29.1002 45.2 27.0001 44.3 24.9001C42.5 26.8001 41 28.7002 39.8 30.8002C40.4 32.1002 41.1 33.5002 41.8 34.8002C42.8 36.7002 43.9 38.4001 44.9 40.1001C47.1 39.8001 49.3 39.2002 51.6 38.3002C50.2 36.1002 48.8 33.8002 47.4 31.3002Z" fill="#BF0D0D"/>
<path d="M59.4 7.20015C61.1 6.70015 62.8 6.40016 64.5 6.30016L61.7 1.40015C59.8 1.80015 57.9 2.30015 55.9 3.00015C57.1 4.30015 58.2 5.70015 59.4 7.20015V7.20015Z" fill="#EB6608"/>
<path d="M45.4 5.79996C45.8 6.29996 46.3 6.69995 46.7 7.19995C49.6 5.39995 52.5 3.99995 55.4 2.99995C54.9 2.39995 54.3 1.79995 53.8 1.19995C51.2 2.39995 48.7 3.69995 46.3 5.19995C46 5.39995 45.7 5.59996 45.4 5.79996Z" fill="#BF0D0D"/>
<path d="M49.9 11.2C51.1 12.9 52.3 14.6 53.4 16.4C53.5 16.4 53.5 16.3 53.6 16.3C54.5 15.4 55.6 14.6 56.7 13.9C58.3 12.9 60 12.2 61.7 11.5C60.8 10.1 59.8 8.8 58.8 7.5C55.8 8.3 52.8 9.5 49.9 11.2V11.2Z" fill="#BF0D0D"/>
<path d="M68.7 44.0999C68.2 44.4999 67.6 44.9 67 45.2C67.7 47.4 68.3 49.4 68.6 51.2C70.2 50.4 71.9 49.4999 73.5 48.3999C74.3 47.8999 75.2 47.3 75.9 46.7C75.6 44.6 74.9 42.2 74 39.7C72.5 41.3 70.7 42.7999 68.7 44.0999Z" fill="#008AD1"/>
<path d="M47.8 12.3999C48.4 11.9999 49 11.6999 49.6 11.3999C48.6 10.0999 47.6 8.79995 46.7 7.69995C46.2 7.89995 45.8 8.19995 45.3 8.49995C43.5 9.69995 41.8 10.9 40.3 12.2C40.8 13.8 41.3 15.5 41.9 17.2C43.6 15.5 45.6 13.8999 47.8 12.3999Z" fill="#EB6608"/>
<path d="M55.4 37.7C54.5 38.1 53.6 38.5 52.7 38.8C54.9 42.1 57.2 45 59.5 47.5C61.7 46.8 64 45.8999 66.2 44.5999C65.7 42.7999 65.1 41 64.3 39C61.1 39.8 58 39.4 55.4 37.7V37.7Z" fill="#008AD1"/>
<path d="M44.7 24.8002C45.7 26.9002 46.7 29.0001 47.9 31.1001C49.3 33.6001 50.7 35.9001 52.1 38.1001C53 37.7001 53.9 37.3001 54.7 36.9001C53.4 36.0001 52.1 34.7002 51 33.0002C47.7 27.7002 48.9 22.1001 53 17.9001C52.3 18.3001 51.6 18.8001 51 19.2001C48.6 20.9001 46.5 22.8002 44.7 24.8002V24.8002Z" fill="#EB6608"/>
<path d="M35.8 44.3C35.5 44 35.3 43.6999 35.1 43.3999C34.4 42.3999 33.9 41.1999 33.6 40.0999C32.2 39.3999 31.1 38.4 30.3 37.2C29.7 36.4 29.4 35.6 29.2 34.7C29.4 38 30.4 41.4 32.5 44.7C34.5 48 36.9 50.5 39.6 52.2C38.9 51.6 38.3 50.8999 37.8 50.0999C36.7 48.3999 36 46.4 35.8 44.3V44.3Z" fill="#00528C"/>
<path d="M36.7 41.2C36.6 42.3 36.6 43.3 36.7 44.3C38 45.9 39.6 47.0999 41.6 47.8999C40.2 45.8999 38.8 43.6999 37.5 41.3999C37.2 41.2999 36.9 41.3 36.7 41.2Z" fill="#00528C"/>
<path d="M51.5 50C48.4 50.2 45.5 49.8 43.1 48.8C44.8 51.3 46.6 53.6 48.4 55.5C51 56.1 53.8 56.1 56.7 55.6C55 54 53.3 52.1 51.5 50V50Z" fill="#00528C"/>
<path d="M45.5 41C47.4 44 49.4 46.7 51.5 49.2C53.8 49 56.2 48.6 58.7 47.8C56.4 45.3 54.2 42.4 52 39.2C49.8 40 47.6 40.6 45.5 41Z" fill="#00528C"/>
<path d="M79.8 32.0002L78 29.4001C76.5 31.2001 74.9 32.9001 73.1 34.4001C73.6 35.9001 74.1 37.4001 74.5 38.9001C76.6 36.7001 78.4 34.4002 79.8 32.0002Z" fill="#008AD1"/>
<path d="M60.3 48.3C61.9 50.1 63.6 51.8 65.2 53.1C66 52.8 66.8 52.4 67.6 52.1C67.4 50.1 67 47.9 66.4 45.5C64.4 46.7 62.3 47.6 60.3 48.3V48.3Z" fill="#00528C"/>
<path d="M83.9 29.3L82.4 27.7C82 29.3 81.5 30.8 80.9 32.2C81.6 33.2 82.2 34.2 82.7 35.2C83.3 33.2 83.7 31.2 83.9 29.3Z" fill="#008AD1"/>
<path d="M82.9 24.8L82.1 24.3C81.9 25 81.7 25.6 81.4 26.2C81.7 26.6 82 26.9 82.3 27.3C82.6 26.5 82.8 25.6 82.9 24.8Z" fill="#008AD1"/>
<path d="M66.5 8.60014C67.3 8.50014 68 8.50014 68.7 8.60014L67.9 6.40015C67.1 6.40015 66.2 6.50015 65.4 6.70015C65.8 7.30015 66.1 7.90014 66.5 8.60014V8.60014Z" fill="#BF0D0D"/>
<path d="M68.3 6.5C68.8 6.5 69.3 6.6 69.7 6.8L69.6 5.2C69 5.1 68.5 5 67.9 5C68 5.4 68.2 5.9 68.3 6.5V6.5Z" fill="#EB6608"/>
<path d="M76.1 37.9001C75.6 38.4001 75.1 38.9002 74.7 39.3002C75.8 41.3002 76 44.0002 76.7 45.8002C78.1 44.7002 81.6 39.6001 82.6 37.1001C81.8 35.0001 81.5 34.7001 80.1 32.4001C79 34.3001 77.7 36.1001 76.1 37.9001V37.9001Z" fill="#004F7D"/>
<path d="M36 39.9C36 39.5 36.1 39 36.1 38.7C35.2 37.4 34.3 36 33.5 34.5C33.4 35.6 33.5 37.7 33.5 38.8C34.3 39.3 35.1 39.6 36 39.9V39.9Z" fill="#EB6608"/>
<path d="M33 37.3001C33 36.7001 33 36.2001 33 35.6001C33 35.0001 33 34.4001 33.1 33.8001C32 31.5001 30.7 28.8001 29.9 26.6001L29.8 26.7001C29.2 28.9001 28.9 31.2001 29.1 33.5001C29.3 34.4001 29.6 35.2001 30.1 35.9001C30.9 37.1001 31.9 37.9001 33.2 38.6001C33.1 38.2001 33.1 37.7001 33 37.3001V37.3001Z" fill="#BF0D0D"/>
<path d="M23.4 95.5C22.2 95.5 21.5 94.5 21.5 93.2C21.5 91.8 22.4 91 23.4 91C23.9 91 24.2 91.1 24.3 91.2V91.9C24.1 91.7 23.9 91.6 23.5 91.6C22.8 91.6 22.4 92.4 22.4 93.2C22.4 94.1 22.8 94.8 23.5 94.8C24 94.8 24.2 94.7 24.3 94.6L24.4 95.3C24.1 95.4 23.9 95.5 23.4 95.5V95.5Z" fill="#00528C"/>
<path d="M26.5 95.5001C25.5 95.5001 25.1 94.6001 25.1 93.7001C25.1 92.9001 25.5 92.1001 26.5 92.1001C27.5 92.1001 27.9 92.9001 27.9 93.7001C27.9 94.6001 27.4 95.5001 26.5 95.5001ZM26.5 92.6001C26 92.6001 25.9 93.4001 25.9 93.7001C25.9 94.2001 25.9 94.9001 26.5 94.9001C27 94.9001 27.1 94.1001 27.1 93.7001C27.1 93.3001 27 92.6001 26.5 92.6001Z" fill="#00528C"/>
<path d="M32.1 95.4001V93.2001C32.1 93.0001 32 92.6001 31.6 92.6001C31.3 92.6001 31.1 93.0001 31.1 93.3001V95.4001H30.4V93.2001C30.4 93.0001 30.4 92.6001 30 92.6001C29.7 92.6001 29.5 93.0001 29.5 93.3001V95.4001H28.8V92.9001C28.8 92.7001 28.7 92.4001 28.7 92.1001H29.4V92.6001C29.6 92.3001 29.9 92.1001 30.3 92.1001C30.7 92.1001 30.9 92.3001 31.1 92.6001C31.3 92.3001 31.5 92.1001 31.9 92.1001C32.5 92.1001 32.8 92.5001 32.8 93.2001V95.4001H32.1Z" fill="#00528C"/>
<path d="M35.4 95.5001C35 95.5001 34.8 95.3001 34.6 94.9001V96.8001H33.9V92.9001C33.9 92.6001 33.9 92.4001 33.8 92.1001H34.6V92.6001C34.8 92.3001 35 92.1001 35.4 92.1001C36.3 92.1001 36.6 93.0001 36.6 93.7001C36.6 94.4001 36.3 95.5001 35.4 95.5001V95.5001ZM35.2 92.6001C34.7 92.6001 34.6 93.3001 34.6 93.7001C34.6 94.2001 34.7 94.9001 35.2 94.9001C35.7 94.9001 35.8 94.1001 35.8 93.7001C35.8 93.4001 35.7 92.6001 35.2 92.6001Z" fill="#00528C"/>
<path d="M39.1 95.4001V94.9001C38.9 95.3001 38.6 95.5001 38.2 95.5001C37.6 95.5001 37.3 95.1001 37.3 94.5001C37.3 93.7001 38.1 93.4001 38.8 93.4001H39.1V93.2001C39.1 92.9001 38.9 92.6001 38.5 92.6001C38.2 92.6001 37.8 92.7001 37.6 92.9001L37.5 92.3001C37.9 92.2001 38.2 92.1001 38.6 92.1001C39.5 92.1001 39.8 92.5001 39.8 93.2001V94.7001C39.8 95.0001 39.8 95.2001 39.8 95.4001H39.1ZM39.1 93.8001H39C38.5 93.8001 38 93.9001 38 94.5001C38 94.7001 38.2 94.9001 38.5 94.9001C38.9 94.9001 39.1 94.5001 39.1 94.1001V93.8001Z" fill="#00528C"/>
<path d="M42.6 95.4001V93.2001C42.6 92.9001 42.5 92.6001 42.1 92.6001C41.8 92.6001 41.6 93.0001 41.6 93.3001V95.4001H40.8V92.9001C40.8 92.7001 40.8 92.4001 40.8 92.1001H41.5V92.6001C41.7 92.3001 42 92.1001 42.4 92.1001C43.1 92.1001 43.3 92.6001 43.3 93.2001V95.4001H42.6Z" fill="#00528C"/>
<path d="M46.1 95.3999V93.2C46.1 92.9 46 92.5999 45.7 92.5999C45.3 92.5999 45.2 93.0999 45.2 93.3999V95.3999H44.4V90.7H45.2V92.5999C45.3 92.2999 45.6 92.0999 46 92.0999C46.6 92.0999 46.9 92.5 46.9 93.2V95.3999H46.1Z" fill="#00528C"/>
<path d="M47.9 91.5H48.7V90.8H47.9V91.5ZM47.9 95.4H48.7V92.1H47.9V95.4Z" fill="#00528C"/>
<path d="M51.4 95.4001V94.9001C51.2 95.3001 50.9 95.5001 50.5 95.5001C49.9 95.5001 49.6 95.1001 49.6 94.5001C49.6 93.7001 50.4 93.4001 51.2 93.4001H51.4V93.2001C51.4 92.9001 51.2 92.6001 50.8 92.6001C50.5 92.6001 50.2 92.7001 49.9 92.9001L49.8 92.3001C50.2 92.2001 50.5 92.1001 50.9 92.1001C51.8 92.1001 52.1 92.5001 52.1 93.2001V94.7001C52.1 95.0001 52.1 95.2001 52.1 95.4001H51.4ZM51.4 93.8001H51.3C50.8 93.8001 50.3 93.9001 50.3 94.5001C50.3 94.7001 50.5 94.9001 50.8 94.9001C51.2 94.9001 51.4 94.5001 51.4 94.1001V93.8001Z" fill="#00528C"/>
<path d="M56.8 95.3999V94.8999C56.6 95.1999 56.4 95.5 56 95.5C55.1 95.5 54.8 94.4 54.8 93.7C54.8 93 55.1 92.0999 55.9 92.0999C56.4 92.0999 56.6 92.2999 56.8 92.5999V90.7H57.5V94.5999C57.5 94.8999 57.5 95.0999 57.5 95.3999H56.8ZM56.2 92.5999C55.7 92.5999 55.6 93.4 55.6 93.7C55.6 94.1 55.7 94.8999 56.2 94.8999C56.7 94.8999 56.8 94.2 56.8 93.7C56.8 93.3 56.7 92.5999 56.2 92.5999Z" fill="#00528C"/>
<path d="M59.2 93.9001C59.2 94.4001 59.4 94.9001 60 94.9001C60.3 94.9001 60.6 94.8001 60.8 94.7001V95.3001C60.5 95.4001 60.2 95.5001 59.9 95.5001C58.8 95.5001 58.4 94.7001 58.4 93.7001C58.4 92.9001 58.8 92.1001 59.7 92.1001C60.7 92.1001 61 92.9001 61 93.7001V93.9001H59.2ZM59.7 92.6001C59.3 92.6001 59.2 93.1001 59.2 93.5001H60.2C60.2 93.1001 60.2 92.6001 59.7 92.6001Z" fill="#00528C"/>
<path d="M64.6 95.5C64.3 95.5 63.9 95.4 63.6 95.3V94.6C63.9 94.8 64.3 94.9 64.5 94.9C65.1 94.9 65.2 94.5 65.2 94.2C65.2 93.9 65 93.7 64.7 93.5L64.3 93.3C63.8 93 63.6 92.7 63.6 92.2C63.6 91.3 64.4 91 65 91C65.3 91 65.6 91.1 65.9 91.1L65.8 91.8C65.6 91.7 65.3 91.6 65 91.6C64.7 91.6 64.4 91.7 64.4 92.1C64.4 92.4 64.6 92.6 64.8 92.7L65.2 92.9C65.8 93.3 66 93.5 66 94.2C66 94.9 65.4 95.5 64.6 95.5V95.5Z" fill="#00528C"/>
<path d="M67.5 93.9001C67.5 94.4001 67.8 94.9001 68.3 94.9001C68.6 94.9001 68.9 94.8001 69.2 94.7001V95.3001C68.9 95.4001 68.6 95.5001 68.3 95.5001C67.2 95.5001 66.8 94.7001 66.8 93.7001C66.8 92.9001 67.2 92.1001 68.1 92.1001C69 92.1001 69.3 92.9001 69.3 93.7001V93.9001H67.5ZM68.1 92.6001C67.7 92.6001 67.5 93.1001 67.5 93.5001H68.6C68.6 93.1001 68.5 92.6001 68.1 92.6001Z" fill="#00528C"/>
<path d="M71.8 92.8001C71.8 92.8001 71.7 92.7001 71.6 92.7001C71.1 92.7001 71 93.3001 71 93.7001V95.4001H70.2V92.9001C70.2 92.7001 70.2 92.4001 70.2 92.1001H70.9V92.7001C71.1 92.3001 71.3 92.1001 71.7 92.1001C71.7667 92.1001 71.8333 92.1001 71.9 92.1001L71.8 92.8001Z" fill="#00528C"/>
<path d="M74.1 95.4001H73.2L72.2 92.1001H73.1L73.7 94.7001L74.3 92.1001H75.1L74.1 95.4001Z" fill="#00528C"/>
<path d="M75.8 91.5H76.5V90.8H75.8V91.5ZM75.8 95.4H76.5V92.1H75.8V95.4Z" fill="#00528C"/>
<path d="M78.9 95.5001L78.7 95.7001C78.7 95.7001 78.8 95.7001 78.9 95.7001C79.2 95.7001 79.4 95.9001 79.4 96.2001C79.4 96.5001 79 96.7001 78.7 96.7001C78.4 96.7001 78.1 96.6001 78 96.6001L78.1 96.3001C78.2 96.4001 78.4 96.4001 78.6 96.4001C78.8 96.4001 78.9 96.3001 78.9 96.2001C78.9 96.0001 78.8 96.0001 78.6 96.0001C78.5333 96.0001 78.4666 96.0001 78.4 96.0001L78.3 95.9001L78.6 95.4001C77.8 95.3001 77.4 94.6001 77.4 93.7001C77.4 92.8001 78 92.1001 78.9 92.1001C79.1 92.1001 79.4 92.1001 79.6 92.2001L79.5 92.8001C79.4 92.7001 79.2 92.7001 79 92.7001C78.4 92.7001 78.2 93.2001 78.2 93.7001C78.2 94.3001 78.4 94.9001 79 94.9001C79.2 94.9001 79.4 94.8001 79.6 94.7001V95.3001C79.4 95.4001 79.1 95.5001 78.9 95.5001V95.5001Z" fill="#00528C"/>
<path d="M81.7 95.5001C80.7 95.5001 80.3 94.6001 80.3 93.7001C80.3 92.9001 80.8 92.1001 81.7 92.1001C82.7 92.1001 83.1 92.9001 83.1 93.7001C83.1 94.6001 82.6 95.5001 81.7 95.5001ZM81.7 92.6001C81.2 92.6001 81.1 93.4001 81.1 93.7001C81.1 94.2001 81.2 94.9001 81.7 94.9001C82.2 94.9001 82.3 94.1001 82.3 93.7001C82.3 93.3001 82.2 92.6001 81.7 92.6001Z" fill="#00528C"/>
<path d="M84.8 95.5001C84.5 95.5001 84.1 95.4001 83.8 95.3001V94.7001C84.1 94.8001 84.4 94.9001 84.7 94.9001C84.9 94.9001 85.2 94.8001 85.2 94.5001C85.2 94.0001 83.8 94.0001 83.8 93.0001C83.8 92.4001 84.4 92.1001 85 92.1001C85.2 92.1001 85.5 92.1001 85.8 92.2001L85.7 92.8001C85.5 92.7001 85.3 92.6001 85 92.6001C84.8 92.6001 84.6 92.8001 84.6 93.0001C84.6 93.6001 85.9 93.4001 85.9 94.4001C85.9 95.1001 85.4 95.5001 84.8 95.5001V95.5001Z" fill="#00528C"/>
</svg>
