<svg width="130" height="37" viewBox="0 0 130 37" fill="none" xmlns="http://www.w3.org/2000/svg">
<path d="M13.1 12.2001C13.1 5.8001 18.1 0.600098 25 0.600098H20.5C13.6 0.600098 8.59998 5.8001 8.59998 12.2001C8.59998 18.6001 13.6 23.7001 20.5 23.7001H25C18.1 23.7001 13.1 18.6001 13.1 12.2001Z" fill="#252C6A"/>
<path d="M4.5 12.2001C4.5 5.8001 9.50002 0.600098 16.4 0.600098H11.9C5.00002 0.600098 0 5.8001 0 12.2001C0 18.6001 5.00002 23.7001 11.9 23.7001H16.2999C9.39993 23.7001 4.5 18.6001 4.5 12.2001V12.2001Z" fill="#5373B8"/>
<path d="M16.9 12.2001C16.9 5.8001 21.8999 0.600098 28.7999 0.600098C35.6999 0.600098 40.7 5.7001 40.7 12.1001V12.2001C40.7 18.5001 35.6999 23.7001 28.7999 23.7001C21.8999 23.7001 16.9 18.6001 16.9 12.2001ZM35.6 12.2001C35.6 8.3001 32.6999 5.1001 28.7999 5.1001C24.7999 5.1001 22.1 8.3001 22.1 12.1001V12.2001C22.1 16.0001 24.8999 19.2001 28.7999 19.2001C32.7999 19.2001 35.6 16.1001 35.6 12.2001Z" fill="#1D1934"/>
<path d="M42.6 6.20008H47.5V9.70008C48.5 7.30008 50.1 5.80009 53 5.90009V11.0001H52.7C49.5 11.0001 47.5 12.9001 47.5 17.0001V23.3001H42.6V6.20008Z" fill="#1D1934"/>
<path d="M54.2 0H59.2999V4.29999H54.2V0ZM54.2999 6.19998H59.2V23.3H54.2999V6.19998Z" fill="#1D1934"/>
<path d="M61.9 26.7L63.6 23.1C65.3 24.1 67.1 24.7 69.4 24.7C72.7 24.7 74.2999 23.1 74.2999 20V19.2C72.7999 20.9 71.3 21.9 68.7 21.9C64.7 21.9 61.1 19 61.1 13.9C61.1 8.80002 64.7 5.90002 68.7 5.90002C71.3 5.90002 72.9 7.00003 74.2 8.50003V6.20001H79.1V19.5C79.1 22.5 78.3 24.8 76.9 26.2C75.3 27.8 72.8 28.5 69.5 28.5C66.7 28.5 64.1 27.9 61.9 26.7V26.7ZM74.2999 13.9C74.2999 11.6 72.4 9.90002 70.1 9.90002C67.7 9.90002 65.9 11.6 65.9 13.9C65.9 16.3 67.7 17.9 70.1 17.9C72.4 17.9 74.2999 16.3 74.2999 13.9Z" fill="#1D1934"/>
<path d="M81.6 0H86.7V4.29999H81.6V0ZM81.7 6.19998H86.6V23.3H81.7V6.19998Z" fill="#1D1934"/>
<path d="M89.2 6.20001H94.1V8.60001C95.2 7.20001 96.6 5.90002 99.1 5.90002C102.8 5.90002 104.9 8.30002 104.9 12.3V23.3H100.1V13.8C100.1 11.5 99 10.3 97.1 10.3C95.3 10.3 94.1 11.5 94.1 13.8V23.3H89.2V6.20001Z" fill="#1D1934"/>
<path d="M106.2 18.4C106.2 14.6 109 12.9 113.1 12.9C114.8 12.9 116.1 13.2 117.3 13.6V13.3C117.3 11.3 116 10.2 113.6 10.2C111.8 10.2 110.4 10.5 108.9 11.1L107.7 7.39999C109.5 6.59999 111.4 6 114.3 6C117 6 118.9 6.69999 120.1 7.89999C121.4 9.19999 121.9 11.1 121.9 13.4V23.3H117.3V21.5C116.1 22.8 114.4 23.7 112.1 23.7C108.8 23.7 106.2 21.8 106.2 18.4V18.4ZM117.3 17.3V16.4C116.5 16.1 115.4 15.8 114.2 15.8C112.2 15.8 110.9 16.6 110.9 18.2C110.9 19.5 112 20.3 113.5 20.3C115.8 20.3 117.3 19.1 117.3 17.3Z" fill="#1D1934"/>
<path d="M124.4 0H129.3V23.3H124.4V0Z" fill="#1D1934"/>
<path d="M61.2 33.6001C61.2 32.2001 62.2 31.1001 63.7 31.1001C64.6 31.1001 65.1 31.4001 65.5 31.9001L64.9 32.6001C64.5 32.3001 64.1 32.1001 63.7 32.1001C62.9 32.1001 62.2999 32.8001 62.2999 33.6001C62.2999 34.4001 62.8 35.1001 63.7 35.1001C64.2 35.1001 64.5 34.9001 64.9 34.5001L65.6 35.2001C65.1 35.7001 64.5 36.1001 63.6 36.1001C62.2 36.1001 61.2 35.0001 61.2 33.6001V33.6001Z" fill="#1D1934"/>
<path d="M65.9 33.6001C65.9 32.2001 67 31.1001 68.5 31.1001C69.9 31.1001 71 32.2001 71 33.6001C71 34.9001 69.9 36.1001 68.5 36.1001C67 36.1001 65.9 35.0001 65.9 33.6001ZM69.9 33.6001C69.9 32.8001 69.3 32.1001 68.5 32.1001C67.6 32.1001 67 32.8001 67 33.6001C67 34.4001 67.6 35.1001 68.5 35.1001C69.3 35.1001 69.9 34.4001 69.9 33.6001Z" fill="#1D1934"/>
<path d="M71.7999 31.2001H72.7999L75 34.1001V31.2001H76V36.0001H75.1L72.7999 32.9001V36.0001H71.7999V31.2001Z" fill="#1D1934"/>
<path d="M77 33.6001C77 32.2001 78 31.1001 79.4 31.1001C80.3 31.1001 80.8999 31.4001 81.2999 31.9001L80.7 32.6001C80.3 32.3001 79.9 32.1001 79.4 32.1001C78.6 32.1001 78.1 32.8001 78.1 33.6001C78.1 34.4001 78.6 35.1001 79.4 35.1001C80 35.1001 80.3 34.9001 80.7 34.5001L81.4 35.2001C80.9 35.7001 80.3 36.1001 79.4 36.1001C78 36.1001 77 35.0001 77 33.6001V33.6001Z" fill="#1D1934"/>
<path d="M82.1 31.2001H85.7V32.1001H83.1V33.1001H85.2999V34.0001H83.1V35.0001H85.7V36.0001H82.1V31.2001Z" fill="#1D1934"/>
<path d="M86.6 35.3001L87.2 34.5001C87.6 34.9001 88.1 35.1001 88.6 35.1001C89 35.1001 89.2999 34.9001 89.2999 34.7001C89.2999 34.4001 89.0999 34.3001 88.2999 34.0001C87.3999 33.8001 86.7999 33.5001 86.7999 32.6001C86.7999 31.7001 87.4 31.1001 88.4 31.1001C89.1 31.1001 89.7 31.4001 90.2 31.7001L89.6 32.5001C89.2 32.2001 88.8 32.1001 88.4 32.1001C88 32.1001 87.7999 32.2001 87.7999 32.5001C87.7999 32.8001 87.9999 32.9001 88.7999 33.1001C89.7999 33.4001 90.2999 33.7001 90.2999 34.5001V34.6001C90.2999 35.5001 89.6 36.0001 88.6 36.0001C87.9 36.0001 87.1 35.8001 86.6 35.3001V35.3001Z" fill="#1D1934"/>
<path d="M91 35.3001L91.6 34.5001C92 34.9001 92.5 35.1001 93 35.1001C93.5 35.1001 93.7 34.9001 93.7 34.7001C93.7 34.4001 93.5999 34.3001 92.7999 34.0001C91.7999 33.8001 91.2 33.5001 91.2 32.6001C91.2 31.7001 91.8999 31.1001 92.7999 31.1001C93.4999 31.1001 94.1 31.4001 94.6 31.7001L94.1 32.5001C93.7 32.2001 93.1999 32.1001 92.7999 32.1001C92.3999 32.1001 92.2 32.2001 92.2 32.5001C92.2 32.8001 92.4 32.9001 93.2 33.1001C94.2 33.4001 94.7999 33.7001 94.7999 34.5001V34.6001C94.7999 35.5001 94 36.0001 93 36.0001C92.3 36.0001 91.6 35.8001 91 35.3001V35.3001Z" fill="#1D1934"/>
<path d="M95.6 36.0001H96.6V31.2001H95.6V36.0001Z" fill="#1D1934"/>
<path d="M97.2999 33.6001C97.2999 32.2001 98.4 31.1001 99.9 31.1001C101.3 31.1001 102.4 32.2001 102.4 33.6001C102.4 34.9001 101.3 36.1001 99.9 36.1001C98.4 36.1001 97.2999 35.0001 97.2999 33.6001ZM101.3 33.6001C101.3 32.8001 100.7 32.1001 99.9 32.1001C99 32.1001 98.4 32.8001 98.4 33.6001C98.4 34.4001 99 35.1001 99.9 35.1001C100.7 35.1001 101.3 34.4001 101.3 33.6001Z" fill="#1D1934"/>
<path d="M103.1 31.2001H104L106.3 34.1001V31.2001H107.3V36.0001H106.4L104.1 32.9001V36.0001H103.1V31.2001Z" fill="#1D1934"/>
<path d="M110.2 31.2001H111.2L113.2 36.0001H112.1L111.7 34.9001H109.7L109.2 36.0001H108.2L110.2 31.2001ZM111.3 34.0001L110.7 32.4001L110 34.0001H111.3ZM111.1 29.7001L112 30.1001L111.1 30.8001H110.3L111.1 29.7001Z" fill="#1D1934"/>
<path d="M114 31.2001H116.1C116.7 31.2001 117.2 31.4001 117.5 31.7001C117.8 32.0001 117.9 32.3001 117.9 32.8001C117.9 33.6001 117.5 34.0001 116.9 34.3001L118.1 36.0001H116.9L115.8 34.4001H115V36.0001H114V31.2001ZM116.1 33.5001C116.6 33.5001 116.9 33.3001 116.9 32.8001C116.9 32.4001 116.6 32.2001 116 32.2001H115V33.5001H116.1Z" fill="#1D1934"/>
<path d="M119.1 36.0001H120.1V31.2001H119.1V36.0001Z" fill="#1D1934"/>
<path d="M122.9 31.2001H123.9L125.9 36.0001H124.8L124.4 34.9001H122.4L122 36.0001H120.9L122.9 31.2001ZM124 34.0001L123.4 32.4001L122.8 34.0001H124Z" fill="#1D1934"/>
<path d="M126.1 35.3001L126.8 34.5001C127.2 34.9001 127.6 35.1001 128.2 35.1001C128.6 35.1001 128.9 34.9001 128.9 34.7001C128.9 34.4001 128.7 34.3001 127.9 34.0001C127 33.8001 126.3 33.5001 126.3 32.6001C126.3 31.7001 127 31.1001 128 31.1001C128.7 31.1001 129.3 31.4001 129.8 31.7001L129.2 32.5001C128.8 32.2001 128.4 32.1001 128 32.1001C127.6 32.1001 127.4 32.2001 127.4 32.5001C127.4 32.8001 127.6 32.9001 128.4 33.1001C129.4 33.4001 129.9 33.7001 129.9 34.5001V34.6001C129.9 35.5001 129.2 36.0001 128.2 36.0001C127.4 36.0001 126.7 35.8001 126.1 35.3001V35.3001Z" fill="#1D1934"/>
</svg>
