<svg id="Camada_1" data-name="Camada 1" xmlns="http://www.w3.org/2000/svg" xmlns:xlink="http://www.w3.org/1999/xlink" viewBox="0 0 390.27 358.35"><defs><style>.cls-1{fill:none;}.cls-2{clip-path:url(#clip-path);}.cls-3{fill:#1b213f;}.cls-4{fill:#fff;}.cls-5{fill:#3f8046;}.cls-6{fill:#006aa0;}.cls-7{fill:#4c9e44;}.cls-8{fill:#e8402d;}.cls-9{fill:#c5212e;}.cls-10{fill:#ed6c2f;}.cls-11{fill:#bf8d2b;}</style><clipPath id="clip-path" transform="translate(-195.48 -140.47)"><rect class="cls-1" x="186.48" y="133.47" width="410.8" height="366.35"/></clipPath></defs><title>simpar_pg15_EN</title><g class="cls-2"><path class="cls-3" d="M255.62,275.11a12.77,12.77,0,0,1-6.16-1.43l-47.81-27.61a13.82,13.82,0,0,1-6.17-10.67V180.19a13.82,13.82,0,0,1,6.16-10.67l47.82-27.62a14,14,0,0,1,12.32,0l47.83,27.61a13.88,13.88,0,0,1,6.15,10.68V235.4a13.86,13.86,0,0,1-6.15,10.67l-47.83,27.61a12.75,12.75,0,0,1-6.16,1.43" transform="translate(-195.48 -140.47)"/><path class="cls-3" d="M255.62,498.82a12.77,12.77,0,0,1-6.16-1.44l-47.81-27.61a13.8,13.8,0,0,1-6.17-10.66V403.9a13.83,13.83,0,0,1,6.16-10.68l47.82-27.61a13.9,13.9,0,0,1,12.32,0l47.83,27.61a13.88,13.88,0,0,1,6.15,10.68v55.21a13.85,13.85,0,0,1-6.15,10.66l-47.83,27.61a12.75,12.75,0,0,1-6.16,1.44" transform="translate(-195.48 -140.47)"/><path class="cls-3" d="M390.59,498.82a12.79,12.79,0,0,1-6.17-1.44l-47.81-27.61a13.8,13.8,0,0,1-6.17-10.66V403.9a13.81,13.81,0,0,1,6.17-10.68l47.81-27.61a13.9,13.9,0,0,1,12.32,0l47.83,27.61a13.85,13.85,0,0,1,6.15,10.68v55.21a13.83,13.83,0,0,1-6.15,10.66l-47.83,27.61a12.7,12.7,0,0,1-6.15,1.44" transform="translate(-195.48 -140.47)"/><path class="cls-3" d="M321.48,387.86a12.81,12.81,0,0,1-6.17-1.44L267.5,358.81a13.83,13.83,0,0,1-6.17-10.66V292.94a13.84,13.84,0,0,1,6.17-10.68l47.82-27.61a13.9,13.9,0,0,1,12.32,0l47.82,27.61a13.86,13.86,0,0,1,6.16,10.68v55.21a13.84,13.84,0,0,1-6.16,10.66l-47.82,27.61a12.75,12.75,0,0,1-6.16,1.44" transform="translate(-195.48 -140.47)"/><path class="cls-3" d="M459.85,387.86a12.79,12.79,0,0,1-6.17-1.44l-47.81-27.61a13.8,13.8,0,0,1-6.17-10.66V292.94a13.83,13.83,0,0,1,6.16-10.68l47.82-27.61a13.9,13.9,0,0,1,12.32,0l47.83,27.61A13.88,13.88,0,0,1,520,292.94v55.21a13.85,13.85,0,0,1-6.15,10.66L466,386.42a12.73,12.73,0,0,1-6.15,1.44" transform="translate(-195.48 -140.47)"/><path class="cls-3" d="M390.59,275.11a12.79,12.79,0,0,1-6.17-1.43l-47.81-27.61a13.82,13.82,0,0,1-6.17-10.67V180.19a13.81,13.81,0,0,1,6.17-10.67l47.81-27.62a14,14,0,0,1,12.32,0l47.83,27.61a13.85,13.85,0,0,1,6.15,10.68V235.4a13.83,13.83,0,0,1-6.15,10.67l-47.83,27.61a12.7,12.7,0,0,1-6.15,1.43" transform="translate(-195.48 -140.47)"/><path class="cls-3" d="M525.61,275.11a12.79,12.79,0,0,1-6.17-1.43l-47.81-27.61a13.85,13.85,0,0,1-6.17-10.67V180.19a13.83,13.83,0,0,1,6.17-10.67l47.81-27.62a14,14,0,0,1,12.32,0l47.83,27.61a13.86,13.86,0,0,1,6.16,10.68V235.4a13.84,13.84,0,0,1-6.16,10.67l-47.82,27.61a12.77,12.77,0,0,1-6.16,1.43" transform="translate(-195.48 -140.47)"/><path class="cls-3" d="M525.61,498.82a12.79,12.79,0,0,1-6.17-1.44l-47.81-27.61a13.83,13.83,0,0,1-6.17-10.66V403.9a13.84,13.84,0,0,1,6.17-10.68l47.81-27.61a13.9,13.9,0,0,1,12.32,0l47.83,27.61a13.86,13.86,0,0,1,6.16,10.68v55.21a13.84,13.84,0,0,1-6.16,10.66l-47.82,27.61a12.77,12.77,0,0,1-6.16,1.44" transform="translate(-195.48 -140.47)"/></g><path class="cls-4" d="M237,186.71v0a3.54,3.54,0,0,1,3.61-3.62,3.65,3.65,0,0,1,2.74,1.09l-.79.91a2.78,2.78,0,0,0-2-.87,2.36,2.36,0,0,0-2.31,2.47v0a2.36,2.36,0,0,0,2.31,2.48,2.73,2.73,0,0,0,2-.9l.79.8a3.61,3.61,0,0,1-2.84,1.24A3.52,3.52,0,0,1,237,186.71Z" transform="translate(-195.48 -140.47)"/><path class="cls-4" d="M244.61,182.89h1.21v7.3h-1.21Z" transform="translate(-195.48 -140.47)"/><path class="cls-4" d="M247.42,183h1.3v1.15h-1.3Zm.05,2h1.21v5.28h-1.21Z" transform="translate(-195.48 -140.47)"/><path class="cls-4" d="M250.26,184.91h1.21v.8a1.89,1.89,0,0,1,1.61-.91,1.68,1.68,0,0,1,1.58.93,2.12,2.12,0,0,1,1.78-.93,1.77,1.77,0,0,1,1.85,2v3.37h-1.21v-3c0-.84-.39-1.29-1.07-1.29s-1.13.46-1.13,1.31v3h-1.21v-3c0-.82-.4-1.28-1.07-1.28a1.15,1.15,0,0,0-1.13,1.31v3h-1.21Z" transform="translate(-195.48 -140.47)"/><path class="cls-4" d="M259.41,188.67v0c0-1.14.89-1.7,2.18-1.7a4.41,4.41,0,0,1,1.42.22V187c0-.75-.46-1.15-1.31-1.15a3.68,3.68,0,0,0-1.51.33l-.32-.95a4.51,4.51,0,0,1,2-.43,2.37,2.37,0,0,1,1.75.59,2.19,2.19,0,0,1,.57,1.63v3.13H263v-.66a2.15,2.15,0,0,1-1.72.77A1.69,1.69,0,0,1,259.41,188.67Zm3.62-.38v-.36a3.35,3.35,0,0,0-1.2-.21c-.78,0-1.24.33-1.24.88v0c0,.51.45.8,1,.8C262.42,189.42,263,189,263,188.29Z" transform="translate(-195.48 -140.47)"/><path class="cls-4" d="M265.84,188.73V186h-.67v-1h.67v-1.45h1.21v1.45h1.42v1h-1.42v2.59a.58.58,0,0,0,.65.66,1.63,1.63,0,0,0,.75-.18v1a2.09,2.09,0,0,1-1.09.27A1.35,1.35,0,0,1,265.84,188.73Z" transform="translate(-195.48 -140.47)"/><path class="cls-4" d="M269.26,187.57v0a2.62,2.62,0,0,1,2.58-2.75,2.55,2.55,0,0,1,2.53,2.84c0,.11,0,.22,0,.34h-3.88a1.47,1.47,0,0,0,1.52,1.34,1.92,1.92,0,0,0,1.43-.63l.71.63a2.67,2.67,0,0,1-2.16,1A2.63,2.63,0,0,1,269.26,187.57Zm3.91-.39a1.37,1.37,0,0,0-1.34-1.39,1.43,1.43,0,0,0-1.37,1.39Z" transform="translate(-195.48 -140.47)"/><path class="cls-4" d="M237.72,199.58v0a2.73,2.73,0,0,1,2.75-2.76,2.67,2.67,0,0,1,2.11.91l-.76.81a1.77,1.77,0,0,0-1.36-.66,1.59,1.59,0,0,0-1.53,1.68v0a1.6,1.6,0,0,0,1.58,1.69,1.85,1.85,0,0,0,1.37-.65l.73.72a2.77,2.77,0,0,1-4.89-1.74Z" transform="translate(-195.48 -140.47)"/><path class="cls-4" d="M243.72,194.89h1.21v2.83a1.91,1.91,0,0,1,1.65-.92,1.81,1.81,0,0,1,1.88,2v3.37h-1.21v-3c0-.82-.41-1.29-1.13-1.29a1.17,1.17,0,0,0-1.19,1.31v3h-1.21Z" transform="translate(-195.48 -140.47)"/><path class="cls-4" d="M249.57,200.67v0c0-1.14.89-1.7,2.18-1.7a4.41,4.41,0,0,1,1.42.22V199c0-.75-.46-1.15-1.31-1.15a3.68,3.68,0,0,0-1.51.33l-.32-.95a4.51,4.51,0,0,1,2-.43,2.37,2.37,0,0,1,1.75.59,2.19,2.19,0,0,1,.57,1.63v3.13h-1.18v-.66a2.15,2.15,0,0,1-1.72.77A1.69,1.69,0,0,1,249.57,200.67Zm3.62-.38v-.36a3.35,3.35,0,0,0-1.2-.21c-.78,0-1.24.33-1.24.88v0c0,.51.45.8,1,.8C252.58,201.42,253.19,201,253.19,200.29Z" transform="translate(-195.48 -140.47)"/><path class="cls-4" d="M255.79,196.91H257v.81a1.91,1.91,0,0,1,1.65-.92,1.81,1.81,0,0,1,1.88,2v3.37h-1.21v-3c0-.82-.41-1.29-1.13-1.29a1.17,1.17,0,0,0-1.19,1.31v3h-1.21Z" transform="translate(-195.48 -140.47)"/><path class="cls-4" d="M262,203.18l.45-.91a3.46,3.46,0,0,0,1.88.56,1.48,1.48,0,0,0,1.67-1.62v-.41a2.21,2.21,0,0,1-1.86,1,2.37,2.37,0,0,1-2.4-2.47v0a2.38,2.38,0,0,1,2.4-2.48,2.28,2.28,0,0,1,1.85.9v-.79h1.21v4.2a2.7,2.7,0,0,1-.67,2,3,3,0,0,1-2.17.71A4.55,4.55,0,0,1,262,203.18Zm4-3.89v0a1.47,1.47,0,0,0-1.55-1.45,1.43,1.43,0,0,0-1.5,1.45v0a1.44,1.44,0,0,0,1.5,1.45A1.47,1.47,0,0,0,266,199.29Z" transform="translate(-195.48 -140.47)"/><path class="cls-4" d="M268.41,199.57v0A2.62,2.62,0,0,1,271,196.8a2.55,2.55,0,0,1,2.53,2.84c0,.11,0,.22,0,.34h-3.88a1.47,1.47,0,0,0,1.52,1.34,1.92,1.92,0,0,0,1.43-.63l.71.63a2.67,2.67,0,0,1-2.16,1A2.63,2.63,0,0,1,268.41,199.57Zm3.91-.39a1.37,1.37,0,0,0-1.34-1.39,1.43,1.43,0,0,0-1.37,1.39Z" transform="translate(-195.48 -140.47)"/><path class="cls-4" d="M246.22,220.27l.3-.35a3.06,3.06,0,0,0,2.26.93c.95,0,1.6-.53,1.6-1.25v0c0-.66-.36-1.05-1.79-1.34s-2.12-.82-2.12-1.77v0a1.82,1.82,0,0,1,2-1.66,3.14,3.14,0,0,1,2.16.77l-.29.37a2.74,2.74,0,0,0-1.88-.71c-.93,0-1.54.53-1.54,1.19h0c0,.67.34,1.07,1.83,1.38s2.07.82,2.07,1.74v0a1.85,1.85,0,0,1-2.09,1.72A3.59,3.59,0,0,1,246.22,220.27Z" transform="translate(-195.48 -140.47)"/><path class="cls-4" d="M252.38,214.88h2.1a3.14,3.14,0,0,1,3.35,3.14h0a3.16,3.16,0,0,1-3.35,3.16h-2.1Zm.47.44v5.43h1.63a2.67,2.67,0,0,0,2.86-2.7v0a2.69,2.69,0,0,0-2.86-2.71Z" transform="translate(-195.48 -140.47)"/><path class="cls-4" d="M259.14,218.05v0a3.14,3.14,0,0,1,3.11-3.25,3.32,3.32,0,0,1,2.31.82l-.31.36a2.79,2.79,0,0,0-2-.76,2.68,2.68,0,0,0-2.6,2.82h0a2.63,2.63,0,0,0,2.7,2.85,3.18,3.18,0,0,0,2-.72v-1.81h-2.1v-.43h2.55v2.43a3.77,3.77,0,0,1-2.47.94A3.07,3.07,0,0,1,259.14,218.05Z" transform="translate(-195.48 -140.47)"/><g class="cls-2"><path class="cls-5" d="M255.61,245.94a8.54,8.54,0,1,0-8.54-8.54,8.54,8.54,0,0,0,8.54,8.54" transform="translate(-195.48 -140.47)"/></g><path class="cls-4" d="M252.78,235.85l-1.09.3-.22-.86,1.63-.51h.73v6.07h-1.05Z" transform="translate(-195.48 -140.47)"/><path class="cls-4" d="M255,239.89l.74-.69a2,2,0,0,0,1.58.79.94.94,0,0,0,1-.91v0c0-.59-.54-.93-1.38-.93h-.49l-.18-.66,1.63-1.73h-2.61v-.92h4v.79l-1.68,1.72c.91.12,1.77.58,1.77,1.69v0a1.93,1.93,0,0,1-2.11,1.91A2.83,2.83,0,0,1,255,239.89Z" transform="translate(-195.48 -140.47)"/><path class="cls-4" d="M345.74,183.23h1.14l3.08,7h-1.3l-.71-1.69h-3.31l-.72,1.69h-1.26Zm1.76,4.26-1.21-2.79-1.2,2.79Z" transform="translate(-195.48 -140.47)"/><path class="cls-4" d="M353.59,189.58l.54-.82a3,3,0,0,0,1.73.65c.52,0,.82-.22.82-.57v0c0-.41-.56-.55-1.18-.74-.78-.22-1.65-.54-1.65-1.54v0a1.68,1.68,0,0,1,1.88-1.61,3.66,3.66,0,0,1,1.94.6l-.48.86a3.06,3.06,0,0,0-1.49-.5c-.47,0-.74.22-.74.52v0c0,.38.57.54,1.19.74.77.24,1.64.59,1.64,1.54v0c0,1.11-.86,1.66-2,1.66A3.71,3.71,0,0,1,353.59,189.58Z" transform="translate(-195.48 -140.47)"/><path class="cls-4" d="M359,188.35V185h1.21v3c0,.82.41,1.28,1.13,1.28a1.17,1.17,0,0,0,1.19-1.3v-3h1.22v5.27H362.5v-.82a1.9,1.9,0,0,1-1.65.93A1.81,1.81,0,0,1,359,188.35Z" transform="translate(-195.48 -140.47)"/><path class="cls-4" d="M364.8,189.58l.54-.82a3,3,0,0,0,1.73.65c.52,0,.82-.22.82-.57v0c0-.41-.56-.55-1.18-.74-.78-.22-1.65-.54-1.65-1.54v0a1.68,1.68,0,0,1,1.88-1.61,3.66,3.66,0,0,1,1.94.6l-.48.86a3.06,3.06,0,0,0-1.49-.5c-.47,0-.74.22-.74.52v0c0,.38.57.54,1.19.74s1.64.59,1.64,1.54v0c0,1.11-.86,1.66-2,1.66A3.71,3.71,0,0,1,364.8,189.58Z" transform="translate(-195.48 -140.47)"/><path class="cls-4" d="M370.4,188.81V186h-.67v-1h.67v-1.45h1.21V185H373v1h-1.42v2.58a.58.58,0,0,0,.65.66,1.63,1.63,0,0,0,.75-.18v1a2.09,2.09,0,0,1-1.09.27A1.35,1.35,0,0,1,370.4,188.81Z" transform="translate(-195.48 -140.47)"/><path class="cls-4" d="M373.91,188.75v0c0-1.14.89-1.7,2.18-1.7a4.41,4.41,0,0,1,1.42.22v-.13c0-.74-.46-1.14-1.31-1.14a3.68,3.68,0,0,0-1.51.33l-.32-.95a4.51,4.51,0,0,1,2-.43,2.37,2.37,0,0,1,1.75.59,2.18,2.18,0,0,1,.57,1.62v3.13H377.5v-.66a2.15,2.15,0,0,1-1.72.77A1.69,1.69,0,0,1,373.91,188.75Zm3.62-.38V188a3.35,3.35,0,0,0-1.2-.21c-.78,0-1.24.33-1.24.88v0c0,.51.45.8,1,.8C376.92,189.5,377.53,189,377.53,188.37Z" transform="translate(-195.48 -140.47)"/><path class="cls-4" d="M380.15,183h1.3v1.15h-1.3Zm.05,2h1.21v5.27H380.2Z" transform="translate(-195.48 -140.47)"/><path class="cls-4" d="M383,185h1.21v.81a1.91,1.91,0,0,1,1.65-.92,1.81,1.81,0,0,1,1.88,2v3.37h-1.21v-3c0-.81-.41-1.28-1.13-1.28a1.17,1.17,0,0,0-1.19,1.3v3H383Z" transform="translate(-195.48 -140.47)"/><path class="cls-4" d="M388.84,188.75v0c0-1.14.89-1.7,2.18-1.7a4.41,4.41,0,0,1,1.42.22v-.13c0-.74-.46-1.14-1.31-1.14a3.68,3.68,0,0,0-1.51.33l-.32-.95a4.51,4.51,0,0,1,2-.43,2.37,2.37,0,0,1,1.75.59,2.18,2.18,0,0,1,.57,1.62v3.13h-1.18v-.66a2.15,2.15,0,0,1-1.72.77A1.69,1.69,0,0,1,388.84,188.75Zm3.62-.38V188a3.35,3.35,0,0,0-1.2-.21c-.78,0-1.24.33-1.24.88v0c0,.51.45.8,1,.8C391.85,189.5,392.46,189,392.46,188.37Z" transform="translate(-195.48 -140.47)"/><path class="cls-4" d="M396.27,189.45v.82h-1.21V183h1.21v2.9a2.11,2.11,0,0,1,1.8-1,2.52,2.52,0,0,1,2.45,2.73v0a2.53,2.53,0,0,1-2.45,2.74A2.16,2.16,0,0,1,396.27,189.45Zm3-1.81v0a1.55,1.55,0,0,0-1.51-1.68,1.58,1.58,0,0,0-1.54,1.68v0a1.59,1.59,0,0,0,1.54,1.69A1.55,1.55,0,0,0,399.29,187.64Z" transform="translate(-195.48 -140.47)"/><path class="cls-4" d="M401.84,183h1.21v7.29h-1.21Z" transform="translate(-195.48 -140.47)"/><path class="cls-4" d="M404.34,187.65v0a2.61,2.61,0,0,1,2.58-2.74,2.55,2.55,0,0,1,2.53,2.83c0,.11,0,.22,0,.34h-3.88a1.47,1.47,0,0,0,1.52,1.34,1.92,1.92,0,0,0,1.43-.63l.71.63a2.67,2.67,0,0,1-2.16,1A2.63,2.63,0,0,1,404.34,187.65Zm3.91-.39a1.36,1.36,0,0,0-1.34-1.38,1.42,1.42,0,0,0-1.37,1.38Z" transform="translate(-195.48 -140.47)"/><path class="cls-4" d="M413.17,185h1.3l1.42,3.87,1.43-3.87h1.27l-2.16,5.31h-1.09Z" transform="translate(-195.48 -140.47)"/><path class="cls-4" d="M419,188.75v0c0-1.14.89-1.7,2.18-1.7a4.41,4.41,0,0,1,1.42.22v-.13c0-.74-.46-1.14-1.31-1.14a3.68,3.68,0,0,0-1.51.33l-.32-.95a4.51,4.51,0,0,1,2-.43,2.37,2.37,0,0,1,1.75.59,2.18,2.18,0,0,1,.57,1.62v3.13h-1.18v-.66a2.15,2.15,0,0,1-1.72.77A1.69,1.69,0,0,1,419,188.75Zm3.62-.38V188a3.35,3.35,0,0,0-1.2-.21c-.78,0-1.24.33-1.24.88v0c0,.51.45.8,1,.8C422,189.5,422.64,189,422.64,188.37Z" transform="translate(-195.48 -140.47)"/><path class="cls-4" d="M425.31,183h1.21v7.29h-1.21Z" transform="translate(-195.48 -140.47)"/><path class="cls-4" d="M428,188.35V185h1.21v3c0,.82.41,1.28,1.13,1.28a1.17,1.17,0,0,0,1.19-1.3v-3h1.22v5.27h-1.22v-.82a1.9,1.9,0,0,1-1.65.93A1.81,1.81,0,0,1,428,188.35Z" transform="translate(-195.48 -140.47)"/><path class="cls-4" d="M434,187.65v0a2.61,2.61,0,0,1,2.58-2.74,2.55,2.55,0,0,1,2.53,2.83c0,.11,0,.22,0,.34h-3.88a1.47,1.47,0,0,0,1.52,1.34,1.92,1.92,0,0,0,1.43-.63l.71.63a2.67,2.67,0,0,1-2.16,1A2.63,2.63,0,0,1,434,187.65Zm3.91-.39a1.36,1.36,0,0,0-1.34-1.38,1.42,1.42,0,0,0-1.37,1.38Z" transform="translate(-195.48 -140.47)"/><path class="cls-4" d="M378,199.66v0a2.72,2.72,0,0,1,2.75-2.75,2.67,2.67,0,0,1,2.11.91l-.76.8a1.8,1.8,0,0,0-1.36-.65,1.59,1.59,0,0,0-1.53,1.67v0a1.6,1.6,0,0,0,1.58,1.69,1.85,1.85,0,0,0,1.37-.65l.73.72a2.77,2.77,0,0,1-4.89-1.74Z" transform="translate(-195.48 -140.47)"/><path class="cls-4" d="M384,195h1.21v2.83a1.91,1.91,0,0,1,1.65-.92,1.81,1.81,0,0,1,1.88,2v3.37h-1.21v-3c0-.81-.41-1.28-1.13-1.28a1.17,1.17,0,0,0-1.19,1.3v3H384Z" transform="translate(-195.48 -140.47)"/><path class="cls-4" d="M389.86,200.75v0c0-1.14.89-1.7,2.18-1.7a4.41,4.41,0,0,1,1.42.22v-.13c0-.74-.46-1.14-1.31-1.14a3.68,3.68,0,0,0-1.51.33l-.32-.95a4.51,4.51,0,0,1,2-.43,2.37,2.37,0,0,1,1.75.59,2.18,2.18,0,0,1,.57,1.62v3.13h-1.18v-.66a2.15,2.15,0,0,1-1.72.77A1.69,1.69,0,0,1,389.86,200.75Zm3.62-.38V200a3.35,3.35,0,0,0-1.2-.21c-.78,0-1.24.33-1.24.88v0c0,.51.45.8,1,.8C392.87,201.5,393.48,201,393.48,200.37Z" transform="translate(-195.48 -140.47)"/><path class="cls-4" d="M396.1,195h1.3v1.15h-1.3Zm0,2h1.21v5.27h-1.21Z" transform="translate(-195.48 -140.47)"/><path class="cls-4" d="M398.94,197h1.21v.81a1.91,1.91,0,0,1,1.65-.92,1.81,1.81,0,0,1,1.88,2v3.37h-1.21v-3c0-.81-.41-1.28-1.13-1.28a1.17,1.17,0,0,0-1.19,1.3v3h-1.21Z" transform="translate(-195.48 -140.47)"/><path class="cls-4" d="M381.57,220.35l.31-.35a3.05,3.05,0,0,0,2.26.94c.94,0,1.59-.53,1.59-1.25v0c0-.67-.35-1-1.78-1.34s-2.13-.82-2.13-1.77v0a1.83,1.83,0,0,1,2-1.66,3.11,3.11,0,0,1,2.16.77l-.3.37a2.69,2.69,0,0,0-1.88-.72c-.93,0-1.54.54-1.54,1.19v0c0,.67.34,1.07,1.84,1.38s2.07.82,2.07,1.74h0a1.85,1.85,0,0,1-2.09,1.72A3.57,3.57,0,0,1,381.57,220.35Z" transform="translate(-195.48 -140.47)"/><path class="cls-4" d="M387.74,215h2.09a3.14,3.14,0,0,1,3.35,3.13v0a3.15,3.15,0,0,1-3.35,3.15h-2.09Zm.46.43v5.44h1.63a2.68,2.68,0,0,0,2.87-2.7v0a2.7,2.7,0,0,0-2.87-2.72Z" transform="translate(-195.48 -140.47)"/><path class="cls-4" d="M394.49,218.14v0a3.15,3.15,0,0,1,3.12-3.26,3.3,3.3,0,0,1,2.3.83l-.3.35a2.85,2.85,0,0,0-2-.75,2.67,2.67,0,0,0-2.6,2.81v0a2.63,2.63,0,0,0,2.7,2.85,3.29,3.29,0,0,0,2-.72v-1.81h-2.11V218h2.56v2.43a3.82,3.82,0,0,1-2.48.94A3.07,3.07,0,0,1,394.49,218.14Z" transform="translate(-195.48 -140.47)"/><g class="cls-2"><path class="cls-6" d="M391,246a8.54,8.54,0,1,0-8.54-8.54A8.54,8.54,0,0,0,391,246" transform="translate(-195.48 -140.47)"/></g><path class="cls-4" d="M388,235.94l-1.09.3-.22-.86,1.63-.51H389v6.06h-1Z" transform="translate(-195.48 -140.47)"/><path class="cls-4" d="M391.07,240.4a3,3,0,0,1-.73-2.3v0c0-1.84.88-3.27,2.58-3.27a2.73,2.73,0,0,1,1.84.67l-.57.81a2,2,0,0,0-1.3-.52c-1.06,0-1.43,1.09-1.45,1.92A2.08,2.08,0,0,1,395,239v0a2.09,2.09,0,0,1-2.23,2A2.26,2.26,0,0,1,391.07,240.4Zm2.86-1.37v0a1.1,1.1,0,0,0-1.23-1,1.12,1.12,0,0,0-1.23,1.06v0a1.13,1.13,0,0,0,1.25,1.08A1.1,1.1,0,0,0,393.93,239Z" transform="translate(-195.48 -140.47)"/><path class="cls-4" d="M468.59,180.71v0a3.54,3.54,0,0,1,3.61-3.62,3.65,3.65,0,0,1,2.74,1.09l-.79.91a2.78,2.78,0,0,0-2-.87,2.36,2.36,0,0,0-2.31,2.47v0a2.36,2.36,0,0,0,2.31,2.48,2.73,2.73,0,0,0,2-.9l.79.8a3.61,3.61,0,0,1-2.84,1.24A3.52,3.52,0,0,1,468.59,180.71Z" transform="translate(-195.48 -140.47)"/><path class="cls-4" d="M475.76,181.58v0a2.82,2.82,0,0,1,5.63,0v0a2.76,2.76,0,0,1-2.83,2.75A2.73,2.73,0,0,1,475.76,181.58Zm4.42,0v0a1.63,1.63,0,0,0-1.62-1.7,1.58,1.58,0,0,0-1.59,1.68v0a1.63,1.63,0,0,0,1.61,1.69A1.58,1.58,0,0,0,480.18,181.58Z" transform="translate(-195.48 -140.47)"/><path class="cls-4" d="M482.62,178.91h1.21v1.19a1.87,1.87,0,0,1,1.87-1.29v1.28h-.07c-1.06,0-1.8.69-1.8,2.09v2h-1.21Z" transform="translate(-195.48 -140.47)"/><path class="cls-4" d="M486.75,178.91H488v.88a2.11,2.11,0,0,1,1.8-1,2.53,2.53,0,0,1,2.45,2.74v0a2.53,2.53,0,0,1-2.45,2.74,2.16,2.16,0,0,1-1.8-.93v2.42h-1.21Zm4.23,2.65v0a1.56,1.56,0,0,0-1.51-1.69,1.59,1.59,0,0,0-1.54,1.69v0a1.59,1.59,0,0,0,1.54,1.69A1.55,1.55,0,0,0,491,181.56Z" transform="translate(-195.48 -140.47)"/><path class="cls-4" d="M493.17,181.58v0a2.82,2.82,0,0,1,5.63,0v0a2.76,2.76,0,0,1-2.83,2.75A2.73,2.73,0,0,1,493.17,181.58Zm4.42,0v0a1.63,1.63,0,0,0-1.62-1.7,1.58,1.58,0,0,0-1.59,1.68v0a1.63,1.63,0,0,0,1.61,1.69A1.58,1.58,0,0,0,497.59,181.58Z" transform="translate(-195.48 -140.47)"/><path class="cls-4" d="M500,178.91h1.21v1.19a1.87,1.87,0,0,1,1.87-1.29v1.28H503c-1.06,0-1.8.69-1.8,2.09v2H500Z" transform="translate(-195.48 -140.47)"/><path class="cls-4" d="M503.56,182.67v0c0-1.14.89-1.7,2.18-1.7a4.41,4.41,0,0,1,1.42.22V181c0-.75-.46-1.15-1.31-1.15a3.68,3.68,0,0,0-1.51.33l-.32-.95a4.51,4.51,0,0,1,2-.43,2.37,2.37,0,0,1,1.75.59,2.19,2.19,0,0,1,.57,1.63v3.13h-1.18v-.66a2.15,2.15,0,0,1-1.72.77A1.69,1.69,0,0,1,503.56,182.67Zm3.62-.38v-.36a3.35,3.35,0,0,0-1.2-.21c-.78,0-1.24.33-1.24.88v0c0,.51.45.8,1,.8C506.57,183.42,507.18,183,507.18,182.29Z" transform="translate(-195.48 -140.47)"/><path class="cls-4" d="M510,182.73V180h-.67v-1H510v-1.45h1.21v1.45h1.42v1H511.2v2.59a.58.58,0,0,0,.65.66,1.63,1.63,0,0,0,.75-.18v1a2.09,2.09,0,0,1-1.09.27A1.35,1.35,0,0,1,510,182.73Z" transform="translate(-195.48 -140.47)"/><path class="cls-4" d="M513.42,181.57v0A2.62,2.62,0,0,1,516,178.8a2.55,2.55,0,0,1,2.53,2.84c0,.11,0,.22,0,.34h-3.88a1.47,1.47,0,0,0,1.52,1.34,1.92,1.92,0,0,0,1.43-.63l.71.63a2.67,2.67,0,0,1-2.16,1A2.63,2.63,0,0,1,513.42,181.57Zm3.91-.39a1.37,1.37,0,0,0-1.34-1.39,1.43,1.43,0,0,0-1.37,1.39Z" transform="translate(-195.48 -140.47)"/><path class="cls-4" d="M522.74,185.18l.45-.91a3.46,3.46,0,0,0,1.88.56,1.48,1.48,0,0,0,1.67-1.62v-.41a2.21,2.21,0,0,1-1.86,1,2.37,2.37,0,0,1-2.4-2.47v0a2.38,2.38,0,0,1,2.4-2.48,2.28,2.28,0,0,1,1.85.9v-.79h1.21v4.2a2.7,2.7,0,0,1-.67,2,3,3,0,0,1-2.17.71A4.55,4.55,0,0,1,522.74,185.18Zm4-3.89v0a1.47,1.47,0,0,0-1.55-1.45,1.43,1.43,0,0,0-1.5,1.45v0a1.44,1.44,0,0,0,1.5,1.45A1.47,1.47,0,0,0,526.75,181.29Z" transform="translate(-195.48 -140.47)"/><path class="cls-4" d="M529.17,181.58v0a2.82,2.82,0,0,1,5.63,0v0a2.76,2.76,0,0,1-2.83,2.75A2.73,2.73,0,0,1,529.17,181.58Zm4.42,0v0a1.63,1.63,0,0,0-1.62-1.7,1.58,1.58,0,0,0-1.59,1.68v0a1.63,1.63,0,0,0,1.61,1.69A1.58,1.58,0,0,0,533.59,181.58Z" transform="translate(-195.48 -140.47)"/><path class="cls-4" d="M535.23,178.91h1.3l1.42,3.88,1.43-3.88h1.27l-2.16,5.32H537.4Z" transform="translate(-195.48 -140.47)"/><path class="cls-4" d="M541.1,181.57v0a2.62,2.62,0,0,1,2.58-2.75,2.55,2.55,0,0,1,2.53,2.84c0,.11,0,.22,0,.34h-3.88a1.47,1.47,0,0,0,1.52,1.34,1.92,1.92,0,0,0,1.43-.63l.71.63a2.67,2.67,0,0,1-2.16,1A2.63,2.63,0,0,1,541.1,181.57Zm3.91-.39a1.37,1.37,0,0,0-1.34-1.39,1.43,1.43,0,0,0-1.37,1.39Z" transform="translate(-195.48 -140.47)"/><path class="cls-4" d="M547.43,178.91h1.21v1.19a1.87,1.87,0,0,1,1.87-1.29v1.28h-.07c-1.06,0-1.8.69-1.8,2.09v2h-1.21Z" transform="translate(-195.48 -140.47)"/><path class="cls-4" d="M551.56,178.91h1.21v.81a1.91,1.91,0,0,1,1.65-.92,1.81,1.81,0,0,1,1.88,2v3.37h-1.21v-3c0-.82-.41-1.29-1.13-1.29a1.17,1.17,0,0,0-1.19,1.31v3h-1.21Z" transform="translate(-195.48 -140.47)"/><path class="cls-4" d="M557.41,182.67v0c0-1.14.89-1.7,2.18-1.7a4.41,4.41,0,0,1,1.42.22V181c0-.75-.46-1.15-1.31-1.15a3.68,3.68,0,0,0-1.51.33l-.32-.95a4.51,4.51,0,0,1,2-.43,2.37,2.37,0,0,1,1.75.59,2.19,2.19,0,0,1,.57,1.63v3.13H561v-.66a2.15,2.15,0,0,1-1.72.77A1.69,1.69,0,0,1,557.41,182.67Zm3.62-.38v-.36a3.35,3.35,0,0,0-1.2-.21c-.78,0-1.24.33-1.24.88v0c0,.51.45.8,1,.8C560.42,183.42,561,183,561,182.29Z" transform="translate(-195.48 -140.47)"/><path class="cls-4" d="M563.63,178.91h1.21v.81a1.91,1.91,0,0,1,1.65-.92,1.81,1.81,0,0,1,1.88,2v3.37h-1.21v-3c0-.82-.41-1.29-1.13-1.29a1.17,1.17,0,0,0-1.19,1.31v3h-1.21Z" transform="translate(-195.48 -140.47)"/><path class="cls-4" d="M569.54,181.58v0a2.73,2.73,0,0,1,2.75-2.76,2.67,2.67,0,0,1,2.11.91l-.76.81a1.77,1.77,0,0,0-1.36-.66,1.59,1.59,0,0,0-1.53,1.68v0a1.6,1.6,0,0,0,1.58,1.69,1.85,1.85,0,0,0,1.37-.65l.73.72a2.77,2.77,0,0,1-4.89-1.74Z" transform="translate(-195.48 -140.47)"/><path class="cls-4" d="M575.11,181.57v0a2.62,2.62,0,0,1,2.58-2.75,2.55,2.55,0,0,1,2.53,2.84c0,.11,0,.22,0,.34h-3.88a1.47,1.47,0,0,0,1.52,1.34,1.92,1.92,0,0,0,1.43-.63l.71.63a2.67,2.67,0,0,1-2.16,1A2.63,2.63,0,0,1,575.11,181.57Zm3.91-.39a1.37,1.37,0,0,0-1.34-1.39,1.43,1.43,0,0,0-1.37,1.39Z" transform="translate(-195.48 -140.47)"/><path class="cls-4" d="M580.93,185.13c.61-.12.9-.43.86-.94h-.52v-1.38h1.33V184a1.47,1.47,0,0,1-1.54,1.67Z" transform="translate(-195.48 -140.47)"/><path class="cls-4" d="M500.22,193.57v0a2.62,2.62,0,0,1,2.58-2.75,2.55,2.55,0,0,1,2.53,2.84c0,.11,0,.22,0,.34h-3.88a1.47,1.47,0,0,0,1.52,1.34,1.92,1.92,0,0,0,1.43-.63l.71.63a2.67,2.67,0,0,1-2.16,1A2.63,2.63,0,0,1,500.22,193.57Zm3.91-.39a1.37,1.37,0,0,0-1.34-1.39,1.43,1.43,0,0,0-1.37,1.39Z" transform="translate(-195.48 -140.47)"/><path class="cls-4" d="M506.8,194.73V192h-.67v-1h.67v-1.45H508v1.45h1.42v1H508v2.59a.58.58,0,0,0,.65.66,1.63,1.63,0,0,0,.75-.18v1a2.09,2.09,0,0,1-1.09.27A1.35,1.35,0,0,1,506.8,194.73Z" transform="translate(-195.48 -140.47)"/><path class="cls-4" d="M510.66,188.89h1.21v2.83a1.91,1.91,0,0,1,1.65-.92,1.81,1.81,0,0,1,1.88,2v3.37h-1.21v-3c0-.82-.41-1.29-1.13-1.29a1.17,1.17,0,0,0-1.19,1.31v3h-1.21Z" transform="translate(-195.48 -140.47)"/><path class="cls-4" d="M516.88,189h1.3v1.15h-1.3Zm0,2h1.21v5.28h-1.21Z" transform="translate(-195.48 -140.47)"/><path class="cls-4" d="M519.43,193.58v0a2.73,2.73,0,0,1,2.75-2.76,2.67,2.67,0,0,1,2.11.91l-.76.81a1.77,1.77,0,0,0-1.36-.66,1.59,1.59,0,0,0-1.53,1.68v0a1.6,1.6,0,0,0,1.58,1.69,1.85,1.85,0,0,0,1.37-.65l.73.72a2.77,2.77,0,0,1-4.89-1.74Z" transform="translate(-195.48 -140.47)"/><path class="cls-4" d="M525,195.5l.54-.82a3,3,0,0,0,1.73.65c.52,0,.82-.22.82-.57v0c0-.41-.56-.55-1.18-.74-.78-.22-1.65-.54-1.65-1.55v0a1.68,1.68,0,0,1,1.88-1.61,3.66,3.66,0,0,1,1.94.6l-.48.86a3.06,3.06,0,0,0-1.49-.5c-.47,0-.74.22-.74.52v0c0,.39.57.55,1.19.75.77.24,1.64.59,1.64,1.54v0c0,1.11-.86,1.66-2,1.66A3.71,3.71,0,0,1,525,195.5Z" transform="translate(-195.48 -140.47)"/><path class="cls-4" d="M533.09,194.67v0c0-1.14.89-1.7,2.18-1.7a4.41,4.41,0,0,1,1.42.22V193c0-.75-.46-1.15-1.31-1.15a3.68,3.68,0,0,0-1.51.33l-.32-.95a4.51,4.51,0,0,1,2-.43,2.37,2.37,0,0,1,1.75.59,2.19,2.19,0,0,1,.57,1.63v3.13h-1.18v-.66a2.15,2.15,0,0,1-1.72.77A1.69,1.69,0,0,1,533.09,194.67Zm3.62-.38v-.36a3.35,3.35,0,0,0-1.2-.21c-.78,0-1.24.33-1.24.88v0c0,.51.45.8,1,.8C536.1,195.42,536.71,195,536.71,194.29Z" transform="translate(-195.48 -140.47)"/><path class="cls-4" d="M539.31,190.91h1.21v.81a1.91,1.91,0,0,1,1.65-.92,1.81,1.81,0,0,1,1.88,2v3.37h-1.21v-3c0-.82-.41-1.29-1.13-1.29a1.17,1.17,0,0,0-1.19,1.31v3h-1.21Z" transform="translate(-195.48 -140.47)"/><path class="cls-4" d="M545.24,193.56v0a2.52,2.52,0,0,1,2.45-2.74,2.16,2.16,0,0,1,1.8.93v-2.84h1.21v7.3h-1.21v-.88a2.11,2.11,0,0,1-1.8,1A2.53,2.53,0,0,1,545.24,193.56Zm4.27,0v0a1.58,1.58,0,0,0-1.53-1.69,1.55,1.55,0,0,0-1.52,1.69v0a1.57,1.57,0,0,0,1.52,1.69A1.59,1.59,0,0,0,549.51,193.56Z" transform="translate(-195.48 -140.47)"/><path class="cls-4" d="M493.88,206.73V204h-.67v-1h.67v-1.45h1.21v1.45h1.42v1h-1.42v2.59a.58.58,0,0,0,.65.66,1.63,1.63,0,0,0,.75-.18v1a2.09,2.09,0,0,1-1.09.27A1.35,1.35,0,0,1,493.88,206.73Z" transform="translate(-195.48 -140.47)"/><path class="cls-4" d="M497.74,202.91H499v1.19a1.87,1.87,0,0,1,1.87-1.29v1.28h-.07c-1.06,0-1.8.69-1.8,2.09v2h-1.21Z" transform="translate(-195.48 -140.47)"/><path class="cls-4" d="M501.27,206.67v0c0-1.14.89-1.7,2.18-1.7a4.41,4.41,0,0,1,1.42.22V205c0-.75-.46-1.15-1.31-1.15a3.68,3.68,0,0,0-1.51.33l-.32-.95a4.51,4.51,0,0,1,2-.43,2.37,2.37,0,0,1,1.75.59,2.19,2.19,0,0,1,.57,1.63v3.13h-1.18v-.66a2.15,2.15,0,0,1-1.72.77A1.69,1.69,0,0,1,501.27,206.67Zm3.62-.38v-.36a3.35,3.35,0,0,0-1.2-.21c-.78,0-1.24.33-1.24.88v0c0,.51.45.8,1,.8C504.28,207.42,504.89,207,504.89,206.29Z" transform="translate(-195.48 -140.47)"/><path class="cls-4" d="M507.49,202.91h1.21v.81a1.91,1.91,0,0,1,1.65-.92,1.81,1.81,0,0,1,1.88,2v3.37H511v-3c0-.82-.41-1.29-1.13-1.29a1.17,1.17,0,0,0-1.19,1.31v3h-1.21Z" transform="translate(-195.48 -140.47)"/><path class="cls-4" d="M513.26,207.5l.54-.82a3,3,0,0,0,1.73.65c.52,0,.82-.22.82-.57v0c0-.41-.56-.55-1.18-.74-.78-.22-1.65-.54-1.65-1.55v0a1.68,1.68,0,0,1,1.88-1.61,3.66,3.66,0,0,1,1.94.6l-.48.86a3.06,3.06,0,0,0-1.49-.5c-.47,0-.74.22-.74.52v0c0,.39.57.55,1.19.75s1.64.59,1.64,1.54v0c0,1.11-.86,1.66-2,1.66A3.71,3.71,0,0,1,513.26,207.5Z" transform="translate(-195.48 -140.47)"/><path class="cls-4" d="M518.7,202.91h1.21v.88a2.11,2.11,0,0,1,1.8-1,2.53,2.53,0,0,1,2.45,2.74v0a2.53,2.53,0,0,1-2.45,2.74,2.16,2.16,0,0,1-1.8-.93v2.41H518.7Zm4.23,2.65v0a1.56,1.56,0,0,0-1.51-1.69,1.59,1.59,0,0,0-1.54,1.69v0a1.59,1.59,0,0,0,1.54,1.69A1.55,1.55,0,0,0,522.93,205.56Z" transform="translate(-195.48 -140.47)"/><path class="cls-4" d="M525.06,206.67v0c0-1.14.89-1.7,2.18-1.7a4.41,4.41,0,0,1,1.42.22V205c0-.75-.46-1.15-1.31-1.15a3.68,3.68,0,0,0-1.51.33l-.32-.95a4.51,4.51,0,0,1,2-.43,2.37,2.37,0,0,1,1.75.59,2.19,2.19,0,0,1,.57,1.63v3.13h-1.18v-.66a2.15,2.15,0,0,1-1.72.77A1.69,1.69,0,0,1,525.06,206.67Zm3.62-.38v-.36a3.35,3.35,0,0,0-1.2-.21c-.78,0-1.24.33-1.24.88v0c0,.51.45.8,1,.8C528.07,207.42,528.68,207,528.68,206.29Z" transform="translate(-195.48 -140.47)"/><path class="cls-4" d="M531.28,202.91h1.21v1.19a1.87,1.87,0,0,1,1.87-1.29v1.28h-.07c-1.06,0-1.8.69-1.8,2.09v2h-1.21Z" transform="translate(-195.48 -140.47)"/><path class="cls-4" d="M535,205.57v0a2.62,2.62,0,0,1,2.58-2.75,2.55,2.55,0,0,1,2.53,2.84c0,.11,0,.22,0,.34h-3.88a1.47,1.47,0,0,0,1.52,1.34,1.92,1.92,0,0,0,1.43-.63l.71.63a2.67,2.67,0,0,1-2.16,1A2.63,2.63,0,0,1,535,205.57Zm3.91-.39a1.37,1.37,0,0,0-1.34-1.39,1.43,1.43,0,0,0-1.37,1.39Z" transform="translate(-195.48 -140.47)"/><path class="cls-4" d="M541.28,202.91h1.21v.81a1.91,1.91,0,0,1,1.65-.92,1.81,1.81,0,0,1,1.88,2v3.37h-1.21v-3c0-.82-.41-1.29-1.13-1.29a1.17,1.17,0,0,0-1.19,1.31v3h-1.21Z" transform="translate(-195.48 -140.47)"/><path class="cls-4" d="M547.19,205.58v0a2.73,2.73,0,0,1,2.75-2.76,2.67,2.67,0,0,1,2.11.91l-.76.81a1.77,1.77,0,0,0-1.36-.66,1.59,1.59,0,0,0-1.53,1.68v0a1.6,1.6,0,0,0,1.58,1.69,1.85,1.85,0,0,0,1.37-.65l.73.72a2.77,2.77,0,0,1-4.89-1.74Z" transform="translate(-195.48 -140.47)"/><path class="cls-4" d="M556.8,202.91h1.26l-2.1,5.43c-.42,1.08-.89,1.47-1.74,1.47a2.6,2.6,0,0,1-1.25-.31l.41-.9a1.49,1.49,0,0,0,.71.2c.34,0,.55-.15.75-.6l-2.2-5.29h1.3l1.49,3.92Z" transform="translate(-195.48 -140.47)"/><path class="cls-4" d="M516.22,226.27l.3-.35a3,3,0,0,0,2.26.93c1,0,1.6-.53,1.6-1.25v0c0-.66-.36-1.05-1.79-1.34s-2.12-.82-2.12-1.77v0a1.82,1.82,0,0,1,2-1.66,3.14,3.14,0,0,1,2.16.77l-.29.37a2.74,2.74,0,0,0-1.88-.71c-.93,0-1.54.53-1.54,1.19h0c0,.67.34,1.07,1.83,1.38s2.07.82,2.07,1.74v0a1.85,1.85,0,0,1-2.09,1.72A3.59,3.59,0,0,1,516.22,226.27Z" transform="translate(-195.48 -140.47)"/><path class="cls-4" d="M522.38,220.88h2.1a3.14,3.14,0,0,1,3.35,3.14h0a3.16,3.16,0,0,1-3.35,3.16h-2.1Zm.47.44v5.43h1.63a2.67,2.67,0,0,0,2.86-2.7v0a2.69,2.69,0,0,0-2.86-2.71Z" transform="translate(-195.48 -140.47)"/><path class="cls-4" d="M529.14,224.05v0a3.14,3.14,0,0,1,3.11-3.25,3.32,3.32,0,0,1,2.31.82l-.31.36a2.79,2.79,0,0,0-2-.76,2.68,2.68,0,0,0-2.6,2.82h0a2.63,2.63,0,0,0,2.7,2.85,3.18,3.18,0,0,0,2-.72v-1.81h-2.1v-.43h2.56v2.43a3.82,3.82,0,0,1-2.48.94A3.07,3.07,0,0,1,529.14,224.05Z" transform="translate(-195.48 -140.47)"/><g class="cls-2"><path class="cls-6" d="M525.61,251.94a8.54,8.54,0,1,0-8.54-8.54,8.54,8.54,0,0,0,8.54,8.54" transform="translate(-195.48 -140.47)"/></g><path class="cls-4" d="M522.62,241.85l-1.09.3-.22-.86,1.62-.51h.74v6.07h-1Z" transform="translate(-195.48 -140.47)"/><path class="cls-4" d="M525.71,246.31A3,3,0,0,1,525,244h0c0-1.85.88-3.28,2.58-3.28a2.76,2.76,0,0,1,1.85.67l-.57.82a2,2,0,0,0-1.31-.53c-1,0-1.43,1.09-1.45,1.92a2.09,2.09,0,0,1,3.55,1.28v0a2.09,2.09,0,0,1-2.24,2A2.24,2.24,0,0,1,525.71,246.31Zm2.86-1.37h0a1.09,1.09,0,0,0-1.23-1.05,1.11,1.11,0,0,0-1.22,1.06h0a1.13,1.13,0,0,0,1.25,1.08A1.09,1.09,0,0,0,528.57,244.94Z" transform="translate(-195.48 -140.47)"/><path class="cls-4" d="M300.9,289.65H304a2.53,2.53,0,0,1,1.83.62,1.57,1.57,0,0,1,.47,1.16v0a1.67,1.67,0,0,1-1,1.56,1.72,1.72,0,0,1,1.39,1.7v0c0,1.25-1,1.92-2.59,1.92H300.9Zm4.21,2c0-.55-.44-.89-1.23-.89h-1.77v1.86h1.68c.79,0,1.32-.31,1.32-1Zm-1.05,2h-1.95v1.92h2c.84,0,1.35-.33,1.35-1v0C305.5,294,305,293.64,304.06,293.64Z" transform="translate(-195.48 -140.47)"/><path class="cls-4" d="M308,291.37h1.21v1.19a1.87,1.87,0,0,1,1.87-1.29v1.28H311c-1.06,0-1.8.69-1.8,2.09v2H308Z" transform="translate(-195.48 -140.47)"/><path class="cls-4" d="M311.51,295.13v0c0-1.14.89-1.7,2.18-1.7a4.41,4.41,0,0,1,1.42.22v-.13c0-.75-.46-1.15-1.31-1.15a3.68,3.68,0,0,0-1.51.33l-.32-.95a4.51,4.51,0,0,1,2-.43,2.37,2.37,0,0,1,1.75.59,2.19,2.19,0,0,1,.57,1.63v3.13H315.1V296a2.15,2.15,0,0,1-1.72.77A1.69,1.69,0,0,1,311.51,295.13Zm3.62-.38v-.36a3.35,3.35,0,0,0-1.2-.21c-.78,0-1.24.33-1.24.88v0c0,.51.45.8,1,.8C314.52,295.88,315.13,295.42,315.13,294.75Z" transform="translate(-195.48 -140.47)"/><path class="cls-4" d="M317.49,295.82l3.05-3.46H317.6v-1h4.48v.83L319,295.66h3.05v1h-4.59Z" transform="translate(-195.48 -140.47)"/><path class="cls-4" d="M323.35,289.41h1.3v1.15h-1.3Zm0,2h1.21v5.28H323.4Z" transform="translate(-195.48 -140.47)"/><path class="cls-4" d="M326.26,289.35h1.21v7.3h-1.21Z" transform="translate(-195.48 -140.47)"/><path class="cls-4" d="M329.07,289.41h1.3v1.15h-1.3Zm.05,2h1.21v5.28h-1.21Z" transform="translate(-195.48 -140.47)"/><path class="cls-4" d="M331.56,295.13v0c0-1.14.89-1.7,2.18-1.7a4.41,4.41,0,0,1,1.42.22v-.13c0-.75-.46-1.15-1.31-1.15a3.68,3.68,0,0,0-1.51.33l-.32-.95a4.51,4.51,0,0,1,2-.43,2.37,2.37,0,0,1,1.75.59,2.19,2.19,0,0,1,.57,1.63v3.13h-1.18V296a2.15,2.15,0,0,1-1.72.77A1.69,1.69,0,0,1,331.56,295.13Zm3.62-.38v-.36a3.35,3.35,0,0,0-1.2-.21c-.78,0-1.24.33-1.24.88v0c0,.51.45.8,1,.8C334.57,295.88,335.18,295.42,335.18,294.75Z" transform="translate(-195.48 -140.47)"/><path class="cls-4" d="M337.78,291.37H339v.81a1.91,1.91,0,0,1,1.65-.92,1.81,1.81,0,0,1,1.88,2v3.37h-1.21v-3c0-.82-.41-1.29-1.13-1.29a1.17,1.17,0,0,0-1.19,1.31v3h-1.21Z" transform="translate(-195.48 -140.47)"/><path class="cls-4" d="M311.23,304.41h-.67v-1h.67V303a1.78,1.78,0,0,1,.43-1.3,1.6,1.6,0,0,1,1.19-.42,3.24,3.24,0,0,1,1,.14v1a2.13,2.13,0,0,0-.71-.13c-.46,0-.7.25-.7.8v.29h1.4v1h-1.38v4.24h-1.21Zm3.56-3.06H316v7.3h-1.21Z" transform="translate(-195.48 -140.47)"/><path class="cls-4" d="M317.29,306v0a2.62,2.62,0,0,1,2.58-2.75,2.55,2.55,0,0,1,2.53,2.84c0,.11,0,.22,0,.34H318.5a1.47,1.47,0,0,0,1.52,1.34,1.92,1.92,0,0,0,1.43-.63l.71.63a2.67,2.67,0,0,1-2.16,1A2.63,2.63,0,0,1,317.29,306Zm3.91-.39a1.37,1.37,0,0,0-1.34-1.39,1.43,1.43,0,0,0-1.37,1.39Z" transform="translate(-195.48 -140.47)"/><path class="cls-4" d="M323.33,306v0a2.62,2.62,0,0,1,2.58-2.75,2.55,2.55,0,0,1,2.53,2.84c0,.11,0,.22,0,.34h-3.88a1.47,1.47,0,0,0,1.52,1.34,1.92,1.92,0,0,0,1.43-.63l.71.63a2.67,2.67,0,0,1-2.16,1A2.63,2.63,0,0,1,323.33,306Zm3.91-.39a1.37,1.37,0,0,0-1.34-1.39,1.43,1.43,0,0,0-1.37,1.39Z" transform="translate(-195.48 -140.47)"/><path class="cls-4" d="M329.91,307.19v-2.78h-.67v-1h.67v-1.45h1.21v1.45h1.42v1h-1.42V307a.58.58,0,0,0,.65.66,1.63,1.63,0,0,0,.75-.18v1a2.09,2.09,0,0,1-1.09.27A1.35,1.35,0,0,1,329.91,307.19Z" transform="translate(-195.48 -140.47)"/><path class="cls-4" d="M302.8,315.37H304v1.19a1.87,1.87,0,0,1,1.87-1.29v1.28h-.07c-1.06,0-1.8.69-1.8,2.09v2H302.8Z" transform="translate(-195.48 -140.47)"/><path class="cls-4" d="M306.46,318v0a2.62,2.62,0,0,1,2.58-2.75,2.55,2.55,0,0,1,2.53,2.84c0,.11,0,.22,0,.34h-3.88a1.47,1.47,0,0,0,1.52,1.34,1.92,1.92,0,0,0,1.43-.63l.71.63a2.67,2.67,0,0,1-2.16,1A2.63,2.63,0,0,1,306.46,318Zm3.91-.39a1.37,1.37,0,0,0-1.34-1.39,1.43,1.43,0,0,0-1.37,1.39Z" transform="translate(-195.48 -140.47)"/><path class="cls-4" d="M312.79,315.37H314v.81a1.91,1.91,0,0,1,1.65-.92,1.81,1.81,0,0,1,1.88,2v3.37h-1.21v-3c0-.82-.41-1.29-1.13-1.29a1.17,1.17,0,0,0-1.19,1.31v3h-1.21Z" transform="translate(-195.48 -140.47)"/><path class="cls-4" d="M318.7,318v0a2.62,2.62,0,0,1,2.58-2.75,2.55,2.55,0,0,1,2.53,2.84c0,.11,0,.22,0,.34h-3.88a1.47,1.47,0,0,0,1.52,1.34,1.92,1.92,0,0,0,1.43-.63l.71.63a2.67,2.67,0,0,1-2.16,1A2.63,2.63,0,0,1,318.7,318Zm3.91-.39a1.37,1.37,0,0,0-1.34-1.39,1.43,1.43,0,0,0-1.37,1.39Z" transform="translate(-195.48 -140.47)"/><path class="cls-4" d="M324.35,315.37h1.24l1.06,3.62,1.17-3.64h1L330,319l1.08-3.62h1.22l-1.73,5.32h-1.09l-1.18-3.61-1.19,3.61h-1.08Z" transform="translate(-195.48 -140.47)"/><path class="cls-4" d="M332.86,319.13v0c0-1.14.89-1.7,2.18-1.7a4.41,4.41,0,0,1,1.42.22v-.13c0-.75-.46-1.15-1.31-1.15a3.68,3.68,0,0,0-1.51.33l-.32-.95a4.51,4.51,0,0,1,2-.43,2.37,2.37,0,0,1,1.75.59,2.19,2.19,0,0,1,.57,1.63v3.13h-1.18V320a2.15,2.15,0,0,1-1.72.77A1.69,1.69,0,0,1,332.86,319.13Zm3.62-.38v-.36a3.35,3.35,0,0,0-1.2-.21c-.78,0-1.24.33-1.24.88v0c0,.51.45.8,1,.8C335.87,319.88,336.48,319.42,336.48,318.75Z" transform="translate(-195.48 -140.47)"/><path class="cls-4" d="M339.15,313.35h1.21v7.3h-1.21Z" transform="translate(-195.48 -140.47)"/><path class="cls-4" d="M312.21,338.73l.31-.35a3.05,3.05,0,0,0,2.26.94c1,0,1.59-.53,1.59-1.25v0c0-.67-.35-1.06-1.78-1.34s-2.12-.82-2.12-1.78v0a1.82,1.82,0,0,1,2-1.65,3.15,3.15,0,0,1,2.16.76l-.29.37a2.74,2.74,0,0,0-1.89-.71c-.92,0-1.53.53-1.53,1.19v0c0,.66.34,1.07,1.83,1.37s2.07.82,2.07,1.74v0c0,1-.87,1.72-2.09,1.72A3.59,3.59,0,0,1,312.21,338.73Z" transform="translate(-195.48 -140.47)"/><path class="cls-4" d="M318.38,333.35h2.1a3.14,3.14,0,0,1,3.35,3.13v0a3.16,3.16,0,0,1-3.35,3.15h-2.1Zm.47.43v5.44h1.63a2.68,2.68,0,0,0,2.86-2.7v0a2.69,2.69,0,0,0-2.86-2.72Z" transform="translate(-195.48 -140.47)"/><path class="cls-4" d="M325.14,336.52v0a3.15,3.15,0,0,1,3.11-3.26,3.32,3.32,0,0,1,2.31.83l-.31.35a2.83,2.83,0,0,0-2-.76,2.69,2.69,0,0,0-2.61,2.82v0a2.63,2.63,0,0,0,2.71,2.84,3.2,3.2,0,0,0,2-.72v-1.81h-2.1v-.43h2.55v2.43a3.74,3.74,0,0,1-2.47.95A3.07,3.07,0,0,1,325.14,336.52Z" transform="translate(-195.48 -140.47)"/><g class="cls-2"><path class="cls-7" d="M311.57,364.41a8.55,8.55,0,1,0-8.54-8.54,8.54,8.54,0,0,0,8.54,8.54" transform="translate(-195.48 -140.47)"/></g><path class="cls-4" d="M309.28,358.35l.74-.68a2,2,0,0,0,1.58.79.94.94,0,0,0,1-.92h0c0-.6-.54-.93-1.38-.93h-.49l-.17-.66,1.62-1.73h-2.61v-.92h4v.79l-1.68,1.72c.91.11,1.77.58,1.77,1.69h0a1.93,1.93,0,0,1-2.1,1.91A2.87,2.87,0,0,1,309.28,358.35Z" transform="translate(-195.48 -140.47)"/><g class="cls-2"><path class="cls-5" d="M331.65,364.41a8.55,8.55,0,1,0-8.54-8.54,8.54,8.54,0,0,0,8.54,8.54" transform="translate(-195.48 -140.47)"/></g><path class="cls-4" d="M329.05,354.32l-1.09.3-.22-.86,1.62-.52h.74v6.07h-1.05Z" transform="translate(-195.48 -140.47)"/><path class="cls-4" d="M331.29,358.35l.74-.68a2,2,0,0,0,1.59.79.94.94,0,0,0,1-.92h0c0-.6-.54-.93-1.39-.93h-.49l-.17-.66,1.63-1.73h-2.61v-.92h4v.79l-1.67,1.72c.91.11,1.77.58,1.77,1.69h0a1.93,1.93,0,0,1-2.11,1.91A2.87,2.87,0,0,1,331.29,358.35Z" transform="translate(-195.48 -140.47)"/><path class="cls-4" d="M441.34,283.3h1.36l2.1,5.38,2.1-5.38h1.33l-2.9,7.05h-1.09Z" transform="translate(-195.48 -140.47)"/><path class="cls-4" d="M448.25,288.78v0c0-1.14.88-1.7,2.17-1.7a4.41,4.41,0,0,1,1.42.22v-.13c0-.75-.46-1.15-1.31-1.15a3.59,3.59,0,0,0-1.5.33l-.32-.95a4.46,4.46,0,0,1,2-.43,2.37,2.37,0,0,1,1.75.59,2.19,2.19,0,0,1,.57,1.63v3.13h-1.18v-.66a2.15,2.15,0,0,1-1.72.77A1.68,1.68,0,0,1,448.25,288.78Zm3.61-.38V288a3.35,3.35,0,0,0-1.2-.21c-.78,0-1.24.33-1.24.88v0c0,.51.46.8,1,.8C451.25,289.53,451.86,289.07,451.86,288.4Z" transform="translate(-195.48 -140.47)"/><path class="cls-4" d="M454.54,283h1.2v7.3h-1.2Z" transform="translate(-195.48 -140.47)"/><path class="cls-4" d="M457.27,288.38V285h1.2v3c0,.82.41,1.28,1.13,1.28a1.17,1.17,0,0,0,1.19-1.3v-3H462v5.28h-1.22v-.82a1.9,1.9,0,0,1-1.65.93A1.81,1.81,0,0,1,457.27,288.38Z" transform="translate(-195.48 -140.47)"/><path class="cls-4" d="M463.54,283.06h1.3v1.15h-1.3Zm.06,2h1.2v5.28h-1.2Z" transform="translate(-195.48 -140.47)"/><path class="cls-4" d="M466.38,285h1.21v.81a1.91,1.91,0,0,1,1.65-.92,1.81,1.81,0,0,1,1.88,2v3.37h-1.21v-3c0-.82-.41-1.29-1.13-1.29a1.17,1.17,0,0,0-1.19,1.31v3h-1.21Z" transform="translate(-195.48 -140.47)"/><path class="cls-4" d="M472.57,291.29l.45-.91a3.46,3.46,0,0,0,1.88.56,1.48,1.48,0,0,0,1.67-1.62v-.41a2.21,2.21,0,0,1-1.86,1,2.37,2.37,0,0,1-2.4-2.47v0a2.38,2.38,0,0,1,2.4-2.48,2.28,2.28,0,0,1,1.85.9V285h1.21v4.2a2.7,2.7,0,0,1-.67,2,3,3,0,0,1-2.17.71A4.55,4.55,0,0,1,472.57,291.29Zm4-3.89v0a1.47,1.47,0,0,0-1.55-1.45,1.43,1.43,0,0,0-1.5,1.45v0a1.44,1.44,0,0,0,1.5,1.45A1.47,1.47,0,0,0,476.58,287.4Z" transform="translate(-195.48 -140.47)"/><path class="cls-4" d="M441.79,297H443v.88a2.11,2.11,0,0,1,1.8-1,2.53,2.53,0,0,1,2.45,2.74v0a2.53,2.53,0,0,1-2.45,2.74,2.16,2.16,0,0,1-1.8-.93v2.42h-1.2Zm4.22,2.65v0A1.56,1.56,0,0,0,444.5,298a1.59,1.59,0,0,0-1.54,1.69v0a1.59,1.59,0,0,0,1.54,1.69A1.55,1.55,0,0,0,446,299.67Z" transform="translate(-195.48 -140.47)"/><path class="cls-4" d="M448.21,299.68v0a2.61,2.61,0,0,1,2.57-2.75,2.55,2.55,0,0,1,2.53,2.84c0,.11,0,.22,0,.34h-3.88a1.47,1.47,0,0,0,1.52,1.34,1.92,1.92,0,0,0,1.43-.63l.71.63a2.67,2.67,0,0,1-2.16,1A2.63,2.63,0,0,1,448.21,299.68Zm3.9-.39a1.37,1.37,0,0,0-1.34-1.39,1.43,1.43,0,0,0-1.37,1.39Z" transform="translate(-195.48 -140.47)"/><path class="cls-4" d="M454.25,299.69v0a2.81,2.81,0,0,1,5.62,0v0a2.76,2.76,0,0,1-2.83,2.75A2.72,2.72,0,0,1,454.25,299.69Zm4.41,0v0A1.63,1.63,0,0,0,457,298a1.58,1.58,0,0,0-1.58,1.68v0a1.62,1.62,0,0,0,1.6,1.69A1.58,1.58,0,0,0,458.66,299.69Z" transform="translate(-195.48 -140.47)"/><path class="cls-4" d="M461.11,297h1.2v.88a2.11,2.11,0,0,1,1.8-1,2.53,2.53,0,0,1,2.45,2.74v0a2.53,2.53,0,0,1-2.45,2.74,2.16,2.16,0,0,1-1.8-.93v2.42h-1.2Zm4.22,2.65v0a1.56,1.56,0,0,0-1.51-1.69,1.59,1.59,0,0,0-1.54,1.69v0a1.59,1.59,0,0,0,1.54,1.69A1.55,1.55,0,0,0,465.33,299.67Z" transform="translate(-195.48 -140.47)"/><path class="cls-4" d="M467.88,295h1.21v7.3h-1.21Z" transform="translate(-195.48 -140.47)"/><path class="cls-4" d="M470.38,299.68v0a2.62,2.62,0,0,1,2.58-2.75,2.55,2.55,0,0,1,2.53,2.84c0,.11,0,.22,0,.34h-3.88a1.47,1.47,0,0,0,1.52,1.34,1.92,1.92,0,0,0,1.43-.63l.71.63a2.67,2.67,0,0,1-2.16,1A2.63,2.63,0,0,1,470.38,299.68Zm3.91-.39A1.37,1.37,0,0,0,473,297.9a1.43,1.43,0,0,0-1.37,1.39Z" transform="translate(-195.48 -140.47)"/><path class="cls-4" d="M476.21,303.24c.6-.12.89-.43.85-.94h-.52v-1.38h1.33v1.17a1.47,1.47,0,0,1-1.54,1.67Z" transform="translate(-195.48 -140.47)"/><path class="cls-4" d="M414.72,309h1.2v.88a2.11,2.11,0,0,1,1.8-1,2.53,2.53,0,0,1,2.45,2.74v0a2.53,2.53,0,0,1-2.45,2.74,2.16,2.16,0,0,1-1.8-.93v2.42h-1.2Zm4.22,2.65v0a1.56,1.56,0,0,0-1.51-1.69,1.59,1.59,0,0,0-1.54,1.69v0a1.59,1.59,0,0,0,1.54,1.69A1.55,1.55,0,0,0,418.94,311.67Z" transform="translate(-195.48 -140.47)"/><path class="cls-4" d="M421.43,309h1.2v1.19a1.87,1.87,0,0,1,1.87-1.29v1.28h-.07c-1.06,0-1.8.69-1.8,2.09v2h-1.2Z" transform="translate(-195.48 -140.47)"/><path class="cls-4" d="M425.1,311.68v0a2.61,2.61,0,0,1,2.57-2.75,2.55,2.55,0,0,1,2.53,2.84c0,.11,0,.22,0,.34H426.3a1.47,1.47,0,0,0,1.52,1.34,1.92,1.92,0,0,0,1.43-.63l.71.63a2.67,2.67,0,0,1-2.16,1A2.63,2.63,0,0,1,425.1,311.68Zm3.9-.39a1.37,1.37,0,0,0-1.34-1.39,1.43,1.43,0,0,0-1.37,1.39Z" transform="translate(-195.48 -140.47)"/><path class="cls-4" d="M431,313.61l.54-.82a3,3,0,0,0,1.72.65c.52,0,.82-.22.82-.57v0c0-.41-.56-.55-1.18-.74-.78-.22-1.64-.54-1.64-1.55v0a1.68,1.68,0,0,1,1.87-1.61,3.66,3.66,0,0,1,1.94.6l-.48.86a3.06,3.06,0,0,0-1.49-.5c-.47,0-.73.22-.73.52v0c0,.39.56.55,1.18.75s1.64.59,1.64,1.54v0c0,1.11-.86,1.66-2,1.66A3.66,3.66,0,0,1,431,313.61Z" transform="translate(-195.48 -140.47)"/><path class="cls-4" d="M436.14,311.68v0a2.62,2.62,0,0,1,2.58-2.75,2.55,2.55,0,0,1,2.53,2.84c0,.11,0,.22,0,.34h-3.88a1.47,1.47,0,0,0,1.52,1.34,1.92,1.92,0,0,0,1.43-.63l.71.63a2.67,2.67,0,0,1-2.16,1A2.63,2.63,0,0,1,436.14,311.68Zm3.91-.39a1.37,1.37,0,0,0-1.34-1.39,1.43,1.43,0,0,0-1.37,1.39Z" transform="translate(-195.48 -140.47)"/><path class="cls-4" d="M442.47,309h1.21v1.19a1.87,1.87,0,0,1,1.87-1.29v1.28h-.07c-1.06,0-1.8.69-1.8,2.09v2h-1.21Z" transform="translate(-195.48 -140.47)"/><path class="cls-4" d="M446.11,309h1.29l1.42,3.88,1.43-3.88h1.27l-2.16,5.32h-1.09Z" transform="translate(-195.48 -140.47)"/><path class="cls-4" d="M452.57,307.06h1.3v1.15h-1.3Zm.05,2h1.21v5.28h-1.21Z" transform="translate(-195.48 -140.47)"/><path class="cls-4" d="M455.41,309h1.21v.81a1.91,1.91,0,0,1,1.65-.92,1.81,1.81,0,0,1,1.88,2v3.37h-1.21v-3c0-.82-.41-1.29-1.13-1.29a1.17,1.17,0,0,0-1.19,1.31v3h-1.21Z" transform="translate(-195.48 -140.47)"/><path class="cls-4" d="M461.6,315.29l.45-.91a3.46,3.46,0,0,0,1.88.56,1.48,1.48,0,0,0,1.67-1.62v-.41a2.21,2.21,0,0,1-1.86,1,2.37,2.37,0,0,1-2.4-2.47v0a2.38,2.38,0,0,1,2.4-2.48,2.28,2.28,0,0,1,1.85.9V309h1.21v4.2a2.7,2.7,0,0,1-.67,2,3,3,0,0,1-2.17.71A4.55,4.55,0,0,1,461.6,315.29Zm4-3.89v0a1.47,1.47,0,0,0-1.55-1.45,1.43,1.43,0,0,0-1.5,1.45v0a1.44,1.44,0,0,0,1.5,1.45A1.47,1.47,0,0,0,465.61,311.4Z" transform="translate(-195.48 -140.47)"/><path class="cls-4" d="M471,311.69v0a2.73,2.73,0,0,1,2.75-2.76,2.67,2.67,0,0,1,2.11.91l-.76.81a1.77,1.77,0,0,0-1.36-.66,1.59,1.59,0,0,0-1.53,1.68v0a1.6,1.6,0,0,0,1.58,1.69,1.85,1.85,0,0,0,1.37-.65l.73.72a2.77,2.77,0,0,1-4.89-1.74Z" transform="translate(-195.48 -140.47)"/><path class="cls-4" d="M477,312.38V309h1.21v3c0,.82.41,1.28,1.13,1.28a1.17,1.17,0,0,0,1.19-1.3v-3h1.22v5.28H480.5v-.82a1.9,1.9,0,0,1-1.65.93A1.81,1.81,0,0,1,477,312.38Z" transform="translate(-195.48 -140.47)"/><path class="cls-4" d="M483.3,307h1.21v7.3H483.3Z" transform="translate(-195.48 -140.47)"/><path class="cls-4" d="M486.34,312.84v-2.78h-.67v-1h.67v-1.45h1.21V309H489v1h-1.42v2.59a.58.58,0,0,0,.65.66,1.63,1.63,0,0,0,.75-.18v1a2.09,2.09,0,0,1-1.09.27A1.35,1.35,0,0,1,486.34,312.84Z" transform="translate(-195.48 -140.47)"/><path class="cls-4" d="M490.14,312.38V309h1.21v3c0,.82.41,1.28,1.13,1.28a1.17,1.17,0,0,0,1.19-1.3v-3h1.22v5.28h-1.22v-.82a1.9,1.9,0,0,1-1.65.93A1.81,1.81,0,0,1,490.14,312.38Z" transform="translate(-195.48 -140.47)"/><path class="cls-4" d="M496.4,309h1.21v1.19a1.87,1.87,0,0,1,1.87-1.29v1.28h-.07c-1.06,0-1.8.69-1.8,2.09v2H496.4Z" transform="translate(-195.48 -140.47)"/><path class="cls-4" d="M500.06,311.68v0a2.62,2.62,0,0,1,2.58-2.75,2.55,2.55,0,0,1,2.53,2.84c0,.11,0,.22,0,.34h-3.88a1.47,1.47,0,0,0,1.52,1.34,1.92,1.92,0,0,0,1.43-.63l.71.63a2.67,2.67,0,0,1-2.16,1A2.63,2.63,0,0,1,500.06,311.68Zm3.91-.39a1.37,1.37,0,0,0-1.34-1.39,1.43,1.43,0,0,0-1.37,1.39Z" transform="translate(-195.48 -140.47)"/><path class="cls-4" d="M422.63,324.78v0c0-1.14.9-1.7,2.18-1.7a4.41,4.41,0,0,1,1.42.22v-.13c0-.75-.46-1.15-1.31-1.15a3.59,3.59,0,0,0-1.5.33l-.32-.95a4.43,4.43,0,0,1,2-.43,2.37,2.37,0,0,1,1.75.59,2.19,2.19,0,0,1,.57,1.63v3.13h-1.18v-.66a2.15,2.15,0,0,1-1.72.77A1.69,1.69,0,0,1,422.63,324.78Zm3.62-.38V324a3.35,3.35,0,0,0-1.2-.21c-.78,0-1.24.33-1.24.88v0c0,.51.45.8,1,.8C425.64,325.53,426.25,325.07,426.25,324.4Z" transform="translate(-195.48 -140.47)"/><path class="cls-4" d="M428.86,321h1.2v.81a1.91,1.91,0,0,1,1.65-.92,1.81,1.81,0,0,1,1.88,2v3.37h-1.21v-3c0-.82-.41-1.29-1.13-1.29a1.17,1.17,0,0,0-1.19,1.31v3h-1.2Z" transform="translate(-195.48 -140.47)"/><path class="cls-4" d="M434.79,323.67v0a2.51,2.51,0,0,1,2.44-2.74,2.16,2.16,0,0,1,1.8.93V319h1.21v7.3H439v-.88a2.11,2.11,0,0,1-1.8,1A2.52,2.52,0,0,1,434.79,323.67Zm4.26,0v0a1.58,1.58,0,0,0-1.53-1.69,1.55,1.55,0,0,0-1.52,1.69v0a1.57,1.57,0,0,0,1.52,1.69A1.59,1.59,0,0,0,439.05,323.67Z" transform="translate(-195.48 -140.47)"/><path class="cls-4" d="M444.77,321H446v1.19a1.87,1.87,0,0,1,1.87-1.29v1.28h-.07c-1.06,0-1.8.69-1.8,2.09v2h-1.2Z" transform="translate(-195.48 -140.47)"/><path class="cls-4" d="M448.42,323.68v0a2.62,2.62,0,0,1,2.58-2.75,2.55,2.55,0,0,1,2.53,2.84c0,.11,0,.22,0,.34h-3.88a1.47,1.47,0,0,0,1.52,1.34,1.92,1.92,0,0,0,1.43-.63l.71.63a2.67,2.67,0,0,1-2.16,1A2.63,2.63,0,0,1,448.42,323.68Zm3.91-.39A1.37,1.37,0,0,0,451,321.9a1.43,1.43,0,0,0-1.37,1.39Z" transform="translate(-195.48 -140.47)"/><path class="cls-4" d="M454.32,325.61l.55-.82a2.94,2.94,0,0,0,1.72.65c.52,0,.82-.22.82-.57v0c0-.41-.56-.55-1.18-.74-.78-.22-1.65-.54-1.65-1.55v0a1.68,1.68,0,0,1,1.88-1.61,3.66,3.66,0,0,1,1.94.6l-.48.86a3.06,3.06,0,0,0-1.49-.5c-.47,0-.74.22-.74.52v0c0,.39.57.55,1.19.75s1.64.59,1.64,1.54v0c0,1.11-.86,1.66-2,1.66A3.71,3.71,0,0,1,454.32,325.61Z" transform="translate(-195.48 -140.47)"/><path class="cls-4" d="M459.76,321H461v.88a2.11,2.11,0,0,1,1.8-1,2.53,2.53,0,0,1,2.45,2.74v0a2.53,2.53,0,0,1-2.45,2.74,2.16,2.16,0,0,1-1.8-.93v2.42h-1.21Zm4.23,2.65v0a1.56,1.56,0,0,0-1.51-1.69,1.59,1.59,0,0,0-1.54,1.69v0a1.59,1.59,0,0,0,1.54,1.69A1.55,1.55,0,0,0,464,323.67Z" transform="translate(-195.48 -140.47)"/><path class="cls-4" d="M466.18,323.68v0a2.62,2.62,0,0,1,2.58-2.75,2.55,2.55,0,0,1,2.53,2.84c0,.11,0,.22,0,.34h-3.88a1.47,1.47,0,0,0,1.52,1.34,1.92,1.92,0,0,0,1.43-.63l.71.63a2.67,2.67,0,0,1-2.16,1A2.63,2.63,0,0,1,466.18,323.68Zm3.91-.39a1.37,1.37,0,0,0-1.34-1.39,1.43,1.43,0,0,0-1.37,1.39Z" transform="translate(-195.48 -140.47)"/><path class="cls-4" d="M472.22,323.69v0a2.73,2.73,0,0,1,2.75-2.76,2.67,2.67,0,0,1,2.11.91l-.76.81A1.77,1.77,0,0,0,475,322a1.59,1.59,0,0,0-1.53,1.68v0a1.6,1.6,0,0,0,1.58,1.69,1.85,1.85,0,0,0,1.37-.65l.73.72a2.77,2.77,0,0,1-4.89-1.74Z" transform="translate(-195.48 -140.47)"/><path class="cls-4" d="M478.47,324.84v-2.78h-.67v-1h.67v-1.45h1.21V321h1.42v1h-1.42v2.59a.58.58,0,0,0,.65.66,1.63,1.63,0,0,0,.75-.18v1a2.09,2.09,0,0,1-1.09.27A1.35,1.35,0,0,1,478.47,324.84Z" transform="translate(-195.48 -140.47)"/><path class="cls-4" d="M482.35,319.06h1.3v1.15h-1.3Zm0,2h1.21v5.28H482.4Z" transform="translate(-195.48 -140.47)"/><path class="cls-4" d="M485.19,321h1.21v.81a1.91,1.91,0,0,1,1.65-.92,1.81,1.81,0,0,1,1.88,2v3.37h-1.21v-3c0-.82-.41-1.29-1.13-1.29a1.17,1.17,0,0,0-1.19,1.31v3h-1.21Z" transform="translate(-195.48 -140.47)"/><path class="cls-4" d="M491.38,327.29l.45-.91a3.46,3.46,0,0,0,1.88.56,1.48,1.48,0,0,0,1.67-1.62v-.41a2.21,2.21,0,0,1-1.86,1,2.37,2.37,0,0,1-2.4-2.47v0a2.38,2.38,0,0,1,2.4-2.48,2.28,2.28,0,0,1,1.85.9V321h1.21v4.2a2.7,2.7,0,0,1-.67,2,3,3,0,0,1-2.17.71A4.55,4.55,0,0,1,491.38,327.29Zm4-3.89v0a1.47,1.47,0,0,0-1.55-1.45,1.43,1.43,0,0,0-1.5,1.45v0a1.44,1.44,0,0,0,1.5,1.45A1.47,1.47,0,0,0,495.39,323.4Z" transform="translate(-195.48 -140.47)"/><path class="cls-4" d="M438.61,335.67v0a2.51,2.51,0,0,1,2.44-2.74,2.16,2.16,0,0,1,1.8.93V331h1.21v7.3h-1.21v-.88a2.11,2.11,0,0,1-1.8,1A2.52,2.52,0,0,1,438.61,335.67Zm4.26,0v0a1.58,1.58,0,0,0-1.53-1.69,1.55,1.55,0,0,0-1.52,1.69v0a1.57,1.57,0,0,0,1.52,1.69A1.59,1.59,0,0,0,442.87,335.67Z" transform="translate(-195.48 -140.47)"/><path class="cls-4" d="M445.61,331.06h1.29v1.15h-1.29Zm.05,2h1.21v5.28h-1.21Z" transform="translate(-195.48 -140.47)"/><path class="cls-4" d="M448,333h1.29l1.42,3.88,1.43-3.88h1.27l-2.16,5.32h-1.09Z" transform="translate(-195.48 -140.47)"/><path class="cls-4" d="M453.81,335.68v0a2.62,2.62,0,0,1,2.58-2.75,2.55,2.55,0,0,1,2.53,2.84c0,.11,0,.22,0,.34H455a1.47,1.47,0,0,0,1.52,1.34,1.92,1.92,0,0,0,1.43-.63l.71.63a2.67,2.67,0,0,1-2.16,1A2.63,2.63,0,0,1,453.81,335.68Zm3.91-.39a1.37,1.37,0,0,0-1.34-1.39,1.43,1.43,0,0,0-1.37,1.39Z" transform="translate(-195.48 -140.47)"/><path class="cls-4" d="M460.14,333h1.21v1.19a1.87,1.87,0,0,1,1.87-1.29v1.28h-.07c-1.06,0-1.8.69-1.8,2.09v2h-1.21Z" transform="translate(-195.48 -140.47)"/><path class="cls-4" d="M463.84,337.61l.54-.82a3,3,0,0,0,1.73.65c.52,0,.82-.22.82-.57v0c0-.41-.56-.55-1.18-.74-.78-.22-1.64-.54-1.64-1.55v0a1.68,1.68,0,0,1,1.87-1.61,3.66,3.66,0,0,1,1.94.6l-.48.86a3.06,3.06,0,0,0-1.49-.5c-.47,0-.74.22-.74.52v0c0,.39.57.55,1.19.75.77.24,1.64.59,1.64,1.54v0c0,1.11-.86,1.66-2,1.66A3.71,3.71,0,0,1,463.84,337.61Z" transform="translate(-195.48 -140.47)"/><path class="cls-4" d="M469.3,331.06h1.3v1.15h-1.3Zm.06,2h1.2v5.28h-1.2Z" transform="translate(-195.48 -140.47)"/><path class="cls-4" d="M472.39,336.84v-2.78h-.67v-1h.67v-1.45h1.21V333H475v1H473.6v2.59a.58.58,0,0,0,.65.66,1.63,1.63,0,0,0,.75-.18v1a2.09,2.09,0,0,1-1.09.27A1.35,1.35,0,0,1,472.39,336.84Z" transform="translate(-195.48 -140.47)"/><path class="cls-4" d="M479.91,333h1.26l-2.1,5.43c-.42,1.08-.89,1.48-1.74,1.48a2.52,2.52,0,0,1-1.25-.32l.41-.9a1.49,1.49,0,0,0,.71.2c.34,0,.55-.15.75-.6l-2.2-5.29h1.3l1.49,3.92Z" transform="translate(-195.48 -140.47)"/><path class="cls-4" d="M430.46,357.08l.31-.35a3,3,0,0,0,2.25.94c1,0,1.6-.53,1.6-1.25v0c0-.67-.35-1.06-1.78-1.34s-2.13-.82-2.13-1.78h0a1.83,1.83,0,0,1,2-1.66,3.17,3.17,0,0,1,2.16.76l-.3.37a2.72,2.72,0,0,0-1.88-.71c-.93,0-1.54.53-1.54,1.19v0c0,.66.34,1.07,1.84,1.38s2.07.82,2.07,1.73v0a1.85,1.85,0,0,1-2.09,1.72A3.56,3.56,0,0,1,430.46,357.08Z" transform="translate(-195.48 -140.47)"/><path class="cls-4" d="M436.62,351.7h2.1a3.14,3.14,0,0,1,3.35,3.13v0a3.16,3.16,0,0,1-3.35,3.15h-2.1Zm.47.43v5.44h1.63a2.67,2.67,0,0,0,2.86-2.7v0a2.69,2.69,0,0,0-2.86-2.72Z" transform="translate(-195.48 -140.47)"/><path class="cls-4" d="M443.38,354.87v0a3.15,3.15,0,0,1,3.12-3.26,3.31,3.31,0,0,1,2.3.83l-.3.35a2.88,2.88,0,0,0-2-.76,2.68,2.68,0,0,0-2.6,2.82v0a2.63,2.63,0,0,0,2.7,2.85,3.24,3.24,0,0,0,2-.73v-1.8h-2.11v-.44H449v2.43a3.77,3.77,0,0,1-2.48.95A3.07,3.07,0,0,1,443.38,354.87Z" transform="translate(-195.48 -140.47)"/><g class="cls-2"><path class="cls-8" d="M461,364.38a8.54,8.54,0,1,0-8.54-8.54,8.54,8.54,0,0,0,8.54,8.54" transform="translate(-195.48 -140.47)"/></g><path class="cls-4" d="M458.74,358.46l.66-.76a2.28,2.28,0,0,0,1.55.72,1.05,1.05,0,0,0,1.19-1v0c0-.61-.51-1-1.24-1a2.63,2.63,0,0,0-1.11.26l-.64-.42.17-2.95h3.61v.94h-2.7l-.09,1.41a2.41,2.41,0,0,1,.95-.17,1.86,1.86,0,0,1,2.1,1.89v0a2,2,0,0,1-2.23,2A3.08,3.08,0,0,1,458.74,358.46Z" transform="translate(-195.48 -140.47)"/><g class="cls-2"><path class="cls-9" d="M481.1,364.38a8.54,8.54,0,1,0-8.54-8.54,8.54,8.54,0,0,0,8.54,8.54" transform="translate(-195.48 -140.47)"/></g><path class="cls-4" d="M478.8,357.64v0a1.52,1.52,0,0,1,1.09-1.46,1.45,1.45,0,0,1-.88-1.34v0c0-.92.89-1.63,2.09-1.63s2.09.7,2.09,1.63v0a1.45,1.45,0,0,1-.88,1.34,1.54,1.54,0,0,1,1.09,1.44v0c0,1.08-1,1.75-2.3,1.75S478.8,358.68,478.8,357.64Zm3.57-.06v0c0-.55-.55-.91-1.27-.91s-1.25.36-1.25.91v0c0,.49.46.9,1.25.9S482.37,358.08,482.37,357.58Zm-.19-2.66v0c0-.46-.43-.84-1.08-.84s-1.07.38-1.07.83v0a1.09,1.09,0,0,0,2.15,0Z" transform="translate(-195.48 -140.47)"/><path class="cls-4" d="M213.67,397.16h1.23v2.91h3.34v-2.91h1.23v7h-1.23v-2.94H214.9v2.94h-1.23Z" transform="translate(-195.48 -140.47)"/><path class="cls-4" d="M220.84,401.54v0a2.62,2.62,0,0,1,2.58-2.74A2.55,2.55,0,0,1,226,401.6c0,.11,0,.22,0,.34h-3.88a1.47,1.47,0,0,0,1.52,1.34,1.92,1.92,0,0,0,1.43-.63l.71.63a2.67,2.67,0,0,1-2.16,1A2.63,2.63,0,0,1,220.84,401.54Zm3.91-.4a1.37,1.37,0,0,0-1.34-1.38,1.43,1.43,0,0,0-1.37,1.38Z" transform="translate(-195.48 -140.47)"/><path class="cls-4" d="M226.82,402.63v0c0-1.14.89-1.69,2.18-1.69a4.43,4.43,0,0,1,1.42.21V401c0-.74-.46-1.14-1.31-1.14a3.68,3.68,0,0,0-1.51.33l-.32-.95a4.51,4.51,0,0,1,2-.43,2.37,2.37,0,0,1,1.75.59,2.18,2.18,0,0,1,.57,1.63v3.12h-1.18v-.66a2.15,2.15,0,0,1-1.72.77A1.69,1.69,0,0,1,226.82,402.63Zm3.62-.38v-.36a3.35,3.35,0,0,0-1.2-.21c-.78,0-1.24.33-1.24.88v0c0,.51.45.8,1,.8C229.83,403.38,230.44,402.92,230.44,402.25Z" transform="translate(-195.48 -140.47)"/><path class="cls-4" d="M233.11,396.86h1.21v7.29h-1.21Z" transform="translate(-195.48 -140.47)"/><path class="cls-4" d="M236.15,402.69v-2.77h-.67v-1h.67v-1.45h1.21v1.45h1.42v1h-1.42v2.58a.58.58,0,0,0,.65.66,1.63,1.63,0,0,0,.75-.18v1a2.09,2.09,0,0,1-1.09.27A1.35,1.35,0,0,1,236.15,402.69Z" transform="translate(-195.48 -140.47)"/><path class="cls-4" d="M240,396.86h1.21v2.83a1.91,1.91,0,0,1,1.65-.92,1.81,1.81,0,0,1,1.88,2v3.36h-1.21v-3c0-.83-.41-1.29-1.13-1.29a1.17,1.17,0,0,0-1.19,1.3v3H240Z" transform="translate(-195.48 -140.47)"/><path class="cls-4" d="M249.73,398.88H251l-2.1,5.42c-.42,1.08-.89,1.48-1.74,1.48a2.49,2.49,0,0,1-1.25-.32l.41-.9a1.49,1.49,0,0,0,.71.2c.34,0,.55-.15.75-.6l-2.2-5.28h1.3l1.49,3.91Z" transform="translate(-195.48 -140.47)"/><path class="cls-4" d="M255.3,399.92h-.67v-1h.67v-.39a1.78,1.78,0,0,1,.43-1.3,1.6,1.6,0,0,1,1.19-.42,3.24,3.24,0,0,1,1,.14v1a2.13,2.13,0,0,0-.71-.13c-.46,0-.7.25-.7.8v.29h1.4v1h-1.38v4.23H255.3Zm3.51-3h1.3v1.15h-1.3Zm.05,2h1.21v5.27h-1.21Z" transform="translate(-195.48 -140.47)"/><path class="cls-4" d="M261.65,398.88h1.21v.81a1.91,1.91,0,0,1,1.65-.92,1.81,1.81,0,0,1,1.88,2v3.36h-1.21v-3c0-.83-.41-1.29-1.13-1.29a1.17,1.17,0,0,0-1.19,1.3v3h-1.21Z" transform="translate(-195.48 -140.47)"/><path class="cls-4" d="M267.5,402.63v0c0-1.14.89-1.69,2.18-1.69a4.43,4.43,0,0,1,1.42.21V401c0-.74-.46-1.14-1.31-1.14a3.68,3.68,0,0,0-1.51.33l-.32-.95a4.51,4.51,0,0,1,2-.43,2.37,2.37,0,0,1,1.75.59,2.18,2.18,0,0,1,.57,1.63v3.12h-1.18v-.66a2.15,2.15,0,0,1-1.72.77A1.69,1.69,0,0,1,267.5,402.63Zm3.62-.38v-.36a3.35,3.35,0,0,0-1.2-.21c-.78,0-1.24.33-1.24.88v0c0,.51.45.8,1,.8C270.51,403.38,271.12,402.92,271.12,402.25Z" transform="translate(-195.48 -140.47)"/><path class="cls-4" d="M273.72,398.88h1.21v.81a1.91,1.91,0,0,1,1.65-.92,1.81,1.81,0,0,1,1.88,2v3.36h-1.21v-3c0-.83-.41-1.29-1.13-1.29a1.17,1.17,0,0,0-1.19,1.3v3h-1.21Z" transform="translate(-195.48 -140.47)"/><path class="cls-4" d="M279.63,401.54v0a2.72,2.72,0,0,1,2.75-2.75,2.67,2.67,0,0,1,2.11.91l-.76.81a1.77,1.77,0,0,0-1.36-.66,1.58,1.58,0,0,0-1.53,1.67v0a1.6,1.6,0,0,0,1.58,1.69,1.85,1.85,0,0,0,1.37-.65l.73.72a2.77,2.77,0,0,1-4.89-1.74Z" transform="translate(-195.48 -140.47)"/><path class="cls-4" d="M285.19,401.54v0a2.62,2.62,0,0,1,2.58-2.74,2.55,2.55,0,0,1,2.53,2.83c0,.11,0,.22,0,.34H286.4a1.47,1.47,0,0,0,1.52,1.34,1.92,1.92,0,0,0,1.43-.63l.71.63a2.67,2.67,0,0,1-2.16,1A2.63,2.63,0,0,1,285.19,401.54Zm3.91-.4a1.37,1.37,0,0,0-1.34-1.38,1.43,1.43,0,0,0-1.37,1.38Z" transform="translate(-195.48 -140.47)"/><path class="cls-4" d="M291.09,403.46l.54-.82a3,3,0,0,0,1.73.65c.52,0,.82-.22.82-.57v0c0-.41-.56-.55-1.18-.74-.78-.21-1.65-.54-1.65-1.54v0a1.68,1.68,0,0,1,1.88-1.61,3.66,3.66,0,0,1,1.94.6l-.48.86a3.06,3.06,0,0,0-1.49-.5c-.47,0-.74.22-.74.52v0c0,.38.57.54,1.19.75.77.23,1.64.58,1.64,1.53v0c0,1.11-.86,1.66-2,1.66A3.71,3.71,0,0,1,291.09,403.46Z" transform="translate(-195.48 -140.47)"/><path class="cls-4" d="M296.11,405.09c.61-.12.9-.43.86-.94h-.52v-1.38h1.33v1.17a1.47,1.47,0,0,1-1.54,1.67Z" transform="translate(-195.48 -140.47)"/><path class="cls-4" d="M212.87,413.54v0a2.72,2.72,0,0,1,2.75-2.75,2.67,2.67,0,0,1,2.11.91l-.76.81a1.77,1.77,0,0,0-1.36-.66,1.58,1.58,0,0,0-1.53,1.67v0a1.6,1.6,0,0,0,1.58,1.69,1.85,1.85,0,0,0,1.37-.65l.73.72a2.77,2.77,0,0,1-4.89-1.74Z" transform="translate(-195.48 -140.47)"/><path class="cls-4" d="M218.52,414.63v0c0-1.14.89-1.69,2.18-1.69a4.43,4.43,0,0,1,1.42.21V413c0-.74-.46-1.14-1.31-1.14a3.68,3.68,0,0,0-1.51.33l-.32-.95a4.51,4.51,0,0,1,2-.43,2.37,2.37,0,0,1,1.75.59,2.18,2.18,0,0,1,.57,1.63v3.12h-1.18v-.66a2.15,2.15,0,0,1-1.72.77A1.69,1.69,0,0,1,218.52,414.63Zm3.62-.38v-.36a3.35,3.35,0,0,0-1.2-.21c-.78,0-1.24.33-1.24.88v0c0,.51.45.8,1,.8C221.53,415.38,222.14,414.92,222.14,414.25Z" transform="translate(-195.48 -140.47)"/><path class="cls-4" d="M224.74,410.88H226v.88a2.11,2.11,0,0,1,1.8-1,2.52,2.52,0,0,1,2.45,2.73v0a2.53,2.53,0,0,1-2.45,2.74,2.16,2.16,0,0,1-1.8-.93v2.42h-1.21Zm4.23,2.64v0a1.56,1.56,0,0,0-1.51-1.68,1.59,1.59,0,0,0-1.54,1.68v0a1.59,1.59,0,0,0,1.54,1.69A1.55,1.55,0,0,0,229,413.52Z" transform="translate(-195.48 -140.47)"/><path class="cls-4" d="M231.47,408.92h1.3v1.15h-1.3Zm.05,2h1.21v5.27h-1.21Z" transform="translate(-195.48 -140.47)"/><path class="cls-4" d="M234.56,414.69v-2.77h-.67v-1h.67v-1.45h1.21v1.45h1.42v1h-1.42v2.58a.58.58,0,0,0,.65.66,1.63,1.63,0,0,0,.75-.18v1a2.09,2.09,0,0,1-1.09.27A1.35,1.35,0,0,1,234.56,414.69Z" transform="translate(-195.48 -140.47)"/><path class="cls-4" d="M238.07,414.63v0c0-1.14.89-1.69,2.18-1.69a4.43,4.43,0,0,1,1.42.21V413c0-.74-.46-1.14-1.31-1.14a3.68,3.68,0,0,0-1.51.33l-.32-.95a4.51,4.51,0,0,1,2-.43,2.37,2.37,0,0,1,1.75.59,2.18,2.18,0,0,1,.57,1.63v3.12h-1.18v-.66a2.15,2.15,0,0,1-1.72.77A1.69,1.69,0,0,1,238.07,414.63Zm3.62-.38v-.36a3.35,3.35,0,0,0-1.2-.21c-.78,0-1.24.33-1.24.88v0c0,.51.45.8,1,.8C241.08,415.38,241.69,414.92,241.69,414.25Z" transform="translate(-195.48 -140.47)"/><path class="cls-4" d="M244.36,408.86h1.21v7.29h-1.21Z" transform="translate(-195.48 -140.47)"/><path class="cls-4" d="M249.8,414.63v0c0-1.14.89-1.69,2.18-1.69a4.43,4.43,0,0,1,1.42.21V413c0-.74-.46-1.14-1.31-1.14a3.68,3.68,0,0,0-1.51.33l-.32-.95a4.51,4.51,0,0,1,2-.43,2.37,2.37,0,0,1,1.75.59,2.18,2.18,0,0,1,.57,1.63v3.12h-1.18v-.66a2.15,2.15,0,0,1-1.72.77A1.69,1.69,0,0,1,249.8,414.63Zm3.62-.38v-.36a3.35,3.35,0,0,0-1.2-.21c-.78,0-1.24.33-1.24.88v0c0,.51.45.8,1,.8C252.81,415.38,253.42,414.92,253.42,414.25Z" transform="translate(-195.48 -140.47)"/><path class="cls-4" d="M256.09,408.86h1.21v7.29h-1.21Z" transform="translate(-195.48 -140.47)"/><path class="cls-4" d="M259,408.86h1.21v7.29H259Z" transform="translate(-195.48 -140.47)"/><path class="cls-4" d="M261.45,413.54v0a2.82,2.82,0,0,1,5.63,0v0a2.76,2.76,0,0,1-2.83,2.75A2.73,2.73,0,0,1,261.45,413.54Zm4.42,0v0a1.63,1.63,0,0,0-1.62-1.69,1.58,1.58,0,0,0-1.59,1.67v0a1.63,1.63,0,0,0,1.61,1.69A1.58,1.58,0,0,0,265.87,413.54Z" transform="translate(-195.48 -140.47)"/><path class="cls-4" d="M268,413.54v0a2.72,2.72,0,0,1,2.75-2.75,2.67,2.67,0,0,1,2.11.91l-.76.81a1.77,1.77,0,0,0-1.36-.66,1.58,1.58,0,0,0-1.53,1.67v0a1.6,1.6,0,0,0,1.58,1.69,1.85,1.85,0,0,0,1.37-.65l.73.72a2.77,2.77,0,0,1-4.89-1.74Z" transform="translate(-195.48 -140.47)"/><path class="cls-4" d="M273.67,414.63v0c0-1.14.89-1.69,2.18-1.69a4.43,4.43,0,0,1,1.42.21V413c0-.74-.46-1.14-1.31-1.14a3.68,3.68,0,0,0-1.51.33l-.32-.95a4.51,4.51,0,0,1,2-.43,2.37,2.37,0,0,1,1.75.59,2.18,2.18,0,0,1,.57,1.63v3.12h-1.18v-.66a2.15,2.15,0,0,1-1.72.77A1.69,1.69,0,0,1,273.67,414.63Zm3.62-.38v-.36a3.35,3.35,0,0,0-1.2-.21c-.78,0-1.24.33-1.24.88v0c0,.51.45.8,1,.8C276.68,415.38,277.29,414.92,277.29,414.25Z" transform="translate(-195.48 -140.47)"/><path class="cls-4" d="M280.09,414.69v-2.77h-.67v-1h.67v-1.45h1.21v1.45h1.42v1H281.3v2.58a.58.58,0,0,0,.65.66,1.63,1.63,0,0,0,.75-.18v1a2.09,2.09,0,0,1-1.09.27A1.35,1.35,0,0,1,280.09,414.69Z" transform="translate(-195.48 -140.47)"/><path class="cls-4" d="M284,408.92h1.3v1.15H284Zm0,2h1.21v5.27H284Z" transform="translate(-195.48 -140.47)"/><path class="cls-4" d="M286.52,413.54v0a2.82,2.82,0,0,1,5.63,0v0a2.76,2.76,0,0,1-2.83,2.75A2.73,2.73,0,0,1,286.52,413.54Zm4.42,0v0a1.63,1.63,0,0,0-1.62-1.69,1.58,1.58,0,0,0-1.59,1.67v0a1.63,1.63,0,0,0,1.61,1.69A1.58,1.58,0,0,0,290.94,413.54Z" transform="translate(-195.48 -140.47)"/><path class="cls-4" d="M293.38,410.88h1.21v.81a1.91,1.91,0,0,1,1.65-.92,1.81,1.81,0,0,1,1.88,2v3.36h-1.21v-3c0-.83-.41-1.29-1.13-1.29a1.17,1.17,0,0,0-1.19,1.3v3h-1.21Z" transform="translate(-195.48 -140.47)"/><path class="cls-4" d="M223.66,426.63v0c0-1.14.89-1.69,2.18-1.69a4.43,4.43,0,0,1,1.42.21V425c0-.74-.46-1.14-1.31-1.14a3.68,3.68,0,0,0-1.51.33l-.32-.95a4.51,4.51,0,0,1,2-.43,2.37,2.37,0,0,1,1.75.59,2.18,2.18,0,0,1,.57,1.63v3.12h-1.18v-.66a2.15,2.15,0,0,1-1.72.77A1.69,1.69,0,0,1,223.66,426.63Zm3.62-.38v-.36a3.35,3.35,0,0,0-1.2-.21c-.78,0-1.24.33-1.24.88v0c0,.51.45.8,1,.8C226.67,427.38,227.28,426.92,227.28,426.25Z" transform="translate(-195.48 -140.47)"/><path class="cls-4" d="M229.88,422.88h1.21v.81a1.91,1.91,0,0,1,1.65-.92,1.81,1.81,0,0,1,1.88,2v3.36h-1.21v-3c0-.83-.41-1.29-1.13-1.29a1.17,1.17,0,0,0-1.19,1.3v3h-1.21Z" transform="translate(-195.48 -140.47)"/><path class="cls-4" d="M235.81,425.52v0a2.52,2.52,0,0,1,2.45-2.73,2.16,2.16,0,0,1,1.8.93v-2.84h1.21v7.29h-1.21v-.88a2.11,2.11,0,0,1-1.8,1A2.53,2.53,0,0,1,235.81,425.52Zm4.27,0v0a1.58,1.58,0,0,0-1.53-1.68A1.54,1.54,0,0,0,237,425.5v0a1.57,1.57,0,0,0,1.52,1.69A1.59,1.59,0,0,0,240.08,425.52Z" transform="translate(-195.48 -140.47)"/><path class="cls-4" d="M247,427.33v.82h-1.21v-7.29H247v2.9a2.11,2.11,0,0,1,1.8-1,2.52,2.52,0,0,1,2.45,2.73v0a2.53,2.53,0,0,1-2.45,2.74A2.16,2.16,0,0,1,247,427.33Zm3-1.81v0a1.56,1.56,0,0,0-1.51-1.68A1.59,1.59,0,0,0,247,425.5v0a1.59,1.59,0,0,0,1.54,1.69A1.55,1.55,0,0,0,250,425.52Z" transform="translate(-195.48 -140.47)"/><path class="cls-4" d="M252.44,426.23v-3.35h1.21v3c0,.81.41,1.27,1.13,1.27a1.17,1.17,0,0,0,1.19-1.3v-3h1.22v5.27H256v-.82a1.9,1.9,0,0,1-1.65.93A1.81,1.81,0,0,1,252.44,426.23Z" transform="translate(-195.48 -140.47)"/><path class="cls-4" d="M258.27,427.46l.54-.82a3,3,0,0,0,1.73.65c.52,0,.82-.22.82-.57v0c0-.41-.56-.55-1.18-.74-.78-.21-1.65-.54-1.65-1.54v0a1.68,1.68,0,0,1,1.88-1.61,3.66,3.66,0,0,1,1.94.6l-.48.86a3.06,3.06,0,0,0-1.49-.5c-.47,0-.74.22-.74.52v0c0,.38.57.54,1.19.75.77.23,1.64.58,1.64,1.53v0c0,1.11-.86,1.66-2,1.66A3.71,3.71,0,0,1,258.27,427.46Z" transform="translate(-195.48 -140.47)"/><path class="cls-4" d="M263.73,420.92H265v1.15h-1.3Zm0,2H265v5.27h-1.21Z" transform="translate(-195.48 -140.47)"/><path class="cls-4" d="M266.57,422.88h1.21v.81a1.91,1.91,0,0,1,1.65-.92,1.81,1.81,0,0,1,1.88,2v3.36H270.1v-3c0-.83-.41-1.29-1.13-1.29a1.17,1.17,0,0,0-1.19,1.3v3h-1.21Z" transform="translate(-195.48 -140.47)"/><path class="cls-4" d="M272.48,425.54v0a2.62,2.62,0,0,1,2.58-2.74,2.55,2.55,0,0,1,2.53,2.83c0,.11,0,.22,0,.34h-3.88a1.47,1.47,0,0,0,1.52,1.34,1.92,1.92,0,0,0,1.43-.63l.71.63a2.67,2.67,0,0,1-2.16,1A2.63,2.63,0,0,1,272.48,425.54Zm3.91-.4a1.37,1.37,0,0,0-1.34-1.38,1.43,1.43,0,0,0-1.37,1.38Z" transform="translate(-195.48 -140.47)"/><path class="cls-4" d="M278.38,427.46l.54-.82a3,3,0,0,0,1.73.65c.52,0,.82-.22.82-.57v0c0-.41-.56-.55-1.18-.74-.78-.21-1.65-.54-1.65-1.54v0a1.68,1.68,0,0,1,1.88-1.61,3.66,3.66,0,0,1,1.94.6l-.48.86a3.06,3.06,0,0,0-1.49-.5c-.47,0-.74.22-.74.52v0c0,.38.57.54,1.19.75s1.64.58,1.64,1.53v0c0,1.11-.86,1.66-2,1.66A3.71,3.71,0,0,1,278.38,427.46Z" transform="translate(-195.48 -140.47)"/><path class="cls-4" d="M283.29,427.46l.54-.82a3,3,0,0,0,1.73.65c.52,0,.82-.22.82-.57v0c0-.41-.56-.55-1.18-.74-.78-.21-1.65-.54-1.65-1.54v0a1.68,1.68,0,0,1,1.88-1.61,3.66,3.66,0,0,1,1.94.6l-.48.86a3.06,3.06,0,0,0-1.49-.5c-.47,0-.74.22-.74.52v0c0,.38.57.54,1.19.75s1.64.58,1.64,1.53v0c0,1.11-.86,1.66-2,1.66A3.71,3.71,0,0,1,283.29,427.46Z" transform="translate(-195.48 -140.47)"/><path class="cls-4" d="M230.6,437.54v0a2.62,2.62,0,0,1,2.58-2.74,2.55,2.55,0,0,1,2.53,2.83c0,.11,0,.22,0,.34h-3.88a1.47,1.47,0,0,0,1.52,1.34,1.92,1.92,0,0,0,1.43-.63l.71.63a2.67,2.67,0,0,1-2.16,1A2.63,2.63,0,0,1,230.6,437.54Zm3.91-.4a1.37,1.37,0,0,0-1.34-1.38,1.43,1.43,0,0,0-1.37,1.38Z" transform="translate(-195.48 -140.47)"/><path class="cls-4" d="M238.79,436.65l1.22-1.77h1.29l-1.86,2.58,1.94,2.69h-1.32l-1.3-1.88-1.29,1.88h-1.29l1.93-2.69-1.86-2.58h1.32Z" transform="translate(-195.48 -140.47)"/><path class="cls-4" d="M242.44,434.88h1.21v.88a2.11,2.11,0,0,1,1.8-1,2.52,2.52,0,0,1,2.45,2.73v0a2.53,2.53,0,0,1-2.45,2.74,2.16,2.16,0,0,1-1.8-.93v2.42h-1.21Zm4.23,2.64v0a1.56,1.56,0,0,0-1.51-1.68,1.59,1.59,0,0,0-1.54,1.68v0a1.59,1.59,0,0,0,1.54,1.69A1.55,1.55,0,0,0,246.67,437.52Z" transform="translate(-195.48 -140.47)"/><path class="cls-4" d="M248.8,438.63v0c0-1.14.89-1.69,2.18-1.69a4.43,4.43,0,0,1,1.42.21V437c0-.74-.46-1.14-1.31-1.14a3.68,3.68,0,0,0-1.51.33l-.32-.95a4.51,4.51,0,0,1,2-.43,2.37,2.37,0,0,1,1.75.59,2.18,2.18,0,0,1,.57,1.63v3.12h-1.18v-.66a2.15,2.15,0,0,1-1.72.77A1.69,1.69,0,0,1,248.8,438.63Zm3.62-.38v-.36a3.35,3.35,0,0,0-1.2-.21c-.78,0-1.24.33-1.24.88v0c0,.51.45.8,1,.8C251.81,439.38,252.42,438.92,252.42,438.25Z" transform="translate(-195.48 -140.47)"/><path class="cls-4" d="M255,434.88h1.21v.81a1.91,1.91,0,0,1,1.65-.92,1.81,1.81,0,0,1,1.88,2v3.36h-1.21v-3c0-.83-.41-1.29-1.13-1.29a1.17,1.17,0,0,0-1.19,1.3v3H255Z" transform="translate(-195.48 -140.47)"/><path class="cls-4" d="M260.79,439.46l.54-.82a3,3,0,0,0,1.73.65c.52,0,.82-.22.82-.57v0c0-.41-.56-.55-1.18-.74-.78-.21-1.65-.54-1.65-1.54v0a1.68,1.68,0,0,1,1.88-1.61,3.66,3.66,0,0,1,1.94.6l-.48.86a3.06,3.06,0,0,0-1.49-.5c-.47,0-.74.22-.74.52v0c0,.38.57.54,1.19.75s1.64.58,1.64,1.53v0c0,1.11-.86,1.66-2,1.66A3.71,3.71,0,0,1,260.79,439.46Z" transform="translate(-195.48 -140.47)"/><path class="cls-4" d="M266.25,432.92h1.3v1.15h-1.3Zm.05,2h1.21v5.27H266.3Z" transform="translate(-195.48 -140.47)"/><path class="cls-4" d="M268.8,437.54v0a2.82,2.82,0,0,1,5.63,0v0a2.76,2.76,0,0,1-2.83,2.75A2.73,2.73,0,0,1,268.8,437.54Zm4.42,0v0a1.63,1.63,0,0,0-1.62-1.69A1.58,1.58,0,0,0,270,437.5v0a1.63,1.63,0,0,0,1.61,1.69A1.58,1.58,0,0,0,273.22,437.54Z" transform="translate(-195.48 -140.47)"/><path class="cls-4" d="M275.66,434.88h1.21v.81a1.91,1.91,0,0,1,1.65-.92,1.81,1.81,0,0,1,1.88,2v3.36h-1.21v-3c0-.83-.41-1.29-1.13-1.29a1.17,1.17,0,0,0-1.19,1.3v3h-1.21Z" transform="translate(-195.48 -140.47)"/><path class="cls-4" d="M216.25,465.94l.3-.35a3,3,0,0,0,2.26.93c.95,0,1.59-.53,1.59-1.25v0c0-.66-.35-1.05-1.78-1.34s-2.12-.82-2.12-1.77v0a1.82,1.82,0,0,1,2-1.66,3.16,3.16,0,0,1,2.16.77l-.29.37a2.74,2.74,0,0,0-1.89-.71c-.92,0-1.53.53-1.53,1.19h0c0,.67.34,1.08,1.83,1.38s2.07.82,2.07,1.74v0a1.85,1.85,0,0,1-2.09,1.72A3.59,3.59,0,0,1,216.25,465.94Z" transform="translate(-195.48 -140.47)"/><path class="cls-4" d="M222.41,460.55h2.1a3.14,3.14,0,0,1,3.35,3.14v0a3.16,3.16,0,0,1-3.35,3.15h-2.1Zm.47.44v5.43h1.63a2.67,2.67,0,0,0,2.86-2.7h0a2.69,2.69,0,0,0-2.86-2.72Z" transform="translate(-195.48 -140.47)"/><path class="cls-4" d="M229.17,463.72h0a3.14,3.14,0,0,1,3.11-3.26,3.32,3.32,0,0,1,2.31.82l-.31.36a2.79,2.79,0,0,0-2-.76,2.68,2.68,0,0,0-2.6,2.82v0a2.63,2.63,0,0,0,2.7,2.84,3.2,3.2,0,0,0,2-.72V464h-2.1v-.43h2.55V466a3.79,3.79,0,0,1-2.47.94A3.07,3.07,0,0,1,229.17,463.72Z" transform="translate(-195.48 -140.47)"/><g class="cls-2"><path class="cls-9" d="M246.81,473.24a8.55,8.55,0,1,0-8.54-8.54,8.54,8.54,0,0,0,8.54,8.54" transform="translate(-195.48 -140.47)"/></g><path class="cls-4" d="M244.51,466.5v0a1.52,1.52,0,0,1,1.08-1.47,1.44,1.44,0,0,1-.87-1.34h0c0-.93.88-1.63,2.09-1.63s2.09.7,2.09,1.63h0A1.44,1.44,0,0,1,248,465a1.56,1.56,0,0,1,1.08,1.45v0c0,1.07-1,1.74-2.29,1.74S244.51,467.54,244.51,466.5Zm3.56-.07h0c0-.55-.55-.92-1.26-.92s-1.26.37-1.26.92h0c0,.49.47.91,1.26.91S248.07,466.93,248.07,466.43Zm-.19-2.65v0c0-.47-.43-.84-1.07-.84s-1.08.37-1.08.83v0a1,1,0,0,0,1.08.89A1,1,0,0,0,247.88,463.78Z" transform="translate(-195.48 -140.47)"/><g class="cls-2"><path class="cls-10" d="M266.89,473.24a8.55,8.55,0,1,0-8.54-8.54,8.54,8.54,0,0,0,8.54,8.54" transform="translate(-195.48 -140.47)"/></g><path class="cls-4" d="M268.13,465.38a1.77,1.77,0,0,1-1.42.64,1.91,1.91,0,0,1-2.14-1.91v0a2.1,2.1,0,0,1,2.25-2.08,2.2,2.2,0,0,1,1.68.64,3.05,3.05,0,0,1,.72,2.3h0c0,1.94-1,3.28-2.58,3.28a2.87,2.87,0,0,1-1.93-.72l.58-.81a2,2,0,0,0,1.37.57C267.73,467.28,268.12,466.18,268.13,465.38Zm-.05-1.33v0a1.14,1.14,0,0,0-1.25-1.11,1.11,1.11,0,0,0-1.2,1.12v0a1.24,1.24,0,0,0,2.45,0Z" transform="translate(-195.48 -140.47)"/><g class="cls-2"><path class="cls-11" d="M287,473.24a8.55,8.55,0,1,0-8.54-8.54,8.54,8.54,0,0,0,8.54,8.54" transform="translate(-195.48 -140.47)"/></g><path class="cls-4" d="M284,463.15l-1.08.3-.23-.86,1.63-.52h.73v6.07h-1Z" transform="translate(-195.48 -140.47)"/><path class="cls-4" d="M286.34,467.3l2.07-1.76c.83-.71,1.13-1.08,1.13-1.63a.9.9,0,0,0-1-.93c-.55,0-.93.3-1.39.9l-.75-.59a2.45,2.45,0,0,1,2.22-1.26,1.8,1.8,0,0,1,2,1.8h0c0,1-.5,1.47-1.56,2.34l-1.24,1h2.86v.93h-4.35Z" transform="translate(-195.48 -140.47)"/><path class="cls-4" d="M364.76,401H366v7h-1.23Z" transform="translate(-195.48 -140.47)"/><path class="cls-4" d="M367.72,402.73h1.21v.81a1.9,1.9,0,0,1,1.64-.92,1.81,1.81,0,0,1,1.88,2V408h-1.21v-3c0-.82-.41-1.29-1.13-1.29a1.17,1.17,0,0,0-1.18,1.31v3h-1.21Z" transform="translate(-195.48 -140.47)"/><path class="cls-4" d="M373.92,402.73h1.2v.81a1.91,1.91,0,0,1,1.65-.92,1.81,1.81,0,0,1,1.88,2V408h-1.21v-3c0-.82-.41-1.29-1.13-1.29a1.17,1.17,0,0,0-1.19,1.31v3h-1.2Z" transform="translate(-195.48 -140.47)"/><path class="cls-4" d="M379.83,405.4v0a2.81,2.81,0,0,1,5.62,0v0a2.75,2.75,0,0,1-2.83,2.74A2.72,2.72,0,0,1,379.83,405.4Zm4.41,0v0a1.63,1.63,0,0,0-1.62-1.7,1.58,1.58,0,0,0-1.58,1.68v0a1.63,1.63,0,0,0,1.6,1.69A1.58,1.58,0,0,0,384.24,405.4Z" transform="translate(-195.48 -140.47)"/><path class="cls-4" d="M385.89,402.73h1.3l1.41,3.88,1.43-3.88h1.27L389.14,408h-1.08Z" transform="translate(-195.48 -140.47)"/><path class="cls-4" d="M391.75,406.49v0c0-1.14.89-1.7,2.17-1.7a4.41,4.41,0,0,1,1.42.22v-.13c0-.75-.46-1.15-1.3-1.15a3.68,3.68,0,0,0-1.51.33l-.32-1a4.49,4.49,0,0,1,2-.43,2.37,2.37,0,0,1,1.75.59,2.19,2.19,0,0,1,.57,1.63V408h-1.18v-.65a2.14,2.14,0,0,1-1.71.77A1.69,1.69,0,0,1,391.75,406.49Zm3.61-.38v-.36a3.34,3.34,0,0,0-1.19-.21c-.78,0-1.24.33-1.24.88v0c0,.51.45.8,1,.8C394.75,407.24,395.36,406.78,395.36,406.11Z" transform="translate(-195.48 -140.47)"/><path class="cls-4" d="M398.18,406.55v-2.78h-.67v-1h.67v-1.45h1.2v1.45h1.42v1h-1.42v2.59a.58.58,0,0,0,.65.66,1.63,1.63,0,0,0,.75-.18v1a2.09,2.09,0,0,1-1.09.26A1.34,1.34,0,0,1,398.18,406.55Z" transform="translate(-195.48 -140.47)"/><path class="cls-4" d="M402.06,400.77h1.29v1.15h-1.29Zm.05,2h1.2V408h-1.2Z" transform="translate(-195.48 -140.47)"/><path class="cls-4" d="M404.61,405.4v0a2.81,2.81,0,0,1,5.62,0v0a2.75,2.75,0,0,1-2.83,2.74A2.72,2.72,0,0,1,404.61,405.4Zm4.41,0v0a1.63,1.63,0,0,0-1.62-1.7,1.58,1.58,0,0,0-1.58,1.68v0a1.62,1.62,0,0,0,1.6,1.69A1.58,1.58,0,0,0,409,405.4Z" transform="translate(-195.48 -140.47)"/><path class="cls-4" d="M411.47,402.73h1.2v.81a1.91,1.91,0,0,1,1.65-.92,1.81,1.81,0,0,1,1.88,2V408H415v-3c0-.82-.41-1.29-1.13-1.29a1.17,1.17,0,0,0-1.19,1.31v3h-1.2Z" transform="translate(-195.48 -140.47)"/><path class="cls-4" d="M353.93,414.73h1.24l1.06,3.62,1.17-3.64h1l1.17,3.64,1.08-3.62h1.22L360.17,420h-1.09l-1.18-3.6-1.18,3.6h-1.08Z" transform="translate(-195.48 -140.47)"/><path class="cls-4" d="M363,412.77h1.3v1.15H363Zm.05,2h1.21V420h-1.21Z" transform="translate(-195.48 -140.47)"/><path class="cls-4" d="M366.09,418.55v-2.78h-.67v-1h.67v-1.45h1.21v1.45h1.41v1H367.3v2.59a.58.58,0,0,0,.65.66,1.62,1.62,0,0,0,.74-.18v1a2.06,2.06,0,0,1-1.08.26A1.35,1.35,0,0,1,366.09,418.55Z" transform="translate(-195.48 -140.47)"/><path class="cls-4" d="M370,412.71h1.21v2.83a1.9,1.9,0,0,1,1.64-.92,1.81,1.81,0,0,1,1.88,2V420h-1.21v-3c0-.82-.41-1.29-1.13-1.29a1.17,1.17,0,0,0-1.18,1.31v3H370Z" transform="translate(-195.48 -140.47)"/><path class="cls-4" d="M378.8,418.49v0c0-1.14.89-1.7,2.18-1.7a4.39,4.39,0,0,1,1.41.22v-.13c0-.75-.46-1.15-1.3-1.15a3.68,3.68,0,0,0-1.51.33l-.32-1a4.51,4.51,0,0,1,2-.43,2.36,2.36,0,0,1,1.74.59,2.19,2.19,0,0,1,.57,1.63V420h-1.18v-.65a2.12,2.12,0,0,1-1.71.77A1.69,1.69,0,0,1,378.8,418.49Zm3.61-.38v-.36a3.34,3.34,0,0,0-1.19-.21c-.78,0-1.24.33-1.24.88v0c0,.51.45.8,1,.8C381.8,419.24,382.41,418.78,382.41,418.11Z" transform="translate(-195.48 -140.47)"/><path class="cls-4" d="M388,414.73h1.21v.88a2.1,2.1,0,0,1,1.79-1,2.53,2.53,0,0,1,2.45,2.74v0a2.53,2.53,0,0,1-2.45,2.74,2.16,2.16,0,0,1-1.79-.93v2.41H388Zm4.22,2.65v0a1.56,1.56,0,0,0-1.51-1.69,1.59,1.59,0,0,0-1.53,1.69v0a1.59,1.59,0,0,0,1.53,1.69A1.55,1.55,0,0,0,392.24,417.38Z" transform="translate(-195.48 -140.47)"/><path class="cls-4" d="M394.44,417.4v0a2.81,2.81,0,0,1,5.62,0v0a2.75,2.75,0,0,1-2.83,2.74A2.72,2.72,0,0,1,394.44,417.4Zm4.41,0v0a1.63,1.63,0,0,0-1.62-1.7,1.58,1.58,0,0,0-1.58,1.68v0a1.62,1.62,0,0,0,1.6,1.69A1.58,1.58,0,0,0,398.85,417.4Z" transform="translate(-195.48 -140.47)"/><path class="cls-4" d="M400.87,419.32l.54-.82a3,3,0,0,0,1.72.65c.52,0,.82-.22.82-.57v0c0-.41-.56-.55-1.18-.74s-1.64-.54-1.64-1.55v0a1.68,1.68,0,0,1,1.87-1.61,3.66,3.66,0,0,1,1.94.6l-.48.86a3.06,3.06,0,0,0-1.49-.5c-.47,0-.73.22-.73.52v0c0,.39.56.55,1.18.75s1.64.59,1.64,1.54v0c0,1.1-.86,1.65-2,1.65A3.73,3.73,0,0,1,400.87,419.32Z" transform="translate(-195.48 -140.47)"/><path class="cls-4" d="M406.33,412.77h1.29v1.15h-1.29Zm.05,2h1.21V420h-1.21Z" transform="translate(-195.48 -140.47)"/><path class="cls-4" d="M409.42,418.55v-2.78h-.67v-1h.67v-1.45h1.2v1.45H412v1h-1.42v2.59a.58.58,0,0,0,.65.66,1.63,1.63,0,0,0,.75-.18v1a2.08,2.08,0,0,1-1.08.26A1.35,1.35,0,0,1,409.42,418.55Z" transform="translate(-195.48 -140.47)"/><path class="cls-4" d="M413.3,412.77h1.29v1.15H413.3Zm.05,2h1.21V420h-1.21Z" transform="translate(-195.48 -140.47)"/><path class="cls-4" d="M415.64,414.73h1.3l1.41,3.88,1.43-3.88h1.27L418.89,420H417.8Z" transform="translate(-195.48 -140.47)"/><path class="cls-4" d="M421.5,417.39v0a2.61,2.61,0,0,1,2.57-2.75,2.55,2.55,0,0,1,2.53,2.84c0,.11,0,.22,0,.34h-3.87a1.46,1.46,0,0,0,1.51,1.34,1.92,1.92,0,0,0,1.43-.63l.71.63a2.66,2.66,0,0,1-2.16,1A2.62,2.62,0,0,1,421.5,417.39Zm3.9-.39a1.37,1.37,0,0,0-1.34-1.39A1.41,1.41,0,0,0,422.7,417Z" transform="translate(-195.48 -140.47)"/><path class="cls-4" d="M373.74,424.77H375v1.15h-1.3Zm.05,2H375V432h-1.21Z" transform="translate(-195.48 -140.47)"/><path class="cls-4" d="M376.58,426.73h1.21v.8a1.89,1.89,0,0,1,1.61-.91,1.67,1.67,0,0,1,1.57.93,2.12,2.12,0,0,1,1.78-.93,1.77,1.77,0,0,1,1.85,2V432h-1.21v-3c0-.84-.39-1.29-1.07-1.29s-1.13.46-1.13,1.31v3H380v-3c0-.82-.4-1.28-1.06-1.28a1.15,1.15,0,0,0-1.13,1.31v3h-1.21Z" transform="translate(-195.48 -140.47)"/><path class="cls-4" d="M386.08,426.73h1.21v.88a2.11,2.11,0,0,1,1.79-1,2.53,2.53,0,0,1,2.45,2.74v0a2.53,2.53,0,0,1-2.45,2.74,2.18,2.18,0,0,1-1.79-.93v2.41h-1.21Zm4.22,2.65v0a1.56,1.56,0,0,0-1.51-1.69,1.59,1.59,0,0,0-1.53,1.69v0a1.59,1.59,0,0,0,1.53,1.69A1.55,1.55,0,0,0,390.3,429.38Z" transform="translate(-195.48 -140.47)"/><path class="cls-4" d="M392.44,430.49v0c0-1.14.89-1.7,2.18-1.7A4.35,4.35,0,0,1,396,429v-.13c0-.75-.46-1.15-1.3-1.15a3.68,3.68,0,0,0-1.51.33l-.32-1a4.51,4.51,0,0,1,2-.43,2.36,2.36,0,0,1,1.74.59,2.19,2.19,0,0,1,.57,1.63V432H396v-.65a2.11,2.11,0,0,1-1.71.77A1.69,1.69,0,0,1,392.44,430.49Zm3.61-.38v-.36a3.34,3.34,0,0,0-1.19-.21c-.78,0-1.24.33-1.24.88v0c0,.51.45.8,1,.8C395.44,431.24,396.05,430.78,396.05,430.11Z" transform="translate(-195.48 -140.47)"/><path class="cls-4" d="M398.37,429.4v0a2.73,2.73,0,0,1,2.75-2.76,2.66,2.66,0,0,1,2.1.91l-.76.81a1.76,1.76,0,0,0-1.36-.66,1.59,1.59,0,0,0-1.52,1.68v0a1.6,1.6,0,0,0,1.58,1.69,1.83,1.83,0,0,0,1.36-.65l.73.72a2.77,2.77,0,0,1-4.88-1.74Z" transform="translate(-195.48 -140.47)"/><path class="cls-4" d="M404.62,430.55v-2.78H404v-1h.67v-1.45h1.21v1.45h1.42v1h-1.42v2.59a.58.58,0,0,0,.65.66,1.66,1.66,0,0,0,.75-.18v1a2.09,2.09,0,0,1-1.09.26A1.35,1.35,0,0,1,404.62,430.55Z" transform="translate(-195.48 -140.47)"/><path class="cls-4" d="M380.94,450.09l.31-.35a3,3,0,0,0,2.26.93c.94,0,1.59-.53,1.59-1.25v0c0-.66-.35-1-1.78-1.34s-2.13-.82-2.13-1.77v0a1.83,1.83,0,0,1,2-1.66,3.16,3.16,0,0,1,2.16.77l-.3.37a2.68,2.68,0,0,0-1.88-.71c-.93,0-1.54.53-1.54,1.18v0c0,.67.34,1.07,1.84,1.38s2.07.82,2.07,1.74v0c0,1-.88,1.71-2.09,1.71A3.61,3.61,0,0,1,380.94,450.09Z" transform="translate(-195.48 -140.47)"/><path class="cls-4" d="M387.11,444.7h2.09a3.14,3.14,0,0,1,3.35,3.14h0A3.15,3.15,0,0,1,389.2,451h-2.09Zm.46.43v5.44h1.63a2.67,2.67,0,0,0,2.87-2.7v0a2.7,2.7,0,0,0-2.87-2.72Z" transform="translate(-195.48 -140.47)"/><path class="cls-4" d="M393.86,447.87v0a3.15,3.15,0,0,1,3.12-3.26,3.3,3.3,0,0,1,2.3.83l-.3.35a2.85,2.85,0,0,0-2-.75,2.67,2.67,0,0,0-2.6,2.82h0a2.63,2.63,0,0,0,2.7,2.85,3.23,3.23,0,0,0,2-.72v-1.81H397v-.43h2.56v2.43a3.82,3.82,0,0,1-2.48.94A3.07,3.07,0,0,1,393.86,447.87Z" transform="translate(-195.48 -140.47)"/><g class="cls-2"><path class="cls-10" d="M390.34,475.76a8.54,8.54,0,1,0-8.54-8.54,8.54,8.54,0,0,0,8.54,8.54" transform="translate(-195.48 -140.47)"/></g><path class="cls-4" d="M391.57,467.9a1.74,1.74,0,0,1-1.42.65,1.91,1.91,0,0,1-2.13-1.91v0a2.09,2.09,0,0,1,2.25-2.08,2.19,2.19,0,0,1,1.67.63,3.05,3.05,0,0,1,.73,2.3v0c0,1.94-1,3.28-2.58,3.28a2.87,2.87,0,0,1-1.93-.72l.57-.81a2,2,0,0,0,1.38.56C391.18,469.8,391.57,468.7,391.57,467.9Zm0-1.32v0a1.14,1.14,0,0,0-1.26-1.11,1.11,1.11,0,0,0-1.19,1.12v0a1.24,1.24,0,0,0,2.45,0Z" transform="translate(-195.48 -140.47)"/><path class="cls-4" d="M501.67,401h2.76a2.35,2.35,0,0,1,2.66,2.34v0c0,1.57-1.26,2.39-2.8,2.39H502.9V408h-1.23Zm2.66,3.64c.93,0,1.51-.52,1.51-1.25v0c0-.82-.59-1.25-1.51-1.25H502.9v2.52Z" transform="translate(-195.48 -140.47)"/><path class="cls-4" d="M507.88,405.39v0a2.62,2.62,0,0,1,2.58-2.75,2.55,2.55,0,0,1,2.53,2.84c0,.11,0,.22,0,.34h-3.88a1.47,1.47,0,0,0,1.52,1.34,1.92,1.92,0,0,0,1.43-.63l.71.63a2.66,2.66,0,0,1-2.16,1A2.63,2.63,0,0,1,507.88,405.39Zm3.91-.39a1.37,1.37,0,0,0-1.34-1.39,1.43,1.43,0,0,0-1.37,1.39Z" transform="translate(-195.48 -140.47)"/><path class="cls-4" d="M514.21,402.73h1.21v1.19a1.87,1.87,0,0,1,1.87-1.29v1.28h-.07c-1.06,0-1.8.69-1.8,2.09v2h-1.21Z" transform="translate(-195.48 -140.47)"/><path class="cls-4" d="M517.91,407.32l.54-.82a3,3,0,0,0,1.73.65c.52,0,.82-.22.82-.57v0c0-.41-.56-.55-1.18-.74-.78-.22-1.65-.54-1.65-1.55v0a1.68,1.68,0,0,1,1.88-1.61,3.66,3.66,0,0,1,1.94.6l-.48.86a3.06,3.06,0,0,0-1.49-.5c-.47,0-.74.22-.74.52v0c0,.39.57.55,1.19.75s1.64.59,1.64,1.54v0c0,1.1-.86,1.65-2,1.65A3.76,3.76,0,0,1,517.91,407.32Z" transform="translate(-195.48 -140.47)"/><path class="cls-4" d="M523.06,405.4v0a2.82,2.82,0,0,1,5.63,0v0a2.75,2.75,0,0,1-2.83,2.74A2.72,2.72,0,0,1,523.06,405.4Zm4.42,0v0a1.63,1.63,0,0,0-1.62-1.7,1.58,1.58,0,0,0-1.59,1.68v0a1.63,1.63,0,0,0,1.61,1.69A1.58,1.58,0,0,0,527.48,405.4Z" transform="translate(-195.48 -140.47)"/><path class="cls-4" d="M529.92,402.73h1.21v.81a1.91,1.91,0,0,1,1.65-.92,1.81,1.81,0,0,1,1.88,2V408h-1.21v-3c0-.82-.41-1.29-1.13-1.29a1.17,1.17,0,0,0-1.19,1.31v3h-1.21Z" transform="translate(-195.48 -140.47)"/><path class="cls-4" d="M536.12,402.73h1.21v.81a1.91,1.91,0,0,1,1.65-.92,1.81,1.81,0,0,1,1.88,2V408h-1.21v-3c0-.82-.41-1.29-1.13-1.29a1.17,1.17,0,0,0-1.19,1.31v3h-1.21Z" transform="translate(-195.48 -140.47)"/><path class="cls-4" d="M542,405.39v0a2.62,2.62,0,0,1,2.58-2.75,2.55,2.55,0,0,1,2.53,2.84c0,.11,0,.22,0,.34h-3.88a1.47,1.47,0,0,0,1.52,1.34,1.92,1.92,0,0,0,1.43-.63l.71.63a2.66,2.66,0,0,1-2.16,1A2.63,2.63,0,0,1,542,405.39Zm3.91-.39a1.37,1.37,0,0,0-1.34-1.39,1.43,1.43,0,0,0-1.37,1.39Z" transform="translate(-195.48 -140.47)"/><path class="cls-4" d="M548.43,400.71h1.21V408h-1.21Z" transform="translate(-195.48 -140.47)"/><path class="cls-4" d="M502.16,418.49v0c0-1.14.89-1.7,2.18-1.7a4.41,4.41,0,0,1,1.42.22v-.13c0-.75-.46-1.15-1.31-1.15a3.68,3.68,0,0,0-1.51.33l-.32-1a4.51,4.51,0,0,1,2-.43,2.37,2.37,0,0,1,1.75.59,2.19,2.19,0,0,1,.57,1.63V420h-1.18v-.65a2.15,2.15,0,0,1-1.72.77A1.69,1.69,0,0,1,502.16,418.49Zm3.62-.38v-.36a3.35,3.35,0,0,0-1.2-.21c-.78,0-1.24.33-1.24.88v0c0,.51.45.8,1,.8C505.17,419.24,505.78,418.78,505.78,418.11Z" transform="translate(-195.48 -140.47)"/><path class="cls-4" d="M508.38,414.73h1.21v.81a1.91,1.91,0,0,1,1.65-.92,1.81,1.81,0,0,1,1.88,2V420h-1.21v-3c0-.82-.41-1.29-1.13-1.29a1.17,1.17,0,0,0-1.19,1.31v3h-1.21Z" transform="translate(-195.48 -140.47)"/><path class="cls-4" d="M514.31,417.38v0a2.52,2.52,0,0,1,2.45-2.74,2.16,2.16,0,0,1,1.8.93v-2.84h1.21V420h-1.21v-.88a2.12,2.12,0,0,1-1.8,1A2.54,2.54,0,0,1,514.31,417.38Zm4.27,0v0a1.58,1.58,0,0,0-1.53-1.69,1.55,1.55,0,0,0-1.52,1.69v0a1.57,1.57,0,0,0,1.52,1.69A1.59,1.59,0,0,0,518.58,417.38Z" transform="translate(-195.48 -140.47)"/><path class="cls-4" d="M523.94,418.49v0c0-1.14.89-1.7,2.18-1.7a4.41,4.41,0,0,1,1.42.22v-.13c0-.75-.46-1.15-1.31-1.15a3.68,3.68,0,0,0-1.51.33l-.32-1a4.51,4.51,0,0,1,2-.43,2.37,2.37,0,0,1,1.75.59,2.19,2.19,0,0,1,.57,1.63V420h-1.18v-.65a2.15,2.15,0,0,1-1.72.77A1.69,1.69,0,0,1,523.94,418.49Zm3.62-.38v-.36a3.35,3.35,0,0,0-1.2-.21c-.78,0-1.24.33-1.24.88v0c0,.51.45.8,1,.8C527,419.24,527.56,418.78,527.56,418.11Z" transform="translate(-195.48 -140.47)"/><path class="cls-4" d="M529.73,419.32l.54-.82a3,3,0,0,0,1.73.65c.52,0,.82-.22.82-.57v0c0-.41-.56-.55-1.18-.74-.78-.22-1.65-.54-1.65-1.55v0a1.68,1.68,0,0,1,1.88-1.61,3.66,3.66,0,0,1,1.94.6l-.48.86a3.06,3.06,0,0,0-1.49-.5c-.47,0-.74.22-.74.52v0c0,.39.57.55,1.19.75s1.64.59,1.64,1.54v0c0,1.1-.86,1.65-2,1.65A3.76,3.76,0,0,1,529.73,419.32Z" transform="translate(-195.48 -140.47)"/><path class="cls-4" d="M534.64,419.32l.54-.82a3,3,0,0,0,1.73.65c.52,0,.82-.22.82-.57v0c0-.41-.56-.55-1.18-.74-.78-.22-1.65-.54-1.65-1.55v0a1.68,1.68,0,0,1,1.88-1.61,3.66,3.66,0,0,1,1.94.6l-.48.86a3.06,3.06,0,0,0-1.49-.5c-.47,0-.74.22-.74.52v0c0,.39.57.55,1.19.75s1.64.59,1.64,1.54v0c0,1.1-.86,1.65-2,1.65A3.76,3.76,0,0,1,534.64,419.32Z" transform="translate(-195.48 -140.47)"/><path class="cls-4" d="M539.79,417.39v0a2.62,2.62,0,0,1,2.58-2.75,2.55,2.55,0,0,1,2.53,2.84c0,.11,0,.22,0,.34H541a1.47,1.47,0,0,0,1.52,1.34,1.92,1.92,0,0,0,1.43-.63l.71.63a2.66,2.66,0,0,1-2.16,1A2.63,2.63,0,0,1,539.79,417.39Zm3.91-.39a1.37,1.37,0,0,0-1.34-1.39A1.43,1.43,0,0,0,541,417Z" transform="translate(-195.48 -140.47)"/><path class="cls-4" d="M546.37,418.55v-2.78h-.67v-1h.67v-1.45h1.21v1.45H549v1h-1.42v2.59a.58.58,0,0,0,.65.66,1.63,1.63,0,0,0,.75-.18v1a2.09,2.09,0,0,1-1.09.26A1.35,1.35,0,0,1,546.37,418.55Z" transform="translate(-195.48 -140.47)"/><path class="cls-4" d="M510.61,431.32l.54-.82a3,3,0,0,0,1.73.65c.52,0,.82-.22.82-.57v0c0-.41-.56-.55-1.18-.74-.78-.22-1.65-.54-1.65-1.55v0a1.68,1.68,0,0,1,1.88-1.61,3.66,3.66,0,0,1,1.94.6l-.48.86a3.06,3.06,0,0,0-1.49-.5c-.47,0-.74.22-.74.52v0c0,.39.57.55,1.19.75.77.24,1.64.59,1.64,1.54v0c0,1.1-.86,1.65-2,1.65A3.76,3.76,0,0,1,510.61,431.32Z" transform="translate(-195.48 -140.47)"/><path class="cls-4" d="M515.7,430.49v0c0-1.14.89-1.7,2.18-1.7a4.41,4.41,0,0,1,1.42.22v-.13c0-.75-.46-1.15-1.31-1.15a3.68,3.68,0,0,0-1.51.33l-.32-1a4.51,4.51,0,0,1,2-.43,2.37,2.37,0,0,1,1.75.59,2.19,2.19,0,0,1,.57,1.63V432h-1.18v-.65a2.15,2.15,0,0,1-1.72.77A1.69,1.69,0,0,1,515.7,430.49Zm3.62-.38v-.36a3.35,3.35,0,0,0-1.2-.21c-.78,0-1.24.33-1.24.88v0c0,.51.45.8,1,.8C518.71,431.24,519.32,430.78,519.32,430.11Z" transform="translate(-195.48 -140.47)"/><path class="cls-4" d="M522.19,427.77h-.67v-1h.67v-.39a1.78,1.78,0,0,1,.43-1.3,1.6,1.6,0,0,1,1.19-.42,3.24,3.24,0,0,1,1,.14v1a2.13,2.13,0,0,0-.71-.13c-.46,0-.7.25-.7.8v.29h1.4v1H523.4V432h-1.21Z" transform="translate(-195.48 -140.47)"/><path class="cls-4" d="M525.3,429.39v0a2.62,2.62,0,0,1,2.58-2.75,2.55,2.55,0,0,1,2.53,2.84c0,.11,0,.22,0,.34h-3.88a1.47,1.47,0,0,0,1.52,1.34,1.92,1.92,0,0,0,1.43-.63l.71.63a2.66,2.66,0,0,1-2.16,1A2.63,2.63,0,0,1,525.3,429.39Zm3.91-.39a1.37,1.37,0,0,0-1.34-1.39A1.43,1.43,0,0,0,526.5,429Z" transform="translate(-195.48 -140.47)"/><path class="cls-4" d="M531.88,430.55v-2.78h-.67v-1h.67v-1.45h1.21v1.45h1.42v1h-1.42v2.59a.58.58,0,0,0,.65.66,1.63,1.63,0,0,0,.75-.18v1a2.09,2.09,0,0,1-1.09.26A1.35,1.35,0,0,1,531.88,430.55Z" transform="translate(-195.48 -140.47)"/><path class="cls-4" d="M539.4,426.73h1.26l-2.1,5.43c-.42,1.07-.89,1.47-1.74,1.47a2.49,2.49,0,0,1-1.25-.32l.41-.89a1.6,1.6,0,0,0,.71.19c.34,0,.55-.15.75-.6l-2.2-5.28h1.3l1.49,3.92Z" transform="translate(-195.48 -140.47)"/><path class="cls-4" d="M516.22,450.09l.3-.35a3,3,0,0,0,2.26.93c1,0,1.6-.53,1.6-1.25v0c0-.66-.36-1-1.79-1.34s-2.12-.82-2.12-1.77v0a1.82,1.82,0,0,1,2-1.66,3.14,3.14,0,0,1,2.16.77l-.29.37a2.69,2.69,0,0,0-1.88-.71c-.93,0-1.54.53-1.54,1.18v0c0,.67.34,1.07,1.83,1.38s2.07.82,2.07,1.74v0c0,1-.87,1.71-2.09,1.71A3.58,3.58,0,0,1,516.22,450.09Z" transform="translate(-195.48 -140.47)"/><path class="cls-4" d="M522.38,444.7h2.1a3.14,3.14,0,0,1,3.35,3.14h0a3.15,3.15,0,0,1-3.35,3.15h-2.1Zm.47.43v5.44h1.63a2.67,2.67,0,0,0,2.86-2.7v0a2.7,2.7,0,0,0-2.86-2.72Z" transform="translate(-195.48 -140.47)"/><path class="cls-4" d="M529.14,447.87v0a3.15,3.15,0,0,1,3.11-3.26,3.32,3.32,0,0,1,2.31.83l-.31.35a2.83,2.83,0,0,0-2-.75,2.67,2.67,0,0,0-2.6,2.82h0a2.63,2.63,0,0,0,2.7,2.85,3.18,3.18,0,0,0,2-.72v-1.81h-2.1v-.43h2.56v2.43a3.82,3.82,0,0,1-2.48.94A3.07,3.07,0,0,1,529.14,447.87Z" transform="translate(-195.48 -140.47)"/><g class="cls-2"><path class="cls-7" d="M525.61,475.76a8.54,8.54,0,1,0-8.54-8.54,8.54,8.54,0,0,0,8.54,8.54" transform="translate(-195.48 -140.47)"/></g><path class="cls-4" d="M523.32,469.71l.74-.69a2,2,0,0,0,1.59.79.94.94,0,0,0,1-.91v0c0-.59-.55-.93-1.39-.93h-.49l-.17-.66,1.63-1.73h-2.61v-.92h4v.79L526,467.15c.92.12,1.78.58,1.78,1.69v0a1.93,1.93,0,0,1-2.11,1.91A2.87,2.87,0,0,1,523.32,469.71Z" transform="translate(-195.48 -140.47)"/></svg>