<svg xmlns="http://www.w3.org/2000/svg" xmlns:xlink="http://www.w3.org/1999/xlink" width="57" height="67" viewBox="0 0 57 67"><defs><clipPath id="a"><rect width="57" height="67" transform="translate(117)" fill="#9a4848"/></clipPath><clipPath id="b"><rect width="1119.325" height="74.767" transform="translate(0 0)" fill="#fff" stroke="#0face4" stroke-width="1"/></clipPath><clipPath id="c"><path d="M0,6.254H23.773V-15.7H0Z" transform="translate(0 15.696)" fill="none"/></clipPath><clipPath id="d"><path d="M0,10.542H121v-26H0Z" transform="translate(0 15.458)" fill="none"/></clipPath></defs><g transform="translate(-117)" clip-path="url(#a)"><g transform="translate(-10 -3)"><g transform="translate(123 0)"><g transform="translate(0 -5.255)" clip-path="url(#b)"><path d="M1058.131,74.191H62.791a17.6,17.6,0,0,1-14.374-7.707L1.019.5H1118.328l-45.716,65.829A17.619,17.619,0,0,1,1058.131,74.191Z" transform="translate(0 0.038)" fill="#fff" stroke="#0face4" stroke-width="1"/></g></g><text transform="translate(379 40)" fill="#0f233d" font-size="12" font-family="Montserrat-Light, Montserrat" font-weight="300"><tspan x="0" y="0">Relatório Anual de Sustentabilidade</tspan><tspan y="0" fill="#707070"> </tspan><tspan y="0" fill="#0face4" font-family="Montserrat-Medium, Montserrat" font-weight="500">2021</tspan></text><g transform="translate(184.227 39.696)"><g transform="translate(0 -15.696)" clip-path="url(#c)"><g transform="translate(0.699 21.251)"><path d="M0,0H22.375" fill="none" stroke="#0f233d" stroke-linecap="round" stroke-linejoin="round" stroke-width="2"/></g><g transform="translate(0.699 10.975)"><path d="M0,0H22.375" fill="none" stroke="#0f233d" stroke-linecap="round" stroke-linejoin="round" stroke-width="2"/></g><g transform="translate(0.699 0.699)"><path d="M0,0H22.375" fill="none" stroke="#0f233d" stroke-linecap="round" stroke-linejoin="round" stroke-width="2"/></g></g></g><g transform="translate(236 37.458)"><g transform="translate(0 -15.458)" clip-path="url(#d)"><g transform="translate(33.611 5.463)"><path d="M.753,3.589A7.208,7.208,0,0,0,6.678,6.3c2.236,0,3.82-.678,3.82-1.769,0-1.282-1.1-1.394-4.863-1.808C2.356,2.346-.16,1.724-.16-.95c0-2.56,2.478-4.313,6.278-4.313C9.1-5.263,11.783-4.188,13-2.568L11.169-.8a6.423,6.423,0,0,0-5.2-2.109c-2.385,0-3.465.772-3.465,1.677,0,.979.894,1.2,4.285,1.6,3.8.434,6.484.942,6.484,3.862,0,2.955-2.926,4.444-6.707,4.444C3.38,8.674.212,7.431-1.091,5.529Z" transform="translate(1.091 5.263)" fill="#0f233d"/></g></g><path d="M32.453,1.553H29.7V-12.086h2.748Z" transform="translate(20.504 2.246)" fill="#0f233d"/><g transform="translate(55.992 -9.84)"><path d="M3.1,5.6-1.779-5.38V5.6H-4.453V-8.039H-.264L4.242,2.181,8.75-8.039h4.133V5.6H10.189V-5.38L5.328,5.6Z" transform="translate(4.453 8.039)" fill="#0f233d"/></g><g transform="translate(0 -15.458)" clip-path="url(#d)"><g transform="translate(76.393 5.672)"><path d="M1.118,5.482H-1.62V-8.039H6.746c3.056,0,5.068,1.468,5.068,4.274C11.814-.978,9.8.51,6.746.51H1.118ZM6.6-1.844c1.584,0,2.515-.715,2.515-1.921,0-1.223-.931-1.921-2.515-1.921H1.118v3.842Z" transform="translate(1.62 8.039)" fill="#0f233d"/></g></g><g transform="translate(88.702 -9.84)"><path d="M4.046,0l6.769,13.639H7.843L6.291,10.468H-1.3l-1.571,3.171H-5.809L.96,0ZM-.142,8.093H5.114L2.494,2.755Z" transform="translate(5.809)" fill="#0f233d"/></g><g transform="translate(0 -15.458)" clip-path="url(#d)"><g transform="translate(107.193 5.671)"><path d="M1.118,5.482H-1.62V-8.039h8.4c3.038,0,5.086,1.468,5.086,4.255A3.912,3.912,0,0,1,8.776.191l3.411,5.291H9.038L5.889.455H1.118ZM6.634-1.863c1.6,0,2.515-.7,2.515-1.9,0-1.223-.915-1.921-2.515-1.921H1.118v3.823Z" transform="translate(1.62 8.039)" fill="#0f233d"/></g><g transform="translate(0.005 0.77)"><path d="M0,3.5,6.948,9.73l4.5-4.488A2.631,2.631,0,0,1,13.3,4.484h6.109c-1.3-1.119-7.683-7.28-10.371-9.609a6.605,6.605,0,0,0-1.646,1.2Z" transform="translate(0 5.125)" fill="#0f233d"/></g><g transform="translate(9.041 0.001)"><path d="M1.283,0A6.839,6.839,0,0,0-1.859.767C.83,3.1,7.212,9.259,8.513,10.376h6.953V0Z" transform="translate(1.859)" fill="#0face4"/></g><g transform="translate(6.95 10.376)"><path d="M7.927,2.528.98-3.707-3.519.779a2.626,2.626,0,0,1-1.854.76h-6.109c1.3,1.117,7.683,7.28,10.371,9.609a6.605,6.605,0,0,0,1.646-1.2Z" transform="translate(11.482 3.707)" fill="#0f233d"/></g><g transform="translate(0.001 15.624)"><path d="M5.792,4.207A6.818,6.818,0,0,0,8.934,3.44C6.245,1.109-.137-5.052-1.438-6.169H-8.389V4.207Z" transform="translate(8.389 6.169)" fill="#0face4"/></g></g></g><text transform="translate(1023 40)" fill="#0f233d" font-size="15" font-family="Montserrat-Regular, Montserrat"><tspan x="0" y="0" xml:space="preserve">EN  PT  ES</tspan></text><text transform="translate(1142 40)" fill="#0f233d" font-size="15" font-family="Montserrat-Regular, Montserrat"><tspan x="0" y="0">Áudio</tspan></text><text transform="translate(950 40)" fill="#0f233d" font-size="15" font-family="Montserrat-Regular, Montserrat"><tspan x="0" y="0">PDF</tspan></text><path d="M9.992,2A8,8,0,1,0,18,10,8,8,0,0,0,9.992,2Zm5.544,4.8h-2.36a12.519,12.519,0,0,0-1.1-2.848A6.424,6.424,0,0,1,15.536,6.8ZM10,3.632A11.269,11.269,0,0,1,11.528,6.8H8.472A11.269,11.269,0,0,1,10,3.632ZM3.808,11.6a6.258,6.258,0,0,1,0-3.2h2.7A13.212,13.212,0,0,0,6.4,10a13.212,13.212,0,0,0,.112,1.6Zm.656,1.6h2.36a12.519,12.519,0,0,0,1.1,2.848A6.389,6.389,0,0,1,4.464,13.2Zm2.36-6.4H4.464A6.389,6.389,0,0,1,7.928,3.952,12.519,12.519,0,0,0,6.824,6.8ZM10,16.368A11.269,11.269,0,0,1,8.472,13.2h3.056A11.269,11.269,0,0,1,10,16.368ZM11.872,11.6H8.128A11.77,11.77,0,0,1,8,10a11.668,11.668,0,0,1,.128-1.6h3.744A11.668,11.668,0,0,1,12,10,11.77,11.77,0,0,1,11.872,11.6Zm.2,4.448a12.519,12.519,0,0,0,1.1-2.848h2.36A6.424,6.424,0,0,1,12.072,16.048ZM13.488,11.6A13.212,13.212,0,0,0,13.6,10a13.212,13.212,0,0,0-.112-1.6h2.7a6.258,6.258,0,0,1,0,3.2Z" transform="translate(999 24)" fill="#0face4"/><path d="M17.174,14.5v2.863H5.882V14.5H4v2.863A1.9,1.9,0,0,0,5.882,19.27H17.174a1.9,1.9,0,0,0,1.882-1.909V14.5Zm-.941-3.817L14.906,9.335,12.469,11.8V4H10.587v7.8L8.15,9.335,6.823,10.681l4.705,4.772Z" transform="translate(924.567 22.348)" fill="#0face4"/><path d="M11,1A8,8,0,0,0,3,9v6.222a2.663,2.663,0,0,0,2.667,2.667H8.333V10.778H4.778V9A6.222,6.222,0,0,1,17.222,9v1.778H13.667v7.111h2.667A2.663,2.663,0,0,0,19,15.222V9A8,8,0,0,0,11,1Z" transform="translate(1117 25)" fill="#0face4"/><g transform="translate(948 22.588)"><g transform="translate(-14.052 0.411)"><rect width="4.958" height="22" transform="translate(0)" fill="none"/></g></g></g></g></svg>