<svg xmlns="http://www.w3.org/2000/svg" xmlns:xlink="http://www.w3.org/1999/xlink" width="57" height="67" viewBox="0 0 57 67"><defs><clipPath id="a"><rect width="57" height="67" fill="#9a4848"/></clipPath><clipPath id="b"><rect width="1119.325" height="74.767" fill="#fff" stroke="#0face4" stroke-width="1"/></clipPath><clipPath id="c"><path d="M23.773,6.254H0V-15.7H23.773Z" transform="translate(0 15.696)" fill="none"/></clipPath><clipPath id="d"><path d="M121,10.542H0v-26H121Z" transform="translate(0 15.458)" fill="none"/></clipPath></defs><g clip-path="url(#a)"><g transform="translate(-1058.325 -8.255)"><g clip-path="url(#b)"><path d="M61.216,74.191h995.34a17.6,17.6,0,0,0,14.374-7.707L1118.328.5H1.019L46.735,66.329A17.619,17.619,0,0,0,61.216,74.191Z" transform="translate(-0.022 0.037)" fill="#fff" stroke="#0face4" stroke-width="1"/></g><text transform="matrix(-1, 0, 0, 1, 863.325, 45.255)" fill="#0f233d" font-size="12" font-family="Montserrat-Light, Montserrat" font-weight="300"><tspan x="0" y="0">Relatório Anual de Sustentabilidade</tspan><tspan y="0" fill="#707070"> </tspan><tspan y="0" fill="#0face4" font-family="Montserrat-Medium, Montserrat" font-weight="500">2021</tspan></text><g transform="translate(1034.325 29.255)"><g clip-path="url(#c)"><g transform="translate(0.699 21.251)"><path d="M22.375,0H0" fill="none" stroke="#0f233d" stroke-linecap="round" stroke-linejoin="round" stroke-width="2"/></g><g transform="translate(0.699 10.975)"><path d="M22.375,0H0" fill="none" stroke="#0f233d" stroke-linecap="round" stroke-linejoin="round" stroke-width="2"/></g><g transform="translate(0.699 0.699)"><path d="M22.375,0H0" fill="none" stroke="#0f233d" stroke-linecap="round" stroke-linejoin="round" stroke-width="2"/></g></g></g><g transform="translate(885.325 27.255)"><g clip-path="url(#d)"><g transform="translate(73.024 5.463)"><path d="M11.43,3.589A7.208,7.208,0,0,1,5.5,6.3c-2.236,0-3.82-.678-3.82-1.769,0-1.282,1.1-1.394,4.863-1.808,3.279-.377,5.795-1,5.795-3.673,0-2.56-2.478-4.313-6.278-4.313C3.083-5.263.4-4.188-.812-2.568L1.014-.8a6.423,6.423,0,0,1,5.2-2.109c2.385,0,3.465.772,3.465,1.677,0,.979-.894,1.2-4.285,1.6C1.592.8-1.091,1.31-1.091,4.23c0,2.955,2.926,4.444,6.707,4.444,3.186,0,6.354-1.243,7.657-3.145Z" transform="translate(1.091 5.263)" fill="#0f233d"/></g></g><path d="M29.7,1.553h2.748V-12.086H29.7Z" transform="translate(38.338 17.704)" fill="#0f233d"/><g transform="translate(47.672 5.618)"><path d="M5.328,5.6,10.209-5.38V5.6h2.674V-8.039H8.694L4.188,2.181-.32-8.039H-4.453V5.6h2.694V-5.38L3.1,5.6Z" transform="translate(4.453 8.039)" fill="#0f233d"/></g><g clip-path="url(#d)"><g transform="translate(31.174 5.672)"><path d="M9.075,5.482h2.738V-8.039H3.448C.392-8.039-1.62-6.571-1.62-3.765-1.62-.978.392.51,3.448.51H9.075ZM3.6-1.844c-1.584,0-2.515-.715-2.515-1.921,0-1.223.931-1.921,2.515-1.921H9.075v3.842Z" transform="translate(1.62 8.039)" fill="#0f233d"/></g></g><g transform="translate(15.673 5.618)"><path d="M.96,0-5.809,13.639h2.972l1.552-3.171H6.308l1.571,3.171h2.937L4.046,0ZM5.149,8.093H-.107l2.62-5.337Z" transform="translate(5.809)" fill="#0f233d"/></g><g clip-path="url(#d)"><g transform="translate(-0.001 5.671)"><path d="M9.449,5.482h2.738V-8.039h-8.4C.747-8.039-1.3-6.571-1.3-3.784A3.912,3.912,0,0,0,1.791.191L-1.62,5.482H1.529L4.678.455h4.77ZM3.933-1.863c-1.6,0-2.515-.7-2.515-1.9,0-1.223.915-1.921,2.515-1.921H9.449v3.823Z" transform="translate(1.62 8.039)" fill="#0f233d"/></g><g transform="translate(101.586 0.77)"><path d="M19.409,3.5,12.462,9.73l-4.5-4.488a2.631,2.631,0,0,0-1.854-.759H0C1.3,3.366,7.683-2.8,10.371-5.125a6.605,6.605,0,0,1,1.646,1.2Z" transform="translate(0 5.125)" fill="#0f233d"/></g><g transform="translate(94.634 0.001)"><path d="M12.323,0a6.839,6.839,0,0,1,3.142.767C12.776,3.1,6.4,9.259,5.094,10.376H-1.859V0Z" transform="translate(1.859)" fill="#0face4"/></g><g transform="translate(94.641 10.376)"><path d="M-11.482,2.528l6.948-6.235L-.036.779a2.626,2.626,0,0,0,1.854.76H7.927C6.625,2.656.244,8.819-2.443,11.148a6.605,6.605,0,0,1-1.646-1.2Z" transform="translate(11.482 3.707)" fill="#0f233d"/></g><g transform="translate(103.676 15.624)"><path d="M-5.247,4.207A6.818,6.818,0,0,1-8.389,3.44C-5.7,1.109.682-5.052,1.983-6.169H8.934V4.207Z" transform="translate(8.389 6.169)" fill="#0face4"/></g></g></g><text transform="matrix(-1, 0, 0, 1, 219.325, 45.255)" fill="#0f233d" font-size="15" font-family="Montserrat-Regular, Montserrat"><tspan x="0" y="0" xml:space="preserve">EN  PT  ES</tspan></text><text transform="matrix(-1, 0, 0, 1, 100.325, 45.255)" fill="#0f233d" font-size="15" font-family="Montserrat-Regular, Montserrat"><tspan x="0" y="0">Áudio</tspan></text><text transform="matrix(-1, 0, 0, 1, 292.325, 45.255)" fill="#0f233d" font-size="15" font-family="Montserrat-Regular, Montserrat"><tspan x="0" y="0">PDF</tspan></text><path d="M10.008,2A8,8,0,1,1,2,10,8,8,0,0,1,10.008,2ZM4.464,6.8h2.36a12.519,12.519,0,0,1,1.1-2.848A6.424,6.424,0,0,0,4.464,6.8ZM10,3.632A11.269,11.269,0,0,0,8.472,6.8h3.056A11.269,11.269,0,0,0,10,3.632ZM16.192,11.6a6.258,6.258,0,0,0,0-3.2h-2.7A13.212,13.212,0,0,1,13.6,10a13.212,13.212,0,0,1-.112,1.6Zm-.656,1.6h-2.36a12.519,12.519,0,0,1-1.1,2.848A6.389,6.389,0,0,0,15.536,13.2Zm-2.36-6.4h2.36a6.389,6.389,0,0,0-3.464-2.848,12.519,12.519,0,0,1,1.1,2.848ZM10,16.368A11.269,11.269,0,0,0,11.528,13.2H8.472A11.269,11.269,0,0,0,10,16.368ZM8.128,11.6h3.744A11.77,11.77,0,0,0,12,10a11.668,11.668,0,0,0-.128-1.6H8.128A11.668,11.668,0,0,0,8,10,11.77,11.77,0,0,0,8.128,11.6Zm-.2,4.448a12.519,12.519,0,0,1-1.1-2.848H4.464A6.424,6.424,0,0,0,7.928,16.048ZM6.512,11.6A13.212,13.212,0,0,1,6.4,10a13.212,13.212,0,0,1,.112-1.6h-2.7a6.258,6.258,0,0,0,0,3.2Z" transform="translate(223.325 29.255)" fill="#0face4"/><path d="M5.882,14.5v2.863H17.174V14.5h1.882v2.863a1.9,1.9,0,0,1-1.882,1.909H5.882A1.9,1.9,0,0,1,4,17.361V14.5Zm.941-3.817L8.15,9.335,10.587,11.8V4h1.882v7.8l2.437-2.462,1.327,1.346-4.705,4.772Z" transform="translate(294.701 27.603)" fill="#0face4"/><path d="M11,1a8,8,0,0,1,8,8v6.222a2.663,2.663,0,0,1-2.667,2.667H13.667V10.778h3.556V9A6.222,6.222,0,0,0,4.778,9v1.778H8.333v7.111H5.667A2.663,2.663,0,0,1,3,15.222V9A8,8,0,0,1,11,1Z" transform="translate(103.325 30.255)" fill="#0face4"/><g transform="translate(303.419 28.255)"><g transform="translate(0 0)"><rect width="4.958" height="22" transform="translate(0)" fill="none"/></g></g></g></g></svg>